<svg id="图层_1" data-name="图层 1" xmlns="http://www.w3.org/2000/svg" width="120" height="60" viewBox="0 0 120 60">
  <defs>
    <style>
      .cls-1, .cls-2 {
        fill: #858585;
      }

      .cls-2 {
        fill-rule: evenodd;
      }

      .cls-3 {
        fill: #151515;
      }

      .cls-4 {
        fill: #fff;
      }
    </style>
  </defs>
  <title>343545</title>
  <g>
    <path class="cls-1" d="M5.87,10.94v2.83h-1V6.2H7a2.8,2.8,0,0,1,1.9.59,2.12,2.12,0,0,1,.68,1.69,2.28,2.28,0,0,1-.79,1.8,2.75,2.75,0,0,1-2,.65h-1Zm0-3.88v3h0.9a2,2,0,0,0,1.36-.4,1.45,1.45,0,0,0,.46-1.15q0-1.46-1.73-1.46h-1Z"/>
    <path class="cls-1" d="M16,13.77H14.83l-1.69-2.85A2.92,2.92,0,0,1,13,10.53h0s-0.06.16-.18,0.4L11,13.77H9.84L12.35,10,10,6.2h1.2l1.49,2.62a5.17,5.17,0,0,1,.26.54h0A6.24,6.24,0,0,1,13.3,8.8L14.86,6.2H16L13.62,10Z"/>
  </g>
  <path class="cls-2" d="M77.5,5.5v-3h-3v1h-3v-1h-3v1h-3v-1h-3v3h1v3h-1v3h1v3h-1v3h3v-1h3v1h3v-1h3v1h3v-3h-1v-3h1v-3h-1v-3h1Zm-2,3h-1v3h1v3h-1v1h-3v-1h-3v1h-3v-1h-1v-3h1v-3h-1v-3h1v-1h3v1h3v-1h3v1h1v3Zm-7,3h3v-3h-3v3Z"/>
  <path class="cls-1" d="M92.83,10a1.62,1.62,0,1,0-1.62,1.67A1.65,1.65,0,0,0,92.83,10ZM91.21,2.5A7.4,7.4,0,0,0,83.93,10H81.5l3.24,3.33L88,10H85.55a5.67,5.67,0,1,1,11.33,0,5.75,5.75,0,0,1-5.67,5.83,5.59,5.59,0,0,1-3.29-1.08L86.78,16a7.16,7.16,0,0,0,4.44,1.55A7.4,7.4,0,0,0,98.5,10,7.4,7.4,0,0,0,91.21,2.5Z"/>
  <path class="cls-1" d="M112.89,13.5h-3.11a3.32,3.32,0,0,1-3.11-3.5,3.88,3.88,0,0,1,.11-0.87h1.45a0.67,0.67,0,0,1,.2,0,1.89,1.89,0,0,0-.2.83,1.66,1.66,0,0,0,1.56,1.75h3.11A1.66,1.66,0,0,0,114.44,10a1.66,1.66,0,0,0-1.56-1.75h-1.11a4.33,4.33,0,0,0-1.25-1.75h2.36A3.32,3.32,0,0,1,116,10,3.32,3.32,0,0,1,112.89,13.5Zm-6.67-1.75h-1.11A1.66,1.66,0,0,1,103.56,10a1.66,1.66,0,0,1,1.56-1.75h3.11A1.66,1.66,0,0,1,109.78,10a1.9,1.9,0,0,1-.19.83,0.66,0.66,0,0,0,.19,0h1.45a3.83,3.83,0,0,0,.11-0.87,3.32,3.32,0,0,0-3.11-3.5h-3.11A3.32,3.32,0,0,0,102,10a3.32,3.32,0,0,0,3.11,3.5h2.36A4.33,4.33,0,0,1,106.22,11.75Z"/>
  <path class="cls-1" d="M33.5,3.83A1.5,1.5,0,1,1,32,5.33a1.5,1.5,0,0,1,1.5-1.5m0-1A2.5,2.5,0,1,0,36,5.33a2.5,2.5,0,0,0-2.5-2.5h0Z"/>
  <g>
    <path class="cls-1" d="M50.91,9.48a2.22,2.22,0,0,0,.53-1.53A2.15,2.15,0,0,0,51,6.46a1.73,1.73,0,0,0-1.35-.54,1.84,1.84,0,0,0-1.43.59,2.25,2.25,0,0,0-.53,1.56,2.1,2.1,0,0,0,.5,1.46,1.73,1.73,0,0,0,1.34.56A1.81,1.81,0,0,0,50.91,9.48Zm-2-2.39a0.79,0.79,0,0,1,.67-0.31,0.75,0.75,0,0,1,.64.3,1.47,1.47,0,0,1,.24.9,1.52,1.52,0,0,1-.24.92,0.76,0.76,0,0,1-.65.3,0.78,0.78,0,0,1-.65-0.29A1.41,1.41,0,0,1,48.65,8,1.47,1.47,0,0,1,48.9,7.1Z"/>
    <path class="cls-1" d="M55.48,10.33a1.73,1.73,0,0,0-1.35-.55,1.82,1.82,0,0,0-1.42.6,2.27,2.27,0,0,0-.53,1.56,2.11,2.11,0,0,0,.5,1.45A1.72,1.72,0,0,0,54,14a1.82,1.82,0,0,0,1.41-.59A2.2,2.2,0,0,0,56,11.84,2.18,2.18,0,0,0,55.48,10.33Zm-0.75,2.44a0.76,0.76,0,0,1-.65.31,0.78,0.78,0,0,1-.65-0.3,1.4,1.4,0,0,1-.25-0.88A1.5,1.5,0,0,1,53.42,11a0.79,0.79,0,0,1,.67-0.31,0.75,0.75,0,0,1,.63.29,1.43,1.43,0,0,1,.24.89A1.52,1.52,0,0,1,54.72,12.78Z"/>
    <polygon class="cls-1" points="53.72 6.03 48.7 13.89 49.82 13.89 54.84 6.03 53.72 6.03"/>
  </g>
  <rect class="cls-3" x="100" y="24.5" width="18" height="11" rx="1.8" ry="1.8"/>
  <path class="cls-1" d="M112.89,33.5h-3.11a3.32,3.32,0,0,1-3.11-3.5,3.88,3.88,0,0,1,.11-0.87h1.45a0.67,0.67,0,0,1,.2,0,1.89,1.89,0,0,0-.2.83,1.66,1.66,0,0,0,1.56,1.75h3.11a1.76,1.76,0,0,0,0-3.5h-1.11a4.33,4.33,0,0,0-1.25-1.75h2.36A3.32,3.32,0,0,1,116,30,3.32,3.32,0,0,1,112.89,33.5Zm-6.67-1.75h-1.11a1.76,1.76,0,0,1,0-3.5h3.11A1.66,1.66,0,0,1,109.78,30a1.9,1.9,0,0,1-.19.83,0.66,0.66,0,0,0,.19,0h1.45a3.83,3.83,0,0,0,.11-0.87,3.32,3.32,0,0,0-3.11-3.5h-3.11A3.32,3.32,0,0,0,102,30a3.32,3.32,0,0,0,3.11,3.5h2.36A4.33,4.33,0,0,1,106.22,31.75Z"/>
  <rect class="cls-3" x="100" y="44.5" width="18" height="11" rx="1.8" ry="1.8"/>
  <path class="cls-4" d="M112.89,53.5h-3.11a3.32,3.32,0,0,1-3.11-3.5,3.88,3.88,0,0,1,.11-0.87h1.45a0.67,0.67,0,0,1,.2,0,1.89,1.89,0,0,0-.2.83,1.66,1.66,0,0,0,1.56,1.75h3.11a1.76,1.76,0,0,0,0-3.5h-1.11a4.33,4.33,0,0,0-1.25-1.75h2.36A3.52,3.52,0,0,1,112.89,53.5Zm-6.67-1.75h-1.11a1.76,1.76,0,0,1,0-3.5h3.11A1.66,1.66,0,0,1,109.78,50a1.9,1.9,0,0,1-.19.83,0.66,0.66,0,0,0,.19,0h1.45a3.83,3.83,0,0,0,.11-0.87,3.32,3.32,0,0,0-3.11-3.5h-3.11a3.52,3.52,0,0,0,0,7h2.36A4.33,4.33,0,0,1,106.22,51.75Z"/>
</svg>
