<svg xmlns="http://www.w3.org/2000/svg" width="1200" height="90" viewBox="0 0 400 30">
	<defs>
		<style>
		.cls-1,.cls-8{fill:#282828;}
		.cls-1,.cls-12,.cls-13,.cls-2,.cls-3,.cls-4{fill-rule:evenodd;}
		.cls-2,.cls-9{fill:#fff;}
		.cls-11,.cls-3{fill:#b5b5b5;}
		.cls-10,.cls-4{fill:#1b1b1b;}
		.cls-5{fill:#4f4f4f;}
		.cls-6{fill:#353535;}
		.cls-12,.cls-7{fill:#ffa800;}
		.cls-13{fill:#c5c5c5;}
		</style>
	</defs>
	<title>icon sprite</title>
	<symbol id="saveNormal">
		<path class="cls-3" d="M13.53,2.46h0.3A0.14,0.14,0,0,0,14,2.32V0.87A0.14,0.14,0,0,0,13.83.72h-0.3a0.14,0.14,0,0,0-.14.14V2.32A0.14,0.14,0,0,0,13.53,2.46Zm1.15-1.74H14.44V2.46a0.25,0.25,0,0,1-.25.25H11.56a0.25,0.25,0,0,1-.25-0.25V0.72H11.08a0.36,0.36,0,0,0-.36.36V4.68a0.36,0.36,0,0,0,.36.36h3.6A0.36,0.36,0,0,0,15,4.68V1.08A0.36,0.36,0,0,0,14.68.72ZM14.44,4.45a0.14,0.14,0,0,1-.14.14H11.45a0.14,0.14,0,0,1-.14-0.14V4.2a0.14,0.14,0,0,1,.14-0.14H14.3a0.14,0.14,0,0,1,.14.14V4.45Zm0-.91a0.14,0.14,0,0,1-.14.14H11.45a0.14,0.14,0,0,1-.14-0.14V3.3a0.14,0.14,0,0,1,.14-0.14H14.3a0.14,0.14,0,0,1,.14.14V3.55Z"/>
	</symbol>
	<symbol id="saveHighlight">
		<path class="cls-2" d="M13.53,12.46h0.3A0.14,0.14,0,0,0,14,12.32V10.87a0.14,0.14,0,0,0-.14-0.14h-0.3a0.14,0.14,0,0,0-.14.14v1.45A0.14,0.14,0,0,0,13.53,12.46Zm1.15-1.74H14.44v1.74a0.25,0.25,0,0,1-.25.25H11.56a0.25,0.25,0,0,1-.25-0.25V10.72H11.08a0.36,0.36,0,0,0-.36.36v3.59a0.36,0.36,0,0,0,.36.36h3.6A0.36,0.36,0,0,0,15,14.68V11.08A0.36,0.36,0,0,0,14.68,10.72Zm-0.24,3.73a0.14,0.14,0,0,1-.14.14H11.45a0.14,0.14,0,0,1-.14-0.14V14.2a0.14,0.14,0,0,1,.14-0.14H14.3a0.14,0.14,0,0,1,.14.14v0.25Zm0-.91a0.14,0.14,0,0,1-.14.14H11.45a0.14,0.14,0,0,1-.14-0.14V13.3a0.14,0.14,0,0,1,.14-0.14H14.3a0.14,0.14,0,0,1,.14.14v0.25Z"/>
	</symbol>
	<symbol id="logoNormal">
		<path class="cls-6" d="M2.88,0A2.88,2.88,0,1,0,5.76,2.88,2.88,2.88,0,0,0,2.88,0ZM3.39,4.51a2.93,2.93,0,0,1-.32.41,0.85,0.85,0,0,1-.7.3,0.5,0.5,0,0,1-.52-0.55A2.13,2.13,0,0,1,2,4.08l0.5-1.29a0.93,0.93,0,0,0,.08-0.24,0.11,0.11,0,0,0,0-.08,0.09,0.09,0,0,0-.06,0,0.45,0.45,0,0,0-.27.15A1.7,1.7,0,0,0,2,2.84a0.12,0.12,0,0,1-.13.07s0-.06,0-0.16a2,2,0,0,1,.42-0.54A0.86,0.86,0,0,1,2.92,2a0.55,0.55,0,0,1,.35.14,0.4,0.4,0,0,1,.12.33,1.35,1.35,0,0,1-.1.42L2.69,4.41a0.88,0.88,0,0,0-.07.26,0.15,0.15,0,0,0,0,.09,0.09,0.09,0,0,0,.06,0,0.29,0.29,0,0,0,.21-0.11,1.89,1.89,0,0,0,.25-0.35,0.13,0.13,0,0,1,.12-0.07A0.15,0.15,0,0,1,3.39,4.51ZM3.65,1.4A0.48,0.48,0,0,1,3,1.4a0.48,0.48,0,0,1-.14-0.34A0.49,0.49,0,0,1,3.56.64a0.49,0.49,0,0,1,.17.17,0.47,0.47,0,0,1,.06.24A0.47,0.47,0,0,1,3.65,1.4Z"/>
	</symbol>
	<symbol id="logoHighlight">
		<path class="cls-7" d="M2.88,10a2.88,2.88,0,1,0,2.88,2.88A2.88,2.88,0,0,0,2.88,10Zm0.51,4.51a2.93,2.93,0,0,1-.32.41,0.85,0.85,0,0,1-.7.3,0.5,0.5,0,0,1-.52-0.55A2.13,2.13,0,0,1,2,14.08l0.5-1.29a0.93,0.93,0,0,0,.08-0.24,0.11,0.11,0,0,0,0-.08,0.09,0.09,0,0,0-.06,0,0.45,0.45,0,0,0-.27.15,1.7,1.7,0,0,0-.24.25,0.12,0.12,0,0,1-.13.07s0-.06,0-0.16a2,2,0,0,1,.42-0.54A0.86,0.86,0,0,1,2.92,12a0.55,0.55,0,0,1,.35.14,0.4,0.4,0,0,1,.12.33,1.35,1.35,0,0,1-.1.42L2.69,14.41a0.88,0.88,0,0,0-.07.26,0.15,0.15,0,0,0,0,.09,0.09,0.09,0,0,0,.06,0,0.29,0.29,0,0,0,.21-0.11,1.89,1.89,0,0,0,.25-0.35,0.13,0.13,0,0,1,.12-0.07A0.15,0.15,0,0,1,3.39,14.51ZM3.65,11.4a0.48,0.48,0,0,1-.69,0,0.48,0.48,0,0,1-.14-0.34,0.49,0.49,0,0,1,.73-0.42,0.49,0.49,0,0,1,.17.17A0.49,0.49,0,0,1,3.65,11.4Z"/>
	</symbol>
</svg>