<svg id="图层_6" data-name="图层 6" xmlns="http://www.w3.org/2000/svg" width="20" height="20" viewBox="0 0 20 20">
  <defs>
    <style>
      .cls-1 {
        fill: #fff;
      }
    </style>
  </defs>
  <title>34234234</title>
  <path d="M19.19,9.79a2,2,0,0,0-2.1-1.92A2.15,2.15,0,0,0,16,8.19l-0.33.19,0-.36a2,2,0,0,0-2.06-1.76,2.15,2.15,0,0,0-1.18.38l-0.26.17L12,6.53a2.07,2.07,0,0,0-2-1.34A2,2,0,0,0,8,6.95L8,7.3,7.66,7.12A2.16,2.16,0,0,0,6.58,6.8,2,2,0,0,0,4.52,8.57V8.74l-0.18,0a2.48,2.48,0,0,0-2.18,2.36v2.14A5.49,5.49,0,0,0,3.47,16.5c0.42,0.55,2.15,2.29,2.79,2.92A1.63,1.63,0,0,0,7.49,20H15a1.2,1.2,0,0,0,1.14-.82s2.37-5.28,2.76-6.57A7.91,7.91,0,0,0,19.19,9.79Zm-0.94,2.8c-0.5,1.26-2.69,6.34-2.71,6.39a0.53,0.53,0,0,1-.51.36H7.49A1,1,0,0,1,6.76,19c-0.65-.65-2.37-2.4-2.7-2.82a5.45,5.45,0,0,1-1.23-2.9V11.13A1.82,1.82,0,0,1,4.16,9.4l0.32-.1v3.43a0.3,0.3,0,0,0,.1.22,0.35,0.35,0,0,0,.48,0,0.3,0.3,0,0,0,.1-0.22v-4A1.34,1.34,0,0,1,6.58,7.42,1.34,1.34,0,0,1,8,8.72a0.35,0.35,0,0,0,.69,0V7.11a1.34,1.34,0,0,1,1.41-1.29,1.34,1.34,0,0,1,1.41,1.29V8.18a0.35,0.35,0,0,0,.69,0,1.34,1.34,0,0,1,1.41-1.29A1.34,1.34,0,0,1,15,8.18V9.79a0.35,0.35,0,0,0,.69,0,1.41,1.41,0,0,1,2.82,0A6.48,6.48,0,0,1,18.25,12.58Z"/>
  <path class="cls-1" d="M18.25,12.58c-0.5,1.26-2.69,6.34-2.71,6.39a0.53,0.53,0,0,1-.51.36H7.49A1,1,0,0,1,6.76,19c-0.65-.65-2.37-2.4-2.7-2.82a5.45,5.45,0,0,1-1.23-2.9V11.13A1.82,1.82,0,0,1,4.16,9.4l0.32-.1v3.43a0.3,0.3,0,0,0,.1.22,0.35,0.35,0,0,0,.48,0,0.3,0.3,0,0,0,.1-0.22v-4A1.34,1.34,0,0,1,6.58,7.42,1.34,1.34,0,0,1,8,8.72a0.35,0.35,0,0,0,.69,0V7.11a1.34,1.34,0,0,1,1.41-1.29,1.34,1.34,0,0,1,1.41,1.29V8.18a0.35,0.35,0,0,0,.69,0,1.34,1.34,0,0,1,1.41-1.29A1.34,1.34,0,0,1,15,8.18V9.79a0.35,0.35,0,0,0,.69,0,1.41,1.41,0,0,1,2.82,0A6.48,6.48,0,0,1,18.25,12.58Z"/>
</svg>
