<svg id="图层_6" data-name="图层 6" xmlns="http://www.w3.org/2000/svg" width="20" height="20" viewBox="0 0 20 20">
  <defs>
    <style>
      .cls-1 {
        fill: #fff;
      }
    </style>
  </defs>
  <title>工具图标05</title>
  <g>
    <path class="cls-1" d="M18.66,6.45a1.14,1.14,0,0,0-.4-0.08,1.32,1.32,0,0,0-1.09.84c-0.62,1.12-1.26,2.31-1.41,2.64a0.35,0.35,0,0,1-.34.17,0.53,0.53,0,0,1-.61-0.51c0.08-.43.74-3.38,1.08-5.41C16,3.53,15.88,2.5,15,2.42H14.84A1.35,1.35,0,0,0,13.55,3.7c-0.19,1-1.06,4.36-1.16,4.92a0.53,0.53,0,0,1-.54.46,0.64,0.64,0,0,1-.64-0.69L10.93,2A1.2,1.2,0,0,0,9.86.67h0A1.26,1.26,0,0,0,8.58,2C8.53,4,8.52,8,8.56,8.56a0.48,0.48,0,0,1-.44.55A0.49,0.49,0,0,1,7.7,8.82C7.18,7.9,5.51,4.21,5.51,4.21A1.67,1.67,0,0,0,4.26,3a1.18,1.18,0,0,0-.46.1c-1,.4-0.69,1.62-0.53,2,1,2.27,2.82,6.29,3,6.93a0.77,0.77,0,0,1-.84.85A0.68,0.68,0,0,1,5,12.72a9.55,9.55,0,0,0-2.59-1.85A1.6,1.6,0,0,0,2,10.82a1.62,1.62,0,0,0-1,.32A0.76,0.76,0,0,0,1,12.22L6.72,19a1,1,0,0,0,.73.33H15A0.53,0.53,0,0,0,15.5,19L19.13,8.09A1.32,1.32,0,0,0,18.66,6.45Z"/>
    <path d="M9.86,0.67A1.2,1.2,0,0,1,10.93,2l0.29,6.39a0.64,0.64,0,0,0,.64.69,0.53,0.53,0,0,0,.54-0.46c0.1-.55,1-3.93,1.16-4.92a1.35,1.35,0,0,1,1.29-1.29H15c0.86,0.09,1,1.11.86,1.68-0.33,2-1,5-1.08,5.41a0.53,0.53,0,0,0,.61.51,0.35,0.35,0,0,0,.34-0.17c0.15-.32.79-1.51,1.41-2.64a1.32,1.32,0,0,1,1.09-.84,1.14,1.14,0,0,1,.4.08,1.32,1.32,0,0,1,.47,1.64L15.5,19a0.53,0.53,0,0,1-.51.36H7.44A1,1,0,0,1,6.72,19L1,12.22A0.76,0.76,0,0,1,1,11.14a1.62,1.62,0,0,1,1-.32,1.6,1.6,0,0,1,.4.05A9.55,9.55,0,0,1,5,12.72a0.68,0.68,0,0,0,.43.14A0.77,0.77,0,0,0,6.27,12c-0.18-.64-2-4.66-3-6.93-0.16-.35-0.43-1.57.53-2A1.18,1.18,0,0,1,4.26,3,1.67,1.67,0,0,1,5.51,4.21S7.18,7.9,7.7,8.82a0.49,0.49,0,0,0,.42.29,0.48,0.48,0,0,0,.44-0.55c0-.61,0-4.52,0-6.57A1.26,1.26,0,0,1,9.84.67h0m0-.67h0A1.91,1.91,0,0,0,7.91,2c0,1.58-.05,4.27,0,5.72C7.19,6.3,6.13,4,6.12,3.93l0-.1A2.16,2.16,0,0,0,4.26,2.35a1.85,1.85,0,0,0-.72.15,1.72,1.72,0,0,0-1,1,2.65,2.65,0,0,0,.08,1.89c1.28,2.8,2.73,6.11,2.95,6.77a0.32,0.32,0,0,1-.18.06A5.53,5.53,0,0,1,5,11.82a7.08,7.08,0,0,0-2.4-1.6,2.27,2.27,0,0,0-2,.41,1.43,1.43,0,0,0-.17,2l5.77,6.78A1.63,1.63,0,0,0,7.44,20H15a1.2,1.2,0,0,0,1.14-.82L19.76,8.31a2.32,2.32,0,0,0,0-1.67,1.46,1.46,0,0,0-.82-0.81,1.81,1.81,0,0,0-.64-0.12,1.92,1.92,0,0,0-1.68,1.18C16.27,7.44,16,8,15.7,8.51c0.24-1.15.62-2.94,0.84-4.31a2.52,2.52,0,0,0-.37-1.85,1.52,1.52,0,0,0-1.08-.59H14.84A2,2,0,0,0,12.9,3.57c-0.1.53-.41,1.79-0.68,2.91C12,7.16,11.92,7.68,11.84,8L11.59,2A1.83,1.83,0,0,0,9.86,0h0Z"/>
  </g>
</svg>
