<svg id="图层_1" data-name="图层 1" xmlns="http://www.w3.org/2000/svg" width="1280" height="160" viewBox="0 0 1280 160">
  <defs>
    <style>
      .cls-1 {
        fill: #303030;
      }

      .cls-1, .cls-3, .cls-5, .cls-7, .cls-8 {
        fill-rule: evenodd;
      }

      .cls-2, .cls-3 {
        fill: #b5b5b5;
      }

      .cls-4, .cls-5 {
        fill: #fff;
      }

      .cls-6, .cls-7 {
        fill: #4f4f4f;
      }

      .cls-8 {
        fill: #151515;
      }

      .cls-9 {
        fill: none;
      }
    </style>
  </defs>
  <title>3434</title>
  <path class="cls-1" d="M362,40h26a2,2,0,0,1,2,2V68a2,2,0,0,1-2,2H362a2,2,0,0,1-2-2V42A2,2,0,0,1,362,40Z"/>
  <path class="cls-1" d="M402,40h26a2,2,0,0,1,2,2V68a2,2,0,0,1-2,2H402a2,2,0,0,1-2-2V42A2,2,0,0,1,402,40Z"/>
  <path class="cls-1" d="M442,40h26a2,2,0,0,1,2,2V68a2,2,0,0,1-2,2H442a2,2,0,0,1-2-2V42A2,2,0,0,1,442,40Z"/>
  <path class="cls-1" d="M482,40h26a2,2,0,0,1,2,2V68a2,2,0,0,1-2,2H482a2,2,0,0,1-2-2V42A2,2,0,0,1,482,40Z"/>
  <path class="cls-1" d="M522,40h26a2,2,0,0,1,2,2V68a2,2,0,0,1-2,2H522a2,2,0,0,1-2-2V42A2,2,0,0,1,522,40Z"/>
  <path class="cls-1" d="M562,40h26a2,2,0,0,1,2,2V68a2,2,0,0,1-2,2H562a2,2,0,0,1-2-2V42A2,2,0,0,1,562,40Z"/>
  <path class="cls-1" d="M602,40h26a2,2,0,0,1,2,2V68a2,2,0,0,1-2,2H602a2,2,0,0,1-2-2V42A2,2,0,0,1,602,40Z"/>
  <g>
    <path class="cls-2" d="M372.17,17.17l0.16-.11,0.22-.16,0.14,0.16,0.1,0.11L374,18.53l0.38,0.4-0.1,0-0.38.11-2.9.8a0.91,0.91,0,0,0-.7.6,0.87,0.87,0,0,0,1.14,1.06l5.12-1a1,1,0,0,0,.86-0.84,1,1,0,0,0-.25-0.85l-1.85-2.41-0.44-.59,2.95-2.09,0.88,1.7a0.77,0.77,0,0,0,.78.46c0.58,0,1.16,0,1.75,0s1,0,1.45-.09a0.59,0.59,0,0,0,.54-0.67,0.63,0.63,0,0,0-.65-0.57c-0.79,0-1.58-.07-2.37-0.12a0.48,0.48,0,0,1-.27-0.25c-0.17-.37-0.31-0.76-0.47-1.14a4.66,4.66,0,0,0-.55-1.13c-1-1.21-2-2.39-3.09-3.57a0.76,0.76,0,0,0-.5-0.24q-1.81,0-3.61.09a0.59,0.59,0,0,0-.65.57s0,0.08,0,.11h0a0.63,0.63,0,0,0,.71.57l2.87,0.11a0.39,0.39,0,0,1,.26.09c0.27,0.33.53,0.68,0.8,1l-0.21.2-0.12.11-0.09.08-1.86,1.67-0.13.11L372,14a1.29,1.29,0,0,0-.45.77s0,0.07,0,.11a1.19,1.19,0,0,0,0,.15l-2.3,1.84-0.17.13-0.14.11"/>
    <path class="cls-2" d="M368.92,17.17L366.67,19l-0.14.11h3L369.7,19l2.47-1.79"/>
    <path class="cls-2" d="M366.53,19.08l-0.57.45a0.88,0.88,0,0,0-.41.86,0.89,0.89,0,0,0,1.48.51l2.52-1.82"/>
    <path class="cls-2" d="M380.1,11.38a1.69,1.69,0,1,0-1.73-1.7A1.72,1.72,0,0,0,380.1,11.38Z"/>
  </g>
  <g>
    <path class="cls-2" d="M413.9,12.8a0.34,0.34,0,0,1-.28-0.15l-1-1.58-1.9,0a0.34,0.34,0,0,1-.26-0.55L411.6,9,411,7.18a0.34,0.34,0,0,1,.44-0.41l1.78,0.67,1.56-1.08a0.34,0.34,0,0,1,.53.29l-0.09,1.89,1.52,1.15a0.34,0.34,0,0,1-.11.59l-1.83.5-0.62,1.79a0.34,0.34,0,0,1-.28.22h0Z"/>
    <path class="cls-2" d="M407.9,15.44a0.34,0.34,0,0,1-.34-0.35l0.05-1.18-0.95-.71a0.34,0.34,0,0,1,.11-0.59l1.14-.31,0.39-1.12a0.34,0.34,0,0,1,.6-0.08l0.65,1,1.19,0a0.34,0.34,0,0,1,.26.55l-0.74.92,0.34,1.13a0.34,0.34,0,0,1-.44.41l-1.11-.42-1,.68A0.34,0.34,0,0,1,407.9,15.44Z"/>
    <polygon class="cls-2" points="417.29 12.01 417.29 12.01 411.58 17.69 414.95 21.06 415.95 20.07 415.95 20.07 421.71 14.32 418.33 10.96 417.29 12.01"/>
    <path class="cls-2" d="M424.23,11.67a0.34,0.34,0,0,0-.1-0.24h0l-2.9-2.89h0a0.34,0.34,0,0,0-.49,0L419,10.35l3.37,3.36,1.8-1.79A0.33,0.33,0,0,0,424.23,11.67Z"/>
    <path class="cls-2" d="M409.11,20.16a0.33,0.33,0,0,0,0,.48h0l2.9,2.89h0a0.34,0.34,0,0,0,.49,0l1.86-1.85L411,18.31Z"/>
  </g>
  <path class="cls-3" d="M456.69,21.42l-0.58.11,0.22,1.7A11.18,11.18,0,0,0,460,21.9c-0.32-.44-0.68-0.94-1-1.37A6.74,6.74,0,0,1,456.69,21.42Zm4-2.27-0.39.43,1.22,1.22a10.75,10.75,0,0,0,2.12-3.24L462,17.06A6.49,6.49,0,0,1,460.73,19.15Zm3.1-7.22-1.62.56a6.38,6.38,0,0,1,.25,2.45l0,0.57,1.73,0.25A10.53,10.53,0,0,0,463.83,11.94ZM454.4,8.25l2.16,1.25V7.74L457,7.81a7.58,7.58,0,0,1,4.35,2.93l0.22,0.3,0.76-.42,0.76-.42-0.3-.43a8.94,8.94,0,0,0-5.32-3.63L456.55,6V4.38L454.44,5.6c-1.16.67-2.13,1.26-2.16,1.31A16.72,16.72,0,0,0,454.4,8.25Zm-3.32,1.07L445,15.63l8.2,7.55,6.08-6.32Zm-2.7,7a2.38,2.38,0,0,1-.67-1.1L448.3,15a2,2,0,0,0,.51.91,0.94,0.94,0,0,0,1.4.07,1,1,0,0,0-.14-1.49l-0.25-.24,0.4-.39,0.24,0.23a1,1,0,0,0,1.32.13,0.69,0.69,0,0,0-.06-1.06,1.76,1.76,0,0,0-.87-0.42l0.26-.53a2.37,2.37,0,0,1,1.18.64,1.22,1.22,0,0,1,.14,1.86,1.31,1.31,0,0,1-1.5.2h0a1.25,1.25,0,0,1-.16,1.66A1.63,1.63,0,0,1,448.39,16.35Zm6.87,2.82a2.84,2.84,0,0,1-2,.93,3.05,3.05,0,0,1-2-1,8.36,8.36,0,0,1-.76-0.83l3.65-3.57a8.45,8.45,0,0,1,1,.85c1.58,1.55.94,2.82,0.11,3.63h0ZM454.76,16a3.14,3.14,0,0,0-.48-0.39l-2.82,2.76a3.75,3.75,0,0,0,.34.38c0.83,0.82,1.82.84,2.85-.17A1.62,1.62,0,0,0,454.76,16Z"/>
  <path class="cls-3" d="M503.68,17.14H501.6v-7a4,4,0,0,0-8,0V20.32a2.4,2.4,0,0,1-4.81,0v-7h2.08a0.32,0.32,0,0,0,.23-0.55L488.2,9.94h0a0.32,0.32,0,0,0-.45,0h0l-2.88,2.85a0.32,0.32,0,0,0,.23.55h2.08v7a4,4,0,0,0,8,0V10.16a2.4,2.4,0,0,1,4.81,0v7h-2.08a0.32,0.32,0,0,0-.23.54l2.88,2.85a0.32,0.32,0,0,0,.11.07h0.12a0.33,0.33,0,0,0,.23-0.09l2.88-2.85A0.32,0.32,0,0,0,503.68,17.14Zm-14.36,3.1a1.84,1.84,0,1,0,1.84-1.82A1.83,1.83,0,0,0,489.32,20.24Zm10.15-10a1.84,1.84,0,1,0-1.84,1.83A1.83,1.83,0,0,0,499.47,10.28Z"/>
  <path class="cls-3" d="M543.69,9.45a1.9,1.9,0,0,0-.54-0.54,2.27,2.27,0,0,0-.62-1.53c-1.47-1.48-4.65-.31-7.74,1.89a18.23,18.23,0,0,0-3-1.86c-2.12-1-3.78-1.07-4.69-.19s-0.88,2.53.09,4.64a17.93,17.93,0,0,0,1.82,3,19.6,19.6,0,0,0-1.57,2.38,1.91,1.91,0,0,0-1,.3,1.86,1.86,0,0,0-.13,3.06,2.25,2.25,0,0,0,2.42,2.53c1.63,0,3.81-1,6-2.56a20.47,20.47,0,0,0,2.13,1.4,1.86,1.86,0,0,0,.31,1.07,1.92,1.92,0,0,0,2.65.55,1.89,1.89,0,0,0,.41-0.37l0.48,0a2.39,2.39,0,0,0,1.73-.62c0.91-.88.88-2.53-0.09-4.64a17.94,17.94,0,0,0-1.82-3,19.11,19.11,0,0,0,1.7-2.63,1.91,1.91,0,0,0,1-.3A1.88,1.88,0,0,0,543.69,9.45ZM527.76,21.66A1.06,1.06,0,0,1,527.5,21a1.91,1.91,0,0,0,1-.3,1.87,1.87,0,0,0,.09-3.1,18.44,18.44,0,0,1,1.13-1.73,5.06,5.06,0,0,0,3.9,3.94C530.87,21.73,528.51,22.42,527.76,21.66Zm2-7.79a16.28,16.28,0,0,1-1.48-2.51c-0.72-1.57-.85-2.8-0.35-3.29a1.24,1.24,0,0,1,.89-0.28,6.1,6.1,0,0,1,2.43.7,16.52,16.52,0,0,1,2.5,1.51A5.06,5.06,0,0,0,529.74,13.87Zm11.42,4.64c0.72,1.57.85,2.8,0.35,3.29a1.26,1.26,0,0,1-.91.28,1.86,1.86,0,0,0-.31-1.08,1.93,1.93,0,0,0-2.65-.55,1.87,1.87,0,0,0-.43.4c-0.49-.28-1-0.61-1.52-1a5.06,5.06,0,0,0,4-3.87A16.26,16.26,0,0,1,541.16,18.52ZM541,8.9A1.87,1.87,0,0,0,541,12a17.71,17.71,0,0,1-1.26,2A5.06,5.06,0,0,0,535.8,10c2.75-1.88,5.11-2.56,5.86-1.81a0.94,0.94,0,0,1,.21.39A1.9,1.9,0,0,0,541,8.9Z"/>
  <path class="cls-3" d="M583.2,14.65V9.12a1.76,1.76,0,0,0,1-1.59,1.79,1.79,0,0,0-3.42-.73h-5.59a1.79,1.79,0,0,0-3.42.73,1.74,1.74,0,0,0,.14.68l-2.91,2a1.81,1.81,0,0,0-.71-0.14,1.76,1.76,0,0,0-.76,3.36V19a1.76,1.76,0,0,0,.76,3.36,1.79,1.79,0,0,0,1.63-1h5.59a1.79,1.79,0,0,0,3.42-.73,1.73,1.73,0,0,0-.23-0.86l1.08-.91,1.6-1.12a1.79,1.79,0,0,0,2.81-1.45A1.76,1.76,0,0,0,583.2,14.65Zm-7.54-3.7h-5.79l0.12-.1L572.62,9a1.79,1.79,0,0,0,2.74-1.17h5.33a1.72,1.72,0,0,0,.22.57L580.23,9l-2.05,1.43A1.8,1.8,0,0,0,575.65,10.95ZM578,18.82V13.43a1.76,1.76,0,0,0,1-1.57,1.74,1.74,0,0,0-.13-0.66l2.94-2a1.8,1.8,0,0,0,.37.1v0h0v5.22a1.77,1.77,0,0,0-1.48,1.73,1.73,1.73,0,0,0,.12.63Zm-9.33,0V13.6a1.78,1.78,0,0,0,1.43-1.41h5.33a1.78,1.78,0,0,0,1.43,1.41v5.25a1.78,1.78,0,0,0-1.44,1.43h-5.33A1.77,1.77,0,0,0,568.65,18.84Z"/>
  <path class="cls-3" d="M614.19,19.48a0.57,0.57,0,1,0,.58.57A0.57,0.57,0,0,0,614.19,19.48Zm-3.46-7.91a0.57,0.57,0,1,0,.58.57A0.57,0.57,0,0,0,610.73,11.57Zm9.23,0a0.57,0.57,0,1,0,.58.57A0.57,0.57,0,0,0,620,11.57Zm-5.19-5.65a9.14,9.14,0,0,0-9.23,9A9.23,9.23,0,0,0,624,15,9.14,9.14,0,0,0,614.77,5.91Zm0,15.83A6.86,6.86,0,0,1,607.84,15a6.86,6.86,0,0,1,6.92-6.78,7,7,0,0,1,4.83,1.93L617,12.35a3.48,3.48,0,0,0-2.19-.78A3.39,3.39,0,1,0,618.23,15a3.32,3.32,0,0,0-.8-2.14l2.29-2.59a6.68,6.68,0,0,1,2,4.73A6.86,6.86,0,0,1,614.77,21.74Zm0-5.65A1.14,1.14,0,0,0,615.92,15a1.08,1.08,0,0,0-.07-0.35l0.82-.93a2.22,2.22,0,0,1,.41,1.28,2.31,2.31,0,1,1-2.31-2.26,2.33,2.33,0,0,1,1.31.4l-0.95.8A1.13,1.13,0,1,0,614.77,16.09Z"/>
  <path class="cls-3" d="M1101,7h-12a2,2,0,0,0-2,2v9a2,2,0,0,0,2,2h2l-2,4,6-4h6a2,2,0,0,0,2-2V9A2,2,0,0,0,1101,7Zm-5,11h-2V12h2v6Zm0-7h-2V9h2v2Z"/>
  <path class="cls-2" d="M49,13.49l-0.45.08,0.17,1.34a8.5,8.5,0,0,0,2.85-1l-0.76-1.09A5.14,5.14,0,0,1,49,13.49Z"/>
  <path class="cls-2" d="M52.14,11.69l-0.3.34,0.94,1a8.52,8.52,0,0,0,1.63-2.56L53.15,10A5.16,5.16,0,0,1,52.14,11.69Z"/>
  <path class="cls-2" d="M54.53,6h0l-1.25.45a5.17,5.17,0,0,1,.2,1.94l0,0.45L54.77,9A8.55,8.55,0,0,0,54.53,6Z"/>
  <path class="cls-2" d="M47.25,3.06l1.66,1V2.66l0.32,0.06A5.85,5.85,0,0,1,52.59,5l0.17,0.24,0.59-.33h0l0.59-.33L53.7,4.27A6.9,6.9,0,0,0,49.59,1.4l-0.68-.15V0L47.28,1c-0.9.53-1.65,1-1.66,1A12.83,12.83,0,0,0,47.25,3.06Z"/>
  <path class="cls-2" d="M44.69,3.91L40,8.91l6.33,6,4.69-5ZM42.61,9.48a1.9,1.9,0,0,1-.51-0.87l0.45-.22a1.57,1.57,0,0,0,.4.72A0.72,0.72,0,0,0,44,9.16,0.8,0.8,0,0,0,43.91,8l-0.19-.19L44,7.48l0.18,0.18a0.73,0.73,0,0,0,1,.11,0.55,0.55,0,0,0,0-.84,1.35,1.35,0,0,0-.67-0.33l0.2-.42a1.81,1.81,0,0,1,.91.5A1,1,0,0,1,44.58,8.3h0a1,1,0,0,1-.12,1.31A1.24,1.24,0,0,1,42.61,9.48Zm5.3,2.23a2.17,2.17,0,0,1-1.55.73,2.33,2.33,0,0,1-1.55-.8A6.61,6.61,0,0,1,44.22,11L47,8.16a6.5,6.5,0,0,1,.79.67,1.82,1.82,0,0,1,.09,2.87h0Z"/>
  <path class="cls-2" d="M47.53,9.22a2.41,2.41,0,0,0-.37-0.31L45,11.09a3,3,0,0,0,.27.3,1.39,1.39,0,0,0,2.2-.13A1.3,1.3,0,0,0,47.53,9.22Z"/>
  <path class="cls-2" d="M85.68,5.15A0.26,0.26,0,0,1,85.46,5L84.65,3.77l-1.47,0A0.26,0.26,0,0,1,83,3.59a0.27,0.27,0,0,1,0-.28L83.9,2.14,83.48,0.7A0.27,0.27,0,0,1,83.55.43,0.26,0.26,0,0,1,83.82.38L85.19,0.9,86.4,0a0.26,0.26,0,0,1,.27,0,0.27,0.27,0,0,1,.13.25l-0.07,1.5,1.17,0.91a0.27,0.27,0,0,1,.1.26,0.26,0.26,0,0,1-.19.21l-1.42.4L85.92,5a0.26,0.26,0,0,1-.21.18h0Z"/>
  <path class="cls-2" d="M81.05,7.24a0.26,0.26,0,0,1-.13,0A0.27,0.27,0,0,1,80.79,7l0-.93L80.1,5.46A0.27,0.27,0,0,1,80,5.2,0.26,0.26,0,0,1,80.19,5l0.88-.25,0.3-.88a0.26,0.26,0,0,1,.21-0.18,0.26,0.26,0,0,1,.25.12l0.5,0.78,0.92,0a0.26,0.26,0,0,1,.23.15,0.27,0.27,0,0,1,0,.28l-0.57.73,0.27,0.9a0.27,0.27,0,0,1-.07.27,0.26,0.26,0,0,1-.27.06L82,6.66l-0.75.54A0.25,0.25,0,0,1,81.05,7.24Z"/>
  <path class="cls-2" d="M88.29,4.52h0L83.89,9l2.6,2.66,0.77-.78h0l4.45-4.55L89.1,3.69Z"/>
  <path class="cls-2" d="M93.65,4.26a0.27,0.27,0,0,0-.08-0.19h0L91.34,1.78h0a0.26,0.26,0,0,0-.37,0L89.58,3.21l2.6,2.66,1.39-1.42A0.27,0.27,0,0,0,93.65,4.26Z"/>
  <path class="cls-2" d="M82,11a0.27,0.27,0,0,0,0,.38h0l2.24,2.29h0a0.26,0.26,0,0,0,.37,0L86,12.17l-2.6-2.66Z"/>
  <path class="cls-2" d="M134.59,8.67H133V3.14a3.09,3.09,0,1,0-6.18,0v8a1.86,1.86,0,1,1-3.71,0V5.65h1.6a0.25,0.25,0,0,0,.18-0.43L122.65,3h0a0.24,0.24,0,0,0-.35,0h0l-2.22,2.26a0.25,0.25,0,0,0,.18.43h1.6v5.53a3.09,3.09,0,1,0,6.18,0v-8a1.86,1.86,0,1,1,3.71,0V8.67h-1.6a0.25,0.25,0,0,0-.18.43l2.22,2.25,0.09,0.06h0.09a0.25,0.25,0,0,0,.18-0.07l2.22-2.26A0.25,0.25,0,0,0,134.59,8.67Z"/>
  <path class="cls-2" d="M123.51,11.12a1.42,1.42,0,1,0,1.42-1.44A1.43,1.43,0,0,0,123.51,11.12Z"/>
  <path class="cls-2" d="M131.34,3.24a1.42,1.42,0,1,0-1.42,1.44A1.43,1.43,0,0,0,131.34,3.24Z"/>
  <path class="cls-2" d="M247.12,0a7.16,7.16,0,1,0,7.12,7.16A7.14,7.14,0,0,0,247.12,0Zm0,12.53a5.37,5.37,0,1,1,3.73-9.21l-2,1.78a2.64,2.64,0,0,0-1.69-.62,2.71,2.71,0,1,0,2.06,1l1.77-2A5.37,5.37,0,0,1,247.12,12.53Zm0-4.47A0.87,0.87,0,0,0,248,6.88l0.63-.73a1.78,1.78,0,1,1-1.47-.78,1.76,1.76,0,0,1,1,.32l-0.73.64a0.87,0.87,0,0,0-.28-0.06A0.89,0.89,0,0,0,247.12,8.05Zm-0.45,2.68a0.45,0.45,0,1,0,.45.45A0.45,0.45,0,0,0,246.68,10.74ZM244,4.48a0.45,0.45,0,1,0,.45.45A0.45,0.45,0,0,0,244,4.48Zm7.12,0a0.45,0.45,0,1,0,.45.45A0.45,0.45,0,0,0,251.13,4.48Z"/>
  <path class="cls-3" d="M200.8,5.76h0.82v4.92H200.8V5.76Z"/>
  <path class="cls-3" d="M208,5.76h0.8v4.92H208V5.76Z"/>
  <path class="cls-3" d="M212,2.47h0.82V7.4H212V2.47Z"/>
  <path class="cls-3" d="M202.41,11.5h4.82v0.82h-4.82V11.5Z"/>
  <path class="cls-3" d="M202.41,4.11h4.82V4.92h-4.82V4.11Z"/>
  <path class="cls-3" d="M206.42,0.84h4.82V1.66h-4.82V0.84Z"/>
  <path class="cls-3" d="M201.15,4.11l3.95-2.82L205.56,2l-3.95,2.82Z"/>
  <path class="cls-3" d="M208.38,4.11l3.95-2.82L212.79,2l-3.95,2.82Z"/>
  <path class="cls-3" d="M208.38,10.67l3.95-2.82,0.46,0.67-3.95,2.82Z"/>
  <path class="cls-3" d="M205.45,0a1.39,1.39,0,0,1,1.37,1.41,1.38,1.38,0,1,1-2.75,0A1.39,1.39,0,0,1,205.45,0Z"/>
  <path class="cls-3" d="M201.39,3.44A1.4,1.4,0,1,1,200,4.84,1.39,1.39,0,0,1,201.39,3.44Z"/>
  <path class="cls-3" d="M201.39,10.34a1.4,1.4,0,1,1-1.39,1.4A1.39,1.39,0,0,1,201.39,10.34Z"/>
  <path class="cls-3" d="M208.21,10.34a1.4,1.4,0,1,1-1.39,1.4A1.39,1.39,0,0,1,208.21,10.34Z"/>
  <path class="cls-3" d="M208.21,3.44a1.4,1.4,0,1,1-1.39,1.4A1.39,1.39,0,0,1,208.21,3.44Z"/>
  <path class="cls-3" d="M212.28,0a1.39,1.39,0,1,1-1.38,1.39A1.39,1.39,0,0,1,212.28,0Z"/>
  <path class="cls-3" d="M212.28,6.9a1.4,1.4,0,1,1-1.37,1.4A1.39,1.39,0,0,1,212.28,6.9Z"/>
  <path class="cls-3" d="M208,5.91h0.51v4.63H208V5.91Z"/>
  <path class="cls-3" d="M212,2.8h0.49V7.39H212V2.8Z"/>
  <path class="cls-3" d="M201.13,5.91h0.51v4.63h-0.51V5.91Z"/>
  <path class="cls-3" d="M207.32,11.49V12h-4.55V11.49h4.55Z"/>
  <path class="cls-3" d="M207.16,4.6V5.1h-4.55V4.6h4.55Z"/>
  <path class="cls-3" d="M204.82,1.52l0.32,0.37-3.46,3-0.32-.37Z"/>
  <path class="cls-3" d="M212.14,1.2l0.32,0.37-3.46,3-0.32-.37Z"/>
  <path class="cls-3" d="M211.16,8.91l0.32,0.37-3.46,3-0.32-.37Z"/>
  <path class="cls-3" d="M210.9,1.16V1.65h-4.55V1.16h4.55Z"/>
  <path class="cls-2" d="M174,2.25a1.48,1.48,0,0,0-.42-0.43,1.82,1.82,0,0,0-.48-1.21c-1.13-1.17-3.59-.25-6,1.5A14,14,0,0,0,164.8.64c-1.63-.8-2.92-0.85-3.62-0.15s-0.68,2,.07,3.68a14.33,14.33,0,0,0,1.4,2.39,15.57,15.57,0,0,0-1.21,1.88,1.45,1.45,0,0,0-.77.24,1.51,1.51,0,0,0-.43,2.07,1.46,1.46,0,0,0,.32.35,1.93,1.93,0,0,0,.48,1.48,1.85,1.85,0,0,0,1.39.52,8.93,8.93,0,0,0,4.59-2,15.81,15.81,0,0,0,1.64,1.11,1.51,1.51,0,0,0,.24.85,1.45,1.45,0,0,0,2.36.14l0.37,0a1.82,1.82,0,0,0,1.33-.49c0.7-.7.68-2-0.07-3.68a14.3,14.3,0,0,0-1.4-2.39,15.13,15.13,0,0,0,1.32-2.08,1.45,1.45,0,0,0,.76-0.24A1.51,1.51,0,0,0,174,2.25Zm-1.57-1a0.75,0.75,0,0,1,.16.31,1.45,1.45,0,0,0-.64.23,1.51,1.51,0,0,0-.43,2.07,1.47,1.47,0,0,0,.37.39,14.06,14.06,0,0,1-1,1.56,4,4,0,0,0-3-3.12C170,1.22,171.86.68,172.44,1.28Zm-10.61-.12a0.94,0.94,0,0,1,.68-0.22,4.62,4.62,0,0,1,1.88.55,12.69,12.69,0,0,1,1.93,1.2,4,4,0,0,0-3.09,3.06,13,13,0,0,1-1.14-2C161.54,2.52,161.44,1.55,161.83,1.16Zm-0.12,10.76a0.85,0.85,0,0,1-.2-0.5,1.45,1.45,0,0,0,.77-0.24,1.51,1.51,0,0,0,.43-2.07,1.48,1.48,0,0,0-.36-0.38,14.55,14.55,0,0,1,.87-1.37,4,4,0,0,0,3,3.12C164.12,12,162.29,12.52,161.72,11.92ZM172.32,12a1,1,0,0,1-.7.22,1.5,1.5,0,0,0-.24-0.86,1.45,1.45,0,0,0-2.38-.12c-0.38-.22-0.77-0.48-1.17-0.78a4,4,0,0,0,3.08-3.06,13,13,0,0,1,1.14,2C172.61,10.68,172.71,11.65,172.32,12Z"/>
  <path class="cls-4" d="M49,53.49l-0.45.08,0.17,1.34a8.5,8.5,0,0,0,2.85-1l-0.76-1.09A5.14,5.14,0,0,1,49,53.49Z"/>
  <path class="cls-4" d="M52.14,51.69l-0.3.34,0.94,1a8.52,8.52,0,0,0,1.63-2.56L53.15,50A5.16,5.16,0,0,1,52.14,51.69Z"/>
  <path class="cls-4" d="M54.53,46h0l-1.25.45a5.17,5.17,0,0,1,.2,1.94l0,0.45L54.77,49A8.55,8.55,0,0,0,54.53,46Z"/>
  <path class="cls-4" d="M47.25,43.06l1.66,1v-1.4l0.32,0.06A5.85,5.85,0,0,1,52.59,45l0.17,0.24,0.59-.33h0l0.59-.33-0.23-.34a6.9,6.9,0,0,0-4.11-2.87l-0.68-.15V40l-1.63,1c-0.9.53-1.65,1-1.66,1A12.83,12.83,0,0,0,47.25,43.06Z"/>
  <path class="cls-4" d="M44.69,43.91l-4.69,5,6.33,6,4.69-5Zm-2.08,5.57a1.9,1.9,0,0,1-.51-0.87l0.45-.22a1.57,1.57,0,0,0,.4.72,0.72,0.72,0,0,0,1.08.05A0.8,0.8,0,0,0,43.91,48l-0.19-.19L44,47.48l0.18,0.18a0.73,0.73,0,0,0,1,.11,0.55,0.55,0,0,0,0-.84,1.35,1.35,0,0,0-.67-0.33l0.2-.42a1.81,1.81,0,0,1,.91.5,1,1,0,0,1-1.05,1.63h0a1,1,0,0,1-.12,1.31A1.24,1.24,0,0,1,42.61,49.48Zm5.3,2.23a2.17,2.17,0,0,1-1.55.73,2.33,2.33,0,0,1-1.55-.8A6.61,6.61,0,0,1,44.22,51L47,48.16a6.5,6.5,0,0,1,.79.67,1.82,1.82,0,0,1,.09,2.87h0Z"/>
  <path class="cls-4" d="M47.53,49.22a2.41,2.41,0,0,0-.37-0.31L45,51.09a3,3,0,0,0,.27.3,1.39,1.39,0,0,0,2.2-.13A1.3,1.3,0,0,0,47.53,49.22Z"/>
  <path class="cls-4" d="M85.68,45.15A0.26,0.26,0,0,1,85.46,45l-0.81-1.25-1.47,0A0.26,0.26,0,0,1,83,43.59a0.27,0.27,0,0,1,0-.28l0.92-1.17L83.48,40.7a0.27,0.27,0,0,1,.07-0.27,0.26,0.26,0,0,1,.27-0.05l1.37,0.53L86.4,40a0.26,0.26,0,0,1,.27,0,0.27,0.27,0,0,1,.13.25l-0.07,1.5,1.17,0.91a0.27,0.27,0,0,1,.1.26,0.26,0.26,0,0,1-.19.21l-1.42.4L85.92,45a0.26,0.26,0,0,1-.21.18h0Z"/>
  <path class="cls-4" d="M81.05,47.24a0.26,0.26,0,0,1-.13,0A0.27,0.27,0,0,1,80.79,47l0-.93-0.73-.56A0.27,0.27,0,0,1,80,45.2,0.26,0.26,0,0,1,80.19,45l0.88-.25,0.3-.88a0.26,0.26,0,0,1,.21-0.18,0.26,0.26,0,0,1,.25.12l0.5,0.78,0.92,0a0.26,0.26,0,0,1,.23.15,0.27,0.27,0,0,1,0,.28l-0.57.73,0.27,0.9a0.27,0.27,0,0,1-.07.27,0.26,0.26,0,0,1-.27.05L82,46.66l-0.75.54A0.25,0.25,0,0,1,81.05,47.24Z"/>
  <path class="cls-4" d="M88.29,44.52h0L83.89,49l2.6,2.66,0.77-.78h0l4.45-4.55-2.6-2.66Z"/>
  <path class="cls-4" d="M93.65,44.26a0.27,0.27,0,0,0-.08-0.19h0l-2.24-2.29h0a0.26,0.26,0,0,0-.37,0l-1.39,1.42,2.6,2.66,1.39-1.42A0.27,0.27,0,0,0,93.65,44.26Z"/>
  <path class="cls-4" d="M82,51a0.27,0.27,0,0,0,0,.38h0l2.24,2.29h0a0.26,0.26,0,0,0,.37,0L86,52.17l-2.6-2.66Z"/>
  <path class="cls-4" d="M134.59,48.67H133V43.14a3.09,3.09,0,1,0-6.18,0v8a1.86,1.86,0,1,1-3.71,0V45.65h1.6a0.25,0.25,0,0,0,.18-0.43L122.65,43h0a0.24,0.24,0,0,0-.35,0h0l-2.22,2.26a0.25,0.25,0,0,0,.18.43h1.6v5.53a3.09,3.09,0,1,0,6.18,0v-8a1.86,1.86,0,1,1,3.71,0v5.53h-1.6a0.25,0.25,0,0,0-.18.43l2.22,2.25,0.09,0.06h0.09a0.25,0.25,0,0,0,.18-0.07l2.22-2.26A0.25,0.25,0,0,0,134.59,48.67Z"/>
  <path class="cls-4" d="M123.51,51.12a1.42,1.42,0,1,0,1.42-1.44A1.43,1.43,0,0,0,123.51,51.12Z"/>
  <path class="cls-4" d="M131.34,43.24a1.42,1.42,0,1,0-1.42,1.44A1.43,1.43,0,0,0,131.34,43.24Z"/>
  <path class="cls-4" d="M247.12,40a7.16,7.16,0,1,0,7.12,7.16A7.14,7.14,0,0,0,247.12,40Zm0,12.53a5.37,5.37,0,1,1,3.73-9.21l-2,1.78a2.64,2.64,0,0,0-1.69-.62,2.71,2.71,0,1,0,2.06,1l1.77-2A5.37,5.37,0,0,1,247.12,52.53Zm0-4.47a0.87,0.87,0,0,0,.83-1.17l0.63-.73a1.78,1.78,0,1,1-1.47-.78,1.76,1.76,0,0,1,1,.32l-0.73.64a0.87,0.87,0,0,0-.28-0.06A0.89,0.89,0,0,0,247.12,48.05Zm-0.45,2.68a0.45,0.45,0,1,0,.45.45A0.45,0.45,0,0,0,246.68,50.74ZM244,44.48a0.45,0.45,0,1,0,.45.45A0.45,0.45,0,0,0,244,44.48Zm7.12,0a0.45,0.45,0,1,0,.45.45A0.45,0.45,0,0,0,251.13,44.48Z"/>
  <path class="cls-5" d="M200.8,45.76h0.82v4.92H200.8V45.76Z"/>
  <path class="cls-5" d="M208,45.76h0.8v4.92H208V45.76Z"/>
  <path class="cls-5" d="M212,42.47h0.82V47.4H212V42.47Z"/>
  <path class="cls-5" d="M202.41,51.5h4.82v0.82h-4.82V51.5Z"/>
  <path class="cls-5" d="M202.41,44.11h4.82v0.82h-4.82V44.11Z"/>
  <path class="cls-5" d="M206.42,40.84h4.82v0.82h-4.82V40.84Z"/>
  <path class="cls-5" d="M201.15,44.11l3.95-2.82L205.56,42l-3.95,2.82Z"/>
  <path class="cls-5" d="M208.38,44.11l3.95-2.82L212.79,42l-3.95,2.82Z"/>
  <path class="cls-5" d="M208.38,50.67l3.95-2.82,0.46,0.67-3.95,2.82Z"/>
  <path class="cls-5" d="M205.45,40a1.41,1.41,0,1,1-1.37,1.41A1.39,1.39,0,0,1,205.45,40Z"/>
  <path class="cls-5" d="M201.39,43.44a1.4,1.4,0,1,1-1.39,1.4A1.39,1.39,0,0,1,201.39,43.44Z"/>
  <path class="cls-5" d="M201.39,50.34a1.4,1.4,0,1,1-1.39,1.4A1.39,1.39,0,0,1,201.39,50.34Z"/>
  <path class="cls-5" d="M208.21,50.34a1.4,1.4,0,1,1-1.39,1.4A1.39,1.39,0,0,1,208.21,50.34Z"/>
  <path class="cls-5" d="M208.21,43.44a1.4,1.4,0,1,1-1.39,1.4A1.39,1.39,0,0,1,208.21,43.44Z"/>
  <path class="cls-5" d="M212.28,40a1.39,1.39,0,1,1-1.38,1.39A1.39,1.39,0,0,1,212.28,40Z"/>
  <path class="cls-5" d="M212.28,46.9a1.4,1.4,0,1,1-1.37,1.4A1.39,1.39,0,0,1,212.28,46.9Z"/>
  <path class="cls-5" d="M208,45.91h0.51v4.63H208V45.91Z"/>
  <path class="cls-5" d="M212,42.8h0.49v4.59H212V42.8Z"/>
  <path class="cls-5" d="M201.13,45.91h0.51v4.63h-0.51V45.91Z"/>
  <path class="cls-5" d="M207.32,51.49V52h-4.55V51.49h4.55Z"/>
  <path class="cls-5" d="M207.16,44.6V45.1h-4.55V44.6h4.55Z"/>
  <path class="cls-5" d="M204.82,41.52l0.32,0.37-3.46,3-0.32-.37Z"/>
  <path class="cls-5" d="M212.14,41.2l0.32,0.37-3.46,3-0.32-.37Z"/>
  <path class="cls-5" d="M211.16,48.91l0.32,0.37-3.46,3-0.32-.37Z"/>
  <path class="cls-5" d="M210.9,41.16v0.49h-4.55V41.16h4.55Z"/>
  <path class="cls-4" d="M174,42.25a1.48,1.48,0,0,0-.42-0.43,1.82,1.82,0,0,0-.48-1.21c-1.13-1.17-3.59-.25-6,1.5a14,14,0,0,0-2.33-1.47c-1.63-.8-2.92-0.85-3.62-0.15s-0.68,2,.07,3.68a14.33,14.33,0,0,0,1.4,2.39,15.57,15.57,0,0,0-1.21,1.88,1.45,1.45,0,0,0-.77.24,1.51,1.51,0,0,0-.43,2.07,1.46,1.46,0,0,0,.32.35,1.93,1.93,0,0,0,.48,1.48,1.85,1.85,0,0,0,1.39.52,8.93,8.93,0,0,0,4.59-2,15.81,15.81,0,0,0,1.64,1.11,1.51,1.51,0,0,0,.24.85,1.45,1.45,0,0,0,2.36.14l0.37,0a1.82,1.82,0,0,0,1.33-.49c0.7-.7.68-2-0.07-3.68a14.3,14.3,0,0,0-1.4-2.39,15.13,15.13,0,0,0,1.32-2.08,1.45,1.45,0,0,0,.76-0.24A1.51,1.51,0,0,0,174,42.25Zm-1.57-1a0.75,0.75,0,0,1,.16.31,1.45,1.45,0,0,0-.64.23,1.51,1.51,0,0,0-.43,2.07,1.47,1.47,0,0,0,.37.39,14.06,14.06,0,0,1-1,1.56,4,4,0,0,0-3-3.12C170,41.22,171.86,40.68,172.44,41.28Zm-10.61-.12a0.94,0.94,0,0,1,.68-0.22,4.62,4.62,0,0,1,1.88.55,12.69,12.69,0,0,1,1.93,1.2,4,4,0,0,0-3.09,3.06,13,13,0,0,1-1.14-2C161.54,42.52,161.44,41.55,161.83,41.16Zm-0.12,10.76a0.85,0.85,0,0,1-.2-0.5,1.45,1.45,0,0,0,.77-0.24,1.51,1.51,0,0,0,.43-2.07,1.48,1.48,0,0,0-.36-0.38,14.55,14.55,0,0,1,.87-1.37,4,4,0,0,0,3,3.12C164.12,52,162.29,52.52,161.72,51.92ZM172.32,52a1,1,0,0,1-.7.22,1.5,1.5,0,0,0-.24-0.86,1.45,1.45,0,0,0-2.38-.12c-0.38-.22-0.77-0.48-1.17-0.78a4,4,0,0,0,3.08-3.06,13,13,0,0,1,1.14,2C172.61,50.68,172.71,51.65,172.32,52Z"/>
  <path class="cls-2" d="M280,0V11h11V0H280Zm3.3,2.2a1.1,1.1,0,1,1-1.1,1.1A1.1,1.1,0,0,1,283.3,2.2Zm6.6,7.7h-8.8l2.2-3.3L285,9.08,288.8,3.3,289.9,5V9.9Z"/>
  <path class="cls-2" d="M324.38,3.5a0.88,0.88,0,1,0-.87-0.87A0.88,0.88,0,0,0,324.38,3.5Zm6.13,2.59a2,2,0,0,1-.59-1c-0.51-.85-1-0.83-1.16-0.67s-0.87.88-.87,0.88c-0.91-3.39-2-1.52-2-1.52L323.5,7.27V8.75h7V6.09Zm1.75-5.21V0h-10.5V0.87H320V9.62h1.75V10.5h10.5V9.62H334V0.87h-1.75Zm-10.5,7.88h-0.87V7.87h0.88V8.75Zm0-5.48a0.49,0.49,0,0,0-.3-0.11,0.55,0.55,0,0,0,0,1.09,0.49,0.49,0,0,0,.3-0.11V4.37l-0.87.88V1.75h0.88V3.27Zm9.63,6.35h-8.75V0.87h8.75V9.62Zm1.75-.87h-0.87V7.87h0.88V8.75Zm0-3.5a1.82,1.82,0,0,1-.95-0.9s0.07-2.6.07-2.6h0.88v3.5Z"/>
  <path class="cls-4" d="M324.38,43.5a0.88,0.88,0,1,0-.87-0.87A0.88,0.88,0,0,0,324.38,43.5Zm6.13,2.59a2,2,0,0,1-.59-1c-0.51-.85-1-0.83-1.16-0.67s-0.87.88-.87,0.88c-0.91-3.39-2-1.52-2-1.52l-2.33,3.54v1.48h7V46.09Zm1.75-5.21V40h-10.5v0.88H320v8.75h1.75V50.5h10.5V49.62H334V40.87h-1.75Zm-10.5,7.88h-0.87V47.87h0.88v0.88Zm0-5.48a0.49,0.49,0,0,0-.3-0.11,0.55,0.55,0,0,0,0,1.09,0.49,0.49,0,0,0,.3-0.11v0.23l-0.87.88v-3.5h0.88v1.52Zm9.63,6.35h-8.75V40.87h8.75v8.75Zm1.75-.87h-0.87V47.87h0.88v0.88Zm0-3.5a1.82,1.82,0,0,1-.95-0.9s0.07-2.6.07-2.6h0.88v3.5Z"/>
  <path class="cls-4" d="M280,40V51h11V40H280Zm3.3,2.2a1.1,1.1,0,1,1-1.1,1.1A1.1,1.1,0,0,1,283.3,42.2Zm6.6,7.7h-8.8l2.2-3.3L285,49.08l3.85-5.78L289.9,45V49.9Z"/>
  <path class="cls-6" d="M49,93.49l-0.45.08,0.17,1.34a8.5,8.5,0,0,0,2.85-1l-0.76-1.09A5.14,5.14,0,0,1,49,93.49Z"/>
  <path class="cls-6" d="M52.14,91.69l-0.3.34,0.94,1a8.52,8.52,0,0,0,1.63-2.56L53.15,90A5.16,5.16,0,0,1,52.14,91.69Z"/>
  <path class="cls-6" d="M54.53,86h0l-1.25.45a5.17,5.17,0,0,1,.2,1.94l0,0.45L54.77,89A8.55,8.55,0,0,0,54.53,86Z"/>
  <path class="cls-6" d="M47.25,83.06l1.66,1v-1.4l0.32,0.06A5.85,5.85,0,0,1,52.59,85l0.17,0.24,0.59-.33h0l0.59-.33-0.23-.34a6.9,6.9,0,0,0-4.11-2.87l-0.68-.15V80l-1.63,1c-0.9.53-1.65,1-1.66,1A12.83,12.83,0,0,0,47.25,83.06Z"/>
  <path class="cls-6" d="M44.69,83.91l-4.69,5,6.33,6,4.69-5Zm-2.08,5.57a1.9,1.9,0,0,1-.51-0.87l0.45-.22a1.57,1.57,0,0,0,.4.72,0.72,0.72,0,0,0,1.08.05A0.8,0.8,0,0,0,43.91,88l-0.19-.19L44,87.48l0.18,0.18a0.73,0.73,0,0,0,1,.11,0.55,0.55,0,0,0,0-.84,1.35,1.35,0,0,0-.67-0.33l0.2-.42a1.81,1.81,0,0,1,.91.5,1,1,0,0,1-1.05,1.63h0a1,1,0,0,1-.12,1.31A1.24,1.24,0,0,1,42.61,89.48Zm5.3,2.23a2.17,2.17,0,0,1-1.55.73,2.33,2.33,0,0,1-1.55-.8A6.61,6.61,0,0,1,44.22,91L47,88.16a6.5,6.5,0,0,1,.79.67,1.82,1.82,0,0,1,.09,2.87h0Z"/>
  <path class="cls-6" d="M47.53,89.22a2.41,2.41,0,0,0-.37-0.31L45,91.09a3,3,0,0,0,.27.3,1.39,1.39,0,0,0,2.2-.13A1.3,1.3,0,0,0,47.53,89.22Z"/>
  <path class="cls-6" d="M85.68,85.15A0.26,0.26,0,0,1,85.46,85l-0.81-1.25-1.47,0A0.26,0.26,0,0,1,83,83.59a0.27,0.27,0,0,1,0-.28l0.92-1.17L83.48,80.7a0.27,0.27,0,0,1,.07-0.27,0.26,0.26,0,0,1,.27-0.05l1.37,0.53L86.4,80a0.26,0.26,0,0,1,.27,0,0.27,0.27,0,0,1,.13.25l-0.07,1.5,1.17,0.91a0.27,0.27,0,0,1,.1.26,0.26,0.26,0,0,1-.19.21l-1.42.4L85.92,85a0.26,0.26,0,0,1-.21.18h0Z"/>
  <path class="cls-6" d="M81.05,87.24a0.26,0.26,0,0,1-.13,0A0.27,0.27,0,0,1,80.79,87l0-.93-0.73-.56A0.27,0.27,0,0,1,80,85.2,0.26,0.26,0,0,1,80.19,85l0.88-.25,0.3-.88a0.26,0.26,0,0,1,.21-0.18,0.26,0.26,0,0,1,.25.12l0.5,0.78,0.92,0a0.26,0.26,0,0,1,.23.15,0.27,0.27,0,0,1,0,.28l-0.57.73,0.27,0.9a0.27,0.27,0,0,1-.07.27,0.26,0.26,0,0,1-.27.06L82,86.66l-0.75.54A0.25,0.25,0,0,1,81.05,87.24Z"/>
  <path class="cls-6" d="M88.29,84.52h0L83.89,89l2.6,2.66,0.77-.78h0l4.45-4.55-2.6-2.66Z"/>
  <path class="cls-6" d="M93.65,84.26a0.27,0.27,0,0,0-.08-0.19h0l-2.24-2.29h0a0.26,0.26,0,0,0-.37,0l-1.39,1.42,2.6,2.66,1.39-1.42A0.27,0.27,0,0,0,93.65,84.26Z"/>
  <path class="cls-6" d="M82,91a0.27,0.27,0,0,0,0,.38h0l2.24,2.29h0a0.26,0.26,0,0,0,.37,0L86,92.17l-2.6-2.66Z"/>
  <path class="cls-6" d="M134.59,88.67H133V83.14a3.09,3.09,0,1,0-6.18,0v8a1.86,1.86,0,1,1-3.71,0V85.65h1.6a0.25,0.25,0,0,0,.18-0.43L122.65,83h0a0.24,0.24,0,0,0-.35,0h0l-2.22,2.26a0.25,0.25,0,0,0,.18.43h1.6v5.53a3.09,3.09,0,1,0,6.18,0v-8a1.86,1.86,0,1,1,3.71,0v5.53h-1.6a0.25,0.25,0,0,0-.18.43l2.22,2.25,0.09,0.06h0.09a0.25,0.25,0,0,0,.18-0.07l2.22-2.26A0.25,0.25,0,0,0,134.59,88.67Z"/>
  <path class="cls-6" d="M123.51,91.12a1.42,1.42,0,1,0,1.42-1.44A1.43,1.43,0,0,0,123.51,91.12Z"/>
  <path class="cls-6" d="M131.34,83.24a1.42,1.42,0,1,0-1.42,1.44A1.43,1.43,0,0,0,131.34,83.24Z"/>
  <path class="cls-6" d="M247.12,80a7.16,7.16,0,1,0,7.12,7.16A7.14,7.14,0,0,0,247.12,80Zm0,12.53a5.37,5.37,0,1,1,3.73-9.21l-2,1.78a2.64,2.64,0,0,0-1.69-.62,2.71,2.71,0,1,0,2.06,1l1.77-2A5.37,5.37,0,0,1,247.12,92.53Zm0-4.47a0.87,0.87,0,0,0,.83-1.17l0.63-.73a1.78,1.78,0,1,1-1.47-.78,1.76,1.76,0,0,1,1,.32l-0.73.64a0.87,0.87,0,0,0-.28-0.06A0.89,0.89,0,0,0,247.12,88.05Zm-0.45,2.68a0.45,0.45,0,1,0,.45.45A0.45,0.45,0,0,0,246.68,90.74ZM244,84.48a0.45,0.45,0,1,0,.45.45A0.45,0.45,0,0,0,244,84.48Zm7.12,0a0.45,0.45,0,1,0,.45.45A0.45,0.45,0,0,0,251.13,84.48Z"/>
  <path class="cls-7" d="M200.8,85.76h0.82v4.92H200.8V85.76Z"/>
  <path class="cls-7" d="M208,85.76h0.8v4.92H208V85.76Z"/>
  <path class="cls-7" d="M212,82.47h0.82V87.4H212V82.47Z"/>
  <path class="cls-7" d="M202.41,91.5h4.82v0.82h-4.82V91.5Z"/>
  <path class="cls-7" d="M202.41,84.11h4.82v0.82h-4.82V84.11Z"/>
  <path class="cls-7" d="M206.42,80.84h4.82v0.82h-4.82V80.84Z"/>
  <path class="cls-7" d="M201.15,84.11l3.95-2.82L205.56,82l-3.95,2.82Z"/>
  <path class="cls-7" d="M208.38,84.11l3.95-2.82L212.79,82l-3.95,2.82Z"/>
  <path class="cls-7" d="M208.38,90.67l3.95-2.82,0.46,0.67-3.95,2.82Z"/>
  <path class="cls-7" d="M205.45,80a1.41,1.41,0,1,1-1.37,1.41A1.39,1.39,0,0,1,205.45,80Z"/>
  <path class="cls-7" d="M201.39,83.44a1.4,1.4,0,1,1-1.39,1.4A1.39,1.39,0,0,1,201.39,83.44Z"/>
  <path class="cls-7" d="M201.39,90.34a1.4,1.4,0,1,1-1.39,1.4A1.39,1.39,0,0,1,201.39,90.34Z"/>
  <path class="cls-7" d="M208.21,90.34a1.4,1.4,0,1,1-1.39,1.4A1.39,1.39,0,0,1,208.21,90.34Z"/>
  <path class="cls-7" d="M208.21,83.44a1.4,1.4,0,1,1-1.39,1.4A1.39,1.39,0,0,1,208.21,83.44Z"/>
  <path class="cls-7" d="M212.28,80a1.39,1.39,0,1,1-1.38,1.39A1.39,1.39,0,0,1,212.28,80Z"/>
  <path class="cls-7" d="M212.28,86.9a1.4,1.4,0,1,1-1.37,1.4A1.39,1.39,0,0,1,212.28,86.9Z"/>
  <path class="cls-7" d="M208,85.91h0.51v4.63H208V85.91Z"/>
  <path class="cls-7" d="M212,82.8h0.49v4.59H212V82.8Z"/>
  <path class="cls-7" d="M201.13,85.91h0.51v4.63h-0.51V85.91Z"/>
  <path class="cls-7" d="M207.32,91.49V92h-4.55V91.49h4.55Z"/>
  <path class="cls-7" d="M207.16,84.6V85.1h-4.55V84.6h4.55Z"/>
  <path class="cls-7" d="M204.82,81.52l0.32,0.37-3.46,3-0.32-.37Z"/>
  <path class="cls-7" d="M212.14,81.2l0.32,0.37-3.46,3-0.32-.37Z"/>
  <path class="cls-7" d="M211.16,88.91l0.32,0.37-3.46,3-0.32-.37Z"/>
  <path class="cls-7" d="M210.9,81.16v0.49h-4.55V81.16h4.55Z"/>
  <path class="cls-6" d="M174,82.25a1.48,1.48,0,0,0-.42-0.43,1.82,1.82,0,0,0-.48-1.21c-1.13-1.17-3.59-.25-6,1.5a14,14,0,0,0-2.33-1.47c-1.63-.8-2.92-0.85-3.62-0.15s-0.68,2,.07,3.68a14.33,14.33,0,0,0,1.4,2.39,15.57,15.57,0,0,0-1.21,1.88,1.45,1.45,0,0,0-.77.24,1.51,1.51,0,0,0-.43,2.07,1.46,1.46,0,0,0,.32.35,1.93,1.93,0,0,0,.48,1.48,1.85,1.85,0,0,0,1.39.52,8.93,8.93,0,0,0,4.59-2,15.81,15.81,0,0,0,1.64,1.11,1.51,1.51,0,0,0,.24.85,1.45,1.45,0,0,0,2.36.14l0.37,0a1.82,1.82,0,0,0,1.33-.49c0.7-.7.68-2-0.07-3.68a14.3,14.3,0,0,0-1.4-2.39,15.13,15.13,0,0,0,1.32-2.08,1.45,1.45,0,0,0,.76-0.24A1.51,1.51,0,0,0,174,82.25Zm-1.57-1a0.75,0.75,0,0,1,.16.31,1.45,1.45,0,0,0-.64.23,1.51,1.51,0,0,0-.43,2.07,1.47,1.47,0,0,0,.37.39,14.06,14.06,0,0,1-1,1.56,4,4,0,0,0-3-3.12C170,81.22,171.86,80.68,172.44,81.28Zm-10.61-.12a0.94,0.94,0,0,1,.68-0.22,4.62,4.62,0,0,1,1.88.55,12.69,12.69,0,0,1,1.93,1.2,4,4,0,0,0-3.09,3.06,13,13,0,0,1-1.14-2C161.54,82.52,161.44,81.55,161.83,81.16Zm-0.12,10.76a0.85,0.85,0,0,1-.2-0.5,1.45,1.45,0,0,0,.77-0.24,1.51,1.51,0,0,0,.43-2.07,1.48,1.48,0,0,0-.36-0.38,14.55,14.55,0,0,1,.87-1.37,4,4,0,0,0,3,3.12C164.12,92,162.29,92.52,161.72,91.92ZM172.32,92a1,1,0,0,1-.7.22,1.5,1.5,0,0,0-.24-0.86,1.45,1.45,0,0,0-2.38-.12c-0.38-.22-0.77-0.48-1.17-0.78a4,4,0,0,0,3.08-3.06,13,13,0,0,1,1.14,2C172.61,90.68,172.71,91.65,172.32,92Z"/>
  <path class="cls-6" d="M280,80V91h11V80H280Zm3.3,2.2a1.1,1.1,0,1,1-1.1,1.1A1.1,1.1,0,0,1,283.3,82.2Zm6.6,7.7h-8.8l2.2-3.3L285,89.08l3.85-5.78L289.9,85V89.9Z"/>
  <path class="cls-6" d="M324.38,83.5a0.88,0.88,0,1,0-.87-0.87A0.88,0.88,0,0,0,324.38,83.5Zm6.13,2.59a2,2,0,0,1-.59-1c-0.51-.85-1-0.83-1.16-0.67s-0.87.88-.87,0.88c-0.91-3.39-2-1.52-2-1.52l-2.33,3.54v1.48h7V86.09Zm1.75-5.21V80h-10.5v0.88H320v8.75h1.75V90.5h10.5V89.62H334V80.87h-1.75Zm-10.5,7.88h-0.87V87.87h0.88v0.88Zm0-5.48a0.49,0.49,0,0,0-.3-0.11,0.55,0.55,0,0,0,0,1.09,0.49,0.49,0,0,0,.3-0.11v0.23l-0.87.88v-3.5h0.88v1.52Zm9.63,6.35h-8.75V80.87h8.75v8.75Zm1.75-.87h-0.87V87.87h0.88v0.88Zm0-3.5a1.82,1.82,0,0,1-.95-0.9s0.07-2.6.07-2.6h0.88v3.5Z"/>
  <g>
    <path class="cls-4" d="M372.17,57.17l0.16-.11,0.22-.16,0.14,0.16,0.1,0.11L374,58.53l0.38,0.4-0.1,0-0.38.11-2.9.8a0.91,0.91,0,0,0-.7.6,0.87,0.87,0,0,0,1.14,1.06l5.12-1a1,1,0,0,0,.86-0.84,1,1,0,0,0-.25-0.85l-1.85-2.41-0.44-.59,2.95-2.09,0.88,1.7a0.77,0.77,0,0,0,.78.46c0.58,0,1.16,0,1.75,0s1,0,1.45-.09a0.59,0.59,0,0,0,.54-0.67,0.63,0.63,0,0,0-.65-0.57c-0.79,0-1.58-.07-2.37-0.12a0.48,0.48,0,0,1-.27-0.25c-0.17-.37-0.31-0.76-0.47-1.14a4.66,4.66,0,0,0-.55-1.13c-1-1.21-2-2.39-3.09-3.57a0.76,0.76,0,0,0-.5-0.24q-1.81,0-3.61.09a0.59,0.59,0,0,0-.65.57s0,0.08,0,.11h0a0.63,0.63,0,0,0,.71.57l2.87,0.11a0.39,0.39,0,0,1,.26.09c0.27,0.33.53,0.68,0.8,1l-0.21.2-0.12.11-0.09.08-1.86,1.67-0.13.11L372,54a1.29,1.29,0,0,0-.45.77s0,0.07,0,.11a1.19,1.19,0,0,0,0,.15l-2.3,1.84-0.17.13-0.14.11"/>
    <path class="cls-4" d="M368.92,57.17L366.67,59l-0.14.11h3L369.7,59l2.47-1.79"/>
    <path class="cls-4" d="M366.53,59.08l-0.57.45a0.88,0.88,0,0,0-.41.86,0.89,0.89,0,0,0,1.48.51l2.52-1.82"/>
    <path class="cls-4" d="M380.1,51.38a1.69,1.69,0,1,0-1.73-1.7A1.72,1.72,0,0,0,380.1,51.38Z"/>
  </g>
  <g>
    <path class="cls-4" d="M413.9,52.8a0.34,0.34,0,0,1-.28-0.15l-1-1.58-1.9,0a0.34,0.34,0,0,1-.26-0.55L411.6,49,411,47.18a0.34,0.34,0,0,1,.44-0.41l1.78,0.67,1.56-1.08a0.34,0.34,0,0,1,.53.29l-0.09,1.89,1.52,1.15a0.34,0.34,0,0,1-.11.59l-1.83.5-0.62,1.79a0.34,0.34,0,0,1-.28.22h0Z"/>
    <path class="cls-4" d="M407.9,55.44a0.34,0.34,0,0,1-.34-0.35l0.05-1.18-0.95-.71a0.34,0.34,0,0,1,.11-0.59l1.14-.31,0.39-1.12a0.34,0.34,0,0,1,.6-0.08l0.65,1,1.19,0a0.34,0.34,0,0,1,.26.55l-0.74.92,0.34,1.13a0.34,0.34,0,0,1-.44.41l-1.11-.42-1,.68A0.34,0.34,0,0,1,407.9,55.44Z"/>
    <polygon class="cls-4" points="417.29 52.01 417.29 52.01 411.58 57.69 414.95 61.06 415.95 60.07 415.95 60.07 421.71 54.33 418.33 50.96 417.29 52.01"/>
    <path class="cls-4" d="M424.23,51.67a0.34,0.34,0,0,0-.1-0.24h0l-2.9-2.89h0a0.34,0.34,0,0,0-.49,0L419,50.35l3.37,3.36,1.8-1.79A0.33,0.33,0,0,0,424.23,51.67Z"/>
    <path class="cls-4" d="M409.11,60.16a0.33,0.33,0,0,0,0,.48h0l2.9,2.89h0a0.34,0.34,0,0,0,.49,0l1.86-1.85L411,58.31Z"/>
  </g>
  <path class="cls-5" d="M456.69,61.42l-0.58.11,0.22,1.7A11.18,11.18,0,0,0,460,61.9c-0.32-.44-0.68-0.94-1-1.37A6.74,6.74,0,0,1,456.69,61.42Zm4-2.27-0.39.43,1.22,1.22a10.75,10.75,0,0,0,2.12-3.24L462,57.06A6.49,6.49,0,0,1,460.73,59.15Zm3.1-7.22-1.62.56a6.38,6.38,0,0,1,.25,2.45l0,0.57,1.73,0.25A10.53,10.53,0,0,0,463.83,51.94Zm-9.43-3.69,2.15,1.25V47.74L457,47.81a7.58,7.58,0,0,1,4.35,2.93l0.22,0.3,0.76-.42,0.76-.42-0.3-.43a8.94,8.94,0,0,0-5.32-3.63L456.55,46V44.38l-2.11,1.23c-1.16.67-2.13,1.26-2.16,1.31A16.72,16.72,0,0,0,454.4,48.25Zm-3.32,1.07L445,55.63l8.2,7.55,6.08-6.32Zm-2.7,7a2.38,2.38,0,0,1-.67-1.1L448.3,55a2,2,0,0,0,.51.91,0.94,0.94,0,0,0,1.4.07,1,1,0,0,0-.14-1.49l-0.25-.24,0.4-.39,0.24,0.23a1,1,0,0,0,1.32.13,0.69,0.69,0,0,0-.06-1.06,1.76,1.76,0,0,0-.87-0.42l0.26-.53a2.37,2.37,0,0,1,1.18.64,1.22,1.22,0,0,1,.14,1.86,1.31,1.31,0,0,1-1.5.2h0a1.25,1.25,0,0,1-.16,1.66A1.63,1.63,0,0,1,448.39,56.35Zm6.87,2.82a2.84,2.84,0,0,1-2,.93,3.05,3.05,0,0,1-2-1,8.38,8.38,0,0,1-.76-0.83l3.65-3.57a8.45,8.45,0,0,1,1,.85c1.58,1.55.94,2.82,0.11,3.63h0ZM454.75,56a3.13,3.13,0,0,0-.48-0.39l-2.82,2.76a3.75,3.75,0,0,0,.34.38c0.83,0.82,1.82.84,2.85-.17A1.62,1.62,0,0,0,454.75,56Z"/>
  <path class="cls-5" d="M503.68,57.14H501.6v-7a4,4,0,0,0-8,0V60.32a2.4,2.4,0,0,1-4.81,0v-7h2.08a0.32,0.32,0,0,0,.23-0.55l-2.88-2.85h0a0.32,0.32,0,0,0-.45,0h0l-2.88,2.85a0.32,0.32,0,0,0,.23.55h2.08v7a4,4,0,0,0,8,0V50.16a2.4,2.4,0,0,1,4.81,0v7h-2.08a0.32,0.32,0,0,0-.23.54l2.88,2.85a0.32,0.32,0,0,0,.11.07h0.12a0.32,0.32,0,0,0,.23-0.09l2.88-2.85A0.32,0.32,0,0,0,503.68,57.14Zm-14.36,3.1a1.84,1.84,0,1,0,1.84-1.83A1.83,1.83,0,0,0,489.32,60.24Zm10.15-10a1.84,1.84,0,1,0-1.84,1.83A1.83,1.83,0,0,0,499.47,50.28Z"/>
  <path class="cls-5" d="M543.69,49.45a1.9,1.9,0,0,0-.54-0.54,2.27,2.27,0,0,0-.62-1.53c-1.47-1.48-4.65-.31-7.74,1.89a18.22,18.22,0,0,0-3-1.86c-2.12-1-3.78-1.07-4.69-.19s-0.88,2.53.09,4.64a17.94,17.94,0,0,0,1.82,3,19.58,19.58,0,0,0-1.57,2.38,1.91,1.91,0,0,0-1,.3,1.86,1.86,0,0,0-.13,3.06,2.25,2.25,0,0,0,2.42,2.53c1.63,0,3.81-1,6-2.56a20.47,20.47,0,0,0,2.13,1.4,1.86,1.86,0,0,0,.31,1.07,1.92,1.92,0,0,0,2.65.55,1.89,1.89,0,0,0,.41-0.37l0.48,0a2.39,2.39,0,0,0,1.73-.62c0.91-.88.88-2.53-0.09-4.64a17.93,17.93,0,0,0-1.82-3,19.09,19.09,0,0,0,1.7-2.63,1.91,1.91,0,0,0,1-.3A1.88,1.88,0,0,0,543.69,49.45ZM527.76,61.66A1.06,1.06,0,0,1,527.5,61a1.91,1.91,0,0,0,1-.3,1.87,1.87,0,0,0,.09-3.1,18.44,18.44,0,0,1,1.13-1.73,5.06,5.06,0,0,0,3.9,3.94C530.87,61.73,528.51,62.42,527.76,61.66Zm2-7.79a16.29,16.29,0,0,1-1.48-2.51c-0.72-1.57-.85-2.8-0.35-3.29a1.24,1.24,0,0,1,.89-0.28,6.1,6.1,0,0,1,2.43.7,16.53,16.53,0,0,1,2.5,1.51A5.06,5.06,0,0,0,529.74,53.87Zm11.42,4.64c0.72,1.57.85,2.8,0.35,3.29a1.25,1.25,0,0,1-.91.28,1.86,1.86,0,0,0-.31-1.08,1.93,1.93,0,0,0-2.65-.55,1.87,1.87,0,0,0-.43.4c-0.49-.28-1-0.61-1.52-1a5.06,5.06,0,0,0,4-3.87A16.23,16.23,0,0,1,541.16,58.52ZM541,48.9A1.87,1.87,0,0,0,541,52a17.71,17.71,0,0,1-1.26,2A5.06,5.06,0,0,0,535.8,50c2.75-1.88,5.11-2.56,5.86-1.81a0.94,0.94,0,0,1,.21.39A1.9,1.9,0,0,0,541,48.9Z"/>
  <path class="cls-5" d="M583.2,54.65V49.12a1.76,1.76,0,0,0,1-1.59,1.79,1.79,0,0,0-3.42-.73h-5.59a1.79,1.79,0,0,0-3.42.73,1.74,1.74,0,0,0,.14.68l-2.91,2a1.81,1.81,0,0,0-.71-0.14,1.76,1.76,0,0,0-.76,3.36V59a1.76,1.76,0,0,0,.76,3.36,1.79,1.79,0,0,0,1.63-1h5.59a1.79,1.79,0,0,0,3.42-.73,1.73,1.73,0,0,0-.23-0.86l1.08-.91,1.6-1.12a1.79,1.79,0,0,0,2.81-1.45A1.76,1.76,0,0,0,583.2,54.65Zm-7.54-3.7h-5.79l0.12-.1L572.62,49a1.79,1.79,0,0,0,2.74-1.17h5.33a1.73,1.73,0,0,0,.22.57l-0.67.57-2.05,1.43A1.8,1.8,0,0,0,575.65,50.95ZM578,58.82V53.43a1.76,1.76,0,0,0,1-1.57,1.73,1.73,0,0,0-.13-0.66l2.94-2a1.8,1.8,0,0,0,.37.1v0h0v5.22a1.77,1.77,0,0,0-1.48,1.73,1.73,1.73,0,0,0,.12.63Zm-9.33,0V53.6a1.78,1.78,0,0,0,1.43-1.41h5.33a1.78,1.78,0,0,0,1.43,1.41v5.25a1.78,1.78,0,0,0-1.44,1.43h-5.33A1.77,1.77,0,0,0,568.65,58.84Z"/>
  <path class="cls-5" d="M610.73,51.57a0.57,0.57,0,1,0,.58.57A0.57,0.57,0,0,0,610.73,51.57Zm3.46,7.91a0.57,0.57,0,1,0,.58.57A0.57,0.57,0,0,0,614.19,59.48ZM620,51.57a0.57,0.57,0,1,0,.58.57A0.57,0.57,0,0,0,620,51.57Zm-5.19-5.65A9,9,0,1,0,624,55,9.14,9.14,0,0,0,614.77,45.91Zm0,15.83a6.78,6.78,0,1,1,0-13.57,7,7,0,0,1,4.83,1.93L617,52.35a3.48,3.48,0,0,0-2.19-.78A3.39,3.39,0,1,0,618.23,55a3.32,3.32,0,0,0-.8-2.14l2.29-2.59a6.68,6.68,0,0,1,2,4.73A6.86,6.86,0,0,1,614.77,61.74Zm0-5.65A1.14,1.14,0,0,0,615.92,55a1.08,1.08,0,0,0-.07-0.35l0.82-.93a2.22,2.22,0,0,1,.41,1.28,2.31,2.31,0,1,1-2.31-2.26,2.33,2.33,0,0,1,1.31.4l-0.95.8A1.13,1.13,0,1,0,614.77,56.09Z"/>
  <path class="cls-8" d="M362,80h26a2,2,0,0,1,2,2v26a2,2,0,0,1-2,2H362a2,2,0,0,1-2-2V82A2,2,0,0,1,362,80Z"/>
  <path class="cls-8" d="M402,80h26a2,2,0,0,1,2,2v26a2,2,0,0,1-2,2H402a2,2,0,0,1-2-2V82A2,2,0,0,1,402,80Z"/>
  <path class="cls-8" d="M442,80h26a2,2,0,0,1,2,2v26a2,2,0,0,1-2,2H442a2,2,0,0,1-2-2V82A2,2,0,0,1,442,80Z"/>
  <path class="cls-8" d="M482,80h26a2,2,0,0,1,2,2v26a2,2,0,0,1-2,2H482a2,2,0,0,1-2-2V82A2,2,0,0,1,482,80Z"/>
  <path class="cls-8" d="M522,80h26a2,2,0,0,1,2,2v26a2,2,0,0,1-2,2H522a2,2,0,0,1-2-2V82A2,2,0,0,1,522,80Z"/>
  <path class="cls-8" d="M562,80h26a2,2,0,0,1,2,2v26a2,2,0,0,1-2,2H562a2,2,0,0,1-2-2V82A2,2,0,0,1,562,80Z"/>
  <path class="cls-8" d="M602,80h26a2,2,0,0,1,2,2v26a2,2,0,0,1-2,2H602a2,2,0,0,1-2-2V82A2,2,0,0,1,602,80Z"/>
  <g>
    <path class="cls-2" d="M372.17,97.17l0.16-.11,0.22-.16,0.14,0.16,0.1,0.11L374,98.53l0.38,0.4-0.1,0-0.38.11-2.9.8a0.91,0.91,0,0,0-.7.6,0.87,0.87,0,0,0,1.14,1.06l5.12-1a1,1,0,0,0,.86-0.84,1,1,0,0,0-.25-0.85l-1.85-2.41-0.44-.59,2.95-2.09,0.88,1.7a0.77,0.77,0,0,0,.78.46c0.58,0,1.16,0,1.75,0s1,0,1.45-.09a0.59,0.59,0,0,0,.54-0.67,0.63,0.63,0,0,0-.65-0.57c-0.79,0-1.58-.07-2.37-0.12a0.48,0.48,0,0,1-.27-0.25c-0.17-.37-0.31-0.76-0.47-1.14a4.66,4.66,0,0,0-.55-1.13c-1-1.21-2-2.39-3.09-3.57a0.76,0.76,0,0,0-.5-0.24q-1.81,0-3.61.09a0.59,0.59,0,0,0-.65.57s0,0.08,0,.11h0a0.63,0.63,0,0,0,.71.57l2.87,0.11a0.39,0.39,0,0,1,.26.09c0.27,0.33.53,0.68,0.8,1l-0.21.2-0.12.11-0.09.08-1.86,1.67-0.13.11L372,94a1.29,1.29,0,0,0-.45.77s0,0.07,0,.11a1.19,1.19,0,0,0,0,.15l-2.3,1.84-0.17.13-0.14.11"/>
    <path class="cls-2" d="M368.92,97.17L366.67,99l-0.14.11h3L369.7,99l2.47-1.79"/>
    <path class="cls-2" d="M366.53,99.08l-0.57.45a0.88,0.88,0,0,0-.41.86,0.89,0.89,0,0,0,1.48.51l2.52-1.82"/>
    <path class="cls-2" d="M380.1,91.38a1.69,1.69,0,1,0-1.73-1.7A1.72,1.72,0,0,0,380.1,91.38Z"/>
  </g>
  <g>
    <path class="cls-2" d="M413.9,92.8a0.34,0.34,0,0,1-.28-0.15l-1-1.58-1.9,0a0.34,0.34,0,0,1-.26-0.55L411.6,89,411,87.18a0.34,0.34,0,0,1,.44-0.41l1.78,0.67,1.56-1.08a0.34,0.34,0,0,1,.53.29l-0.09,1.89,1.52,1.15a0.34,0.34,0,0,1-.11.59l-1.83.5-0.62,1.79a0.34,0.34,0,0,1-.28.22h0Z"/>
    <path class="cls-2" d="M407.9,95.44a0.34,0.34,0,0,1-.34-0.35l0.05-1.18-0.95-.71a0.34,0.34,0,0,1,.11-0.59l1.14-.31,0.39-1.12a0.34,0.34,0,0,1,.6-0.08l0.65,1,1.19,0a0.34,0.34,0,0,1,.26.55l-0.74.92,0.34,1.13a0.34,0.34,0,0,1-.44.41l-1.11-.42-1,.68A0.34,0.34,0,0,1,407.9,95.44Z"/>
    <polygon class="cls-2" points="417.29 92.01 417.29 92.01 411.58 97.69 414.95 101.06 415.95 100.07 415.95 100.07 421.71 94.33 418.33 90.96 417.29 92.01"/>
    <path class="cls-2" d="M424.23,91.67a0.34,0.34,0,0,0-.1-0.24h0l-2.9-2.89h0a0.34,0.34,0,0,0-.49,0L419,90.35l3.37,3.36,1.8-1.79A0.33,0.33,0,0,0,424.23,91.67Z"/>
    <path class="cls-2" d="M409.11,100.16a0.33,0.33,0,0,0,0,.48h0l2.9,2.89h0a0.34,0.34,0,0,0,.49,0l1.86-1.85L411,98.31Z"/>
  </g>
  <path class="cls-3" d="M456.69,101.42l-0.58.11,0.22,1.7A11.18,11.18,0,0,0,460,101.9c-0.32-.44-0.68-0.94-1-1.37A6.74,6.74,0,0,1,456.69,101.42Zm4-2.27-0.39.43,1.22,1.22a10.75,10.75,0,0,0,2.12-3.24L462,97.06A6.49,6.49,0,0,1,460.73,99.15Zm3.1-7.22-1.62.56a6.38,6.38,0,0,1,.25,2.45l0,0.57,1.73,0.25A10.53,10.53,0,0,0,463.83,91.94Zm-9.43-3.69,2.16,1.25V87.74L457,87.81a7.58,7.58,0,0,1,4.35,2.93l0.22,0.3,0.76-.42,0.76-.42-0.3-.43a8.94,8.94,0,0,0-5.32-3.63L456.55,86V84.38l-2.11,1.23c-1.16.67-2.13,1.26-2.16,1.31A16.72,16.72,0,0,0,454.4,88.25Zm-3.32,1.07L445,95.63l8.2,7.55,6.08-6.32Zm-2.7,7a2.38,2.38,0,0,1-.67-1.1L448.3,95a2,2,0,0,0,.51.91,0.94,0.94,0,0,0,1.4.07,1,1,0,0,0-.14-1.49l-0.25-.24,0.4-.39,0.24,0.23a1,1,0,0,0,1.32.13,0.69,0.69,0,0,0-.06-1.06,1.76,1.76,0,0,0-.87-0.42l0.26-.53a2.37,2.37,0,0,1,1.18.64,1.22,1.22,0,0,1,.14,1.86,1.31,1.31,0,0,1-1.5.2h0a1.25,1.25,0,0,1-.16,1.66A1.63,1.63,0,0,1,448.39,96.35Zm6.87,2.82a2.84,2.84,0,0,1-2,.93,3.05,3.05,0,0,1-2-1,8.36,8.36,0,0,1-.76-0.83l3.65-3.57a8.45,8.45,0,0,1,1,.85c1.58,1.55.94,2.82,0.11,3.63h0ZM454.76,96a3.14,3.14,0,0,0-.48-0.39l-2.82,2.76a3.75,3.75,0,0,0,.34.38c0.83,0.82,1.82.84,2.85-.17A1.62,1.62,0,0,0,454.76,96Z"/>
  <path class="cls-3" d="M503.68,97.14H501.6v-7a4,4,0,0,0-8,0v10.15a2.4,2.4,0,0,1-4.81,0v-7h2.08a0.32,0.32,0,0,0,.23-0.55l-2.88-2.85h0a0.32,0.32,0,0,0-.45,0h0l-2.88,2.85a0.32,0.32,0,0,0,.23.55h2.08v7a4,4,0,0,0,8,0V90.16a2.4,2.4,0,0,1,4.81,0v7h-2.08a0.32,0.32,0,0,0-.23.54l2.88,2.85a0.32,0.32,0,0,0,.11.07h0.12a0.33,0.33,0,0,0,.23-0.09l2.88-2.85A0.32,0.32,0,0,0,503.68,97.14Zm-14.36,3.1a1.84,1.84,0,1,0,1.84-1.82A1.83,1.83,0,0,0,489.32,100.24Zm10.15-10a1.84,1.84,0,1,0-1.84,1.83A1.83,1.83,0,0,0,499.47,90.28Z"/>
  <path class="cls-3" d="M543.69,89.45a1.9,1.9,0,0,0-.54-0.54,2.27,2.27,0,0,0-.62-1.53c-1.47-1.48-4.65-.31-7.74,1.89a18.23,18.23,0,0,0-3-1.86c-2.12-1-3.78-1.07-4.69-.19s-0.88,2.53.09,4.64a17.93,17.93,0,0,0,1.82,3,19.6,19.6,0,0,0-1.57,2.38,1.91,1.91,0,0,0-1,.3,1.86,1.86,0,0,0-.13,3.06,2.25,2.25,0,0,0,2.42,2.53c1.63,0,3.81-1,6-2.56a20.47,20.47,0,0,0,2.13,1.4,1.86,1.86,0,0,0,.31,1.07,1.92,1.92,0,0,0,2.65.55,1.89,1.89,0,0,0,.41-0.37l0.48,0a2.39,2.39,0,0,0,1.73-.62c0.91-.88.88-2.53-0.09-4.64a17.94,17.94,0,0,0-1.82-3,19.11,19.11,0,0,0,1.7-2.63,1.91,1.91,0,0,0,1-.3A1.88,1.88,0,0,0,543.69,89.45Zm-15.93,12.22a1.06,1.06,0,0,1-.26-0.63,1.91,1.91,0,0,0,1-.3,1.87,1.87,0,0,0,.09-3.1,18.44,18.44,0,0,1,1.13-1.73,5.06,5.06,0,0,0,3.9,3.94C530.87,101.73,528.51,102.42,527.76,101.66Zm2-7.79a16.28,16.28,0,0,1-1.48-2.51c-0.72-1.57-.85-2.8-0.35-3.29a1.24,1.24,0,0,1,.89-0.28,6.1,6.1,0,0,1,2.43.7,16.52,16.52,0,0,1,2.5,1.51A5.06,5.06,0,0,0,529.74,93.87Zm11.42,4.64c0.72,1.57.85,2.8,0.35,3.29a1.26,1.26,0,0,1-.91.28,1.86,1.86,0,0,0-.31-1.08,1.93,1.93,0,0,0-2.65-.55,1.87,1.87,0,0,0-.43.4c-0.49-.28-1-0.61-1.52-1a5.06,5.06,0,0,0,4-3.87A16.26,16.26,0,0,1,541.16,98.52ZM541,88.9A1.87,1.87,0,0,0,541,92a17.71,17.71,0,0,1-1.26,2A5.06,5.06,0,0,0,535.8,90c2.75-1.88,5.11-2.56,5.86-1.81a0.94,0.94,0,0,1,.21.39A1.9,1.9,0,0,0,541,88.9Z"/>
  <path class="cls-3" d="M583.2,94.65V89.12a1.76,1.76,0,0,0,1-1.59,1.79,1.79,0,0,0-3.42-.73h-5.59a1.79,1.79,0,0,0-3.42.73,1.74,1.74,0,0,0,.14.68l-2.91,2a1.81,1.81,0,0,0-.71-0.14,1.76,1.76,0,0,0-.76,3.36V99a1.76,1.76,0,0,0,.76,3.36,1.79,1.79,0,0,0,1.63-1h5.59a1.79,1.79,0,0,0,3.42-.73,1.73,1.73,0,0,0-.23-0.86l1.08-.91,1.6-1.12a1.79,1.79,0,0,0,2.81-1.45A1.76,1.76,0,0,0,583.2,94.65Zm-7.54-3.7h-5.79l0.12-.1L572.62,89a1.79,1.79,0,0,0,2.74-1.17h5.33a1.72,1.72,0,0,0,.22.57l-0.67.56-2.05,1.43A1.8,1.8,0,0,0,575.65,90.95ZM578,98.82V93.43a1.76,1.76,0,0,0,1-1.57,1.74,1.74,0,0,0-.13-0.66l2.94-2a1.8,1.8,0,0,0,.37.1v0h0v5.22a1.77,1.77,0,0,0-1.48,1.73,1.73,1.73,0,0,0,.12.63Zm-9.33,0V93.6a1.78,1.78,0,0,0,1.43-1.41h5.33a1.78,1.78,0,0,0,1.43,1.41v5.25a1.78,1.78,0,0,0-1.44,1.43h-5.33A1.77,1.77,0,0,0,568.65,98.84Z"/>
  <path class="cls-3" d="M614.19,99.48a0.57,0.57,0,1,0,.58.57A0.57,0.57,0,0,0,614.19,99.48Zm-3.46-7.91a0.57,0.57,0,1,0,.58.57A0.57,0.57,0,0,0,610.73,91.57Zm9.23,0a0.57,0.57,0,1,0,.58.57A0.57,0.57,0,0,0,620,91.57Zm-5.19-5.65A9,9,0,1,0,624,95,9.14,9.14,0,0,0,614.77,85.91Zm0,15.83a6.78,6.78,0,1,1,0-13.57,7,7,0,0,1,4.83,1.93L617,92.35a3.48,3.48,0,0,0-2.19-.78A3.39,3.39,0,1,0,618.23,95a3.32,3.32,0,0,0-.8-2.14l2.29-2.59a6.68,6.68,0,0,1,2,4.73A6.86,6.86,0,0,1,614.77,101.74Zm0-5.65A1.14,1.14,0,0,0,615.92,95a1.08,1.08,0,0,0-.07-0.35l0.82-.93a2.22,2.22,0,0,1,.41,1.28,2.31,2.31,0,1,1-2.31-2.26,2.33,2.33,0,0,1,1.31.4l-0.95.8A1.13,1.13,0,1,0,614.77,96.09Z"/>
  <path class="cls-1" d="M642,40h26a2,2,0,0,1,2,2V68a2,2,0,0,1-2,2H642a2,2,0,0,1-2-2V42A2,2,0,0,1,642,40Z"/>
  <g>
    <path class="cls-4" d="M646.6,49.6H653a3,3,0,0,1,0-1.2H646.6A0.6,0.6,0,0,0,646.6,49.6Z"/>
    <path class="cls-4" d="M663.4,49.6a0.6,0.6,0,0,0,0-1.2h-3.74a3,3,0,0,1,0,1.2h3.74Z"/>
    <path class="cls-4" d="M656.32,51.7a2.72,2.72,0,1,0-2.63-2.1A2.7,2.7,0,0,0,656.32,51.7Z"/>
    <path class="cls-4" d="M663.4,60.4h-0.75a3,3,0,0,1,0,1.2h0.75A0.6,0.6,0,0,0,663.4,60.4Z"/>
    <path class="cls-4" d="M646.6,60.4a0.6,0.6,0,0,0,0,1.2H656a3,3,0,0,1,0-1.2H646.6Z"/>
    <path class="cls-4" d="M659.31,58.3a2.72,2.72,0,1,0,2.63,2.1A2.7,2.7,0,0,0,659.31,58.3Z"/>
    <path class="cls-4" d="M663.4,54.4H654a3,3,0,0,1,0,1.2h9.39A0.6,0.6,0,0,0,663.4,54.4Z"/>
    <path class="cls-4" d="M646.6,55.6h0.73a3,3,0,0,1,0-1.2H646.6A0.6,0.6,0,0,0,646.6,55.6Z"/>
    <path class="cls-4" d="M650.67,52.3a2.72,2.72,0,1,0,2.63,2.1A2.7,2.7,0,0,0,650.67,52.3Z"/>
  </g>
  <path class="cls-8" d="M642,80h26a2,2,0,0,1,2,2v26a2,2,0,0,1-2,2H642a2,2,0,0,1-2-2V82A2,2,0,0,1,642,80Z"/>
  <g>
    <path class="cls-2" d="M646.6,89.6H653a3,3,0,0,1,0-1.2H646.6A0.6,0.6,0,0,0,646.6,89.6Z"/>
    <path class="cls-2" d="M663.4,89.6a0.6,0.6,0,0,0,0-1.2h-3.74a3,3,0,0,1,0,1.2h3.74Z"/>
    <path class="cls-2" d="M656.32,91.7a2.72,2.72,0,1,0-2.63-2.1A2.7,2.7,0,0,0,656.32,91.7Z"/>
    <path class="cls-2" d="M663.4,100.4h-0.75a3,3,0,0,1,0,1.2h0.75A0.6,0.6,0,0,0,663.4,100.4Z"/>
    <path class="cls-2" d="M646.6,100.4a0.6,0.6,0,0,0,0,1.2H656a3,3,0,0,1,0-1.2H646.6Z"/>
    <path class="cls-2" d="M659.31,98.3a2.72,2.72,0,1,0,2.63,2.1A2.7,2.7,0,0,0,659.31,98.3Z"/>
    <path class="cls-2" d="M663.4,94.4H654a3,3,0,0,1,0,1.2h9.39A0.6,0.6,0,0,0,663.4,94.4Z"/>
    <path class="cls-2" d="M646.6,95.6h0.73a3,3,0,0,1,0-1.2H646.6A0.6,0.6,0,0,0,646.6,95.6Z"/>
    <path class="cls-2" d="M650.67,92.3a2.72,2.72,0,1,0,2.63,2.1A2.7,2.7,0,0,0,650.67,92.3Z"/>
  </g>
  <g>
    <path class="cls-2" d="M646.6,9.6H653a3,3,0,0,1,0-1.2H646.6A0.6,0.6,0,0,0,646.6,9.6Z"/>
    <path class="cls-2" d="M663.4,9.6a0.6,0.6,0,0,0,0-1.2h-3.74a3,3,0,0,1,0,1.2h3.74Z"/>
    <path class="cls-2" d="M656.32,11.7a2.72,2.72,0,1,0-2.63-2.1A2.7,2.7,0,0,0,656.32,11.7Z"/>
    <path class="cls-2" d="M663.4,20.4h-0.75a3,3,0,0,1,0,1.2h0.75A0.6,0.6,0,0,0,663.4,20.4Z"/>
    <path class="cls-2" d="M646.6,20.4a0.6,0.6,0,0,0,0,1.2H656a3,3,0,0,1,0-1.2H646.6Z"/>
    <path class="cls-2" d="M659.31,18.3a2.72,2.72,0,1,0,2.63,2.1A2.7,2.7,0,0,0,659.31,18.3Z"/>
    <path class="cls-2" d="M663.4,14.4H654a3,3,0,0,1,0,1.2h9.39A0.6,0.6,0,0,0,663.4,14.4Z"/>
    <path class="cls-2" d="M646.6,15.6h0.73a3,3,0,0,1,0-1.2H646.6A0.6,0.6,0,0,0,646.6,15.6Z"/>
    <path class="cls-2" d="M650.67,12.3a2.72,2.72,0,1,0,2.63,2.1A2.7,2.7,0,0,0,650.67,12.3Z"/>
  </g>
  <path class="cls-1" d="M682,40h26a2,2,0,0,1,2,2V68a2,2,0,0,1-2,2H682a2,2,0,0,1-2-2V42A2,2,0,0,1,682,40Z"/>
  <path class="cls-4" d="M702.8,46H687.2a1.2,1.2,0,0,0-1.2,1.2V62.8a1.2,1.2,0,0,0,1.2,1.2h15.6a1.2,1.2,0,0,0,1.2-1.2V47.2A1.2,1.2,0,0,0,702.8,46ZM701,61.38a2,2,0,0,1-1.74.88H699c-1.28-.09-2.6-1.68-4.05-4.84l-0.15-.31,0,0c-1.39,3.44-2.9,5.1-4.63,5.1a3,3,0,0,1-1.79-.56L688,61.46l1.7-2.12L690,59.6a1,1,0,0,0,.69.32c0.57,0,1.48-.53,2.58-3.05l0.66-1.52-0.67-1.42-0.43-.9L692,51.52c-0.72-1.38-1.08-1.42-1.12-1.42-0.54,0-.8.89-0.91,1.63l-0.16,1-0.46-1a2.91,2.91,0,0,1,.07-2.89,2.4,2.4,0,0,1,1.92-1.11c1.13,0,2.36,1.51,3.85,4.76l0,0.06c1.46-3.24,2.84-4.82,4.2-4.82a3.29,3.29,0,0,1,1.32.34l0.41,0.19-1.68,2.28-0.21-.07a1.53,1.53,0,0,0-.35-0.08c-0.55,0-1.46.59-2.63,3.39l-0.23.56,0.34,0.73c2.48,5.11,2.86,4.89,3.06,4.89h0a0.8,0.8,0,0,0,.65-0.27,1.12,1.12,0,0,0,.09-0.94l-0.12-.5,0.5,0.15a1.3,1.3,0,0,1,.91,1A2.62,2.62,0,0,1,701,61.38Z"/>
  <path class="cls-2" d="M702.8,6H687.2A1.2,1.2,0,0,0,686,7.2V22.8a1.2,1.2,0,0,0,1.2,1.2h15.6a1.2,1.2,0,0,0,1.2-1.2V7.2A1.2,1.2,0,0,0,702.8,6ZM701,21.38a2,2,0,0,1-1.74.88H699c-1.28-.09-2.6-1.68-4.05-4.84l-0.15-.31,0,0c-1.39,3.44-2.9,5.1-4.63,5.1a3,3,0,0,1-1.79-.56L688,21.46l1.7-2.12L690,19.6a1,1,0,0,0,.69.32c0.57,0,1.48-.53,2.58-3.05l0.66-1.52-0.67-1.42-0.43-.9L692,11.52c-0.72-1.38-1.08-1.42-1.12-1.42-0.54,0-.8.89-0.91,1.63l-0.16,1-0.46-1a2.91,2.91,0,0,1,.07-2.89,2.4,2.4,0,0,1,1.92-1.11c1.13,0,2.36,1.51,3.85,4.76l0,0.06c1.46-3.24,2.84-4.82,4.2-4.82a3.29,3.29,0,0,1,1.32.34l0.41,0.19-1.68,2.28-0.21-.07a1.53,1.53,0,0,0-.35-0.08c-0.55,0-1.46.59-2.63,3.39l-0.23.56,0.34,0.73c2.48,5.11,2.86,4.89,3.06,4.89h0a0.8,0.8,0,0,0,.65-0.27,1.12,1.12,0,0,0,.09-0.94l-0.12-.5,0.5,0.15a1.3,1.3,0,0,1,.91,1A2.62,2.62,0,0,1,701,21.38Z"/>
  <path class="cls-8" d="M682,80h26a2,2,0,0,1,2,2v26a2,2,0,0,1-2,2H682a2,2,0,0,1-2-2V82A2,2,0,0,1,682,80Z"/>
  <path class="cls-2" d="M702.8,86H687.2a1.2,1.2,0,0,0-1.2,1.2v15.6a1.2,1.2,0,0,0,1.2,1.2h15.6a1.2,1.2,0,0,0,1.2-1.2V87.2A1.2,1.2,0,0,0,702.8,86ZM701,101.38a2,2,0,0,1-1.74.88H699c-1.28-.09-2.6-1.68-4.05-4.84l-0.15-.31,0,0c-1.39,3.44-2.9,5.1-4.63,5.1a3,3,0,0,1-1.79-.56l-0.31-.22,1.7-2.12L690,99.6a1,1,0,0,0,.69.32c0.57,0,1.48-.53,2.58-3.05l0.66-1.52-0.67-1.42-0.43-.9L692,91.52c-0.72-1.38-1.08-1.42-1.12-1.42-0.54,0-.8.89-0.91,1.63l-0.16,1-0.46-1a2.91,2.91,0,0,1,.07-2.89,2.4,2.4,0,0,1,1.92-1.11c1.13,0,2.36,1.51,3.85,4.76l0,0.06c1.46-3.24,2.84-4.82,4.2-4.82a3.29,3.29,0,0,1,1.32.34l0.41,0.19-1.68,2.28-0.21-.07a1.53,1.53,0,0,0-.35-0.08c-0.55,0-1.46.59-2.63,3.39l-0.23.56,0.34,0.73c2.48,5.11,2.86,4.89,3.06,4.89h0a0.8,0.8,0,0,0,.65-0.27,1.12,1.12,0,0,0,.09-0.94l-0.12-.5,0.5,0.15a1.3,1.3,0,0,1,.91,1A2.62,2.62,0,0,1,701,101.38Z"/>
  <polygon class="cls-9" points="726.3 24.7 726.3 24.7 726.3 24.7 726.3 24.7"/>
  <polygon class="cls-2" points="726.31 24.83 726.3 24.7 726.26 24.83 726.31 24.83"/>
  <polygon class="cls-9" points="726.3 64.7 726.3 64.7 726.3 64.7 726.3 64.7"/>
  <polygon class="cls-2" points="726.31 64.83 726.3 64.7 726.26 64.83 726.31 64.83"/>
  <polygon class="cls-9" points="726.3 104.7 726.3 104.7 726.3 104.7 726.3 104.7"/>
  <polygon class="cls-2" points="726.31 104.83 726.3 104.7 726.26 104.83 726.31 104.83"/>
  <path class="cls-2" d="M727.95,109.06l0,0v0h0Z"/>
  <path class="cls-2" d="M813.07,0H800.93a0.93,0.93,0,0,0-.93.93V13.07a0.93,0.93,0,0,0,.93.93h12.13a0.93,0.93,0,0,0,.93-0.93V0.93A0.93,0.93,0,0,0,813.07,0Zm-1.42,12a1.55,1.55,0,0,1-1.35.68h-0.19c-1-.07-2-1.3-3.15-3.76l-0.11-.24v0c-1.08,2.67-2.26,4-3.6,4a2.34,2.34,0,0,1-1.39-.43L801.58,12l1.32-1.65,0.21,0.2a0.75,0.75,0,0,0,.54.25c0.44,0,1.15-.41,2-2.37l0.51-1.19-0.52-1.11-0.34-.7-0.62-1.17c-0.56-1.07-.84-1.1-0.87-1.1-0.42,0-.62.69-0.71,1.27L803,5.27l-0.36-.8a2.26,2.26,0,0,1,.05-2.25,1.87,1.87,0,0,1,1.49-.86c0.88,0,1.83,1.18,3,3.7l0,0c1.14-2.52,2.21-3.75,3.27-3.75a2.56,2.56,0,0,1,1,.26l0.32,0.14L810.5,3.53l-0.17-.05a1.19,1.19,0,0,0-.27-0.06c-0.43,0-1.13.46-2,2.64l-0.18.43,0.26,0.57c1.93,4,2.22,3.8,2.38,3.8h0a0.62,0.62,0,0,0,.5-0.21,0.87,0.87,0,0,0,.07-0.73L811,9.53l0.39,0.12a1,1,0,0,1,.71.75A2,2,0,0,1,811.64,12Z"/>
  <path class="cls-4" d="M813.07,40H800.93a0.93,0.93,0,0,0-.93.93V53.07a0.93,0.93,0,0,0,.93.93h12.13a0.93,0.93,0,0,0,.93-0.93V40.93A0.93,0.93,0,0,0,813.07,40Zm-1.42,12a1.55,1.55,0,0,1-1.35.68h-0.19c-1-.07-2-1.3-3.15-3.76l-0.11-.24v0c-1.08,2.67-2.26,4-3.6,4a2.34,2.34,0,0,1-1.39-.43L801.58,52l1.32-1.65,0.21,0.2a0.75,0.75,0,0,0,.54.25c0.44,0,1.15-.41,2-2.37l0.51-1.19-0.52-1.11-0.34-.7-0.62-1.17c-0.56-1.07-.84-1.1-0.87-1.1-0.42,0-.62.69-0.71,1.27l-0.13.81-0.36-.8a2.26,2.26,0,0,1,.05-2.25,1.87,1.87,0,0,1,1.49-.86c0.88,0,1.83,1.18,3,3.7l0,0c1.14-2.52,2.21-3.75,3.27-3.75a2.56,2.56,0,0,1,1,.26l0.32,0.14-1.31,1.77-0.17-.05a1.19,1.19,0,0,0-.27-0.06c-0.43,0-1.13.46-2,2.64l-0.18.43,0.26,0.57c1.93,4,2.22,3.8,2.38,3.8h0a0.62,0.62,0,0,0,.5-0.21,0.87,0.87,0,0,0,.07-0.73L811,49.53l0.39,0.12a1,1,0,0,1,.71.75A2,2,0,0,1,811.64,52Z"/>
  <path class="cls-6" d="M813.07,80H800.93a0.93,0.93,0,0,0-.93.93V93.07a0.93,0.93,0,0,0,.93.93h12.13a0.93,0.93,0,0,0,.93-0.93V80.93A0.93,0.93,0,0,0,813.07,80Zm-1.42,12a1.55,1.55,0,0,1-1.35.68h-0.19c-1-.07-2-1.3-3.15-3.76l-0.11-.24v0c-1.08,2.67-2.26,4-3.6,4a2.34,2.34,0,0,1-1.39-.43L801.58,92l1.32-1.65,0.21,0.2a0.75,0.75,0,0,0,.54.25c0.44,0,1.15-.41,2-2.37l0.51-1.19-0.52-1.11-0.34-.7-0.62-1.17c-0.56-1.07-.84-1.1-0.87-1.1-0.42,0-.62.69-0.71,1.27l-0.13.81-0.36-.8a2.26,2.26,0,0,1,.05-2.25,1.87,1.87,0,0,1,1.49-.86c0.88,0,1.83,1.18,3,3.7l0,0c1.14-2.52,2.21-3.75,3.27-3.75a2.56,2.56,0,0,1,1,.26l0.32,0.14-1.31,1.77-0.17-.05a1.19,1.19,0,0,0-.27-0.06c-0.43,0-1.13.46-2,2.64l-0.18.43,0.26,0.57c1.93,4,2.22,3.8,2.38,3.8h0a0.62,0.62,0,0,0,.5-0.21,0.87,0.87,0,0,0,.07-0.73L811,89.53l0.39,0.12a1,1,0,0,1,.71.75A2,2,0,0,1,811.64,92Z"/>
  <path class="cls-1" d="M882,40h26a2,2,0,0,1,2,2V68a2,2,0,0,1-2,2H882a2,2,0,0,1-2-2V42A2,2,0,0,1,882,40Z"/>
  <path class="cls-1" d="M1002,40h26a2,2,0,0,1,2,2V68a2,2,0,0,1-2,2h-26a2,2,0,0,1-2-2V42A2,2,0,0,1,1002,40Z"/>
  <g>
    <path class="cls-4" d="M902.74,50.17a0.76,0.76,0,0,0-.76.76V61a1,1,0,0,1-1,1H889a1,1,0,0,1-1-1V49a1,1,0,0,1,1-1h9.91a0.76,0.76,0,1,0,0-1.51H889A2.49,2.49,0,0,0,886.5,49V61A2.49,2.49,0,0,0,889,63.5h12A2.49,2.49,0,0,0,903.5,61V50.93A0.76,0.76,0,0,0,902.74,50.17Z"/>
    <polygon class="cls-4" points="890.97 58.03 890.97 52.12 889.46 52.12 888.77 53.23 889.86 53.23 889.86 58.03 890.97 58.03"/>
    <path class="cls-4" d="M894.13,55.31L891.62,58h4.64v-1.1h-2.13l0.9-1a7,7,0,0,0,.85-1.07,2,2,0,0,0,.31-1.08,1.84,1.84,0,0,0-.57-1.36,1.94,1.94,0,0,0-1.41-.56,2,2,0,0,0-1.45.59,2.27,2.27,0,0,0-.64,1.57v0.25h1.09V54.09a1.32,1.32,0,0,1,.31-0.83,0.92,0.92,0,0,1,1.29,0,0.76,0.76,0,0,1,.26.57,1.07,1.07,0,0,1-.19.62A7.86,7.86,0,0,1,894.13,55.31Z"/>
    <path class="cls-4" d="M897.75,52.34a2.27,2.27,0,0,0-.68,1.24l-0.07.29h1.12l0.06-.15a1.45,1.45,0,0,1,.34-0.56,0.76,0.76,0,0,1,1,0,0.53,0.53,0,0,1,.19.42,0.47,0.47,0,0,1-.25.41,1.35,1.35,0,0,1-.78.2H898.4v1.07h0.23a1.87,1.87,0,0,1,1.05.26,0.69,0.69,0,0,1,.31.6,0.84,0.84,0,0,1-.28.65,1,1,0,0,1-.72.27,0.94,0.94,0,0,1-.65-0.2,1.41,1.41,0,0,1-.36-0.68l0-.17h-1.11l0.06,0.28a2.47,2.47,0,0,0,.71,1.39,2,2,0,0,0,1.37.49,2.1,2.1,0,0,0,1.53-.6,2,2,0,0,0,.61-1.44,1.77,1.77,0,0,0-.28-1,1.83,1.83,0,0,0-.47-0.5,1.43,1.43,0,0,0,.46-1.08,1.57,1.57,0,0,0-.55-1.2,1.86,1.86,0,0,0-1.27-.48A1.81,1.81,0,0,0,897.75,52.34Z"/>
  </g>
  <g>
    <path class="cls-2" d="M902.74,10.17a0.76,0.76,0,0,0-.76.76V21a1,1,0,0,1-1,1H889a1,1,0,0,1-1-1V9a1,1,0,0,1,1-1h9.91a0.76,0.76,0,1,0,0-1.51H889A2.49,2.49,0,0,0,886.5,9V21A2.49,2.49,0,0,0,889,23.5h12A2.49,2.49,0,0,0,903.5,21V10.93A0.76,0.76,0,0,0,902.74,10.17Z"/>
    <polygon class="cls-2" points="890.97 18.03 890.97 12.12 889.45 12.12 888.77 13.23 889.86 13.23 889.86 18.03 890.97 18.03"/>
    <path class="cls-2" d="M894.13,15.31L891.61,18h4.64v-1.1h-2.13l0.9-1a7,7,0,0,0,.85-1.07,2,2,0,0,0,.31-1.08,1.84,1.84,0,0,0-.57-1.36,1.94,1.94,0,0,0-1.41-.56,2,2,0,0,0-1.45.59,2.27,2.27,0,0,0-.64,1.57v0.25h1.09V14.09a1.32,1.32,0,0,1,.31-0.83,0.92,0.92,0,0,1,1.29,0,0.76,0.76,0,0,1,.26.57,1.07,1.07,0,0,1-.19.62A7.86,7.86,0,0,1,894.13,15.31Z"/>
    <path class="cls-2" d="M897.75,12.34a2.27,2.27,0,0,0-.68,1.24l-0.07.29h1.12l0.06-.15a1.45,1.45,0,0,1,.34-0.56,0.76,0.76,0,0,1,1,0,0.53,0.53,0,0,1,.19.42,0.47,0.47,0,0,1-.25.41,1.35,1.35,0,0,1-.78.2H898.4v1.07h0.23a1.87,1.87,0,0,1,1.05.26,0.69,0.69,0,0,1,.31.6,0.84,0.84,0,0,1-.28.65,1,1,0,0,1-.72.27,0.94,0.94,0,0,1-.65-0.2,1.41,1.41,0,0,1-.36-0.68l0-.17h-1.11l0.06,0.28a2.47,2.47,0,0,0,.71,1.39,2,2,0,0,0,1.37.49,2.1,2.1,0,0,0,1.53-.6,2,2,0,0,0,.61-1.44,1.77,1.77,0,0,0-.28-1,1.83,1.83,0,0,0-.47-0.5,1.43,1.43,0,0,0,.46-1.08,1.57,1.57,0,0,0-.55-1.2,1.86,1.86,0,0,0-1.27-.48A1.81,1.81,0,0,0,897.75,12.34Z"/>
  </g>
  <path class="cls-8" d="M882,80h26a2,2,0,0,1,2,2v26a2,2,0,0,1-2,2H882a2,2,0,0,1-2-2V82A2,2,0,0,1,882,80Z"/>
  <g>
    <path class="cls-2" d="M902.74,90.17a0.76,0.76,0,0,0-.76.76V101a1,1,0,0,1-1,1H889a1,1,0,0,1-1-1V89a1,1,0,0,1,1-1h9.91a0.76,0.76,0,1,0,0-1.51H889A2.49,2.49,0,0,0,886.5,89v12A2.49,2.49,0,0,0,889,103.5h12A2.49,2.49,0,0,0,903.5,101V90.93A0.76,0.76,0,0,0,902.74,90.17Z"/>
    <polygon class="cls-2" points="890.97 98.03 890.97 92.12 889.46 92.12 888.77 93.23 889.86 93.23 889.86 98.03 890.97 98.03"/>
    <path class="cls-2" d="M894.13,95.31L891.62,98h4.64v-1.1h-2.13l0.9-1a7,7,0,0,0,.85-1.07,2,2,0,0,0,.31-1.08,1.84,1.84,0,0,0-.57-1.36,1.94,1.94,0,0,0-1.41-.56,2,2,0,0,0-1.45.59,2.27,2.27,0,0,0-.64,1.57v0.25h1.09V94.09a1.32,1.32,0,0,1,.31-0.83,0.92,0.92,0,0,1,1.29,0,0.76,0.76,0,0,1,.26.57,1.07,1.07,0,0,1-.19.62A7.86,7.86,0,0,1,894.13,95.31Z"/>
    <path class="cls-2" d="M897.75,92.34a2.27,2.27,0,0,0-.68,1.24l-0.07.29h1.12l0.06-.15a1.45,1.45,0,0,1,.34-0.56,0.76,0.76,0,0,1,1,0,0.53,0.53,0,0,1,.19.42,0.47,0.47,0,0,1-.25.41,1.35,1.35,0,0,1-.78.2H898.4v1.07h0.23a1.87,1.87,0,0,1,1.05.26,0.69,0.69,0,0,1,.31.6,0.84,0.84,0,0,1-.28.65,1,1,0,0,1-.72.27,0.94,0.94,0,0,1-.65-0.2,1.41,1.41,0,0,1-.36-0.68l0-.17h-1.11l0.06,0.28a2.47,2.47,0,0,0,.71,1.39,2,2,0,0,0,1.37.49,2.1,2.1,0,0,0,1.53-.6,2,2,0,0,0,.61-1.44,1.77,1.77,0,0,0-.28-1,1.83,1.83,0,0,0-.47-0.5,1.43,1.43,0,0,0,.46-1.08,1.57,1.57,0,0,0-.55-1.2,1.86,1.86,0,0,0-1.27-.48A1.81,1.81,0,0,0,897.75,92.34Z"/>
  </g>
  <path class="cls-1" d="M842,40h26a2,2,0,0,1,2,2V68a2,2,0,0,1-2,2H842a2,2,0,0,1-2-2V42A2,2,0,0,1,842,40Z"/>
  <path class="cls-4" d="M861,63.5H849A2.49,2.49,0,0,1,846.5,61V49A2.49,2.49,0,0,1,849,46.5h9.91a0.76,0.76,0,1,1,0,1.51H849a1,1,0,0,0-1,1V61a1,1,0,0,0,1,1h12a1,1,0,0,0,1-1V50.93a0.76,0.76,0,0,1,1.51,0V61A2.49,2.49,0,0,1,861,63.5Z"/>
  <g>
    <path class="cls-4" d="M850.32,51.93l-2.49,6H849l0.74-1.78h1.66l0.75,1.78h1.14l-2.45-6h-0.51ZM850.93,55h-0.72l0.36-.88Z"/>
    <path class="cls-4" d="M856,54.73a1.5,1.5,0,0,0,.36-1,1.47,1.47,0,0,0-.49-1.17,2,2,0,0,0-1.33-.4h-1.23v5.81h1.6a1.79,1.79,0,0,0,1.32-.51,1.75,1.75,0,0,0,.51-1.28,1.69,1.69,0,0,0-.28-1A1.6,1.6,0,0,0,856,54.73Zm-1.63.7a3,3,0,0,1,.74.06,0.82,0.82,0,0,1,.3.16,0.66,0.66,0,0,1,.18.23,0.72,0.72,0,0,1,.06.3,0.62,0.62,0,0,1-.1.33,0.61,0.61,0,0,1-.26.24,1.57,1.57,0,0,1-.63.08h-0.29v-1.4Zm0-1.12V53.25h0.25c0.65,0,.65.3,0.65,0.47a0.47,0.47,0,0,1-.19.44A1.34,1.34,0,0,1,854.35,54.31Z"/>
    <path class="cls-4" d="M861.35,56l-0.16.2a1.76,1.76,0,0,1-1.42.78,1.73,1.73,0,0,1-1.33-.54,1.91,1.91,0,0,1-.52-1.37,1.94,1.94,0,0,1,.53-1.39,1.62,1.62,0,0,1,1.24-.56,1.8,1.8,0,0,1,1.49.81l0.16,0.21,0.81-.68L862,53.27a2.76,2.76,0,0,0-1-.94,2.9,2.9,0,0,0-2.79.08,2.79,2.79,0,0,0-1,1.1,3.17,3.17,0,0,0-.37,1.51,3.13,3.13,0,0,0,.8,2.18,2.69,2.69,0,0,0,2.06.88A2.72,2.72,0,0,0,862,56.87l0.13-.19Z"/>
  </g>
  <path class="cls-2" d="M861,23.5H849A2.49,2.49,0,0,1,846.5,21V9A2.49,2.49,0,0,1,849,6.5h9.91a0.76,0.76,0,1,1,0,1.51H849a1,1,0,0,0-1,1V21a1,1,0,0,0,1,1h12a1,1,0,0,0,1-1V10.93a0.76,0.76,0,0,1,1.51,0V21A2.49,2.49,0,0,1,861,23.5Z"/>
  <g>
    <path class="cls-2" d="M850.58,12.1l-2.35,5.68h1.1L850,16.1h1.56l0.7,1.68h1.07l-2.31-5.68h-0.48ZM851.16,15h-0.68l0.34-.83Z"/>
    <path class="cls-2" d="M855.92,14.75a1.41,1.41,0,0,0,.34-1,1.39,1.39,0,0,0-.46-1.11,1.87,1.87,0,0,0-1.25-.38h-1.16v5.48h1.51a1.69,1.69,0,0,0,1.25-.48,1.65,1.65,0,0,0,.48-1.21,1.6,1.6,0,0,0-.26-0.91A1.51,1.51,0,0,0,855.92,14.75Zm-1.54.66a2.87,2.87,0,0,1,.7.06,0.77,0.77,0,0,1,.29.15,0.63,0.63,0,0,1,.17.22,0.68,0.68,0,0,1,.06.29,0.59,0.59,0,0,1-.09.31,0.57,0.57,0,0,1-.25.22,1.48,1.48,0,0,1-.6.08h-0.27V15.41Zm0-1.06v-1h0.24c0.62,0,.62.29,0.62,0.44a0.44,0.44,0,0,1-.18.42A1.26,1.26,0,0,1,854.38,14.35Z"/>
    <path class="cls-2" d="M861,15.94l-0.15.19a1.66,1.66,0,0,1-1.34.74,1.63,1.63,0,0,1-1.26-.51,1.8,1.8,0,0,1-.49-1.3,1.83,1.83,0,0,1,.5-1.31,1.53,1.53,0,0,1,1.17-.53,1.7,1.7,0,0,1,1.41.77l0.15,0.2,0.76-.65-0.11-.17a2.6,2.6,0,0,0-1-.89,2.74,2.74,0,0,0-2.63.07,2.64,2.64,0,0,0-1,1,3,3,0,0,0-.35,1.43,3,3,0,0,0,.75,2.06,2.54,2.54,0,0,0,1.95.83,2.57,2.57,0,0,0,2.21-1.14l0.13-.18Z"/>
  </g>
  <g>
    <path class="cls-2" d="M974.83,3.74a0.67,0.67,0,0,0-.67.67v8.9a0.86,0.86,0,0,1-.86.86H962.69a0.86,0.86,0,0,1-.86-0.86V2.69a0.86,0.86,0,0,1,.86-0.86h8.74a0.67,0.67,0,0,0,0-1.33h-8.74a2.19,2.19,0,0,0-2.19,2.19V13.31a2.19,2.19,0,0,0,2.19,2.19h10.62a2.19,2.19,0,0,0,2.19-2.19V4.41A0.67,0.67,0,0,0,974.83,3.74Z"/>
    <polygon class="cls-2" points="964.45 10.67 964.45 5.46 963.11 5.46 962.5 6.44 963.46 6.44 963.46 10.67 964.45 10.67"/>
    <path class="cls-2" d="M967.24,8.27L965,10.67h4.09v-1h-1.88L968,8.85a6.14,6.14,0,0,0,.75-0.95,1.8,1.8,0,0,0,.27-1,1.62,1.62,0,0,0-.5-1.2,1.71,1.71,0,0,0-1.25-.49,1.75,1.75,0,0,0-1.28.52,2,2,0,0,0-.56,1.39V7.39h1V7.19a1.16,1.16,0,0,1,.27-0.73,0.82,0.82,0,0,1,1.14,0,0.67,0.67,0,0,1,.23.5,1,1,0,0,1-.16.55A6.93,6.93,0,0,1,967.24,8.27Z"/>
    <path class="cls-2" d="M970.42,5.65a2,2,0,0,0-.6,1.09L969.77,7h1l0.05-.13a1.28,1.28,0,0,1,.3-0.5,0.67,0.67,0,0,1,.84,0,0.46,0.46,0,0,1,.17.37,0.42,0.42,0,0,1-.22.36,1.19,1.19,0,0,1-.69.18H971V8.24h0.2a1.65,1.65,0,0,1,.93.23,0.61,0.61,0,0,1,.27.53,0.74,0.74,0,0,1-.25.58,0.89,0.89,0,0,1-.63.23A0.83,0.83,0,0,1,971,9.64a1.25,1.25,0,0,1-.32-0.6l0-.15h-1l0,0.25a2.18,2.18,0,0,0,.63,1.23,1.74,1.74,0,0,0,1.21.43,1.85,1.85,0,0,0,1.35-.53A1.73,1.73,0,0,0,973.39,9a1.56,1.56,0,0,0-.25-0.85,1.61,1.61,0,0,0-.42-0.44,1.27,1.27,0,0,0,.4-1,1.38,1.38,0,0,0-.49-1.06,1.64,1.64,0,0,0-1.12-.43A1.6,1.6,0,0,0,970.42,5.65Z"/>
  </g>
  <path class="cls-2" d="M933.31,15.5H922.69a2.19,2.19,0,0,1-2.19-2.19V2.69A2.19,2.19,0,0,1,922.69.5h8.74a0.67,0.67,0,0,1,0,1.33h-8.74a0.86,0.86,0,0,0-.86.86V13.31a0.86,0.86,0,0,0,.86.86h10.62a0.86,0.86,0,0,0,.86-0.86V4.41a0.67,0.67,0,1,1,1.33,0v8.9A2.19,2.19,0,0,1,933.31,15.5Z"/>
  <g>
    <path class="cls-2" d="M924.1,5.44l-2.07,5h1L923.61,9H925l0.62,1.48h0.95l-2-5H924.1ZM924.61,8H924l0.3-.74Z"/>
    <path class="cls-2" d="M928.81,7.78a1.25,1.25,0,0,0,.3-0.85,1.23,1.23,0,0,0-.4-1,1.65,1.65,0,0,0-1.1-.34h-1v4.84h1.33A1.49,1.49,0,0,0,929,10,1.45,1.45,0,0,0,929.43,9a1.41,1.41,0,0,0-.23-0.8A1.33,1.33,0,0,0,928.81,7.78Zm-1.36.59a2.53,2.53,0,0,1,.62,0,0.68,0.68,0,0,1,.25.13,0.55,0.55,0,0,1,.15.19,0.6,0.6,0,0,1,0,.25,0.52,0.52,0,0,1-.08.27,0.51,0.51,0,0,1-.22.2,1.31,1.31,0,0,1-.53.07h-0.24V8.36Zm0-.94V6.54h0.21c0.54,0,.54.25,0.54,0.39a0.39,0.39,0,0,1-.15.37A1.12,1.12,0,0,1,927.46,7.43Z"/>
    <path class="cls-2" d="M933.29,8.83L933.16,9a1.46,1.46,0,0,1-1.18.65,1.44,1.44,0,0,1-1.11-.45,1.59,1.59,0,0,1-.43-1.14,1.62,1.62,0,0,1,.44-1.16,1.35,1.35,0,0,1,1-.47,1.5,1.5,0,0,1,1.24.68l0.13,0.18L934,6.71l-0.1-.15A2.3,2.3,0,0,0,933,5.78a2.41,2.41,0,0,0-2.32.06,2.33,2.33,0,0,0-.86.91A2.64,2.64,0,0,0,929.53,8a2.6,2.6,0,0,0,.66,1.82,2.24,2.24,0,0,0,1.72.73,2.26,2.26,0,0,0,1.95-1L934,9.4Z"/>
  </g>
  <path class="cls-8" d="M842,80h26a2,2,0,0,1,2,2v26a2,2,0,0,1-2,2H842a2,2,0,0,1-2-2V82A2,2,0,0,1,842,80Z"/>
  <path class="cls-2" d="M861,103.5H849A2.49,2.49,0,0,1,846.5,101V89A2.49,2.49,0,0,1,849,86.5h9.91a0.76,0.76,0,1,1,0,1.51H849a1,1,0,0,0-1,1v12a1,1,0,0,0,1,1h12a1,1,0,0,0,1-1V90.93a0.76,0.76,0,0,1,1.51,0V101A2.49,2.49,0,0,1,861,103.5Z"/>
  <g>
    <path class="cls-2" d="M850.32,91.93l-2.49,6H849l0.74-1.78h1.66l0.75,1.78h1.14l-2.45-6h-0.51ZM850.93,95h-0.72l0.36-.88Z"/>
    <path class="cls-2" d="M856,94.73a1.5,1.5,0,0,0,.36-1,1.47,1.47,0,0,0-.49-1.17,2,2,0,0,0-1.33-.4h-1.23v5.81h1.6a1.79,1.79,0,0,0,1.32-.51,1.75,1.75,0,0,0,.51-1.28,1.69,1.69,0,0,0-.28-1A1.6,1.6,0,0,0,856,94.73Zm-1.63.7a3,3,0,0,1,.74.06,0.82,0.82,0,0,1,.3.16,0.66,0.66,0,0,1,.18.23,0.72,0.72,0,0,1,.06.3,0.62,0.62,0,0,1-.1.33,0.61,0.61,0,0,1-.26.24,1.57,1.57,0,0,1-.63.08h-0.29v-1.4Zm0-1.12V93.25h0.25c0.65,0,.65.3,0.65,0.47a0.47,0.47,0,0,1-.19.44A1.34,1.34,0,0,1,854.35,94.31Z"/>
    <path class="cls-2" d="M861.35,96l-0.16.2a1.76,1.76,0,0,1-1.42.78,1.73,1.73,0,0,1-1.33-.54,1.91,1.91,0,0,1-.52-1.37,1.94,1.94,0,0,1,.53-1.39,1.62,1.62,0,0,1,1.24-.56,1.8,1.8,0,0,1,1.49.81l0.16,0.21,0.81-.68L862,93.27a2.76,2.76,0,0,0-1-.94,2.9,2.9,0,0,0-2.79.08,2.79,2.79,0,0,0-1,1.1,3.17,3.17,0,0,0-.37,1.51,3.13,3.13,0,0,0,.8,2.18,2.69,2.69,0,0,0,2.06.88A2.72,2.72,0,0,0,862,96.87l0.13-.19Z"/>
  </g>
  <path class="cls-4" d="M933.31,55.5H922.69a2.19,2.19,0,0,1-2.19-2.19V42.69a2.19,2.19,0,0,1,2.19-2.19h8.74a0.67,0.67,0,0,1,0,1.33h-8.74a0.86,0.86,0,0,0-.86.86V53.31a0.86,0.86,0,0,0,.86.86h10.62a0.86,0.86,0,0,0,.86-0.86v-8.9a0.67,0.67,0,1,1,1.33,0v8.9A2.19,2.19,0,0,1,933.31,55.5Z"/>
  <g>
    <path class="cls-4" d="M924.1,45.44l-2.07,5h1L923.61,49H925l0.62,1.48h0.95l-2-5H924.1ZM924.61,48H924l0.3-.74Z"/>
    <path class="cls-4" d="M928.81,47.78a1.25,1.25,0,0,0,.3-0.85,1.23,1.23,0,0,0-.4-1,1.65,1.65,0,0,0-1.1-.34h-1v4.84h1.33A1.49,1.49,0,0,0,929,50a1.45,1.45,0,0,0,.43-1.07,1.41,1.41,0,0,0-.23-0.8A1.33,1.33,0,0,0,928.81,47.78Zm-1.36.59a2.53,2.53,0,0,1,.62,0,0.68,0.68,0,0,1,.25.13,0.55,0.55,0,0,1,.15.19,0.6,0.6,0,0,1,0,.25,0.52,0.52,0,0,1-.08.27,0.51,0.51,0,0,1-.22.2,1.31,1.31,0,0,1-.53.07h-0.24V48.36Zm0-.94V46.54h0.21c0.54,0,.54.25,0.54,0.39a0.39,0.39,0,0,1-.15.37A1.12,1.12,0,0,1,927.46,47.43Z"/>
    <path class="cls-4" d="M933.29,48.83l-0.13.17a1.46,1.46,0,0,1-1.18.65,1.44,1.44,0,0,1-1.11-.45,1.59,1.59,0,0,1-.43-1.14,1.62,1.62,0,0,1,.44-1.16,1.35,1.35,0,0,1,1-.47,1.5,1.5,0,0,1,1.24.68l0.13,0.18,0.67-.57-0.1-.15a2.3,2.3,0,0,0-.84-0.79,2.41,2.41,0,0,0-2.32.06,2.33,2.33,0,0,0-.86.91,2.64,2.64,0,0,0-.31,1.26,2.6,2.6,0,0,0,.66,1.82,2.24,2.24,0,0,0,1.72.73,2.26,2.26,0,0,0,1.95-1L934,49.4Z"/>
  </g>
  <path class="cls-6" d="M933.31,95.5H922.69a2.19,2.19,0,0,1-2.19-2.19V82.69a2.19,2.19,0,0,1,2.19-2.19h8.74a0.67,0.67,0,0,1,0,1.33h-8.74a0.86,0.86,0,0,0-.86.86V93.31a0.86,0.86,0,0,0,.86.86h10.62a0.86,0.86,0,0,0,.86-0.86v-8.9a0.67,0.67,0,1,1,1.33,0v8.9A2.19,2.19,0,0,1,933.31,95.5Z"/>
  <g>
    <path class="cls-6" d="M924.1,85.44l-2.07,5h1L923.61,89H925l0.62,1.48h0.95l-2-5H924.1ZM924.61,88H924l0.3-.74Z"/>
    <path class="cls-6" d="M928.81,87.78a1.25,1.25,0,0,0,.3-0.85,1.23,1.23,0,0,0-.4-1,1.65,1.65,0,0,0-1.1-.34h-1v4.84h1.33A1.49,1.49,0,0,0,929,90a1.45,1.45,0,0,0,.43-1.07,1.41,1.41,0,0,0-.23-0.8A1.33,1.33,0,0,0,928.81,87.78Zm-1.36.59a2.53,2.53,0,0,1,.62,0,0.68,0.68,0,0,1,.25.13,0.55,0.55,0,0,1,.15.19,0.6,0.6,0,0,1,0,.25,0.52,0.52,0,0,1-.08.27,0.51,0.51,0,0,1-.22.2,1.31,1.31,0,0,1-.53.07h-0.24V88.36Zm0-.94V86.54h0.21c0.54,0,.54.25,0.54,0.39a0.39,0.39,0,0,1-.15.37A1.12,1.12,0,0,1,927.46,87.43Z"/>
    <path class="cls-6" d="M933.29,88.83l-0.13.17a1.46,1.46,0,0,1-1.18.65,1.44,1.44,0,0,1-1.11-.45,1.59,1.59,0,0,1-.43-1.14,1.62,1.62,0,0,1,.44-1.16,1.35,1.35,0,0,1,1-.47,1.5,1.5,0,0,1,1.24.68l0.13,0.18,0.67-.57-0.1-.15a2.3,2.3,0,0,0-.84-0.79,2.41,2.41,0,0,0-2.32.06,2.33,2.33,0,0,0-.86.91,2.64,2.64,0,0,0-.31,1.26,2.6,2.6,0,0,0,.66,1.82,2.24,2.24,0,0,0,1.72.73,2.26,2.26,0,0,0,1.95-1L934,89.4Z"/>
  </g>
  <g>
    <path class="cls-2" d="M768.13,10.7a4.62,4.62,0,0,1-.39-0.71v0s-0.05-.08-0.07-0.13a4.8,4.8,0,0,1-.29-0.94,5.08,5.08,0,0,1-.1-1A5,5,0,0,1,767.63,6a4.59,4.59,0,0,1,1.19-1.63l0.2-.19-0.42-.85-0.34.22a4.33,4.33,0,0,0-.92.82,5.07,5.07,0,0,0-.69,1,5.61,5.61,0,0,0-.43,1.18,5.31,5.31,0,0,0-.15,1.24,5.06,5.06,0,0,0,.16,1.25,5.74,5.74,0,0,0,.43,1.17,5.58,5.58,0,0,0,.68,1,5,5,0,0,0,.89.85l0.34,0.25,0.44-.84-0.22-.19A3.88,3.88,0,0,1,768.13,10.7Z"/>
    <path class="cls-2" d="M764.19,5.72l0-.4a4.22,4.22,0,0,1,.49-2.18,1,1,0,0,1,.85-0.61,1.86,1.86,0,0,1,.65.09l0.21,0.07,1.3-1.43L767,1.19a4.73,4.73,0,0,0-.68,0,3.35,3.35,0,0,0-2.58,1.36,5.67,5.67,0,0,0-1,3.27l-0.68,0,0,0.07s-0.14.33-.22,0.56L761.64,7l-0.06.17,1.13-.06V9.72L762.65,11c-0.06,1.38-.49,2.07-1.32,2.12a1.75,1.75,0,0,1-.34,0l-0.15,0L760,14.44v0l0.41,0h0.11a3.49,3.49,0,0,0,2.34-1.12,4,4,0,0,0,1-1.54,9,9,0,0,0,.32-2.32V7l1.28-.08,0-.12h0l0.36-.95,0-.12h0l0-.12Z"/>
    <path class="cls-2" d="M775.42,5.56a5.29,5.29,0,0,0-.69-1,4.3,4.3,0,0,0-.92-0.82l-0.34-.22L773,4.32l0.2,0.19a4.66,4.66,0,0,1,1.19,1.63A4.94,4.94,0,0,1,774.79,8a5.08,5.08,0,0,1-.1,1,4.78,4.78,0,0,1-.77,1.8,3.93,3.93,0,0,1-.65.72l-0.22.19,0.43,0.83,0.34-.25a4.74,4.74,0,0,0,.89-0.84,5.51,5.51,0,0,0,.68-1.05,5.84,5.84,0,0,0,.43-1.18A5.1,5.1,0,0,0,776,8a5.34,5.34,0,0,0-.15-1.25A5.53,5.53,0,0,0,775.42,5.56Z"/>
    <path class="cls-2" d="M773.36,9.45A0.58,0.58,0,0,0,773,9l-0.38-.11,0.09,0.39a0.3,0.3,0,0,1,0,.23,0.19,0.19,0,0,1-.15,0,5.18,5.18,0,0,1-1-1.68l-0.1-.21,0.06-.15c0.44-1.06.75-1.14,0.82-1.14l0.09,0,0.16,0.05,0.74-1L773,5.32a1.3,1.3,0,0,0-.52-0.13c-0.51,0-1,.5-1.5,1.56-0.52-1.07-1-1.56-1.39-1.56a1,1,0,0,0-.79.45,1.16,1.16,0,0,0,0,1.16l0.33,0.75,0.12-.79a0.7,0.7,0,0,1,.18-0.48,1,1,0,0,1,.32.44L770,7.26l0.1,0.21L770.4,8l-0.21.49c-0.4.92-.7,1-0.81,1a0.22,0.22,0,0,1-.16-0.08L769,9.28l-0.78,1,0.22,0.15a1.2,1.2,0,0,0,.71.22c0.63,0,1.17-.54,1.67-1.66,0.52,1.1,1,1.63,1.49,1.66h0.1a0.83,0.83,0,0,0,.72-0.36A1.06,1.06,0,0,0,773.36,9.45Z"/>
  </g>
  <path class="cls-2" d="M727.95,109.06l0,0v0h0Z"/>
  <g>
    <path class="cls-2" d="M734.79,18.47a5.59,5.59,0,0,1-.47-0.85l0,0c0-.05-0.06-0.1-0.08-0.15a5.81,5.81,0,0,1-.35-1.14,6.15,6.15,0,0,1-.12-1.2,6,6,0,0,1,.43-2.27,5.55,5.55,0,0,1,1.44-2l0.24-.23-0.51-1-0.41.27a5.25,5.25,0,0,0-1.12,1,6.13,6.13,0,0,0-.83,1.26,6.8,6.8,0,0,0-.52,1.43,6.43,6.43,0,0,0-.18,1.51,6.13,6.13,0,0,0,.19,1.52A7,7,0,0,0,733,18a6.76,6.76,0,0,0,.82,1.27,6.05,6.05,0,0,0,1.08,1l0.42,0.31,0.53-1-0.26-.23A4.7,4.7,0,0,1,734.79,18.47Z"/>
    <path class="cls-2" d="M730,12.44l0-.48a5.11,5.11,0,0,1,.59-2.64,1.21,1.21,0,0,1,1-.74,2.26,2.26,0,0,1,.79.11l0.25,0.08L734.28,7,733.45,7a5.73,5.73,0,0,0-.82,0,4.06,4.06,0,0,0-3.12,1.64,6.86,6.86,0,0,0-1.22,4l-0.82,0,0,0.09s-0.17.4-.27,0.68l-0.22.62-0.07.21,1.37-.07v3.18l-0.07,1.58c-0.07,1.67-.6,2.5-1.6,2.56a2.11,2.11,0,0,1-.42,0l-0.18,0-1,1.61v0l0.49,0h0.14a4.22,4.22,0,0,0,2.83-1.35,4.79,4.79,0,0,0,1.15-1.87A10.9,10.9,0,0,0,730,17V14l1.55-.09,0.05-.15h0L732,12.61l0.06-.15h0l0.06-.15Z"/>
    <path class="cls-2" d="M743.62,12.25a6.41,6.41,0,0,0-.83-1.26,5.2,5.2,0,0,0-1.12-1l-0.41-.27-0.51,1L741,11a5.64,5.64,0,0,1,1.44,2,6,6,0,0,1,.43,2.27,6.15,6.15,0,0,1-.12,1.2,5.79,5.79,0,0,1-.93,2.18,4.76,4.76,0,0,1-.79.87l-0.26.23,0.53,1,0.41-.3a5.74,5.74,0,0,0,1.08-1,6.67,6.67,0,0,0,.82-1.27,7.07,7.07,0,0,0,.53-1.43,6.17,6.17,0,0,0,.19-1.52,6.47,6.47,0,0,0-.18-1.51A6.7,6.7,0,0,0,743.62,12.25Z"/>
    <path class="cls-2" d="M741.13,17a0.71,0.71,0,0,0-.5-0.53l-0.46-.14,0.11,0.47a0.36,0.36,0,0,1,0,.28,0.23,0.23,0,0,1-.18.06,6.27,6.27,0,0,1-1.17-2l-0.12-.26,0.08-.18c0.54-1.28.9-1.38,1-1.38l0.11,0,0.19,0.06,0.9-1.22L740.73,12a1.57,1.57,0,0,0-.63-0.16c-0.62,0-1.2.6-1.82,1.88-0.63-1.3-1.15-1.88-1.68-1.88a1.19,1.19,0,0,0-1,.54,1.41,1.41,0,0,0,0,1.4l0.4,0.91,0.15-1a0.85,0.85,0,0,1,.22-0.58,1.24,1.24,0,0,1,.38.54l0.35,0.66,0.12,0.26,0.32,0.68-0.26.6c-0.48,1.11-.85,1.23-1,1.23a0.27,0.27,0,0,1-.19-0.1l-0.23-.23-0.94,1.17,0.26,0.19a1.45,1.45,0,0,0,.86.27c0.76,0,1.42-.65,2-2,0.63,1.33,1.21,2,1.8,2H740a1,1,0,0,0,.87-0.44A1.29,1.29,0,0,0,741.13,17Z"/>
  </g>
  <path class="cls-1" d="M722,40h26a2,2,0,0,1,2,2V68a2,2,0,0,1-2,2H722a2,2,0,0,1-2-2V42A2,2,0,0,1,722,40Z"/>
  <g>
    <path class="cls-4" d="M734.79,58.47a5.59,5.59,0,0,1-.47-0.85l0,0c0-.05-0.06-0.1-0.08-0.15a5.81,5.81,0,0,1-.35-1.14,6.15,6.15,0,0,1-.12-1.2,6,6,0,0,1,.43-2.27,5.55,5.55,0,0,1,1.44-2l0.24-.23-0.51-1-0.41.27a5.25,5.25,0,0,0-1.12,1,6.13,6.13,0,0,0-.83,1.26,6.8,6.8,0,0,0-.52,1.43,6.43,6.43,0,0,0-.18,1.51,6.13,6.13,0,0,0,.19,1.52A7,7,0,0,0,733,58a6.76,6.76,0,0,0,.82,1.27,6.05,6.05,0,0,0,1.08,1l0.42,0.31,0.53-1-0.26-.23A4.7,4.7,0,0,1,734.79,58.47Z"/>
    <path class="cls-4" d="M730,52.44l0-.48a5.11,5.11,0,0,1,.59-2.64,1.21,1.21,0,0,1,1-.74,2.26,2.26,0,0,1,.79.11l0.25,0.08L734.28,47,733.45,47a5.73,5.73,0,0,0-.82,0,4.06,4.06,0,0,0-3.12,1.64,6.86,6.86,0,0,0-1.22,4l-0.82,0,0,0.09s-0.17.4-.27,0.68l-0.22.62-0.07.21,1.37-.07v3.18l-0.07,1.58c-0.07,1.67-.6,2.5-1.6,2.56a2.11,2.11,0,0,1-.42,0l-0.18,0-1,1.61v0l0.49,0h0.14a4.22,4.22,0,0,0,2.83-1.35,4.79,4.79,0,0,0,1.15-1.87A10.9,10.9,0,0,0,730,57V54l1.55-.09,0.05-.15h0L732,52.61l0.06-.15h0l0.06-.15Z"/>
    <path class="cls-4" d="M743.62,52.25a6.41,6.41,0,0,0-.83-1.26,5.2,5.2,0,0,0-1.12-1l-0.41-.27-0.51,1L741,51a5.64,5.64,0,0,1,1.44,2,6,6,0,0,1,.43,2.27,6.15,6.15,0,0,1-.12,1.2,5.79,5.79,0,0,1-.93,2.18,4.76,4.76,0,0,1-.79.87l-0.26.23,0.53,1,0.41-.3a5.74,5.74,0,0,0,1.08-1,6.67,6.67,0,0,0,.82-1.27,7.07,7.07,0,0,0,.53-1.43,6.17,6.17,0,0,0,.19-1.52,6.47,6.47,0,0,0-.18-1.51A6.7,6.7,0,0,0,743.62,52.25Z"/>
    <path class="cls-4" d="M741.13,57a0.71,0.71,0,0,0-.5-0.53l-0.46-.14,0.11,0.47a0.36,0.36,0,0,1,0,.28,0.23,0.23,0,0,1-.18.06,6.27,6.27,0,0,1-1.17-2l-0.12-.26,0.08-.18c0.54-1.28.9-1.38,1-1.38l0.11,0,0.19,0.06,0.9-1.22L740.73,52a1.57,1.57,0,0,0-.63-0.16c-0.62,0-1.2.6-1.82,1.88-0.63-1.3-1.15-1.88-1.68-1.88a1.19,1.19,0,0,0-1,.54,1.41,1.41,0,0,0,0,1.4l0.4,0.91,0.15-1a0.85,0.85,0,0,1,.22-0.58,1.24,1.24,0,0,1,.38.54l0.35,0.66,0.12,0.26,0.32,0.68-0.26.6c-0.48,1.11-.85,1.23-1,1.23a0.27,0.27,0,0,1-.19-0.1l-0.23-.23-0.94,1.17,0.26,0.19a1.45,1.45,0,0,0,.86.27c0.76,0,1.42-.65,2-2,0.63,1.33,1.21,2,1.8,2H740a1,1,0,0,0,.87-0.44A1.29,1.29,0,0,0,741.13,57Z"/>
  </g>
  <path class="cls-8" d="M722,80h26a2,2,0,0,1,2,2v26a2,2,0,0,1-2,2H722a2,2,0,0,1-2-2V82A2,2,0,0,1,722,80Z"/>
  <g>
    <path class="cls-2" d="M734.79,98.47a5.59,5.59,0,0,1-.47-0.85l0,0c0-.05-0.06-0.1-0.08-0.15a5.81,5.81,0,0,1-.35-1.14,6.15,6.15,0,0,1-.12-1.2,6,6,0,0,1,.43-2.27,5.55,5.55,0,0,1,1.44-2l0.24-.23-0.51-1-0.41.27a5.25,5.25,0,0,0-1.12,1,6.13,6.13,0,0,0-.83,1.26,6.8,6.8,0,0,0-.52,1.43,6.43,6.43,0,0,0-.18,1.51,6.13,6.13,0,0,0,.19,1.52A7,7,0,0,0,733,98a6.76,6.76,0,0,0,.82,1.27,6.05,6.05,0,0,0,1.08,1l0.42,0.31,0.53-1-0.26-.23A4.7,4.7,0,0,1,734.79,98.47Z"/>
    <path class="cls-2" d="M730,92.44l0-.48a5.11,5.11,0,0,1,.59-2.64,1.21,1.21,0,0,1,1-.74,2.26,2.26,0,0,1,.79.11l0.25,0.08L734.28,87,733.45,87a5.73,5.73,0,0,0-.82,0,4.06,4.06,0,0,0-3.12,1.64,6.86,6.86,0,0,0-1.22,4l-0.82,0,0,0.09s-0.17.4-.27,0.68l-0.22.62-0.07.21,1.37-.07v3.18l-0.07,1.58c-0.07,1.67-.6,2.5-1.6,2.56a2.11,2.11,0,0,1-.42,0l-0.18,0-1,1.61v0l0.49,0h0.14a4.22,4.22,0,0,0,2.83-1.35,4.79,4.79,0,0,0,1.15-1.87A10.9,10.9,0,0,0,730,97V94l1.55-.09,0.05-.15h0L732,92.61l0.06-.15h0l0.06-.15Z"/>
    <path class="cls-2" d="M743.62,92.25a6.41,6.41,0,0,0-.83-1.26,5.2,5.2,0,0,0-1.12-1l-0.41-.27-0.51,1L741,91a5.64,5.64,0,0,1,1.44,2,6,6,0,0,1,.43,2.27,6.15,6.15,0,0,1-.12,1.2,5.79,5.79,0,0,1-.93,2.18,4.76,4.76,0,0,1-.79.87l-0.26.23,0.53,1,0.41-.3a5.74,5.74,0,0,0,1.08-1,6.67,6.67,0,0,0,.82-1.27,7.07,7.07,0,0,0,.53-1.43,6.17,6.17,0,0,0,.19-1.52,6.47,6.47,0,0,0-.18-1.51A6.7,6.7,0,0,0,743.62,92.25Z"/>
    <path class="cls-2" d="M741.13,97a0.71,0.71,0,0,0-.5-0.53l-0.46-.14,0.11,0.47a0.36,0.36,0,0,1,0,.28,0.23,0.23,0,0,1-.18.06,6.27,6.27,0,0,1-1.17-2l-0.12-.26,0.08-.18c0.54-1.28.9-1.38,1-1.38l0.11,0,0.19,0.06,0.9-1.22L740.73,92a1.57,1.57,0,0,0-.63-0.16c-0.62,0-1.2.6-1.82,1.88-0.63-1.3-1.15-1.88-1.68-1.88a1.19,1.19,0,0,0-1,.54,1.41,1.41,0,0,0,0,1.4l0.4,0.91,0.15-1a0.85,0.85,0,0,1,.22-0.58,1.24,1.24,0,0,1,.38.54l0.35,0.66,0.12,0.26,0.32,0.68-0.26.6c-0.48,1.11-.85,1.23-1,1.23a0.27,0.27,0,0,1-.19-0.1l-0.23-.23-0.94,1.17,0.26,0.19a1.45,1.45,0,0,0,.86.27c0.76,0,1.42-.65,2-2,0.63,1.33,1.21,2,1.8,2H740a1,1,0,0,0,.87-0.44A1.29,1.29,0,0,0,741.13,97Z"/>
  </g>
  <g>
    <path class="cls-4" d="M768.13,50.7a4.62,4.62,0,0,1-.39-0.71v0s-0.05-.08-0.07-0.13a4.8,4.8,0,0,1-.29-0.94,5.08,5.08,0,0,1-.1-1,5,5,0,0,1,.35-1.87,4.59,4.59,0,0,1,1.19-1.63l0.2-.19-0.42-.85-0.34.22a4.33,4.33,0,0,0-.92.82,5.07,5.07,0,0,0-.69,1,5.61,5.61,0,0,0-.43,1.18,5.31,5.31,0,0,0-.15,1.24,5.06,5.06,0,0,0,.16,1.25,5.74,5.74,0,0,0,.43,1.17,5.58,5.58,0,0,0,.68,1,5,5,0,0,0,.89.85l0.34,0.25,0.44-.84-0.22-.19A3.88,3.88,0,0,1,768.13,50.7Z"/>
    <path class="cls-4" d="M764.19,45.72l0-.4a4.22,4.22,0,0,1,.49-2.18,1,1,0,0,1,.85-0.61,1.86,1.86,0,0,1,.65.09l0.21,0.07,1.3-1.43L767,41.19a4.73,4.73,0,0,0-.68,0,3.35,3.35,0,0,0-2.58,1.36,5.67,5.67,0,0,0-1,3.27l-0.68,0,0,0.07s-0.14.33-.22,0.56l-0.19.52-0.06.17,1.13-.06v2.63L762.65,51c-0.06,1.38-.49,2.07-1.32,2.12a1.75,1.75,0,0,1-.34,0l-0.15,0L760,54.44v0l0.41,0h0.11a3.49,3.49,0,0,0,2.34-1.12,4,4,0,0,0,1-1.54,9,9,0,0,0,.32-2.32V47l1.28-.08,0-.12h0l0.36-.95,0-.12h0l0-.12Z"/>
    <path class="cls-4" d="M775.42,45.56a5.29,5.29,0,0,0-.69-1,4.3,4.3,0,0,0-.92-0.82l-0.34-.22-0.43.84,0.2,0.19a4.66,4.66,0,0,1,1.19,1.63,4.94,4.94,0,0,1,.36,1.87,5.08,5.08,0,0,1-.1,1,4.78,4.78,0,0,1-.77,1.8,3.93,3.93,0,0,1-.65.72l-0.22.19,0.43,0.83,0.34-.25a4.74,4.74,0,0,0,.89-0.84,5.51,5.51,0,0,0,.68-1.05,5.84,5.84,0,0,0,.43-1.18A5.1,5.1,0,0,0,776,48a5.34,5.34,0,0,0-.15-1.25A5.53,5.53,0,0,0,775.42,45.56Z"/>
    <path class="cls-4" d="M773.36,49.45A0.58,0.58,0,0,0,773,49l-0.38-.11,0.09,0.39a0.3,0.3,0,0,1,0,.23,0.19,0.19,0,0,1-.15,0,5.18,5.18,0,0,1-1-1.68l-0.1-.21,0.06-.15c0.44-1.06.75-1.14,0.82-1.14l0.09,0,0.16,0.05,0.74-1L773,45.32a1.3,1.3,0,0,0-.52-0.13c-0.51,0-1,.5-1.5,1.56-0.52-1.07-1-1.56-1.39-1.56a1,1,0,0,0-.79.45,1.16,1.16,0,0,0,0,1.16l0.33,0.75,0.12-.79a0.7,0.7,0,0,1,.18-0.48,1,1,0,0,1,.32.44L770,47.26l0.1,0.21L770.4,48l-0.21.49c-0.4.92-.7,1-0.81,1a0.22,0.22,0,0,1-.16-0.08L769,49.28l-0.78,1,0.22,0.15a1.2,1.2,0,0,0,.71.22c0.63,0,1.17-.54,1.67-1.66,0.52,1.1,1,1.63,1.49,1.66h0.1a0.83,0.83,0,0,0,.72-0.36A1.06,1.06,0,0,0,773.36,49.45Z"/>
  </g>
  <g>
    <path class="cls-6" d="M768.13,90.7a4.62,4.62,0,0,1-.39-0.71v0s-0.05-.08-0.07-0.13a4.8,4.8,0,0,1-.29-0.94,5.08,5.08,0,0,1-.1-1,5,5,0,0,1,.35-1.87,4.59,4.59,0,0,1,1.19-1.63l0.2-.19-0.42-.85-0.34.22a4.33,4.33,0,0,0-.92.82,5.07,5.07,0,0,0-.69,1,5.61,5.61,0,0,0-.43,1.18,5.31,5.31,0,0,0-.15,1.24,5.06,5.06,0,0,0,.16,1.25,5.74,5.74,0,0,0,.43,1.17,5.58,5.58,0,0,0,.68,1,5,5,0,0,0,.89.85l0.34,0.25,0.44-.84-0.22-.19A3.88,3.88,0,0,1,768.13,90.7Z"/>
    <path class="cls-6" d="M764.19,85.72l0-.4a4.22,4.22,0,0,1,.49-2.18,1,1,0,0,1,.85-0.61,1.86,1.86,0,0,1,.65.09l0.21,0.07,1.3-1.43L767,81.19a4.73,4.73,0,0,0-.68,0,3.35,3.35,0,0,0-2.58,1.36,5.67,5.67,0,0,0-1,3.27l-0.68,0,0,0.07s-0.14.33-.22,0.56l-0.19.52-0.06.17,1.13-.06v2.63L762.65,91c-0.06,1.38-.49,2.07-1.32,2.12a1.75,1.75,0,0,1-.34,0l-0.15,0L760,94.44v0l0.41,0h0.11a3.49,3.49,0,0,0,2.34-1.12,4,4,0,0,0,1-1.54,9,9,0,0,0,.32-2.32V87l1.28-.08,0-.12h0l0.36-.95,0-.12h0l0-.12Z"/>
    <path class="cls-6" d="M775.42,85.56a5.29,5.29,0,0,0-.69-1,4.3,4.3,0,0,0-.92-0.82l-0.34-.22-0.43.84,0.2,0.19a4.66,4.66,0,0,1,1.19,1.63,4.94,4.94,0,0,1,.36,1.87,5.08,5.08,0,0,1-.1,1,4.78,4.78,0,0,1-.77,1.8,3.93,3.93,0,0,1-.65.72l-0.22.19,0.43,0.83,0.34-.25a4.74,4.74,0,0,0,.89-0.84,5.51,5.51,0,0,0,.68-1.05,5.84,5.84,0,0,0,.43-1.18A5.1,5.1,0,0,0,776,88a5.34,5.34,0,0,0-.15-1.25A5.53,5.53,0,0,0,775.42,85.56Z"/>
    <path class="cls-6" d="M773.36,89.45A0.58,0.58,0,0,0,773,89l-0.38-.11,0.09,0.39a0.3,0.3,0,0,1,0,.23,0.19,0.19,0,0,1-.15,0,5.18,5.18,0,0,1-1-1.68l-0.1-.21,0.06-.15c0.44-1.06.75-1.14,0.82-1.14l0.09,0,0.16,0.05,0.74-1L773,85.32a1.3,1.3,0,0,0-.52-0.13c-0.51,0-1,.5-1.5,1.56-0.52-1.07-1-1.56-1.39-1.56a1,1,0,0,0-.79.45,1.16,1.16,0,0,0,0,1.16l0.33,0.75,0.12-.79a0.7,0.7,0,0,1,.18-0.48,1,1,0,0,1,.32.44L770,87.26l0.1,0.21L770.4,88l-0.21.49c-0.4.92-.7,1-0.81,1a0.22,0.22,0,0,1-.16-0.08L769,89.28l-0.78,1,0.22,0.15a1.2,1.2,0,0,0,.71.22c0.63,0,1.17-.54,1.67-1.66,0.52,1.1,1,1.63,1.49,1.66h0.1a0.83,0.83,0,0,0,.72-0.36A1.06,1.06,0,0,0,773.36,89.45Z"/>
  </g>
  <g>
    <path class="cls-4" d="M1023.5,48.41v-2.3a1.61,1.61,0,0,0-1.61-1.61h-13.78a1.61,1.61,0,0,0-1.61,1.61v2.3a1.61,1.61,0,0,0,1.38,1.59v0.27a1.61,1.61,0,0,0-1.38,1.59v2.3a1.61,1.61,0,0,0,1.38,1.59V56a1.56,1.56,0,0,0-.9.44,1.61,1.61,0,0,0-.48,1.14v2.3a1.61,1.61,0,0,0,1.61,1.61h13.78a1.61,1.61,0,0,0,1.61-1.61v-2.3a1.61,1.61,0,0,0-1.38-1.59V55.73a1.61,1.61,0,0,0,1.38-1.59V51.86a1.61,1.61,0,0,0-1.38-1.59V50A1.61,1.61,0,0,0,1023.5,48.41Zm-15.62,9.19a0.22,0.22,0,0,1,.23-0.23h13.78a0.22,0.22,0,0,1,.23.23v2.3a0.22,0.22,0,0,1-.23.23h-13.78a0.22,0.22,0,0,1-.23-0.23v-2.3Zm14-6a0.22,0.22,0,0,1,.23.23v2.3a0.22,0.22,0,0,1-.23.23h-13.78a0.22,0.22,0,0,1-.23-0.23v-2.3a0.22,0.22,0,0,1,.23-0.23h13.78Zm-13.78-5.75h13.78a0.22,0.22,0,0,1,.23.23v2.3a0.22,0.22,0,0,1-.23.23h-13.78a0.22,0.22,0,0,1-.23-0.23v-2.3A0.22,0.22,0,0,1,1008.11,45.88Z"/>
    <circle class="cls-4" cx="1020.51" cy="53" r="0.69"/>
    <circle class="cls-4" cx="1020.51" cy="58.75" r="0.69"/>
    <circle class="cls-4" cx="1020.51" cy="47.27" r="0.69"/>
  </g>
  <g>
    <path class="cls-2" d="M1055,4.22V2.32A1.33,1.33,0,0,0,1053.68,1h-11.35A1.33,1.33,0,0,0,1041,2.32V4.22a1.33,1.33,0,0,0,1.14,1.31V5.75A1.33,1.33,0,0,0,1041,7.06V9a1.33,1.33,0,0,0,1.14,1.31v0.22a1.28,1.28,0,0,0-.74.36,1.32,1.32,0,0,0-.4.94v1.89a1.33,1.33,0,0,0,1.32,1.32h11.35a1.33,1.33,0,0,0,1.32-1.32V11.78a1.33,1.33,0,0,0-1.14-1.31V10.25A1.33,1.33,0,0,0,1055,8.94V7.06a1.33,1.33,0,0,0-1.14-1.31V5.53A1.33,1.33,0,0,0,1055,4.22Zm-12.86,7.57a0.18,0.18,0,0,1,.19-0.19h11.35a0.18,0.18,0,0,1,.19.19v1.89a0.18,0.18,0,0,1-.19.19h-11.35a0.18,0.18,0,0,1-.19-0.19V11.78Zm11.54-4.91a0.18,0.18,0,0,1,.19.19V9a0.18,0.18,0,0,1-.19.19h-11.35a0.18,0.18,0,0,1-.19-0.19V7.06a0.18,0.18,0,0,1,.19-0.19h11.35Zm-11.35-4.74h11.35a0.18,0.18,0,0,1,.19.19V4.22a0.18,0.18,0,0,1-.19.19h-11.35a0.18,0.18,0,0,1-.19-0.19V2.32A0.18,0.18,0,0,1,1042.32,2.14Z"/>
    <circle class="cls-2" cx="1052.54" cy="8" r="0.57"/>
    <circle class="cls-2" cx="1052.54" cy="12.74" r="0.57"/>
    <circle class="cls-2" cx="1052.54" cy="3.28" r="0.57"/>
  </g>
  <g>
    <path class="cls-2" d="M1023.5,10.41V8.11a1.61,1.61,0,0,0-1.61-1.61h-13.78a1.61,1.61,0,0,0-1.61,1.61v2.3a1.61,1.61,0,0,0,1.38,1.59v0.27a1.61,1.61,0,0,0-1.38,1.59v2.3a1.61,1.61,0,0,0,1.38,1.59V18a1.56,1.56,0,0,0-.9.44,1.61,1.61,0,0,0-.48,1.14v2.3a1.61,1.61,0,0,0,1.61,1.61h13.78a1.61,1.61,0,0,0,1.61-1.61v-2.3a1.61,1.61,0,0,0-1.38-1.59V17.73a1.61,1.61,0,0,0,1.38-1.59V13.86a1.61,1.61,0,0,0-1.38-1.59V12A1.61,1.61,0,0,0,1023.5,10.41Zm-15.62,9.19a0.22,0.22,0,0,1,.23-0.23h13.78a0.22,0.22,0,0,1,.23.23v2.3a0.22,0.22,0,0,1-.23.23h-13.78a0.22,0.22,0,0,1-.23-0.23v-2.3Zm14-6a0.22,0.22,0,0,1,.23.23v2.3a0.22,0.22,0,0,1-.23.23h-13.78a0.22,0.22,0,0,1-.23-0.23v-2.3a0.22,0.22,0,0,1,.23-0.23h13.78Zm-13.78-5.75h13.78a0.22,0.22,0,0,1,.23.23v2.3a0.22,0.22,0,0,1-.23.23h-13.78a0.22,0.22,0,0,1-.23-0.23V8.11A0.22,0.22,0,0,1,1008.11,7.88Z"/>
    <circle class="cls-2" cx="1020.51" cy="15" r="0.69"/>
    <circle class="cls-2" cx="1020.51" cy="20.75" r="0.69"/>
    <circle class="cls-2" cx="1020.51" cy="9.27" r="0.69"/>
  </g>
  <path class="cls-8" d="M1002,80h26a2,2,0,0,1,2,2v26a2,2,0,0,1-2,2h-26a2,2,0,0,1-2-2V82A2,2,0,0,1,1002,80Z"/>
  <g>
    <path class="cls-2" d="M1023.5,90.41v-2.3a1.61,1.61,0,0,0-1.61-1.61h-13.78a1.61,1.61,0,0,0-1.61,1.61v2.3a1.61,1.61,0,0,0,1.38,1.59v0.27a1.61,1.61,0,0,0-1.38,1.59v2.3a1.61,1.61,0,0,0,1.38,1.59V98a1.56,1.56,0,0,0-.9.44,1.61,1.61,0,0,0-.48,1.14v2.3a1.61,1.61,0,0,0,1.61,1.61h13.78a1.61,1.61,0,0,0,1.61-1.61v-2.3a1.61,1.61,0,0,0-1.38-1.59V97.73a1.61,1.61,0,0,0,1.38-1.59V93.86a1.61,1.61,0,0,0-1.38-1.59V92A1.61,1.61,0,0,0,1023.5,90.41Zm-15.62,9.19a0.22,0.22,0,0,1,.23-0.23h13.78a0.22,0.22,0,0,1,.23.23v2.3a0.22,0.22,0,0,1-.23.23h-13.78a0.22,0.22,0,0,1-.23-0.23v-2.3Zm14-6a0.22,0.22,0,0,1,.23.23v2.3a0.22,0.22,0,0,1-.23.23h-13.78a0.22,0.22,0,0,1-.23-0.23v-2.3a0.22,0.22,0,0,1,.23-0.23h13.78Zm-13.78-5.75h13.78a0.22,0.22,0,0,1,.23.23v2.3a0.22,0.22,0,0,1-.23.23h-13.78a0.22,0.22,0,0,1-.23-0.23v-2.3A0.22,0.22,0,0,1,1008.11,87.88Z"/>
    <circle class="cls-2" cx="1020.51" cy="95" r="0.69"/>
    <circle class="cls-2" cx="1020.51" cy="100.75" r="0.69"/>
    <circle class="cls-2" cx="1020.51" cy="89.27" r="0.69"/>
  </g>
  <path class="cls-1" d="M1082,40h26a2,2,0,0,1,2,2V68a2,2,0,0,1-2,2h-26a2,2,0,0,1-2-2V42A2,2,0,0,1,1082,40Z"/>
  <path class="cls-8" d="M1082,80h26a2,2,0,0,1,2,2v26a2,2,0,0,1-2,2h-26a2,2,0,0,1-2-2V82A2,2,0,0,1,1082,80Z"/>
  <g>
    <path class="cls-4" d="M1055,44.22V42.32a1.33,1.33,0,0,0-1.32-1.32h-11.35a1.33,1.33,0,0,0-1.32,1.32v1.89a1.33,1.33,0,0,0,1.14,1.31v0.22a1.33,1.33,0,0,0-1.14,1.31V49a1.33,1.33,0,0,0,1.14,1.31v0.22a1.28,1.28,0,0,0-.74.36,1.32,1.32,0,0,0-.4.94v1.89a1.33,1.33,0,0,0,1.32,1.32h11.35a1.33,1.33,0,0,0,1.32-1.32V51.78a1.33,1.33,0,0,0-1.14-1.31V50.25a1.33,1.33,0,0,0,1.14-1.31V47.06a1.33,1.33,0,0,0-1.14-1.31V45.53A1.33,1.33,0,0,0,1055,44.22Zm-12.86,7.57a0.18,0.18,0,0,1,.19-0.19h11.35a0.18,0.18,0,0,1,.19.19v1.89a0.18,0.18,0,0,1-.19.19h-11.35a0.18,0.18,0,0,1-.19-0.19V51.78Zm11.54-4.91a0.18,0.18,0,0,1,.19.19V49a0.18,0.18,0,0,1-.19.19h-11.35a0.18,0.18,0,0,1-.19-0.19V47.06a0.18,0.18,0,0,1,.19-0.19h11.35Zm-11.35-4.74h11.35a0.18,0.18,0,0,1,.19.19v1.89a0.18,0.18,0,0,1-.19.19h-11.35a0.18,0.18,0,0,1-.19-0.19V42.32A0.18,0.18,0,0,1,1042.32,42.14Z"/>
    <circle class="cls-4" cx="1052.54" cy="48" r="0.57"/>
    <circle class="cls-4" cx="1052.54" cy="52.74" r="0.57"/>
    <circle class="cls-4" cx="1052.54" cy="43.28" r="0.57"/>
  </g>
  <g>
    <path class="cls-6" d="M1055,84.22V82.32a1.33,1.33,0,0,0-1.32-1.32h-11.35a1.33,1.33,0,0,0-1.32,1.32v1.89a1.33,1.33,0,0,0,1.14,1.31v0.22a1.33,1.33,0,0,0-1.14,1.31V89a1.33,1.33,0,0,0,1.14,1.31v0.22a1.28,1.28,0,0,0-.74.36,1.32,1.32,0,0,0-.4.94v1.89a1.33,1.33,0,0,0,1.32,1.32h11.35a1.33,1.33,0,0,0,1.32-1.32V91.78a1.33,1.33,0,0,0-1.14-1.31V90.25a1.33,1.33,0,0,0,1.14-1.31V87.06a1.33,1.33,0,0,0-1.14-1.31V85.53A1.33,1.33,0,0,0,1055,84.22Zm-12.86,7.57a0.18,0.18,0,0,1,.19-0.19h11.35a0.18,0.18,0,0,1,.19.19v1.89a0.18,0.18,0,0,1-.19.19h-11.35a0.18,0.18,0,0,1-.19-0.19V91.78Zm11.54-4.91a0.18,0.18,0,0,1,.19.19V89a0.18,0.18,0,0,1-.19.19h-11.35a0.18,0.18,0,0,1-.19-0.19V87.06a0.18,0.18,0,0,1,.19-0.19h11.35Zm-11.35-4.74h11.35a0.18,0.18,0,0,1,.19.19v1.89a0.18,0.18,0,0,1-.19.19h-11.35a0.18,0.18,0,0,1-.19-0.19V82.32A0.18,0.18,0,0,1,1042.32,82.14Z"/>
    <circle class="cls-6" cx="1052.54" cy="88" r="0.57"/>
    <circle class="cls-6" cx="1052.54" cy="92.74" r="0.57"/>
    <circle class="cls-6" cx="1052.54" cy="83.28" r="0.57"/>
  </g>
  <g>
    <path class="cls-4" d="M974.83,43.74a0.67,0.67,0,0,0-.67.67v8.9a0.86,0.86,0,0,1-.86.86H962.69a0.86,0.86,0,0,1-.86-0.86V42.69a0.86,0.86,0,0,1,.86-0.86h8.74a0.67,0.67,0,0,0,0-1.33h-8.74a2.19,2.19,0,0,0-2.19,2.19V53.31a2.19,2.19,0,0,0,2.19,2.19h10.62a2.19,2.19,0,0,0,2.19-2.19v-8.9A0.67,0.67,0,0,0,974.83,43.74Z"/>
    <polygon class="cls-4" points="964.45 50.67 964.45 45.46 963.11 45.46 962.5 46.44 963.46 46.44 963.46 50.67 964.45 50.67"/>
    <path class="cls-4" d="M967.24,48.27L965,50.67h4.09v-1h-1.88l0.79-.86a6.14,6.14,0,0,0,.75-0.95,1.8,1.8,0,0,0,.27-1,1.62,1.62,0,0,0-.5-1.2,1.71,1.71,0,0,0-1.25-.49,1.75,1.75,0,0,0-1.28.52,2,2,0,0,0-.56,1.39v0.22h1V47.19a1.16,1.16,0,0,1,.27-0.73,0.82,0.82,0,0,1,1.14,0,0.67,0.67,0,0,1,.23.5,1,1,0,0,1-.16.55A6.93,6.93,0,0,1,967.24,48.27Z"/>
    <path class="cls-4" d="M970.42,45.65a2,2,0,0,0-.6,1.09l-0.06.25h1l0.05-.13a1.28,1.28,0,0,1,.3-0.5,0.67,0.67,0,0,1,.84,0,0.46,0.46,0,0,1,.17.37,0.42,0.42,0,0,1-.22.36,1.19,1.19,0,0,1-.69.18H971v0.95h0.2a1.65,1.65,0,0,1,.93.23,0.61,0.61,0,0,1,.27.53,0.74,0.74,0,0,1-.25.58,0.89,0.89,0,0,1-.63.23,0.83,0.83,0,0,1-.57-0.18,1.25,1.25,0,0,1-.32-0.6l0-.15h-1l0,0.25a2.18,2.18,0,0,0,.63,1.23,1.74,1.74,0,0,0,1.21.43,1.85,1.85,0,0,0,1.35-.53,1.73,1.73,0,0,0,.54-1.27,1.56,1.56,0,0,0-.25-0.85,1.61,1.61,0,0,0-.42-0.44,1.27,1.27,0,0,0,.4-1,1.38,1.38,0,0,0-.49-1.06,1.64,1.64,0,0,0-1.12-.43A1.6,1.6,0,0,0,970.42,45.65Z"/>
  </g>
  <g>
    <path class="cls-6" d="M974.83,83.74a0.67,0.67,0,0,0-.67.67v8.9a0.86,0.86,0,0,1-.86.86H962.69a0.86,0.86,0,0,1-.86-0.86V82.69a0.86,0.86,0,0,1,.86-0.86h8.74a0.67,0.67,0,0,0,0-1.33h-8.74a2.19,2.19,0,0,0-2.19,2.19V93.31a2.19,2.19,0,0,0,2.19,2.19h10.62a2.19,2.19,0,0,0,2.19-2.19v-8.9A0.67,0.67,0,0,0,974.83,83.74Z"/>
    <polygon class="cls-6" points="964.45 90.67 964.45 85.46 963.11 85.46 962.5 86.44 963.46 86.44 963.46 90.67 964.45 90.67"/>
    <path class="cls-6" d="M967.24,88.27L965,90.67h4.09v-1h-1.88l0.79-.86a6.14,6.14,0,0,0,.75-0.95,1.8,1.8,0,0,0,.27-1,1.62,1.62,0,0,0-.5-1.2,1.71,1.71,0,0,0-1.25-.49,1.75,1.75,0,0,0-1.28.52,2,2,0,0,0-.56,1.39v0.22h1V87.19a1.16,1.16,0,0,1,.27-0.73,0.82,0.82,0,0,1,1.14,0,0.67,0.67,0,0,1,.23.5,1,1,0,0,1-.16.55A6.93,6.93,0,0,1,967.24,88.27Z"/>
    <path class="cls-6" d="M970.42,85.65a2,2,0,0,0-.6,1.09l-0.06.25h1l0.05-.13a1.28,1.28,0,0,1,.3-0.5,0.67,0.67,0,0,1,.84,0,0.46,0.46,0,0,1,.17.37,0.42,0.42,0,0,1-.22.36,1.19,1.19,0,0,1-.69.18H971v0.95h0.2a1.65,1.65,0,0,1,.93.23,0.61,0.61,0,0,1,.27.53,0.74,0.74,0,0,1-.25.58,0.89,0.89,0,0,1-.63.23,0.83,0.83,0,0,1-.57-0.18,1.25,1.25,0,0,1-.32-0.6l0-.15h-1l0,0.25a2.18,2.18,0,0,0,.63,1.23,1.74,1.74,0,0,0,1.21.43,1.85,1.85,0,0,0,1.35-.53,1.73,1.73,0,0,0,.54-1.27,1.56,1.56,0,0,0-.25-0.85,1.61,1.61,0,0,0-.42-0.44,1.27,1.27,0,0,0,.4-1,1.38,1.38,0,0,0-.49-1.06,1.64,1.64,0,0,0-1.12-.43A1.6,1.6,0,0,0,970.42,85.65Z"/>
  </g>
  <path class="cls-5" d="M1101,47h-12a2,2,0,0,0-2,2v9a2,2,0,0,0,2,2h2l-2,4,6-4h6a2,2,0,0,0,2-2V49A2,2,0,0,0,1101,47Zm-5,11h-2V52h2v6Zm0-7h-2V49h2v2Z"/>
  <path class="cls-3" d="M1101,87h-12a2,2,0,0,0-2,2v9a2,2,0,0,0,2,2h2l-2,4,6-4h6a2,2,0,0,0,2-2V89A2,2,0,0,0,1101,87Zm-5,11h-2V92h2v6Zm0-7h-2V89h2v2Z"/>
  <path class="cls-2" d="M13.14,5.19L11.32,5.1a0.37,0.37,0,0,1-.21-0.2C11,4.61,10.87,4.3,10.75,4a3.74,3.74,0,0,0-.42-0.89c-0.77-1-1.58-1.9-2.38-2.83A0.59,0.59,0,0,0,7.55.09q-1.4,0-2.79.07a0.46,0.46,0,0,0-.5.45s0,0.06,0,.09h0a0.49,0.49,0,0,0,.55.45L7,1.24a0.3,0.3,0,0,1,.2.07c0.21,0.26.41,0.54,0.61,0.82l-0.16.16-0.09.09-0.07.06L6.09,3.77,6,3.86,5,4.79a1,1,0,0,0-.35.61s0,0.05,0,.09a1,1,0,0,0,0,.12L2.85,7.06l-0.13.11L2.6,7.26,0.88,8.67l-0.11.09-0.44.36A0.71,0.71,0,0,0,0,9.8a0.69,0.69,0,0,0,1.14.41L3.09,8.77l0.12-.09,1.9-1.42,0.12-.09L5.41,7,5.52,7.17,5.59,7.26,6.53,8.33,6.83,8.65l-0.08,0-0.29.09L4.22,9.4a0.71,0.71,0,0,0-.54.47,0.68,0.68,0,0,0,.88.84l4-.81A0.81,0.81,0,0,0,9,8.57L7.55,6.66,7.21,6.2,9.48,4.55l0.68,1.35a0.59,0.59,0,0,0,.6.36c0.45,0,.9,0,1.35,0s0.75,0,1.12-.07a0.46,0.46,0,0,0,.42-0.53A0.49,0.49,0,0,0,13.14,5.19ZM11.23,2.68A1.34,1.34,0,1,0,9.9,1.33,1.34,1.34,0,0,0,11.23,2.68Z"/>
  <path class="cls-4" d="M13.14,45.19l-1.83-.09a0.37,0.37,0,0,1-.21-0.2c-0.13-.3-0.24-0.6-0.36-0.9a3.74,3.74,0,0,0-.42-0.89c-0.77-1-1.58-1.9-2.38-2.83a0.59,0.59,0,0,0-.39-0.19q-1.4,0-2.79.07a0.46,0.46,0,0,0-.5.45s0,0.06,0,.09h0a0.49,0.49,0,0,0,.55.45L7,41.24a0.3,0.3,0,0,1,.2.07c0.21,0.26.41,0.54,0.61,0.82l-0.16.16-0.09.09-0.07.06L6.09,43.77,6,43.86l-1,.93a1,1,0,0,0-.35.61s0,0.05,0,.09a1,1,0,0,0,0,.12L2.85,47.06l-0.13.11-0.11.09L0.88,48.67l-0.11.09-0.44.36A0.71,0.71,0,0,0,0,49.8a0.69,0.69,0,0,0,1.14.41l1.94-1.44,0.12-.09,1.9-1.42,0.12-.09L5.41,47l0.11,0.13,0.08,0.09,0.94,1.07,0.29,0.32-0.08,0-0.29.09-2.24.64a0.71,0.71,0,0,0-.54.47,0.68,0.68,0,0,0,.88.84l4-.81A0.81,0.81,0,0,0,9,48.57L7.55,46.66,7.21,46.2l2.27-1.65,0.68,1.35a0.59,0.59,0,0,0,.6.36c0.45,0,.9,0,1.35,0s0.75,0,1.12-.07a0.46,0.46,0,0,0,.42-0.53A0.49,0.49,0,0,0,13.14,45.19Zm-1.91-2.51A1.34,1.34,0,1,0,9.9,41.33,1.34,1.34,0,0,0,11.23,42.68Z"/>
  <path class="cls-6" d="M13.14,85.19l-1.83-.09a0.37,0.37,0,0,1-.21-0.2c-0.13-.3-0.24-0.6-0.36-0.9a3.74,3.74,0,0,0-.42-0.89c-0.77-1-1.58-1.9-2.38-2.83a0.59,0.59,0,0,0-.39-0.19q-1.4,0-2.79.07a0.46,0.46,0,0,0-.5.45s0,0.06,0,.09h0a0.49,0.49,0,0,0,.55.45L7,81.24a0.3,0.3,0,0,1,.2.07c0.21,0.26.41,0.54,0.61,0.82l-0.16.16-0.09.09-0.07.06L6.09,83.77,6,83.86l-1,.93a1,1,0,0,0-.35.61s0,0.05,0,.09a1,1,0,0,0,0,.12L2.85,87.06l-0.13.11-0.11.09L0.88,88.67l-0.11.09-0.44.36A0.71,0.71,0,0,0,0,89.8a0.69,0.69,0,0,0,1.14.41l1.94-1.44,0.12-.09,1.9-1.42,0.12-.09L5.41,87l0.11,0.13,0.08,0.09,0.94,1.07,0.29,0.32-0.08,0-0.29.09-2.24.64a0.71,0.71,0,0,0-.54.47,0.68,0.68,0,0,0,.88.84l4-.81A0.81,0.81,0,0,0,9,88.57L7.55,86.66,7.21,86.2l2.27-1.65,0.68,1.35a0.59,0.59,0,0,0,.6.36c0.45,0,.9,0,1.35,0s0.75,0,1.12-.07a0.46,0.46,0,0,0,.42-0.53A0.49,0.49,0,0,0,13.14,85.19Zm-1.91-2.51A1.34,1.34,0,1,0,9.9,81.33,1.34,1.34,0,0,0,11.23,82.68Z"/>
  <g>
    <path class="cls-2" d="M1168,0c-3.17,0-5.74,1-5.78,2.14v1c0,1.24,2.59,2.25,5.78,2.25s5.78-1,5.78-2.25v-1C1173.74,1,1171.17,0,1168,0Zm0,3.19c-2.52,0-4.56-.56-4.56-1.24s2-1.24,4.56-1.24,4.56,0.56,4.56,1.24S1170.52,3.19,1168,3.19Z"/>
    <path class="cls-2" d="M1168,6.39c-3.19,0-5.78-.88-5.78-2.12V11c0,1.24,2.59,2.25,5.78,2.25s5.78-1,5.78-2.25V4.27C1173.78,5.51,1171.19,6.39,1168,6.39Zm2.22,6.05a12.86,12.86,0,0,1-2.25.18,12.35,12.35,0,0,1-2.06-.18,1.82,1.82,0,0,1-1.69-1.69,1.69,1.69,0,0,1,.7-1.37,2,2,0,0,1,3.6-1.43,1.22,1.22,0,0,1,1.79,1.5,1.5,1.5,0,0,1,1.41,1.49A1.61,1.61,0,0,1,1170.22,12.44Z"/>
    <path class="cls-2" d="M1168,14.18c-3.19,0-5.78-1-5.78-2.25v1.74s0,2.33,5.76,2.33,5.8-2.29,5.8-2.29V11.93C1173.78,13.17,1171.19,14.18,1168,14.18Z"/>
  </g>
  <g>
    <path class="cls-2" d="M1128,0c-3.17,0-5.74,1-5.78,2.14v1c0,1.24,2.59,2.25,5.78,2.25s5.78-1,5.78-2.25v-1C1133.74,1,1131.17,0,1128,0Zm0,3.19c-2.52,0-4.56-.56-4.56-1.24s2-1.24,4.56-1.24,4.56,0.56,4.56,1.24S1130.52,3.19,1128,3.19Z"/>
    <path class="cls-2" d="M1125.51,8l-0.5-.14c0,1.05,0,2.1,0,3.28l0.56,0.16a1.44,1.44,0,0,0,1.26-.14,1.28,1.28,0,0,0,.44-1.11,1.92,1.92,0,0,0-.48-1.34A2.46,2.46,0,0,0,1125.51,8Z"/>
    <path class="cls-2" d="M1130.08,9.36a1.07,1.07,0,0,0,.59-0.36,0.92,0.92,0,0,0,.21-0.6,0.36,0.36,0,0,0-.1-0.29,0.77,0.77,0,0,0-.59,0h0l-0.47.09c0,0.45,0,.87,0,1.27Z"/>
    <path class="cls-2" d="M1128,6.39c-3.19,0-5.78-.88-5.78-2.12V11c0,1.24,2.59,2.25,5.78,2.25s5.78-1,5.78-2.25V4.27C1133.78,5.51,1131.19,6.39,1128,6.39Zm-0.55,5.45a2.09,2.09,0,0,1-1.27.4,3.43,3.43,0,0,1-.68-0.07,4,4,0,0,1-1.33-.45l-0.09,0V6.72l0.21,0.06c0.44,0.13.88,0.25,1.31,0.34a3.35,3.35,0,0,1,1.87,1,2.82,2.82,0,0,1,.76,1.95A2,2,0,0,1,1127.45,11.84Zm4.14-.4a2.11,2.11,0,0,1-1.2.73,9.9,9.9,0,0,1-1.43.21h-0.18V12.21c0-1.34,0-2.77,0-4.77V7.29h0.15a11,11,0,0,0,1.35-.17,1.64,1.64,0,0,1,1.09.1,0.85,0.85,0,0,1,.45.82,1.82,1.82,0,0,1-.24.87,2.13,2.13,0,0,1-.27.39,0.77,0.77,0,0,1,.73.89A2,2,0,0,1,1131.59,11.44Z"/>
    <path class="cls-2" d="M1131,10.16a1.05,1.05,0,0,0-.78,0l-0.5.11c0,0.42,0,.81,0,1.2l0.52-.1a1.19,1.19,0,0,0,.64-0.36h0a0.85,0.85,0,0,0,.22-0.57A0.32,0.32,0,0,0,1131,10.16Z"/>
    <path class="cls-2" d="M1128,14.18c-3.19,0-5.78-1-5.78-2.25v1.74s0,2.33,5.76,2.33,5.8-2.29,5.8-2.29V11.93C1133.78,13.17,1131.19,14.18,1128,14.18Z"/>
  </g>
  <g>
    <path class="cls-4" d="M1128,40c-3.17,0-5.74,1-5.78,2.14v1c0,1.24,2.59,2.25,5.78,2.25s5.78-1,5.78-2.25v-1C1133.74,41,1131.17,40,1128,40Zm0,3.19c-2.52,0-4.56-.56-4.56-1.24s2-1.24,4.56-1.24,4.56,0.56,4.56,1.24S1130.52,43.19,1128,43.19Z"/>
    <path class="cls-4" d="M1125.51,48l-0.5-.14c0,1.05,0,2.1,0,3.28l0.56,0.16a1.44,1.44,0,0,0,1.26-.14,1.28,1.28,0,0,0,.44-1.11,1.92,1.92,0,0,0-.48-1.34A2.46,2.46,0,0,0,1125.51,48Z"/>
    <path class="cls-4" d="M1130.08,49.36a1.07,1.07,0,0,0,.59-0.36,0.92,0.92,0,0,0,.21-0.6,0.36,0.36,0,0,0-.1-0.29,0.77,0.77,0,0,0-.59,0h0l-0.47.09c0,0.45,0,.87,0,1.27Z"/>
    <path class="cls-4" d="M1128,46.39c-3.19,0-5.78-.88-5.78-2.12V51c0,1.24,2.59,2.25,5.78,2.25s5.78-1,5.78-2.25v-6.7C1133.78,45.51,1131.19,46.39,1128,46.39Zm-0.55,5.45a2.09,2.09,0,0,1-1.27.4,3.43,3.43,0,0,1-.68-0.07,4,4,0,0,1-1.33-.45l-0.09,0V46.72l0.21,0.06c0.44,0.13.88,0.25,1.31,0.34a3.35,3.35,0,0,1,1.87,1,2.82,2.82,0,0,1,.76,1.95A2,2,0,0,1,1127.45,51.84Zm4.14-.4a2.11,2.11,0,0,1-1.2.73,9.9,9.9,0,0,1-1.43.21h-0.18V52.21c0-1.34,0-2.77,0-4.77V47.29h0.15a11,11,0,0,0,1.35-.17,1.64,1.64,0,0,1,1.09.1,0.85,0.85,0,0,1,.45.82,1.82,1.82,0,0,1-.24.87,2.13,2.13,0,0,1-.27.39,0.77,0.77,0,0,1,.73.89A2,2,0,0,1,1131.59,51.44Z"/>
    <path class="cls-4" d="M1131,50.16a1.05,1.05,0,0,0-.78,0l-0.5.11c0,0.42,0,.81,0,1.2l0.52-.1a1.19,1.19,0,0,0,.64-0.36h0a0.85,0.85,0,0,0,.22-0.57A0.32,0.32,0,0,0,1131,50.16Z"/>
    <path class="cls-4" d="M1128,54.18c-3.19,0-5.78-1-5.78-2.25v1.74s0,2.33,5.76,2.33,5.8-2.29,5.8-2.29V51.93C1133.78,53.17,1131.19,54.18,1128,54.18Z"/>
  </g>
  <g>
    <path class="cls-6" d="M1128,80c-3.17,0-5.74,1-5.78,2.14v1c0,1.24,2.59,2.25,5.78,2.25s5.78-1,5.78-2.25v-1C1133.74,81,1131.17,80,1128,80Zm0,3.19c-2.52,0-4.56-.56-4.56-1.24s2-1.24,4.56-1.24,4.56,0.56,4.56,1.24S1130.52,83.19,1128,83.19Z"/>
    <path class="cls-6" d="M1125.51,88l-0.5-.14c0,1.05,0,2.1,0,3.28l0.56,0.16a1.44,1.44,0,0,0,1.26-.14,1.28,1.28,0,0,0,.44-1.11,1.92,1.92,0,0,0-.48-1.34A2.46,2.46,0,0,0,1125.51,88Z"/>
    <path class="cls-6" d="M1130.08,89.36a1.07,1.07,0,0,0,.59-0.36,0.92,0.92,0,0,0,.21-0.6,0.36,0.36,0,0,0-.1-0.29,0.77,0.77,0,0,0-.59,0h0l-0.47.09c0,0.45,0,.87,0,1.27Z"/>
    <path class="cls-6" d="M1128,86.39c-3.19,0-5.78-.88-5.78-2.12V91c0,1.24,2.59,2.25,5.78,2.25s5.78-1,5.78-2.25v-6.7C1133.78,85.51,1131.19,86.39,1128,86.39Zm-0.55,5.45a2.09,2.09,0,0,1-1.27.4,3.43,3.43,0,0,1-.68-0.07,4,4,0,0,1-1.33-.45l-0.09,0V86.72l0.21,0.06c0.44,0.13.88,0.25,1.31,0.34a3.35,3.35,0,0,1,1.87,1,2.82,2.82,0,0,1,.76,1.95A2,2,0,0,1,1127.45,91.84Zm4.14-.4a2.11,2.11,0,0,1-1.2.73,9.9,9.9,0,0,1-1.43.21h-0.18V92.21c0-1.34,0-2.77,0-4.77V87.29h0.15a11,11,0,0,0,1.35-.17,1.64,1.64,0,0,1,1.09.1,0.85,0.85,0,0,1,.45.82,1.82,1.82,0,0,1-.24.87,2.13,2.13,0,0,1-.27.39,0.77,0.77,0,0,1,.73.89A2,2,0,0,1,1131.59,91.44Z"/>
    <path class="cls-6" d="M1131,90.16a1.05,1.05,0,0,0-.78,0l-0.5.11c0,0.42,0,.81,0,1.2l0.52-.1a1.19,1.19,0,0,0,.64-0.36h0a0.85,0.85,0,0,0,.22-0.57A0.32,0.32,0,0,0,1131,90.16Z"/>
    <path class="cls-6" d="M1128,94.18c-3.19,0-5.78-1-5.78-2.25v1.74s0,2.33,5.76,2.33,5.8-2.29,5.8-2.29V91.93C1133.78,93.17,1131.19,94.18,1128,94.18Z"/>
  </g>
  <g>
    <path class="cls-4" d="M1168,40c-3.17,0-5.74,1-5.78,2.14v1c0,1.24,2.59,2.25,5.78,2.25s5.78-1,5.78-2.25v-1C1173.74,41,1171.17,40,1168,40Zm0,3.19c-2.52,0-4.56-.56-4.56-1.24s2-1.24,4.56-1.24,4.56,0.56,4.56,1.24S1170.52,43.19,1168,43.19Z"/>
    <path class="cls-4" d="M1168,46.39c-3.19,0-5.78-.88-5.78-2.12V51c0,1.24,2.59,2.25,5.78,2.25s5.78-1,5.78-2.25v-6.7C1173.78,45.51,1171.19,46.39,1168,46.39Zm2.22,6.05a12.86,12.86,0,0,1-2.25.18,12.35,12.35,0,0,1-2.06-.18,1.82,1.82,0,0,1-1.69-1.69,1.69,1.69,0,0,1,.7-1.37,2,2,0,0,1,3.6-1.43,1.22,1.22,0,0,1,1.79,1.5,1.5,1.5,0,0,1,1.41,1.49A1.61,1.61,0,0,1,1170.22,52.44Z"/>
    <path class="cls-4" d="M1168,54.18c-3.19,0-5.78-1-5.78-2.25v1.74s0,2.33,5.76,2.33,5.8-2.29,5.8-2.29V51.93C1173.78,53.17,1171.19,54.18,1168,54.18Z"/>
  </g>
  <g>
    <path class="cls-6" d="M1168,80c-3.17,0-5.74,1-5.78,2.14v1c0,1.24,2.59,2.25,5.78,2.25s5.78-1,5.78-2.25v-1C1173.74,81,1171.17,80,1168,80Zm0,3.19c-2.52,0-4.56-.56-4.56-1.24s2-1.24,4.56-1.24,4.56,0.56,4.56,1.24S1170.52,83.19,1168,83.19Z"/>
    <path class="cls-6" d="M1168,86.39c-3.19,0-5.78-.88-5.78-2.12V91c0,1.24,2.59,2.25,5.78,2.25s5.78-1,5.78-2.25v-6.7C1173.78,85.51,1171.19,86.39,1168,86.39Zm2.22,6.05a12.86,12.86,0,0,1-2.25.18,12.35,12.35,0,0,1-2.06-.18,1.82,1.82,0,0,1-1.69-1.69,1.69,1.69,0,0,1,.7-1.37,2,2,0,0,1,3.6-1.43,1.22,1.22,0,0,1,1.79,1.5,1.5,1.5,0,0,1,1.41,1.49A1.61,1.61,0,0,1,1170.22,92.44Z"/>
    <path class="cls-6" d="M1168,94.18c-3.19,0-5.78-1-5.78-2.25v1.74s0,2.33,5.76,2.33,5.8-2.29,5.8-2.29V91.93C1173.78,93.17,1171.19,94.18,1168,94.18Z"/>
  </g>
</svg>
