<svg id="图层_1" data-name="图层 1" xmlns="http://www.w3.org/2000/svg" width="288" height="64" viewBox="0 0 288 64">
  <defs>
    <style>
      .cls-1, .cls-2 {
        fill: #858585;
      }

      .cls-1, .cls-3 {
        fill-rule: evenodd;
      }

      .cls-3, .cls-4 {
        fill: #fff;
      }
    </style>
  </defs>
  <title>origin</title>
  <g>
    <path class="cls-1" d="M16.2,9.93H14V8.4H10V9.93H7.8V9H5v2.8H5.93v2.8H5v2.8H5.93v2.8H5V23H7.8V22.07h2.8V23h2.8V22.07h2.8V23H19V20.2H18.07V17.4H19V14.6H18.07V11.8H19V9H16.2V9.93ZM5.75,9.75H7V11H5.75V9.75Zm0,5.6H7v1.3H5.75v-1.3ZM7,22.25H5.75V21H7v1.3Zm5.6,0h-1.3V21h1.3v1.3Zm5.6,0H17V21h1.3v1.3Zm0-5.6H17v-1.3h1.3v1.3Zm-1.12-2H16.2v2.8h0.93v2.8H16.2v0.93H13.4V20.2H10.6v0.93H7.8V20.2H6.87V17.4H7.8V14.6H6.87V11.8H7.8V10.87H10V12.4h4V10.87h2.2V11.8h0.93v2.8ZM17,9.75h1.3V11H17V9.75Z"/>
    <path class="cls-1" d="M10.6,17.4h2.8V14.6H10.6v2.8Zm0.75-2h1.3v1.3h-1.3v-1.3Z"/>
    <path class="cls-1" d="M42.6,17.4h2.8V14.6H42.6v2.8Zm0.75-2h1.3v1.3h-1.3v-1.3Z"/>
    <path class="cls-1" d="M48.2,9.93H45.4V9H42.6V9.93H39.8V9H37v2.8h0.93v2.8H37v2.8h0.93v2.8H37V23h2.8V22.07H42V23.6h4V22.07h2.2V23H51V20.2H50.07V17.4H51V14.6H50.07V11.8H51V9H48.2V9.93Zm-4.85-.18h1.3V11h-1.3V9.75Zm-5.6,0H39V11h-1.3V9.75Zm0,5.6H39v1.3h-1.3v-1.3Zm1.3,6.9h-1.3V21H39v1.3Zm11.2,0H49V21h1.3v1.3Zm0-5.6H49v-1.3h1.3v1.3Zm-1.12-2H48.2v2.8h0.93v2.8H48.2v0.93H46V19.6H42v1.53H39.8V20.2H38.87V17.4H39.8V14.6H38.87V11.8H39.8V10.87h2.8V11.8h2.8V10.87h2.8V11.8h0.93v2.8ZM49,9.75h1.3V11H49V9.75Z"/>
    <path class="cls-1" d="M80.2,9.93H77.4V9H74.6V9.93H71.8V9H69v2.8h0.93V14H68.4v4h1.53v2.2H69V23h2.8V22.07h2.8V23h2.8V22.07h2.8V23H83V20.2H82.07V17.4H83V14.6H82.07V11.8H83V9H80.2V9.93Zm-4.85-.18h1.3V11h-1.3V9.75Zm-5.6,0H71V11h-1.3V9.75ZM71,22.25h-1.3V21H71v1.3Zm5.6,0h-1.3V21h1.3v1.3Zm5.6,0H81V21h1.3v1.3Zm0-5.6H81v-1.3h1.3v1.3Zm-1.12-2H80.2v2.8h0.93v2.8H80.2v0.93H77.4V20.2H74.6v0.93H71.8V20.2H70.87V18H72.4V14H70.87V11.8H71.8V10.87h2.8V11.8h2.8V10.87h2.8V11.8h0.93v2.8ZM81,9.75h1.3V11H81V9.75Z"/>
    <path class="cls-1" d="M74.6,17.4h2.8V14.6H74.6v2.8Zm0.75-2h1.3v1.3h-1.3v-1.3Z"/>
    <path class="cls-1" d="M106.6,17.4h2.8V14.6h-2.8v2.8Zm0.75-2h1.3v1.3h-1.3v-1.3Z"/>
    <path class="cls-1" d="M114.07,11.8H115V9h-2.8V9.93h-2.8V9h-2.8V9.93h-2.8V9H101v2.8h0.93v2.8H101v2.8h0.93v2.8H101V23h2.8V22.07h2.8V23h2.8V22.07h2.8V23H115V20.2h-0.93V18h1.53V14h-1.53V11.8Zm-1.12-2h1.3V11H113V9.75Zm-5.6,0h1.3V11h-1.3V9.75Zm-5.6,0H103V11h-1.3V9.75Zm0,5.6H103v1.3h-1.3v-1.3Zm1.3,6.9h-1.3V21H103v1.3Zm5.6,0h-1.3V21h1.3v1.3Zm5.6,0H113V21h1.3v1.3Zm-1.12-2H112.2v0.93h-2.8V20.2h-2.8v0.93h-2.8V20.2h-0.93V17.4h0.93V14.6h-0.93V11.8h0.93V10.87h2.8V11.8h2.8V10.87h2.8V11.8h0.93V14H111.6v4h1.53v2.2Z"/>
    <path class="cls-1" d="M144.2,9.93h-2.8V9h-2.8V9.93h-2.8V9H133v2.8h0.93v2.8H133v2.8h0.93v2.8H133V23h2.8V22.07h2.8V23h2.8V22.07h2.8V23H147V20.2h-0.93V17.4H147V14.6h-0.93V11.8H147V9h-2.8V9.93Zm-4.85-.18h1.3V11h-1.3V9.75Zm-5.6,0H135V11h-1.3V9.75Zm0,5.6H135v1.3h-1.3v-1.3Zm1.3,6.9h-1.3V21H135v1.3Zm5.6,0h-1.3V21h1.3v1.3Zm5.6,0H145V21h1.3v1.3Zm0-5.6H145v-1.3h1.3v1.3Zm-1.12-2H144.2v2.8h0.93v2.8H144.2v0.93h-2.8V20.2h-2.8v0.93h-2.8V20.2h-0.93V17.4h0.93V14.6h-0.93V11.8h0.93V10.87h2.8V11.8h2.8V10.87h2.8V11.8h0.93v2.8ZM145,9.75h1.3V11H145V9.75Z"/>
    <rect class="cls-2" x="138" y="14" width="4" height="4"/>
    <path class="cls-1" d="M176.2,9.93h-2.8V9h-2.8V9.93h-2.2V8.4h-4v4h1.53v2.2H165v2.8h0.93v2.8H165V23h2.8V22.07h2.8V23h2.8V22.07h2.8V23H179V20.2h-0.93V17.4H179V14.6h-0.93V11.8H179V9h-2.8V9.93Zm-4.85-.18h1.3V11h-1.3V9.75Zm-5.6,5.6H167v1.3h-1.3v-1.3Zm1.3,6.9h-1.3V21H167v1.3Zm5.6,0h-1.3V21h1.3v1.3Zm5.6,0H177V21h1.3v1.3Zm0-5.6H177v-1.3h1.3v1.3Zm-1.12-2H176.2v2.8h0.93v2.8H176.2v0.93h-2.8V20.2h-2.8v0.93h-2.8V20.2h-0.93V17.4h0.93V14.6h-0.93V12.4h1.53V10.87h2.2V11.8h2.8V10.87h2.8V11.8h0.93v2.8ZM177,9.75h1.3V11H177V9.75Z"/>
    <path class="cls-1" d="M170.6,17.4h2.8V14.6h-2.8v2.8Zm0.75-2h1.3v1.3h-1.3v-1.3Z"/>
    <path class="cls-1" d="M202.6,17.4h2.8V14.6h-2.8v2.8Zm0.75-2h1.3v1.3h-1.3v-1.3Z"/>
    <path class="cls-1" d="M208.2,9.93h-2.8V9h-2.8V9.93h-2.8V9H197v2.8h0.93v2.8H197v2.8h0.93v2.2H196.4v4h4V22.07h2.2V23h2.8V22.07h2.8V23H211V20.2h-0.93V17.4H211V14.6h-0.93V11.8H211V9h-2.8V9.93Zm-4.85-.18h1.3V11h-1.3V9.75Zm-5.6,0H199V11h-1.3V9.75Zm0,5.6H199v1.3h-1.3v-1.3Zm6.9,6.9h-1.3V21h1.3v1.3Zm5.6,0H209V21h1.3v1.3Zm0-5.6H209v-1.3h1.3v1.3Zm-1.12-2H208.2v2.8h0.93v2.8H208.2v0.93h-2.8V20.2h-2.8v0.93h-2.2V19.6h-1.53V17.4h0.93V14.6h-0.93V11.8h0.93V10.87h2.8V11.8h2.8V10.87h2.8V11.8h0.93v2.8ZM209,9.75h1.3V11H209V9.75Z"/>
    <path class="cls-1" d="M234.6,17.4h2.8V14.6h-2.8v2.8Zm0.75-2h1.3v1.3h-1.3v-1.3Z"/>
    <path class="cls-1" d="M239.6,9.93h-2.2V9h-2.8V9.93h-2.8V9H229v2.8h0.93v2.8H229v2.8h0.93v2.8H229V23h2.8V22.07h2.8V23h2.8V22.07h2.8V23H243V20.2h-0.93V17.4H243V14.6h-0.93V12.4h1.53v-4h-4V9.93Zm-4.25-.18h1.3V11h-1.3V9.75Zm-5.6,0H231V11h-1.3V9.75Zm0,5.6H231v1.3h-1.3v-1.3Zm1.3,6.9h-1.3V21H231v1.3Zm5.6,0h-1.3V21h1.3v1.3Zm5.6,0H241V21h1.3v1.3Zm0-5.6H241v-1.3h1.3v1.3Zm-1.12-2H240.2v2.8h0.93v2.8H240.2v0.93h-2.8V20.2h-2.8v0.93h-2.8V20.2h-0.93V17.4h0.93V14.6h-0.93V11.8h0.93V10.87h2.8V11.8h2.8V10.87h2.2V12.4h1.53v2.2Z"/>
    <path class="cls-1" d="M266.6,17.4h2.8V14.6h-2.8v2.8Zm0.75-2h1.3v1.3h-1.3v-1.3Z"/>
    <path class="cls-1" d="M274.07,19.6V17.4H275V14.6h-0.93V11.8H275V9h-2.8V9.93h-2.8V9h-2.8V9.93h-2.8V9H261v2.8h0.93v2.8H261v2.8h0.93v2.8H261V23h2.8V22.07h2.8V23h2.8V22.07h2.2V23.6h4v-4h-1.53Zm0.18-3H273v-1.3h1.3v1.3ZM273,9.75h1.3V11H273V9.75Zm-5.6,0h1.3V11h-1.3V9.75Zm-5.6,0H263V11h-1.3V9.75Zm0,5.6H263v1.3h-1.3v-1.3Zm1.3,6.9h-1.3V21H263v1.3Zm5.6,0h-1.3V21h1.3v1.3Zm0.75-1.12V20.2h-2.8v0.93h-2.8V20.2h-0.93V17.4h0.93V14.6h-0.93V11.8h0.93V10.87h2.8V11.8h2.8V10.87h2.8V11.8h0.93v2.8H272.2v2.8h0.93v2.2H271.6v1.53h-2.2Z"/>
  </g>
  <g>
    <path class="cls-3" d="M16.2,41.93H14V40.4H10v1.53H7.8V41H5v2.8H5.93v2.8H5v2.8H5.93v2.8H5V55H7.8V54.07h2.8V55h2.8V54.07h2.8V55H19V52.2H18.07V49.4H19V46.6H18.07V43.8H19V41H16.2v0.93ZM5.75,41.75H7V43H5.75v-1.3Zm0,5.6H7v1.3H5.75v-1.3ZM7,54.25H5.75V53H7v1.3Zm5.6,0h-1.3V53h1.3v1.3Zm5.6,0H17V53h1.3v1.3Zm0-5.6H17v-1.3h1.3v1.3Zm-1.12-2H16.2v2.8h0.93v2.8H16.2v0.93H13.4V52.2H10.6v0.93H7.8V52.2H6.87V49.4H7.8V46.6H6.87V43.8H7.8V42.87H10V44.4h4V42.87h2.2V43.8h0.93v2.8ZM17,41.75h1.3V43H17v-1.3Z"/>
    <path class="cls-3" d="M10.6,49.4h2.8V46.6H10.6v2.8Zm0.75-2h1.3v1.3h-1.3v-1.3Z"/>
    <path class="cls-3" d="M42.6,49.4h2.8V46.6H42.6v2.8Zm0.75-2h1.3v1.3h-1.3v-1.3Z"/>
    <path class="cls-3" d="M48.2,41.93H45.4V41H42.6v0.93H39.8V41H37v2.8h0.93v2.8H37v2.8h0.93v2.8H37V55h2.8V54.07H42V55.6h4V54.07h2.2V55H51V52.2H50.07V49.4H51V46.6H50.07V43.8H51V41H48.2v0.93Zm-4.85-.18h1.3V43h-1.3v-1.3Zm-5.6,0H39V43h-1.3v-1.3Zm0,5.6H39v1.3h-1.3v-1.3Zm1.3,6.9h-1.3V53H39v1.3Zm11.2,0H49V53h1.3v1.3Zm0-5.6H49v-1.3h1.3v1.3Zm-1.12-2H48.2v2.8h0.93v2.8H48.2v0.93H46V51.6H42v1.53H39.8V52.2H38.87V49.4H39.8V46.6H38.87V43.8H39.8V42.87h2.8V43.8h2.8V42.87h2.8V43.8h0.93v2.8ZM49,41.75h1.3V43H49v-1.3Z"/>
    <path class="cls-3" d="M80.2,41.93H77.4V41H74.6v0.93H71.8V41H69v2.8h0.93V46H68.4v4h1.53v2.2H69V55h2.8V54.07h2.8V55h2.8V54.07h2.8V55H83V52.2H82.07V49.4H83V46.6H82.07V43.8H83V41H80.2v0.93Zm-4.85-.18h1.3V43h-1.3v-1.3Zm-5.6,0H71V43h-1.3v-1.3ZM71,54.25h-1.3V53H71v1.3Zm5.6,0h-1.3V53h1.3v1.3Zm5.6,0H81V53h1.3v1.3Zm0-5.6H81v-1.3h1.3v1.3Zm-1.12-2H80.2v2.8h0.93v2.8H80.2v0.93H77.4V52.2H74.6v0.93H71.8V52.2H70.87V50H72.4V46H70.87V43.8H71.8V42.87h2.8V43.8h2.8V42.87h2.8V43.8h0.93v2.8ZM81,41.75h1.3V43H81v-1.3Z"/>
    <path class="cls-3" d="M74.6,49.4h2.8V46.6H74.6v2.8Zm0.75-2h1.3v1.3h-1.3v-1.3Z"/>
    <path class="cls-3" d="M106.6,49.4h2.8V46.6h-2.8v2.8Zm0.75-2h1.3v1.3h-1.3v-1.3Z"/>
    <path class="cls-3" d="M114.07,43.8H115V41h-2.8v0.93h-2.8V41h-2.8v0.93h-2.8V41H101v2.8h0.93v2.8H101v2.8h0.93v2.8H101V55h2.8V54.07h2.8V55h2.8V54.07h2.8V55H115V52.2h-0.93V50h1.53V46h-1.53V43.8Zm-1.12-2h1.3V43H113v-1.3Zm-5.6,0h1.3V43h-1.3v-1.3Zm-5.6,0H103V43h-1.3v-1.3Zm0,5.6H103v1.3h-1.3v-1.3Zm1.3,6.9h-1.3V53H103v1.3Zm5.6,0h-1.3V53h1.3v1.3Zm5.6,0H113V53h1.3v1.3Zm-1.12-2H112.2v0.93h-2.8V52.2h-2.8v0.93h-2.8V52.2h-0.93V49.4h0.93V46.6h-0.93V43.8h0.93V42.87h2.8V43.8h2.8V42.87h2.8V43.8h0.93V46H111.6v4h1.53v2.2Z"/>
    <path class="cls-3" d="M144.2,41.93h-2.8V41h-2.8v0.93h-2.8V41H133v2.8h0.93v2.8H133v2.8h0.93v2.8H133V55h2.8V54.07h2.8V55h2.8V54.07h2.8V55H147V52.2h-0.93V49.4H147V46.6h-0.93V43.8H147V41h-2.8v0.93Zm-4.85-.18h1.3V43h-1.3v-1.3Zm-5.6,0H135V43h-1.3v-1.3Zm0,5.6H135v1.3h-1.3v-1.3Zm1.3,6.9h-1.3V53H135v1.3Zm5.6,0h-1.3V53h1.3v1.3Zm5.6,0H145V53h1.3v1.3Zm0-5.6H145v-1.3h1.3v1.3Zm-1.12-2H144.2v2.8h0.93v2.8H144.2v0.93h-2.8V52.2h-2.8v0.93h-2.8V52.2h-0.93V49.4h0.93V46.6h-0.93V43.8h0.93V42.87h2.8V43.8h2.8V42.87h2.8V43.8h0.93v2.8ZM145,41.75h1.3V43H145v-1.3Z"/>
    <rect class="cls-4" x="138" y="46" width="4" height="4"/>
    <path class="cls-3" d="M176.2,41.93h-2.8V41h-2.8v0.93h-2.2V40.4h-4v4h1.53v2.2H165v2.8h0.93v2.8H165V55h2.8V54.07h2.8V55h2.8V54.07h2.8V55H179V52.2h-0.93V49.4H179V46.6h-0.93V43.8H179V41h-2.8v0.93Zm-4.85-.18h1.3V43h-1.3v-1.3Zm-5.6,5.6H167v1.3h-1.3v-1.3Zm1.3,6.9h-1.3V53H167v1.3Zm5.6,0h-1.3V53h1.3v1.3Zm5.6,0H177V53h1.3v1.3Zm0-5.6H177v-1.3h1.3v1.3Zm-1.12-2H176.2v2.8h0.93v2.8H176.2v0.93h-2.8V52.2h-2.8v0.93h-2.8V52.2h-0.93V49.4h0.93V46.6h-0.93V44.4h1.53V42.87h2.2V43.8h2.8V42.87h2.8V43.8h0.93v2.8ZM177,41.75h1.3V43H177v-1.3Z"/>
    <path class="cls-3" d="M170.6,49.4h2.8V46.6h-2.8v2.8Zm0.75-2h1.3v1.3h-1.3v-1.3Z"/>
    <path class="cls-3" d="M202.6,49.4h2.8V46.6h-2.8v2.8Zm0.75-2h1.3v1.3h-1.3v-1.3Z"/>
    <path class="cls-3" d="M208.2,41.93h-2.8V41h-2.8v0.93h-2.8V41H197v2.8h0.93v2.8H197v2.8h0.93v2.2H196.4v4h4V54.07h2.2V55h2.8V54.07h2.8V55H211V52.2h-0.93V49.4H211V46.6h-0.93V43.8H211V41h-2.8v0.93Zm-4.85-.18h1.3V43h-1.3v-1.3Zm-5.6,0H199V43h-1.3v-1.3Zm0,5.6H199v1.3h-1.3v-1.3Zm6.9,6.9h-1.3V53h1.3v1.3Zm5.6,0H209V53h1.3v1.3Zm0-5.6H209v-1.3h1.3v1.3Zm-1.12-2H208.2v2.8h0.93v2.8H208.2v0.93h-2.8V52.2h-2.8v0.93h-2.2V51.6h-1.53V49.4h0.93V46.6h-0.93V43.8h0.93V42.87h2.8V43.8h2.8V42.87h2.8V43.8h0.93v2.8ZM209,41.75h1.3V43H209v-1.3Z"/>
    <path class="cls-3" d="M234.6,49.4h2.8V46.6h-2.8v2.8Zm0.75-2h1.3v1.3h-1.3v-1.3Z"/>
    <path class="cls-3" d="M239.6,41.93h-2.2V41h-2.8v0.93h-2.8V41H229v2.8h0.93v2.8H229v2.8h0.93v2.8H229V55h2.8V54.07h2.8V55h2.8V54.07h2.8V55H243V52.2h-0.93V49.4H243V46.6h-0.93V44.4h1.53v-4h-4v1.53Zm-4.25-.18h1.3V43h-1.3v-1.3Zm-5.6,0H231V43h-1.3v-1.3Zm0,5.6H231v1.3h-1.3v-1.3Zm1.3,6.9h-1.3V53H231v1.3Zm5.6,0h-1.3V53h1.3v1.3Zm5.6,0H241V53h1.3v1.3Zm0-5.6H241v-1.3h1.3v1.3Zm-1.12-2H240.2v2.8h0.93v2.8H240.2v0.93h-2.8V52.2h-2.8v0.93h-2.8V52.2h-0.93V49.4h0.93V46.6h-0.93V43.8h0.93V42.87h2.8V43.8h2.8V42.87h2.2V44.4h1.53v2.2Z"/>
    <path class="cls-3" d="M266.6,49.4h2.8V46.6h-2.8v2.8Zm0.75-2h1.3v1.3h-1.3v-1.3Z"/>
    <path class="cls-3" d="M274.07,51.6V49.4H275V46.6h-0.93V43.8H275V41h-2.8v0.93h-2.8V41h-2.8v0.93h-2.8V41H261v2.8h0.93v2.8H261v2.8h0.93v2.8H261V55h2.8V54.07h2.8V55h2.8V54.07h2.2V55.6h4v-4h-1.53Zm0.18-3H273v-1.3h1.3v1.3Zm-1.3-6.9h1.3V43H273v-1.3Zm-5.6,0h1.3V43h-1.3v-1.3Zm-5.6,0H263V43h-1.3v-1.3Zm0,5.6H263v1.3h-1.3v-1.3Zm1.3,6.9h-1.3V53H263v1.3Zm5.6,0h-1.3V53h1.3v1.3Zm0.75-1.12V52.2h-2.8v0.93h-2.8V52.2h-0.93V49.4h0.93V46.6h-0.93V43.8h0.93V42.87h2.8V43.8h2.8V42.87h2.8V43.8h0.93v2.8H272.2v2.8h0.93v2.2H271.6v1.53h-2.2Z"/>
  </g>
</svg>
