<svg id="图层_1" data-name="图层 1" xmlns="http://www.w3.org/2000/svg" width="480" height="160" viewBox="0 0 480 160">
  <defs>
    <style>
      .cls-1, .cls-2 {
        fill: #ffa800;
      }

      .cls-11, .cls-12, .cls-13, .cls-2, .cls-3, .cls-4, .cls-5, .cls-7, .cls-9 {
        fill-rule: evenodd;
      }

      .cls-3, .cls-8 {
        fill: #151515;
      }

      .cls-17, .cls-4 {
        fill: #424242;
      }

      .cls-16, .cls-5 {
        fill: #eee;
      }

      .cls-6 {
        fill: #303030;
      }

      .cls-14, .cls-7 {
        fill: #fff;
      }

      .cls-15, .cls-9 {
        fill: #b5b5b5;
      }

      .cls-10 {
        fill: #d2d2d2;
      }

      .cls-11 {
        fill: #7d7d7d;
      }

      .cls-12 {
        fill: #b37600;
      }

      .cls-13 {
        fill: #383838;
      }
    </style>
  </defs>
  <title>3324234</title>
  <rect class="cls-1" x="2.05" y="42.05" width="9.9" height="9.9" transform="translate(-31.18 18.72) rotate(-45)"/>
  <path class="cls-2" d="M93,6l-7,7,7,7,7-7Zm1,8v2H92V14H90V12h2V10h2v2h2v2H94Z"/>
  <path class="cls-2" d="M93,46l-7,7,7,7,7-7Zm-1,8H90V52H96v2H92Z"/>
  <path class="cls-3" d="M93,86l-7,7,7,7,7-7Z"/>
  <path class="cls-4" d="M55.44,6.85L50,12.3a1,1,0,0,0,0,1.4l5.45,5.45a0.5,0.5,0,0,0,.85-0.35V7.21A0.5,0.5,0,0,0,55.44,6.85Z"/>
  <path class="cls-5" d="M175.65,7.06v9.88a0.61,0.61,0,0,1-.93.53l-8.41-4.93a0.62,0.62,0,0,1,0-1.07c0.45-.27,7.89-4.64,8.42-4.94A0.6,0.6,0,0,1,175.65,7.06Z"/>
  <path class="cls-5" d="M178,18a1.09,1.09,0,0,0,1-1.12V7.12a1,1,0,1,0-2.09,0v9.76A1.09,1.09,0,0,0,178,18Z"/>
  <rect class="cls-6" x="160" y="40" width="25" height="24"/>
  <path class="cls-7" d="M175.65,47.06v9.88a0.61,0.61,0,0,1-.93.53l-8.41-4.93a0.62,0.62,0,0,1,0-1.07c0.45-.27,7.89-4.64,8.42-4.94A0.6,0.6,0,0,1,175.65,47.06Z"/>
  <path class="cls-7" d="M178,58a1.09,1.09,0,0,0,1-1.12V47.12a1,1,0,1,0-2.09,0v9.76A1.09,1.09,0,0,0,178,58Z"/>
  <rect class="cls-8" x="160" y="80" width="25" height="24"/>
  <path class="cls-9" d="M175.65,87.06v9.88a0.61,0.61,0,0,1-.93.53l-8.41-4.93a0.62,0.62,0,0,1,0-1.07c0.45-.27,7.89-4.64,8.42-4.94A0.6,0.6,0,0,1,175.65,87.06Z"/>
  <path class="cls-9" d="M178,98a1.09,1.09,0,0,0,1-1.12V87.12a1,1,0,1,0-2.09,0v9.76A1.09,1.09,0,0,0,178,98Z"/>
  <path class="cls-5" d="M250.27,6.53c0.54,0.3,8,4.67,8.42,4.94a0.62,0.62,0,0,1,0,1.07l-8.41,4.93a0.61,0.61,0,0,1-.93-0.53V7.06A0.6,0.6,0,0,1,250.27,6.53Z"/>
  <path class="cls-5" d="M248.09,16.88V7.12a1,1,0,1,0-2.09,0v9.76A1,1,0,1,0,248.09,16.88Z"/>
  <rect class="cls-6" x="240" y="40" width="25" height="24"/>
  <path class="cls-7" d="M250.27,46.53c0.54,0.3,8,4.67,8.42,4.94a0.62,0.62,0,0,1,0,1.07l-8.41,4.93a0.61,0.61,0,0,1-.93-0.53V47.06A0.6,0.6,0,0,1,250.27,46.53Z"/>
  <path class="cls-7" d="M248.09,56.88V47.12a1,1,0,1,0-2.09,0v9.76A1,1,0,1,0,248.09,56.88Z"/>
  <rect class="cls-8" x="240" y="80" width="25" height="24"/>
  <path class="cls-9" d="M250.27,86.53c0.54,0.3,8,4.67,8.42,4.94a0.62,0.62,0,0,1,0,1.07l-8.41,4.93a0.61,0.61,0,0,1-.93-0.53V87.06A0.6,0.6,0,0,1,250.27,86.53Z"/>
  <path class="cls-9" d="M248.09,96.88V87.12a1,1,0,1,0-2.09,0v9.76A1,1,0,1,0,248.09,96.88Z"/>
  <path class="cls-5" d="M218,11.42l-8.84-5.32a0.64,0.64,0,0,0-1,.57V17.33a0.63,0.63,0,0,0,1,.57c0.57-.33,8.38-5,8.86-5.33A0.68,0.68,0,0,0,218,11.42Z"/>
  <rect class="cls-6" x="200" y="40" width="25" height="24"/>
  <path class="cls-7" d="M208.18,57.33V46.67a0.64,0.64,0,0,1,1-.57L218,51.42a0.68,0.68,0,0,1,0,1.16c-0.48.29-8.3,5-8.86,5.33A0.63,0.63,0,0,1,208.18,57.33Z"/>
  <rect class="cls-8" x="200" y="80" width="25" height="24"/>
  <path class="cls-9" d="M208.18,97.33V86.67a0.64,0.64,0,0,1,1-.57L218,91.42a0.68,0.68,0,0,1,0,1.16c-0.48.29-8.3,5-8.86,5.33A0.63,0.63,0,0,1,208.18,97.33Z"/>
  <g>
    <rect class="cls-10" x="288.11" y="8.11" width="7.78" height="7.78" transform="translate(77.04 209.99) rotate(-45)"/>
    <polygon class="cls-11" points="292 6.5 292 17.5 297.5 12 292 6.5"/>
  </g>
  <g>
    <rect class="cls-1" x="288.11" y="48.11" width="7.78" height="7.78" transform="translate(48.76 221.71) rotate(-45)"/>
    <polygon class="cls-12" points="292 46.5 292 57.5 297.5 52 292 46.5"/>
  </g>
  <g>
    <path class="cls-2" d="M336,2H328a1.47,1.47,0,0,0-1.47,1.47V10l5.5,5.45L337.5,10V3.47A1.47,1.47,0,0,0,336,2Z"/>
    <path class="cls-3" d="M331.5,4h1v8h-1V4Z"/>
  </g>
  <path class="cls-13" d="M9.53,0H1.47A1.47,1.47,0,0,0,0,1.47V8l5.5,5.45L11,8V1.47A1.47,1.47,0,0,0,9.53,0Z"/>
  <path class="cls-14" d="M365,45V59h14V45H365Zm4.2,2.8a1.4,1.4,0,1,1-1.4,1.4A1.4,1.4,0,0,1,369.2,47.8Zm8.4,9.8H366.4l2.8-4.2,2.1,3.15,4.9-7.35,1.4,2.1v6.3Z"/>
  <path class="cls-15" d="M365,5V19h14V5H365Zm4.2,2.8a1.4,1.4,0,1,1-1.4,1.4A1.4,1.4,0,0,1,369.2,7.8Zm8.4,9.8H366.4l2.8-4.2,2.1,3.15,4.9-7.35,1.4,2.1v6.3Z"/>
  <path class="cls-15" d="M418,16.65V14.71a1.16,1.16,0,0,0-.63-1h0l-2.7-1.47A1.29,1.29,0,0,0,414,12a1.27,1.27,0,0,0-1,.44V9.24a1.25,1.25,0,0,0-2.5,0v6.21L410,15a2.62,2.62,0,0,0-3.1-.33h0l-0.08.06a0.41,0.41,0,0,0,0,.61L410.7,19h6.44A3.67,3.67,0,0,0,418,16.65Z"/>
  <path class="cls-15" d="M418,16.65V14.71a1.16,1.16,0,0,0-.63-1h0l-2.7-1.47A1.29,1.29,0,0,0,414,12a1.27,1.27,0,0,0-1,.44V9.24a1.25,1.25,0,0,0-2.5,0v6.21L410,15a2.62,2.62,0,0,0-3.1-.33h0l-0.08.06a0.41,0.41,0,0,0,0,.61L410.7,19h6.44A3.67,3.67,0,0,0,418,16.65Z"/>
  <path class="cls-15" d="M407.88,9.4a3.85,3.85,0,0,1,7.69,0,3.46,3.46,0,0,1-.68,2.05,1.78,1.78,0,0,1,.66.27l1,0.55a5.15,5.15,0,0,0,.89-2.88A5.73,5.73,0,0,0,406,9.4a5.43,5.43,0,0,0,3.78,5.07v-2A3.59,3.59,0,0,1,407.88,9.4Z"/>
  <path class="cls-14" d="M418,56.65V54.71a1.16,1.16,0,0,0-.63-1h0l-2.7-1.47A1.29,1.29,0,0,0,414,52a1.27,1.27,0,0,0-1,.44V49.24a1.25,1.25,0,0,0-2.5,0v6.21L410,55a2.62,2.62,0,0,0-3.1-.33h0l-0.08.06a0.41,0.41,0,0,0,0,.61L410.7,59h6.44A3.67,3.67,0,0,0,418,56.65Z"/>
  <path class="cls-14" d="M418,56.65V54.71a1.16,1.16,0,0,0-.63-1h0l-2.7-1.47A1.29,1.29,0,0,0,414,52a1.27,1.27,0,0,0-1,.44V49.24a1.25,1.25,0,0,0-2.5,0v6.21L410,55a2.62,2.62,0,0,0-3.1-.33h0l-0.08.06a0.41,0.41,0,0,0,0,.61L410.7,59h6.44A3.67,3.67,0,0,0,418,56.65Z"/>
  <path class="cls-14" d="M407.88,49.4a3.85,3.85,0,0,1,7.69,0,3.46,3.46,0,0,1-.68,2.05,1.78,1.78,0,0,1,.66.27l1,0.55a5.15,5.15,0,0,0,.89-2.88,5.73,5.73,0,0,0-11.45,0,5.43,5.43,0,0,0,3.78,5.07v-2A3.59,3.59,0,0,1,407.88,49.4Z"/>
  <path class="cls-9" d="M55.44,46.85L50,52.3a1,1,0,0,0,0,1.4l5.45,5.45a0.5,0.5,0,0,0,.85-0.35V47.21A0.5,0.5,0,0,0,55.44,46.85Z"/>
  <path class="cls-4" d="M129.7,7.21V18.79a0.5,0.5,0,0,0,.85.35L136,13.7a1,1,0,0,0,0-1.4l-5.45-5.45A0.5,0.5,0,0,0,129.7,7.21Z"/>
  <path class="cls-9" d="M129.7,47.21V58.79a0.5,0.5,0,0,0,.85.35L136,53.7a1,1,0,0,0,0-1.4l-5.45-5.45A0.5,0.5,0,0,0,129.7,47.21Z"/>
  <path class="cls-4" d="M175.65,127.06v9.88a0.61,0.61,0,0,1-.93.53l-8.41-4.93a0.62,0.62,0,0,1,0-1.07c0.45-.27,7.89-4.64,8.42-4.94A0.6,0.6,0,0,1,175.65,127.06Z"/>
  <path class="cls-4" d="M178,138a1.09,1.09,0,0,0,1-1.12v-9.76a1,1,0,1,0-2.09,0v9.76A1.09,1.09,0,0,0,178,138Z"/>
  <path class="cls-4" d="M250.27,126.53c0.54,0.3,8,4.67,8.42,4.94a0.62,0.62,0,0,1,0,1.07l-8.41,4.93a0.61,0.61,0,0,1-.93-0.53v-9.88A0.6,0.6,0,0,1,250.27,126.53Z"/>
  <path class="cls-4" d="M248.09,136.88v-9.76a1,1,0,1,0-2.09,0v9.76A1,1,0,1,0,248.09,136.88Z"/>
  <path class="cls-4" d="M208.18,137.33V126.67a0.64,0.64,0,0,1,1-.57l8.84,5.32a0.68,0.68,0,0,1,0,1.16c-0.48.29-8.3,5-8.86,5.33A0.63,0.63,0,0,1,208.18,137.33Z"/>
  <rect class="cls-6" x="440" y="40" width="25" height="24"/>
  <g>
    <rect class="cls-14" x="447.99" y="46" width="3" height="12" rx="1.5" ry="1.5"/>
    <rect class="cls-14" x="454.01" y="46" width="3" height="12" rx="1.5" ry="1.5"/>
  </g>
  <rect class="cls-8" x="440" y="80" width="25" height="24"/>
  <g>
    <rect class="cls-15" x="447.99" y="86" width="3" height="12" rx="1.5" ry="1.5"/>
    <rect class="cls-15" x="454.01" y="86" width="3" height="12" rx="1.5" ry="1.5"/>
  </g>
  <g>
    <rect class="cls-16" x="447.99" y="6" width="3" height="12" rx="1.5" ry="1.5"/>
    <rect class="cls-16" x="454.01" y="6" width="3" height="12" rx="1.5" ry="1.5"/>
  </g>
  <g>
    <rect class="cls-17" x="447.99" y="126" width="3" height="12" rx="1.5" ry="1.5"/>
    <rect class="cls-17" x="454.01" y="126" width="3" height="12" rx="1.5" ry="1.5"/>
  </g>
</svg>
