<svg id="图层_1" data-name="图层 1" xmlns="http://www.w3.org/2000/svg" width="60" height="60" viewBox="0 0 60 60">
  <defs>
    <style>
      .cls-1 {
        fill: #202020;
      }

      .cls-2 {
        fill: #fff;
      }

      .cls-2, .cls-4 {
        fill-rule: evenodd;
      }

      .cls-3 {
        fill: #151515;
      }

      .cls-4 {
        fill: #b5b5b5;
      }
    </style>
  </defs>
  <title>箭头-01</title>
  <rect class="cls-1" x="30" y="20" width="20" height="11"/>
  <path class="cls-2" d="M41.87,27.63l2.9-1.81a0.38,0.38,0,0,0,0-.64l-2.9-1.81a0.38,0.38,0,0,0-.58.32v3.63A0.38,0.38,0,0,0,41.87,27.63Z"/>
  <path class="cls-2" d="M35.63,27.63l2.9-1.81a0.38,0.38,0,0,0,0-.64l-2.9-1.81a0.38,0.38,0,0,0-.58.32v3.63A0.38,0.38,0,0,0,35.63,27.63Z"/>
  <rect class="cls-3" x="30" y="40" width="20" height="11"/>
  <path class="cls-4" d="M41.87,47.63l2.9-1.81a0.38,0.38,0,0,0,0-.64l-2.9-1.81a0.38,0.38,0,0,0-.58.32v3.63A0.38,0.38,0,0,0,41.87,47.63Z"/>
  <path class="cls-4" d="M35.63,47.63l2.9-1.81a0.38,0.38,0,0,0,0-.64l-2.9-1.81a0.38,0.38,0,0,0-.58.32v3.63A0.38,0.38,0,0,0,35.63,47.63Z"/>
  <path class="cls-4" d="M41.87,7.63l2.9-1.81a0.38,0.38,0,0,0,0-.64l-2.9-1.81a0.38,0.38,0,0,0-.58.32V7.31A0.38,0.38,0,0,0,41.87,7.63Z"/>
  <path class="cls-4" d="M35.63,7.63l2.9-1.81a0.38,0.38,0,0,0,0-.64l-2.9-1.81a0.38,0.38,0,0,0-.58.32V7.31A0.38,0.38,0,0,0,35.63,7.63Z"/>
  <rect class="cls-1" y="20" width="20" height="11"/>
  <path class="cls-2" d="M8.71,27.31V23.69a0.38,0.38,0,0,0-.58-0.32l-2.9,1.81a0.38,0.38,0,0,0,0,.64l2.9,1.81A0.38,0.38,0,0,0,8.71,27.31Z"/>
  <path class="cls-2" d="M15,27.31V23.69a0.38,0.38,0,0,0-.58-0.32l-2.9,1.81a0.38,0.38,0,0,0,0,.64l2.9,1.81A0.38,0.38,0,0,0,15,27.31Z"/>
  <rect class="cls-3" y="40" width="20" height="11"/>
  <path class="cls-4" d="M8.71,47.31V43.69a0.38,0.38,0,0,0-.58-0.32l-2.9,1.81a0.38,0.38,0,0,0,0,.64l2.9,1.81A0.38,0.38,0,0,0,8.71,47.31Z"/>
  <path class="cls-4" d="M15,47.31V43.69a0.38,0.38,0,0,0-.58-0.32l-2.9,1.81a0.38,0.38,0,0,0,0,.64l2.9,1.81A0.38,0.38,0,0,0,15,47.31Z"/>
  <path class="cls-4" d="M8.71,7.31V3.69a0.38,0.38,0,0,0-.58-0.32L5.22,5.18a0.38,0.38,0,0,0,0,.64l2.9,1.81A0.38,0.38,0,0,0,8.71,7.31Z"/>
  <path class="cls-4" d="M15,7.31V3.69a0.38,0.38,0,0,0-.58-0.32l-2.9,1.81a0.38,0.38,0,0,0,0,.64l2.9,1.81A0.38,0.38,0,0,0,15,7.31Z"/>
</svg>
