<svg id="图层_1" data-name="图层 1" xmlns="http://www.w3.org/2000/svg" width="18" height="18" viewBox="0 0 18 18">
  <defs>
    <style>
      .cls-1, .cls-2 {
      fill: #b5b5b5;
      }

      .cls-1 {
        fill-rule: evenodd;
      }
    </style>
  </defs>
  <title>0</title>
  <path class="cls-1" d="M15.54,4.31L11,0H3.32a4.36,4.36,0,0,0-1,2.79V5.1A1.38,1.38,0,0,0,3,6.31H3L6.25,8.06a1.53,1.53,0,0,0,.86.26A1.51,1.51,0,0,0,8.26,7.8V11.6a1.49,1.49,0,0,0,3,0V4.21l0.53,0.5a3.11,3.11,0,0,0,3.69.39h0L15.54,5A0.49,0.49,0,0,0,15.54,4.31Z"/>
  <path class="cls-2" d="M12.38,7.4V9.29a4.27,4.27,0,0,1,1.21,2.94,4.33,4.33,0,1,1-7.32-3.1,8,8,0,0,1-1.46-.56A5.77,5.77,0,1,0,12.38,7.4Z"/>
</svg>
