<svg id="图层_1" data-name="图层 1" xmlns="http://www.w3.org/2000/svg" width="18" height="18" viewBox="0 0 18 18">
  <defs>
    <style>
      .cls-1 {
      fill: #b5b5b5;
      }
    </style>
  </defs>
  <title>0</title>
  <g>
    <path class="cls-1" d="M0.5,1.18V16.82a0.68,0.68,0,0,0,.68.68H5.82V15.82H2.19v-11H15.82v11H12.19V17.5h4.63a0.68,0.68,0,0,0,.68-0.68V1.18A0.68,0.68,0,0,0,16.82.5H1.18A0.68,0.68,0,0,0,.5,1.18ZM3.9,3.94A1.3,1.3,0,0,1,2.63,2.68,1.3,1.3,0,0,1,3.9,1.41,1.3,1.3,0,0,1,5.17,2.68,1.3,1.3,0,0,1,3.9,3.94Zm3.38,0A1.3,1.3,0,0,1,6,2.68a1.27,1.27,0,1,1,2.54,0A1.3,1.3,0,0,1,7.28,3.94Z"/>
    <polygon class="cls-1" points="12.83 11.81 9 7.99 5.17 11.82 6.01 12.66 8.16 10.51 8.16 17.5 9.84 17.5 9.84 10.51 11.99 12.65 12.83 11.81"/>
  </g>
</svg>
