<svg id="图层_1" data-name="图层 1" xmlns="http://www.w3.org/2000/svg" width="18" height="18" viewBox="0 0 18 18">
  <defs>
    <style>
      .cls-1 {
        fill: #b5b5b5;
        fill-rule: evenodd;
      }
    </style>
  </defs>
  <title>网页</title>
  <g>
    <path class="cls-1" d="M10.65,6.91a2,2,0,0,0-1-.41,2.35,2.35,0,0,0-1.68.34,2.3,2.3,0,0,0-.42.39A1.82,1.82,0,0,0,7,8.53h4.52a3.14,3.14,0,0,0-.28-0.94A3.67,3.67,0,0,0,10.65,6.91Z"/>
    <path class="cls-1" d="M6,13.21a4.57,4.57,0,0,1-.6-0.48A6.07,6.07,0,0,1,4.79,12c-0.3-.42-0.5-0.87-0.51-0.86s-0.17.37-.3,0.7a3.36,3.36,0,0,0-.16.48,1.16,1.16,0,0,0,.18.94,1.43,1.43,0,0,0,1,.44,4.35,4.35,0,0,0,1.45-.24Z"/>
    <path class="cls-1" d="M13.77,5.35a1.16,1.16,0,0,0-.31-0.9,1.43,1.43,0,0,0-1-.3,4.35,4.35,0,0,0-1.4.44l0.42,0.2a4.57,4.57,0,0,1,.66.39L12.85,5.8c0.35,0.37.61,0.79,0.62,0.78s0.12-.39.2-0.73A3.37,3.37,0,0,0,13.77,5.35Z"/>
    <path class="cls-1" d="M16.17,17.44V2.53L13.64,0H1.83V17.44H0.56V18H17.44V17.44H16.17Zm-2-7.54s-7,0-7.16,0a1.87,1.87,0,0,0,.37,1.17,4,4,0,0,0,.55.53,2.44,2.44,0,0,0,2.54.09,3.13,3.13,0,0,0,.7-0.62c0.07-.09.08-0.17,0.11-0.17s2.62,0,2.62,0A4.89,4.89,0,0,1,9.2,14.25a4.35,4.35,0,0,1-1-.08A9.78,9.78,0,0,1,7,13.75a4.75,4.75,0,0,1-1.23.53,4.37,4.37,0,0,1-1.12.2,1.8,1.8,0,0,1-.84-0.16c-1-.34-0.68-2.07-0.67-2.17a6.58,6.58,0,0,1,.5-1.67A16.17,16.17,0,0,1,4.77,8.42,18.66,18.66,0,0,1,6.94,6a5,5,0,0,0-1.42,1c-0.6.52-1.21,1.22-1.2,1.19A5,5,0,0,1,9.2,4.24a1,1,0,0,0,.34,0,6.57,6.57,0,0,1,2.68-.7,3.29,3.29,0,0,1,.87.11,1.56,1.56,0,0,1,.84.75,2.57,2.57,0,0,1,0,1.42,4.59,4.59,0,0,1-.36,1,4.57,4.57,0,0,1,.47,1.06,5.59,5.59,0,0,1,.14,1.4A4.48,4.48,0,0,1,14.18,9.9Z"/>
  </g>
</svg>
