<svg id="图层_1" data-name="图层 1" xmlns="http://www.w3.org/2000/svg" width="18" height="18" viewBox="0 0 18 18">
  <defs>
    <style>
      .cls-1 {
        fill: #b5b5b5;
      }
    </style>
  </defs>
  <title>一维变量</title>
  <g>
    <path class="cls-1" d="M16.2,1H1.8a0.8,0.8,0,0,0-.8.8V16.2a0.8,0.8,0,0,0,.8.8H16.2a0.8,0.8,0,0,0,.8-0.8V1.8A0.8,0.8,0,0,0,16.2,1ZM15.87,15.87H2.13V2.13H15.87V15.87Z"/>
    <path class="cls-1" d="M12.65,13a1.24,1.24,0,0,1-1.08.55H11.41c-0.79-.06-1.61-1-2.52-3L8.8,10.3v0C7.93,12.46,7,13.49,5.92,13.49a1.87,1.87,0,0,1-1.11-.35L4.62,13l1.06-1.31,0.17,0.16a0.6,0.6,0,0,0,.43.2c0.35,0,.92-0.33,1.6-1.89l0.41-.95L7.86,8.33,7.6,7.77,7.1,6.84A1.37,1.37,0,0,0,6.4,6a1,1,0,0,0-.57,1l-0.1.65L5.45,7a1.8,1.8,0,0,1,0-1.8,1.49,1.49,0,0,1,1.19-.69c0.7,0,1.46.94,2.39,3l0,0c0.91-2,1.76-3,2.61-3a2,2,0,0,1,.82.21l0.26,0.11-1,1.41-0.13,0a1,1,0,0,0-.21-0.05c-0.34,0-.9.37-1.64,2.1l-0.15.35L9.81,9c1.54,3.17,1.77,3,1.9,3h0a0.49,0.49,0,0,0,.4-0.17,0.7,0.7,0,0,0,.06-0.58L12.1,11l0.31,0.09a0.81,0.81,0,0,1,.56.59A1.63,1.63,0,0,1,12.65,13Z"/>
  </g>
</svg>
