<svg id="图层_1" data-name="图层 1" xmlns="http://www.w3.org/2000/svg" width="18" height="18" viewBox="0 0 18 18">
  <defs>
    <style>
      .cls-1 {
        fill: #b5b5b5;
      }
    </style>
  </defs>
  <title>数据库</title>
  <g>
    <path class="cls-1" d="M9,0C5.44,0,2.54,1.08,2.5,2.41V3.58C2.5,5,5.41,6.11,9,6.11S15.5,5,15.5,3.58V2.41C15.46,1.08,12.56,0,9,0ZM9,3.58C6.17,3.58,3.87,3,3.87,2.19S6.17,0.79,9,.79s5.13,0.62,5.13,1.39S11.83,3.58,9,3.58Z"/>
    <path class="cls-1" d="M6.2,9L5.64,8.88c0,1.19,0,2.37,0,3.69l0.63,0.18a1.62,1.62,0,0,0,1.42-.16,1.45,1.45,0,0,0,.5-1.24,2.15,2.15,0,0,0-.54-1.51A2.77,2.77,0,0,0,6.2,9Z"/>
    <path class="cls-1" d="M11.34,10.53A1.2,1.2,0,0,0,12,10.12a1,1,0,0,0,.24-0.68,0.41,0.41,0,0,0-.11-0.33,0.86,0.86,0,0,0-.66,0h0l-0.53.1c0,0.5,0,1,0,1.43Z"/>
    <path class="cls-1" d="M9,7.19c-3.59,0-6.5-1-6.5-2.39v7.54c0,1.4,2.91,2.53,6.5,2.53s6.5-1.13,6.5-2.53V4.8C15.5,6.2,12.59,7.19,9,7.19ZM8.38,13.32A2.35,2.35,0,0,1,7,13.76a3.86,3.86,0,0,1-.77-0.08,4.46,4.46,0,0,1-1.5-.51l-0.1-.05V7.55L4.83,7.63c0.5,0.15,1,.28,1.48.38a3.77,3.77,0,0,1,2.1,1.18,3.17,3.17,0,0,1,.86,2.19A2.25,2.25,0,0,1,8.38,13.32ZM13,12.86a2.38,2.38,0,0,1-1.35.82,11.14,11.14,0,0,1-1.61.24H9.88v-0.2c0-1.51,0-3.12,0-5.37V8.2h0.17A12.34,12.34,0,0,0,11.58,8a1.84,1.84,0,0,1,1.23.11,1,1,0,0,1,.51.92,2,2,0,0,1-.27,1,2.4,2.4,0,0,1-.31.44,0.87,0.87,0,0,1,.82,1A2.21,2.21,0,0,1,13,12.86Z"/>
    <path class="cls-1" d="M12.39,11.43a1.18,1.18,0,0,0-.88,0L11,11.59c0,0.47,0,.91,0,1.35l0.58-.12a1.34,1.34,0,0,0,.72-0.4h0a1,1,0,0,0,.25-0.65A0.36,0.36,0,0,0,12.39,11.43Z"/>
    <path class="cls-1" d="M9,15.95c-3.59,0-6.5-1.13-6.5-2.53v2S2.5,18,9,18s6.52-2.58,6.52-2.58v-2C15.5,14.82,12.59,15.95,9,15.95Z"/>
  </g>
</svg>
