<svg id="图层_1" data-name="图层 1" xmlns="http://www.w3.org/2000/svg" width="18" height="18" viewBox="0 0 18 18">
  <defs>
    <style>
      .cls-1 {
      fill: #b5b5b5;
      }
    </style>
  </defs>
  <title>0</title>
  <g>
    <path class="cls-1" d="M13.07,0H4.94a1,1,0,0,0-1,1V17a1,1,0,0,0,1,1h8.13a1,1,0,0,0,1-1V1A1,1,0,0,0,13.07,0ZM8,1h2a0.24,0.24,0,1,1,0,.48H8A0.24,0.24,0,0,1,8,1ZM9,17.44a0.65,0.65,0,1,1,.65-0.65A0.65,0.65,0,0,1,9,17.44Zm4.31-1.87H4.7V2.43h8.6V15.57h0Z"/>
    <rect class="cls-1" x="3.91" y="1.71" width="1" height="15.08"/>
    <rect class="cls-1" x="13.09" y="1.71" width="1" height="15.08"/>
  </g>
</svg>
