<svg id="图层_1" data-name="图层 1" xmlns="http://www.w3.org/2000/svg" width="18" height="18" viewBox="0 0 18 18">
  <defs>
    <style>
      .cls-1, .cls-2 {
        fill: #b5b5b5;
      }

      .cls-1 {
        fill-rule: evenodd;
      }
    </style>
  </defs>
  <title>0</title>
  <path class="cls-1" d="M15,11.72h0L11.75,10a1.53,1.53,0,0,0-.86-0.26,1.51,1.51,0,0,0-1.15.52V6.43a1.49,1.49,0,0,0-3,0v7.38l-0.53-.5a3.11,3.11,0,0,0-3.69-.39h0L2.46,13a0.49,0.49,0,0,0,0,.72L7,18h7.65a4.36,4.36,0,0,0,1-2.79V12.93A1.38,1.38,0,0,0,15,11.72Z"/>
  <g>
    <rect class="cls-2" x="16.14" y="9.18" width="1.02" height="1.02"/>
    <polygon class="cls-1" points="13.28 9.18 12.33 9.18 12.33 9.19 13.28 9.71 13.28 9.18"/>
    <rect class="cls-2" x="14.24" y="9.18" width="0.95" height="1.02"/>
    <rect class="cls-2" x="4.72" y="9.18" width="0.95" height="1.02"/>
    <rect class="cls-2" x="2.82" y="9.18" width="0.95" height="1.02"/>
    <rect class="cls-2" x="0.85" y="9.18" width="1.02" height="1.02"/>
    <rect class="cls-2" x="0.85" y="3.74" width="1.02" height="0.91"/>
    <rect class="cls-2" x="0.85" y="1.93" width="1.02" height="0.91"/>
    <rect class="cls-2" x="0.85" y="5.55" width="1.02" height="0.91"/>
    <rect class="cls-2" x="0.85" y="7.36" width="1.02" height="0.91"/>
    <rect class="cls-2" x="0.85" width="1.02" height="1.02"/>
    <rect class="cls-2" x="14.24" width="0.95" height="1.02"/>
    <rect class="cls-2" x="8.53" width="0.95" height="1.02"/>
    <rect class="cls-2" x="10.43" width="0.95" height="1.02"/>
    <rect class="cls-2" x="12.33" width="0.95" height="1.02"/>
    <rect class="cls-2" x="6.62" width="0.95" height="1.02"/>
    <rect class="cls-2" x="2.82" width="0.95" height="1.02"/>
    <rect class="cls-2" x="4.72" width="0.95" height="1.02"/>
    <rect class="cls-2" x="16.14" width="1.02" height="1.02"/>
    <rect class="cls-2" x="16.14" y="7.36" width="1.02" height="0.91"/>
    <rect class="cls-2" x="16.14" y="5.55" width="1.02" height="0.91"/>
    <rect class="cls-2" x="16.14" y="1.93" width="1.02" height="0.91"/>
    <rect class="cls-2" x="16.14" y="3.74" width="1.02" height="0.91"/>
  </g>
</svg>
