<svg id="图层_1" data-name="图层 1" xmlns="http://www.w3.org/2000/svg" width="2000" height="160" viewBox="0 0 2000 160">
  <defs>
    <style>
      .cls-1, .cls-7 {
        fill: #282828;
      }

      .cls-1, .cls-11, .cls-12, .cls-13, .cls-17, .cls-18, .cls-19, .cls-2, .cls-20, .cls-22, .cls-23, .cls-3, .cls-4 {
        fill-rule: evenodd;
      }

      .cls-2, .cls-8 {
        fill: #fff;
      }

      .cls-10, .cls-3 {
        fill: #b5b5b5;
      }

      .cls-4, .cls-9 {
        fill: #1b1b1b;
      }

      .cls-5 {
        fill: #353535;
      }

      .cls-11, .cls-6 {
        fill: #ffa800;
      }

      .cls-12 {
        fill: #c5c5c5;
      }

      .cls-13, .cls-16 {
        fill: #4f4f4f;
      }

      .cls-14 {
        fill: #232323;
      }

      .cls-15 {
        fill: #151515;
      }

      .cls-17 {
        fill: #3c516f;
      }

      .cls-18 {
        fill: #2e4d4b;
      }

      .cls-19 {
        fill: #1b2c2b;
      }

      .cls-20 {
        fill: #315654;
      }

      .cls-21 {
        fill: #4d4d4d;
      }

      .cls-22 {
        fill: #1d2736;
      }

      .cls-23 {
        fill: #1c2f2e;
      }
    </style>
  </defs>
  <title>234543</title>
  <path class="cls-1" d="M442,40h28a2,2,0,0,1,2,2V64a2,2,0,0,1-2,2H442a2,2,0,0,1-2-2V42A2,2,0,0,1,442,40Z"/>
  <path class="cls-1" d="M402,40h28a2,2,0,0,1,2,2V64a2,2,0,0,1-2,2H402a2,2,0,0,1-2-2V42A2,2,0,0,1,402,40Z"/>
  <path class="cls-1" d="M362,40h28a2,2,0,0,1,2,2V64a2,2,0,0,1-2,2H362a2,2,0,0,1-2-2V42A2,2,0,0,1,362,40Z"/>
  <path class="cls-1" d="M322,40h28a2,2,0,0,1,2,2V64a2,2,0,0,1-2,2H322a2,2,0,0,1-2-2V42A2,2,0,0,1,322,40Z"/>
  <path class="cls-1" d="M282,40h28a2,2,0,0,1,2,2V64a2,2,0,0,1-2,2H282a2,2,0,0,1-2-2V42A2,2,0,0,1,282,40Z"/>
  <path class="cls-1" d="M242,40h20a2,2,0,0,1,2,2V62a2,2,0,0,1-2,2H242a2,2,0,0,1-2-2V42A2,2,0,0,1,242,40Z"/>
  <path class="cls-1" d="M162,40h20a2,2,0,0,1,2,2V62a2,2,0,0,1-2,2H162a2,2,0,0,1-2-2V42A2,2,0,0,1,162,40Z"/>
  <path class="cls-1" d="M42,40H62a2,2,0,0,1,2,2V62a2,2,0,0,1-2,2H42a2,2,0,0,1-2-2V42A2,2,0,0,1,42,40Z"/>
  <path class="cls-2" d="M495.22,7.65L482.36,0.21A1.57,1.57,0,0,0,480,1.58V16.45a1.57,1.57,0,0,0,2.36,1.36l12.86-7.44A1.58,1.58,0,0,0,495.22,7.65Z"/>
  <path class="cls-3" d="M54.71,10.26H56a0.59,0.59,0,0,0,.59-0.59V3.61A0.59,0.59,0,0,0,56,3H54.71a0.59,0.59,0,0,0-.59.59V9.67A0.59,0.59,0,0,0,54.71,10.26ZM59.49,3h-1v7.23a1,1,0,0,1-1,1.06H46.52a1,1,0,0,1-1-1l0-7.26H44.5A1.5,1.5,0,0,0,43,4.51v15A1.5,1.5,0,0,0,44.5,21h15a1.5,1.5,0,0,0,1.5-1.5v-15A1.5,1.5,0,0,0,59.49,3Zm-1,15.54a0.59,0.59,0,0,1-.59.59H46a0.59,0.59,0,0,1-.59-0.59v-1A0.59,0.59,0,0,1,46,16.93H57.9a0.59,0.59,0,0,1,.59.59v1Zm0-3.78a0.59,0.59,0,0,1-.59.59H46a0.59,0.59,0,0,1-.59-0.59v-1A0.59,0.59,0,0,1,46,13.15H57.9a0.59,0.59,0,0,1,.59.59v1Z"/>
  <path class="cls-2" d="M54.71,50.26H56a0.59,0.59,0,0,0,.59-0.59V43.61A0.59,0.59,0,0,0,56,43H54.71a0.59,0.59,0,0,0-.59.59v6.06A0.59,0.59,0,0,0,54.71,50.26ZM59.49,43h-1v7.23a1,1,0,0,1-1,1.06H46.52a1,1,0,0,1-1-1l0-7.26H44.5a1.5,1.5,0,0,0-1.5,1.5v15A1.5,1.5,0,0,0,44.5,61h15a1.5,1.5,0,0,0,1.5-1.5v-15A1.5,1.5,0,0,0,59.49,43Zm-1,15.54a0.59,0.59,0,0,1-.59.59H46a0.59,0.59,0,0,1-.59-0.59v-1A0.59,0.59,0,0,1,46,56.93H57.9a0.59,0.59,0,0,1,.59.59v1Zm0-3.78a0.59,0.59,0,0,1-.59.59H46a0.59,0.59,0,0,1-.59-0.59v-1A0.59,0.59,0,0,1,46,53.15H57.9a0.59,0.59,0,0,1,.59.59v1Z"/>
  <path class="cls-3" d="M162,7h3V6h-3V7Zm17-1H166V21h1V18h10a2,2,0,0,0,2-2V7h3V6h-3ZM167,2h-1V5h1V2Z"/>
  <path class="cls-2" d="M162,47h3V46h-3v1Zm17-1H166V61h1V58h10a2,2,0,0,0,2-2V47h3V46h-3Zm-12-4h-1v3h1V42Z"/>
  <path class="cls-3" d="M261,21l-2,2h4V19Zm0-5V7a1,1,0,0,0-1-1h-2a1,1,0,0,0-1,1v4h-3V3a1,1,0,0,0-1-1h-2a1,1,0,0,0-1,1v8h-3V7a1,1,0,0,0-1-1h-2a1,1,0,0,0-1,1v9a1,1,0,0,0,1,1h2a1,1,0,0,0,1-1V12h3v7a1,1,0,0,0,1,1h2a1,1,0,0,0,1-1V12h3v4a1,1,0,0,0,1,1h2A1,1,0,0,0,261,16Z"/>
  <path class="cls-2" d="M261,61l-2,2h4V59Zm0-5V47a1,1,0,0,0-1-1h-2a1,1,0,0,0-1,1v4h-3V43a1,1,0,0,0-1-1h-2a1,1,0,0,0-1,1v8h-3V47a1,1,0,0,0-1-1h-2a1,1,0,0,0-1,1v9a1,1,0,0,0,1,1h2a1,1,0,0,0,1-1V52h3v7a1,1,0,0,0,1,1h2a1,1,0,0,0,1-1V52h3v4a1,1,0,0,0,1,1h2A1,1,0,0,0,261,56Z"/>
  <path class="cls-3" d="M308,24l-1,1h4V21Zm-21-2h18V4H287V22Zm5.4-14.4a1.8,1.8,0,1,1-1.8,1.8A1.8,1.8,0,0,1,292.4,7.61Zm0,7.2,2.7,4,6.3-9.45L303,12v8H289Z"/>
  <path class="cls-2" d="M308,64l-1,1h4V61Zm-21-2h18V44H287V62Zm5.4-14.4a1.8,1.8,0,1,1-1.8,1.8A1.8,1.8,0,0,1,292.4,47.61Zm0,7.2,2.7,4,6.3-9.45L303,52v8H289Z"/>
  <path class="cls-3" d="M348,24l-1,1h4V21ZM344.56,8.76L346,7.32A11.9,11.9,0,0,0,341.68,3l-1.44,1.44,1.68,1.68h0l-0.36.36a8.83,8.83,0,1,0,1,1l0.36-.37Zm-2,4.45a6.71,6.71,0,1,1-6.71-6.71A6.71,6.71,0,0,1,342.53,13.21Zm-2.87-.53h-3.31V9.37a0.53,0.53,0,1,0-1.06,0v4.36h4.36A0.53,0.53,0,0,0,339.66,12.68Z"/>
  <path class="cls-2" d="M348,64l-1,1h4V61Zm-3.44-15.24L346,47.32A11.9,11.9,0,0,0,341.68,43l-1.44,1.44,1.68,1.68h0l-0.36.36a8.83,8.83,0,1,0,1,1l0.36-.37Zm-2,4.45a6.71,6.71,0,1,1-6.71-6.71A6.71,6.71,0,0,1,342.53,53.21Zm-2.87-.53h-3.31V49.37a0.53,0.53,0,1,0-1.06,0v4.36h4.36A0.53,0.53,0,0,0,339.66,52.68Z"/>
  <path class="cls-3" d="M383.17,14.92h0l-3.6-2a1.72,1.72,0,0,0-1-.3,1.69,1.69,0,0,0-1.29.58V9A1.67,1.67,0,0,0,374,9v8.28l-0.59-.56a3.49,3.49,0,0,0-4.14-.44h0l-0.11.08a0.55,0.55,0,0,0,0,.81L374.27,22h8.59A4.89,4.89,0,0,0,384,18.87V16.28A1.55,1.55,0,0,0,383.17,14.92ZM373,16v-2.6a4.79,4.79,0,0,1-2.53-4.16,5.14,5.14,0,0,1,10.26,0,4.62,4.62,0,0,1-.91,2.74,2.37,2.37,0,0,1,.87.36L382.08,13a6.86,6.86,0,0,0,1.18-3.84A7.65,7.65,0,0,0,368,9.2,7.23,7.23,0,0,0,373,16Zm15,8-1,1h4V21Z"/>
  <path class="cls-2" d="M383.17,54.92h0l-3.6-2a1.72,1.72,0,0,0-1-.3,1.69,1.69,0,0,0-1.29.58V49A1.67,1.67,0,0,0,374,49v8.28l-0.59-.56a3.49,3.49,0,0,0-4.14-.44h0l-0.11.08a0.55,0.55,0,0,0,0,.81L374.27,62h8.59A4.89,4.89,0,0,0,384,58.87V56.28A1.55,1.55,0,0,0,383.17,54.92ZM373,56v-2.6a4.79,4.79,0,0,1-2.53-4.16,5.14,5.14,0,0,1,10.26,0,4.62,4.62,0,0,1-.91,2.74,2.37,2.37,0,0,1,.87.36L382.08,53a6.86,6.86,0,0,0,1.18-3.84,7.65,7.65,0,0,0-15.27,0A7.23,7.23,0,0,0,373,56Zm15,8-1,1h4V61Z"/>
  <path class="cls-3" d="M417,4h-9v6h2V7h4V19h-3v2h9V19h-3V7h4v3h2V4h-6Zm11,20-1,1h4V21Z"/>
  <path class="cls-2" d="M417,44h-9v6h2V47h4V59h-3v2h9V59h-3V47h4v3h2V44h-6Zm11,20-1,1h4V61Z"/>
  <path class="cls-3" d="M447,22h18V4H447V22Zm2-16h14V20H449V6Zm19,18-1,1h4V21Z"/>
  <path class="cls-2" d="M447,62h18V44H447V62Zm2-16h14V60H449V46Zm19,18-1,1h4V61Z"/>
  <path class="cls-4" d="M442,80h28a2,2,0,0,1,2,2v22a2,2,0,0,1-2,2H442a2,2,0,0,1-2-2V82A2,2,0,0,1,442,80Z"/>
  <path class="cls-4" d="M402,80h28a2,2,0,0,1,2,2v22a2,2,0,0,1-2,2H402a2,2,0,0,1-2-2V82A2,2,0,0,1,402,80Z"/>
  <path class="cls-4" d="M362,80h28a2,2,0,0,1,2,2v22a2,2,0,0,1-2,2H362a2,2,0,0,1-2-2V82A2,2,0,0,1,362,80Z"/>
  <path class="cls-4" d="M322,80h28a2,2,0,0,1,2,2v22a2,2,0,0,1-2,2H322a2,2,0,0,1-2-2V82A2,2,0,0,1,322,80Z"/>
  <path class="cls-4" d="M282,80h28a2,2,0,0,1,2,2v22a2,2,0,0,1-2,2H282a2,2,0,0,1-2-2V82A2,2,0,0,1,282,80Z"/>
  <path class="cls-4" d="M242,80h20a2,2,0,0,1,2,2v20a2,2,0,0,1-2,2H242a2,2,0,0,1-2-2V82A2,2,0,0,1,242,80Z"/>
  <path class="cls-4" d="M162,80h20a2,2,0,0,1,2,2v20a2,2,0,0,1-2,2H162a2,2,0,0,1-2-2V82A2,2,0,0,1,162,80Z"/>
  <path class="cls-4" d="M42,80H62a2,2,0,0,1,2,2v20a2,2,0,0,1-2,2H42a2,2,0,0,1-2-2V82A2,2,0,0,1,42,80Z"/>
  <path class="cls-2" d="M54.71,90.26H56a0.59,0.59,0,0,0,.59-0.59V83.61A0.59,0.59,0,0,0,56,83H54.71a0.59,0.59,0,0,0-.59.59v6.06A0.59,0.59,0,0,0,54.71,90.26ZM59.49,83h-1v7.23a1,1,0,0,1-1,1.06H46.52a1,1,0,0,1-1-1l0-7.26H44.5a1.5,1.5,0,0,0-1.5,1.5v15a1.5,1.5,0,0,0,1.5,1.5h15a1.5,1.5,0,0,0,1.5-1.5v-15A1.5,1.5,0,0,0,59.49,83Zm-1,15.54a0.59,0.59,0,0,1-.59.59H46a0.59,0.59,0,0,1-.59-0.59v-1A0.59,0.59,0,0,1,46,96.93H57.9a0.59,0.59,0,0,1,.59.59v1Zm0-3.78a0.59,0.59,0,0,1-.59.59H46a0.59,0.59,0,0,1-.59-0.59v-1A0.59,0.59,0,0,1,46,93.15H57.9a0.59,0.59,0,0,1,.59.59v1Z"/>
  <path class="cls-2" d="M162,87h3V86h-3v1Zm17-1H166v15h1V98h10a2,2,0,0,0,2-2V87h3V86h-3Zm-12-4h-1v3h1V82Z"/>
  <path class="cls-2" d="M261,101l-2,2h4V99Zm0-5V87a1,1,0,0,0-1-1h-2a1,1,0,0,0-1,1v4h-3V83a1,1,0,0,0-1-1h-2a1,1,0,0,0-1,1v8h-3V87a1,1,0,0,0-1-1h-2a1,1,0,0,0-1,1v9a1,1,0,0,0,1,1h2a1,1,0,0,0,1-1V92h3v7a1,1,0,0,0,1,1h2a1,1,0,0,0,1-1V92h3v4a1,1,0,0,0,1,1h2A1,1,0,0,0,261,96Z"/>
  <path class="cls-2" d="M308,104l-1,1h4v-4Zm-21-2h18V84H287v18Zm5.4-14.4a1.8,1.8,0,1,1-1.8,1.8A1.8,1.8,0,0,1,292.4,87.61Zm0,7.2,2.7,4,6.3-9.45L303,92v8H289Z"/>
  <path class="cls-2" d="M348,104l-1,1h4v-4Zm-3.44-15.24L346,87.32A11.9,11.9,0,0,0,341.68,83l-1.44,1.44,1.68,1.68h0l-0.36.36a8.83,8.83,0,1,0,1,1l0.36-.37Zm-2,4.45a6.71,6.71,0,1,1-6.71-6.71A6.71,6.71,0,0,1,342.53,93.21Zm-2.87-.53h-3.31V89.37a0.53,0.53,0,1,0-1.06,0v4.36h4.36A0.53,0.53,0,0,0,339.66,92.68Z"/>
  <path class="cls-2" d="M383.17,94.92h0l-3.6-2a1.72,1.72,0,0,0-1-.3,1.69,1.69,0,0,0-1.29.58V89A1.67,1.67,0,0,0,374,89v8.28l-0.59-.56a3.49,3.49,0,0,0-4.14-.44h0l-0.11.08a0.55,0.55,0,0,0,0,.81l5.12,4.83h8.59A4.89,4.89,0,0,0,384,98.87V96.28A1.55,1.55,0,0,0,383.17,94.92ZM373,96v-2.6a4.79,4.79,0,0,1-2.53-4.16,5.14,5.14,0,0,1,10.26,0,4.62,4.62,0,0,1-.91,2.74,2.37,2.37,0,0,1,.87.36L382.08,93a6.86,6.86,0,0,0,1.18-3.84,7.65,7.65,0,0,0-15.27,0A7.23,7.23,0,0,0,373,96Zm15,8-1,1h4v-4Z"/>
  <path class="cls-2" d="M417,84h-9v6h2V87h4V99h-3v2h9V99h-3V87h4v3h2V84h-6Zm11,20-1,1h4v-4Z"/>
  <path class="cls-2" d="M447,102h18V84H447v18Zm2-16h14v14H449V86Zm19,18-1,1h4v-4Z"/>
  <path class="cls-5" d="M12,0A12,12,0,1,0,24,12,12,12,0,0,0,12,0Zm2.14,18.8a12.21,12.21,0,0,1-1.33,1.72,3.53,3.53,0,0,1-2.94,1.24A2.1,2.1,0,0,1,7.7,19.45,8.88,8.88,0,0,1,8.36,17l2.1-5.37a3.89,3.89,0,0,0,.32-1,0.46,0.46,0,0,0-.11-0.32,0.37,0.37,0,0,0-.27-0.16,1.89,1.89,0,0,0-1.14.62,7.07,7.07,0,0,0-1,1,0.49,0.49,0,0,1-.53.3c-0.18-.07-0.16-0.26,0-0.65A8.27,8.27,0,0,1,9.51,9.22a3.59,3.59,0,0,1,2.65-1,2.28,2.28,0,0,1,1.47.59,1.67,1.67,0,0,1,.52,1.38A5.61,5.61,0,0,1,13.74,12l-2.53,6.37a3.65,3.65,0,0,0-.29,1.07,0.61,0.61,0,0,0,.11.37,0.36,0.36,0,0,0,.27.2,1.2,1.2,0,0,0,.88-0.45,7.87,7.87,0,0,0,1-1.46,0.56,0.56,0,0,1,.51-0.29A0.64,0.64,0,0,1,14.14,18.8Zm1.09-13a2,2,0,0,1-2.86,0,2,2,0,0,1-.58-1.44,2,2,0,0,1,3.05-1.73,2,2,0,0,1,.72.71,2,2,0,0,1,.26,1A2,2,0,0,1,15.23,5.85Z"/>
  <path class="cls-6" d="M12,40A12,12,0,1,0,24,52,12,12,0,0,0,12,40Zm2.14,18.8a12.21,12.21,0,0,1-1.33,1.72,3.53,3.53,0,0,1-2.94,1.24A2.1,2.1,0,0,1,7.7,59.45,8.88,8.88,0,0,1,8.36,57l2.1-5.37a3.89,3.89,0,0,0,.32-1,0.46,0.46,0,0,0-.11-0.32,0.37,0.37,0,0,0-.27-0.16,1.89,1.89,0,0,0-1.14.62,7.07,7.07,0,0,0-1,1,0.49,0.49,0,0,1-.53.3c-0.18-.07-0.16-0.26,0-0.65a8.27,8.27,0,0,1,1.73-2.25,3.59,3.59,0,0,1,2.65-1,2.28,2.28,0,0,1,1.47.59,1.67,1.67,0,0,1,.52,1.38A5.61,5.61,0,0,1,13.74,52l-2.53,6.37a3.65,3.65,0,0,0-.29,1.07,0.61,0.61,0,0,0,.11.37,0.36,0.36,0,0,0,.27.2,1.2,1.2,0,0,0,.88-0.45,7.87,7.87,0,0,0,1-1.46,0.56,0.56,0,0,1,.51-0.29A0.64,0.64,0,0,1,14.14,58.8Zm1.09-13a2,2,0,0,1-2.86,0,2,2,0,0,1-.58-1.44,2,2,0,0,1,3.05-1.73,2,2,0,0,1,.72.71A2.05,2.05,0,0,1,15.23,45.85Z"/>
  <path class="cls-1" d="M602,40h20a2,2,0,0,1,2,2V62a2,2,0,0,1-2,2H602a2,2,0,0,1-2-2V42A2,2,0,0,1,602,40Z"/>
  <path class="cls-1" d="M202,40h20a2,2,0,0,1,2,2V62a2,2,0,0,1-2,2H202a2,2,0,0,1-2-2V42A2,2,0,0,1,202,40Z"/>
  <path class="cls-2" d="M529.29,0V2.38h2.18V7h2.35V4.6H536V0h-6.71Zm4.53,9.18H536V7h-2.18V9.18Zm0,4.62h-4.53V16H536V11.59h-2.18V13.8ZM531.47,7h-2.18v4.62h2.18V7Zm-6.91,4.62V9.38H520v2.21h2.69V13.8H520V16h6.6V13.8h2.69V11.59h-4.73ZM527.76,0H520V7.85h7.76V0Zm-1.91,5.92h-3.93v-4h3.93v4Zm-0.78-3.19h-2.38V5.13h2.38V2.72Z"/>
  <polygon class="cls-2" points="560 7.44 562.53 9.34 573.81 3.19 565.31 11.69 565.31 17 568.5 13.81 572.75 17 577 0 560 7.44"/>
  <path class="cls-3" d="M94.72,10.26H96a0.59,0.59,0,0,0,.59-0.59V3.61A0.59,0.59,0,0,0,96,3H94.72a0.59,0.59,0,0,0-.59.59V9.67A0.59,0.59,0,0,0,94.72,10.26ZM99.5,3h-1v7.23a1,1,0,0,1-1,1.06h-11a1,1,0,0,1-1-1l0-7.26H84.49A1.5,1.5,0,0,0,83,4.51v15a1.5,1.5,0,0,0,1.5,1.5h15a1.5,1.5,0,0,0,1.5-1.5v-15A1.5,1.5,0,0,0,99.5,3Zm-5.2,16.17V17.55H85.46V14.49h8.84V12.86L98.51,16Z"/>
  <path class="cls-1" d="M82,40h20a2,2,0,0,1,2,2V62a2,2,0,0,1-2,2H82a2,2,0,0,1-2-2V42A2,2,0,0,1,82,40Z"/>
  <path class="cls-2" d="M94.72,50.26H96a0.59,0.59,0,0,0,.59-0.59V43.61A0.59,0.59,0,0,0,96,43H94.72a0.59,0.59,0,0,0-.59.59v6.06A0.59,0.59,0,0,0,94.72,50.26ZM99.5,43h-1v7.23a1,1,0,0,1-1,1.06h-11a1,1,0,0,1-1-1l0-7.26H84.49a1.5,1.5,0,0,0-1.5,1.5v15a1.5,1.5,0,0,0,1.5,1.5h15a1.5,1.5,0,0,0,1.5-1.5v-15A1.5,1.5,0,0,0,99.5,43Zm-5.2,16.17V57.55H85.46V54.49h8.84V52.86L98.51,56Z"/>
  <path class="cls-3" d="M132.67,3h-0.24a8.8,8.8,0,0,0-8.58,9H121l3.71,3.89L124.77,16l3.85-4h-2.86a6.84,6.84,0,0,1,6.67-7h0.09a6.93,6.93,0,0,1,6.58,6.9,6.84,6.84,0,0,1-6.67,7.1A6.44,6.44,0,0,1,128,17.26a0.47,0.47,0,0,0-.32-0.13,0.44,0.44,0,0,0-.32.14l-0.7.74a0.5,0.5,0,0,0,0,.7A8.3,8.3,0,0,0,132.43,21,8.81,8.81,0,0,0,141,11.75,8.89,8.89,0,0,0,132.67,3Zm0,5h-0.93a0.25,0.25,0,0,0-.25.26V13l2.13,1.33,1.73,1.08a0.24,0.24,0,0,0,.34-0.09l0.43-.76A0.27,0.27,0,0,0,136,14.2l-3.12-2v-4A0.25,0.25,0,0,0,132.66,8Z"/>
  <path class="cls-1" d="M122,40h20a2,2,0,0,1,2,2V62a2,2,0,0,1-2,2H122a2,2,0,0,1-2-2V42A2,2,0,0,1,122,40Z"/>
  <path class="cls-2" d="M132.67,43h-0.24a8.8,8.8,0,0,0-8.58,9H121l3.71,3.89L124.77,56l3.85-4h-2.86a6.84,6.84,0,0,1,6.67-7h0.09a6.93,6.93,0,0,1,6.58,6.9,6.84,6.84,0,0,1-6.67,7.1A6.44,6.44,0,0,1,128,57.26a0.47,0.47,0,0,0-.32-0.13,0.44,0.44,0,0,0-.32.14l-0.7.74a0.5,0.5,0,0,0,0,.7A8.3,8.3,0,0,0,132.43,61,9,9,0,0,0,132.67,43Zm0,5h-0.93a0.25,0.25,0,0,0-.25.26V53l2.13,1.33,1.73,1.08a0.24,0.24,0,0,0,.34-0.09l0.43-.76A0.27,0.27,0,0,0,136,54.2l-3.12-2v-4A0.25,0.25,0,0,0,132.66,48Z"/>
  <path class="cls-3" d="M221,21l-2,2h4V19Zm-11-6-4,3,4,3V19h8V17h-8V15Zm-3-2h13a1,1,0,0,0,1-1V10a1,1,0,0,0-1-1H207a1,1,0,0,0-1,1v2A1,1,0,0,0,207,13Zm0-6h8a1,1,0,0,0,1-1V4a1,1,0,0,0-1-1h-8a1,1,0,0,0-1,1V6A1,1,0,0,0,207,7Zm-3,15h1V2h-1V22Z"/>
  <path class="cls-2" d="M221,61l-2,2h4V59Zm-11-6-4,3,4,3V59h8V57h-8V55Zm-3-2h13a1,1,0,0,0,1-1V50a1,1,0,0,0-1-1H207a1,1,0,0,0-1,1v2A1,1,0,0,0,207,53Zm0-6h8a1,1,0,0,0,1-1V44a1,1,0,0,0-1-1h-8a1,1,0,0,0-1,1v2A1,1,0,0,0,207,47Zm-3,15h1V42h-1V62Z"/>
  <path class="cls-3" d="M613.43,9.09V6.37a1.36,1.36,0,0,0-.75-1.2,1.49,1.49,0,0,0-1.47.07l-8.57,5.45a1.33,1.33,0,0,0,0,2.27l8.57,5.45a1.49,1.49,0,0,0,1.47.07,1.36,1.36,0,0,0,.75-1.2V14.55A8.55,8.55,0,0,1,621.5,20a7.82,7.82,0,0,0,.5-2.73A8.38,8.38,0,0,0,613.43,9.09Z"/>
  <path class="cls-2" d="M613.43,49.09V46.37a1.36,1.36,0,0,0-.75-1.2,1.49,1.49,0,0,0-1.47.07l-8.57,5.45a1.33,1.33,0,0,0,0,2.27l8.57,5.45a1.49,1.49,0,0,0,1.47.07,1.36,1.36,0,0,0,.75-1.2V54.55A8.55,8.55,0,0,1,621.5,60a7.82,7.82,0,0,0,.5-2.73A8.38,8.38,0,0,0,613.43,49.09Z"/>
  <path class="cls-3" d="M661.36,10.69l-8.57-5.45a1.49,1.49,0,0,0-1.47-.07,1.36,1.36,0,0,0-.76,1.2V9.09A8.38,8.38,0,0,0,642,17.27a7.81,7.81,0,0,0,.5,2.73,8.55,8.55,0,0,1,8.07-5.45v2.73a1.36,1.36,0,0,0,.76,1.2,1.49,1.49,0,0,0,1.47-.07L661.36,13A1.33,1.33,0,0,0,661.36,10.69Z"/>
  <rect class="cls-7" x="640" y="40" width="24" height="24" rx="2" ry="2"/>
  <path class="cls-2" d="M642.5,60a8.55,8.55,0,0,1,8.07-5.45v2.73a1.36,1.36,0,0,0,.76,1.2,1.49,1.49,0,0,0,1.47-.07L661.36,53a1.33,1.33,0,0,0,0-2.27l-8.57-5.45a1.49,1.49,0,0,0-1.47-.07,1.36,1.36,0,0,0-.76,1.2v2.73A8.38,8.38,0,0,0,642,57.27,7.81,7.81,0,0,0,642.5,60Z"/>
  <path class="cls-3" d="M702,19V13h-2v6h2Zm2-9.72L696,5l-8,4.29V11h16V9.29ZM692,19V13h-2v6h2Zm5,0V13h-2v6h2Zm-9,2v2h16V21H688Z"/>
  <rect class="cls-7" x="680" y="40" width="30" height="30" rx="2" ry="2"/>
  <path class="cls-8" d="M690,53v6h2V53h-2Zm5,0v6h2V53h-2Zm-7,10h16V61H688v2Zm12-10v6h2V53h-2Zm-4-8-8,4.29V51h16V49.29Z"/>
  <path class="cls-4" d="M602,80h20a2,2,0,0,1,2,2v20a2,2,0,0,1-2,2H602a2,2,0,0,1-2-2V82A2,2,0,0,1,602,80Z"/>
  <path class="cls-4" d="M202,80h20a2,2,0,0,1,2,2v20a2,2,0,0,1-2,2H202a2,2,0,0,1-2-2V82A2,2,0,0,1,202,80Z"/>
  <path class="cls-4" d="M82,80h20a2,2,0,0,1,2,2v20a2,2,0,0,1-2,2H82a2,2,0,0,1-2-2V82A2,2,0,0,1,82,80Z"/>
  <path class="cls-2" d="M94.72,90.26H96a0.59,0.59,0,0,0,.59-0.59V83.61A0.59,0.59,0,0,0,96,83H94.72a0.59,0.59,0,0,0-.59.59v6.06A0.59,0.59,0,0,0,94.72,90.26ZM99.5,83h-1v7.23a1,1,0,0,1-1,1.06h-11a1,1,0,0,1-1-1l0-7.26H84.49a1.5,1.5,0,0,0-1.5,1.5v15a1.5,1.5,0,0,0,1.5,1.5h15a1.5,1.5,0,0,0,1.5-1.5v-15A1.5,1.5,0,0,0,99.5,83Zm-5.2,16.17V97.55H85.46V94.49h8.84V92.86L98.51,96Z"/>
  <path class="cls-4" d="M122,80h20a2,2,0,0,1,2,2v20a2,2,0,0,1-2,2H122a2,2,0,0,1-2-2V82A2,2,0,0,1,122,80Z"/>
  <path class="cls-2" d="M132.67,83h-0.24a8.8,8.8,0,0,0-8.58,9H121l3.71,3.89L124.77,96l3.85-4h-2.86a6.84,6.84,0,0,1,6.67-7h0.09a6.93,6.93,0,0,1,6.58,6.9,6.84,6.84,0,0,1-6.67,7.1A6.44,6.44,0,0,1,128,97.26a0.47,0.47,0,0,0-.32-0.13,0.44,0.44,0,0,0-.32.14l-0.7.74a0.5,0.5,0,0,0,0,.7,8.3,8.3,0,0,0,5.71,2.29A9,9,0,0,0,132.67,83Zm0,5h-0.93a0.25,0.25,0,0,0-.25.26V93l2.13,1.33,1.73,1.08a0.24,0.24,0,0,0,.34-0.09l0.43-.76A0.27,0.27,0,0,0,136,94.2l-3.12-2v-4A0.25,0.25,0,0,0,132.66,88Z"/>
  <path class="cls-2" d="M221,101l-2,2h4V99Zm-11-6-4,3,4,3V99h8V97h-8V95Zm-3-2h13a1,1,0,0,0,1-1V90a1,1,0,0,0-1-1H207a1,1,0,0,0-1,1v2A1,1,0,0,0,207,93Zm0-6h8a1,1,0,0,0,1-1V84a1,1,0,0,0-1-1h-8a1,1,0,0,0-1,1v2A1,1,0,0,0,207,87Zm-3,15h1V82h-1v20Z"/>
  <path class="cls-2" d="M613.43,89.09V86.37a1.36,1.36,0,0,0-.75-1.2,1.49,1.49,0,0,0-1.47.07l-8.57,5.45a1.33,1.33,0,0,0,0,2.27l8.57,5.45a1.49,1.49,0,0,0,1.47.07,1.36,1.36,0,0,0,.75-1.2V94.55A8.55,8.55,0,0,1,621.5,100a7.82,7.82,0,0,0,.5-2.73A8.38,8.38,0,0,0,613.43,89.09Z"/>
  <rect class="cls-9" x="640" y="80" width="24" height="24" rx="2" ry="2"/>
  <path class="cls-2" d="M642.5,100a8.55,8.55,0,0,1,8.07-5.45v2.73a1.36,1.36,0,0,0,.76,1.2,1.49,1.49,0,0,0,1.47-.07L661.36,93a1.33,1.33,0,0,0,0-2.27l-8.57-5.45a1.49,1.49,0,0,0-1.47-.07,1.36,1.36,0,0,0-.76,1.2v2.73A8.38,8.38,0,0,0,642,97.27,7.81,7.81,0,0,0,642.5,100Z"/>
  <rect class="cls-9" x="680" y="80" width="30" height="30" rx="2" ry="2"/>
  <path class="cls-8" d="M690,93v6h2V93h-2Zm5,0v6h2V93h-2Zm-7,10h16v-2H688v2Zm12-10v6h2V93h-2Zm-4-8-8,4.29V91h16V89.29Z"/>
  <path class="cls-10" d="M722.5,1h9a0.5,0.5,0,1,0,0-1h-9A0.5,0.5,0,0,0,722.5,1Zm-1,2h11a0.5,0.5,0,1,0,0-1h-11A0.5,0.5,0,0,0,721.5,3ZM733,4H721a1,1,0,0,0-1,1v8a1,1,0,0,0,1,1h12a1,1,0,0,0,1-1V5A1,1,0,0,0,733,4Zm-3,8.63a0.35,0.35,0,0,1-.33.36h-1.33a0.35,0.35,0,0,1-.33-0.36V10.81a0.35,0.35,0,0,0-.33-0.36h-1.33a0.35,0.35,0,0,0-.33.36v1.82a0.35,0.35,0,0,1-.33.36h-1.33a0.35,0.35,0,0,1-.33-0.34V7.92a0.41,0.41,0,0,1,.1-0.25l2.67-2.58A0.32,0.32,0,0,1,727,5h0a0.32,0.32,0,0,1,.2.08l2.67,2.58a0.36,0.36,0,0,1,.11.27v4.69Z"/>
  <path class="cls-3" d="M772.15,0H761.85A1.79,1.79,0,0,0,760,1.73V9.51a1.79,1.79,0,0,0,1.85,1.73h1.79S762.46,14,762.46,14s4-2.77,4-2.77h5.65A1.79,1.79,0,0,0,774,9.51V1.73A1.79,1.79,0,0,0,772.15,0ZM768,10h-2V4h2v6Zm0-7h-2V1h2V3Z"/>
  <path class="cls-8" d="M722.5,41h9a0.5,0.5,0,1,0,0-1h-9A0.5,0.5,0,0,0,722.5,41Zm-1,2h11a0.5,0.5,0,1,0,0-1h-11A0.5,0.5,0,0,0,721.5,43ZM733,44H721a1,1,0,0,0-1,1v8a1,1,0,0,0,1,1h12a1,1,0,0,0,1-1V45A1,1,0,0,0,733,44Zm-3,8.63a0.35,0.35,0,0,1-.33.36h-1.33a0.35,0.35,0,0,1-.33-0.36V50.81a0.35,0.35,0,0,0-.33-0.36h-1.33a0.35,0.35,0,0,0-.33.36v1.82a0.35,0.35,0,0,1-.33.36h-1.33a0.35,0.35,0,0,1-.33-0.34V47.92a0.41,0.41,0,0,1,.1-0.25l2.67-2.58A0.32,0.32,0,0,1,727,45h0a0.32,0.32,0,0,1,.2.08l2.67,2.58a0.36,0.36,0,0,1,.11.27v4.69Z"/>
  <path class="cls-2" d="M772.15,40H761.85A1.79,1.79,0,0,0,760,41.73v7.78a1.79,1.79,0,0,0,1.85,1.73h1.79S762.46,54,762.46,54s4-2.77,4-2.77h5.65A1.79,1.79,0,0,0,774,49.51V41.73A1.79,1.79,0,0,0,772.15,40ZM768,50h-2V44h2v6Zm0-7h-2V41h2v2Z"/>
  <path class="cls-8" d="M722.5,81h9a0.5,0.5,0,1,0,0-1h-9A0.5,0.5,0,0,0,722.5,81Zm-1,2h11a0.5,0.5,0,1,0,0-1h-11A0.5,0.5,0,0,0,721.5,83ZM733,84H721a1,1,0,0,0-1,1v8a1,1,0,0,0,1,1h12a1,1,0,0,0,1-1V85A1,1,0,0,0,733,84Zm-3,8.63a0.35,0.35,0,0,1-.33.36h-1.33a0.35,0.35,0,0,1-.33-0.36V90.81a0.35,0.35,0,0,0-.33-0.36h-1.33a0.35,0.35,0,0,0-.33.36v1.82a0.35,0.35,0,0,1-.33.36h-1.33a0.35,0.35,0,0,1-.33-0.34V87.92a0.41,0.41,0,0,1,.1-0.25l2.67-2.58A0.32,0.32,0,0,1,727,85h0a0.32,0.32,0,0,1,.2.08l2.67,2.58a0.36,0.36,0,0,1,.11.27v4.69Z"/>
  <path class="cls-11" d="M772.15,80H761.85A1.79,1.79,0,0,0,760,81.73v7.78a1.79,1.79,0,0,0,1.85,1.73h1.79S762.46,94,762.46,94s4-2.77,4-2.77h5.65A1.79,1.79,0,0,0,774,89.51V81.73A1.79,1.79,0,0,0,772.15,80ZM768,90h-2V84h2v6Zm0-7h-2V81h2v2Z"/>
  <path class="cls-12" d="M495.22,47.65l-12.86-7.44A1.57,1.57,0,0,0,480,41.58V56.45a1.57,1.57,0,0,0,2.36,1.36l12.86-7.44A1.58,1.58,0,0,0,495.22,47.65Z"/>
  <path class="cls-12" d="M529.29,40v2.38h2.18V47h2.35V44.6H536V40h-6.71Zm4.53,9.18H536V47h-2.18v2.21Zm0,4.62h-4.53V56H536V51.59h-2.18V53.8ZM531.47,47h-2.18v4.62h2.18V47Zm-6.91,4.62V49.38H520v2.21h2.69V53.8H520V56h6.6V53.8h2.69V51.59h-4.73ZM527.76,40H520v7.85h7.76V40Zm-1.91,5.92h-3.93v-4h3.93v4Zm-0.78-3.19h-2.38v2.41h2.38V42.72Z"/>
  <polygon class="cls-12" points="560 47.44 562.53 49.34 573.81 43.19 565.31 51.69 565.31 57 568.5 53.81 572.75 57 577 40 560 47.44"/>
  <path class="cls-11" d="M495.22,87.65l-12.86-7.44A1.57,1.57,0,0,0,480,81.58V96.45a1.57,1.57,0,0,0,2.36,1.36l12.86-7.44A1.58,1.58,0,0,0,495.22,87.65Z"/>
  <path class="cls-11" d="M529.29,80v2.38h2.18V87h2.35V84.6H536V80h-6.71Zm4.53,9.18H536V87h-2.18v2.21Zm0,4.62h-4.53V96H536V91.59h-2.18V93.8ZM531.47,87h-2.18v4.62h2.18V87Zm-6.91,4.62V89.38H520v2.21h2.69V93.8H520V96h6.6V93.8h2.69V91.59h-4.73ZM527.76,80H520v7.85h7.76V80Zm-1.91,5.92h-3.93v-4h3.93v4Zm-0.78-3.19h-2.38v2.41h2.38V82.72Z"/>
  <polygon class="cls-11" points="560 87.44 562.53 89.34 573.81 83.19 565.31 91.69 565.31 97 568.5 93.81 572.75 97 577 80 560 87.44"/>
  <path class="cls-8" d="M806,1.51A6.5,6.5,0,0,0,800,6a6.25,6.25,0,0,0,12,0A6.5,6.5,0,0,0,806,1.51ZM806,9a2.88,2.88,0,0,1-2.73-3,2.74,2.74,0,1,1,5.46,0A2.88,2.88,0,0,1,806,9Zm0-4.8A1.72,1.72,0,0,0,804.37,6a1.64,1.64,0,1,0,3.27,0A1.72,1.72,0,0,0,806,4.21Z"/>
  <path class="cls-3" d="M862.57,14.56c-0.79,0-1.58-.07-2.37-0.12a0.48,0.48,0,0,1-.27-0.25c-0.17-.37-0.31-0.76-0.47-1.14a4.66,4.66,0,0,0-.55-1.13c-1-1.21-2-2.39-3.09-3.57a0.76,0.76,0,0,0-.5-0.24q-1.81,0-3.61.09a0.59,0.59,0,0,0-.65.57s0,0.08,0,.11h0a0.63,0.63,0,0,0,.71.57l2.87,0.11a0.39,0.39,0,0,1,.26.09c0.27,0.33.53,0.68,0.8,1l-0.21.2-0.12.11-0.09.08-1.86,1.67-0.13.11L852,14a1.29,1.29,0,0,0-.45.77s0,0.07,0,.11a1.19,1.19,0,0,0,0,.15l-2.3,1.84-0.17.13-0.14.11L846.67,19l-0.14.11-0.57.45a0.88,0.88,0,0,0-.41.86,0.89,0.89,0,0,0,1.48.51l2.52-1.82L849.7,19l2.47-1.79,0.16-.11,0.22-.16,0.14,0.16,0.1,0.11L854,18.53l0.38,0.4-0.1,0-0.38.11-2.9.8a0.91,0.91,0,0,0-.7.6,0.87,0.87,0,0,0,1.14,1.06l5.12-1a1,1,0,0,0,.86-0.84,1,1,0,0,0-.25-0.85l-1.85-2.41-0.44-.59,2.95-2.09,0.88,1.7a0.77,0.77,0,0,0,.78.46c0.58,0,1.16,0,1.75,0s1,0,1.45-.09a0.59,0.59,0,0,0,.54-0.67A0.63,0.63,0,0,0,862.57,14.56Zm-2.47-3.18a1.69,1.69,0,1,0-1.73-1.7A1.72,1.72,0,0,0,860.1,11.38Z"/>
  <rect class="cls-7" x="840" y="40" width="30" height="30" rx="2" ry="2"/>
  <g>
    <path class="cls-8" d="M852.17,57.17l0.16-.11,0.22-.16,0.14,0.16,0.1,0.11L854,58.53l0.38,0.4-0.1,0-0.38.11-2.9.8a0.91,0.91,0,0,0-.7.6,0.87,0.87,0,0,0,1.14,1.06l5.12-1a1,1,0,0,0,.86-0.84,1,1,0,0,0-.25-0.85l-1.85-2.41-0.44-.59,2.95-2.09,0.88,1.7a0.77,0.77,0,0,0,.78.46c0.58,0,1.16,0,1.75,0s1,0,1.45-.09a0.59,0.59,0,0,0,.54-0.67,0.63,0.63,0,0,0-.65-0.57c-0.79,0-1.58-.07-2.37-0.12a0.48,0.48,0,0,1-.27-0.25c-0.17-.37-0.31-0.76-0.47-1.14a4.66,4.66,0,0,0-.55-1.13c-1-1.21-2-2.39-3.09-3.57a0.76,0.76,0,0,0-.5-0.24q-1.81,0-3.61.09a0.59,0.59,0,0,0-.65.57s0,0.08,0,.11h0a0.63,0.63,0,0,0,.71.57l2.87,0.11a0.39,0.39,0,0,1,.26.09c0.27,0.33.53,0.68,0.8,1l-0.21.2-0.12.11-0.09.08-1.86,1.67-0.13.11L852,54a1.29,1.29,0,0,0-.45.77s0,0.07,0,.11a1.19,1.19,0,0,0,0,.15l-2.3,1.84-0.17.13-0.14.11"/>
    <path class="cls-8" d="M848.92,57.17L846.67,59l-0.14.11h3L849.7,59l2.47-1.79"/>
    <path class="cls-8" d="M846.53,59.08l-0.57.45a0.88,0.88,0,0,0-.41.86,0.89,0.89,0,0,0,1.48.51l2.52-1.82"/>
    <path class="cls-8" d="M860.1,51.38a1.69,1.69,0,1,0-1.73-1.7A1.72,1.72,0,0,0,860.1,51.38Z"/>
  </g>
  <rect class="cls-9" x="840" y="80" width="30" height="30" rx="2" ry="2"/>
  <g>
    <path class="cls-8" d="M852.17,97.17l0.16-.11,0.22-.16,0.14,0.16,0.1,0.11L854,98.53l0.38,0.4-0.1,0-0.38.11-2.9.8a0.91,0.91,0,0,0-.7.6,0.87,0.87,0,0,0,1.14,1.06l5.12-1a1,1,0,0,0,.86-0.84,1,1,0,0,0-.25-0.85l-1.85-2.41-0.44-.59,2.95-2.09,0.88,1.7a0.77,0.77,0,0,0,.78.46c0.58,0,1.16,0,1.75,0s1,0,1.45-.09a0.59,0.59,0,0,0,.54-0.67,0.63,0.63,0,0,0-.65-0.57c-0.79,0-1.58-.07-2.37-0.12a0.48,0.48,0,0,1-.27-0.25c-0.17-.37-0.31-0.76-0.47-1.14a4.66,4.66,0,0,0-.55-1.13c-1-1.21-2-2.39-3.09-3.57a0.76,0.76,0,0,0-.5-0.24q-1.81,0-3.61.09a0.59,0.59,0,0,0-.65.57s0,0.08,0,.11h0a0.63,0.63,0,0,0,.71.57l2.87,0.11a0.39,0.39,0,0,1,.26.09c0.27,0.33.53,0.68,0.8,1l-0.21.2-0.12.11-0.09.08-1.86,1.67-0.13.11L852,94a1.29,1.29,0,0,0-.45.77s0,0.07,0,.11a1.19,1.19,0,0,0,0,.15l-2.3,1.84-0.17.13-0.14.11"/>
    <path class="cls-8" d="M848.92,97.17L846.67,99l-0.14.11h3L849.7,99l2.47-1.79"/>
    <path class="cls-8" d="M846.53,99.08l-0.57.45a0.88,0.88,0,0,0-.41.86,0.89,0.89,0,0,0,1.48.51l2.52-1.82"/>
    <path class="cls-8" d="M860.1,91.38a1.69,1.69,0,1,0-1.73-1.7A1.72,1.72,0,0,0,860.1,91.38Z"/>
  </g>
  <path class="cls-3" d="M890.67,11l1.9,0,1,1.58a0.34,0.34,0,0,0,.28.15h0a0.34,0.34,0,0,0,.28-0.22l0.62-1.79,1.83-.5a0.34,0.34,0,0,0,.11-0.59l-1.52-1.15,0.09-1.89a0.34,0.34,0,0,0-.53-0.29l-1.56,1.08-1.78-.67a0.34,0.34,0,0,0-.44.41L891.6,9l-1.19,1.48A0.34,0.34,0,0,0,890.67,11Zm-0.49,4.1a0.34,0.34,0,0,0,.44-0.41l-0.34-1.13,0.74-.92a0.34,0.34,0,0,0-.26-0.55l-1.19,0-0.65-1a0.34,0.34,0,0,0-.6.08l-0.39,1.12-1.14.31a0.34,0.34,0,0,0-.11.59l0.95,0.71-0.05,1.18a0.34,0.34,0,0,0,.53.29l1-.68ZM897.29,12l-5.7,5.69L895,21.06l1-1h0l5.76-5.74L898.33,11Zm6.85-.57h0l-2.9-2.89h0a0.34,0.34,0,0,0-.49,0L899,10.35l3.37,3.36,1.8-1.79A0.34,0.34,0,0,0,904.13,11.43Zm-15,8.73a0.33,0.33,0,0,0,0,.48h0l2.9,2.89h0a0.34,0.34,0,0,0,.24.1,0.34,0.34,0,0,0,.25-0.11l1.86-1.85L891,18.31Z"/>
  <rect class="cls-7" x="880" y="40" width="30" height="30" rx="2" ry="2"/>
  <g>
    <path class="cls-8" d="M893.9,52.8a0.34,0.34,0,0,1-.28-0.15l-1-1.58-1.9,0a0.34,0.34,0,0,1-.26-0.55L891.6,49,891,47.18a0.34,0.34,0,0,1,.44-0.41l1.78,0.67,1.56-1.08a0.34,0.34,0,0,1,.53.29l-0.09,1.89,1.52,1.15a0.34,0.34,0,0,1-.11.59l-1.83.5-0.62,1.79a0.34,0.34,0,0,1-.28.22h0Z"/>
    <path class="cls-8" d="M887.9,55.44a0.34,0.34,0,0,1-.34-0.35l0.05-1.18-0.95-.71a0.34,0.34,0,0,1,.11-0.59l1.14-.31,0.39-1.12a0.34,0.34,0,0,1,.6-0.08l0.65,1,1.19,0a0.34,0.34,0,0,1,.26.55l-0.74.92,0.34,1.13a0.34,0.34,0,0,1-.44.41l-1.11-.42-1,.68A0.34,0.34,0,0,1,887.9,55.44Z"/>
    <polygon class="cls-8" points="897.28 52.01 897.28 52.01 891.58 57.69 894.96 61.06 895.95 60.07 895.95 60.07 901.71 54.33 898.33 50.96 897.28 52.01"/>
    <path class="cls-8" d="M904.23,51.67a0.34,0.34,0,0,0-.1-0.24h0l-2.9-2.89h0a0.34,0.34,0,0,0-.49,0L899,50.35l3.37,3.36,1.8-1.79A0.33,0.33,0,0,0,904.23,51.67Z"/>
    <path class="cls-8" d="M889.11,60.16a0.33,0.33,0,0,0,0,.48h0l2.9,2.89h0a0.34,0.34,0,0,0,.49,0l1.86-1.85L891,58.31Z"/>
  </g>
  <rect class="cls-9" x="880" y="80" width="30" height="30" rx="2" ry="2"/>
  <g>
    <path class="cls-8" d="M893.9,92.8a0.34,0.34,0,0,1-.28-0.15l-1-1.58-1.9,0a0.34,0.34,0,0,1-.26-0.55L891.6,89,891,87.18a0.34,0.34,0,0,1,.44-0.41l1.78,0.67,1.56-1.08a0.34,0.34,0,0,1,.53.29l-0.09,1.89,1.52,1.15a0.34,0.34,0,0,1-.11.59l-1.83.5-0.62,1.79a0.34,0.34,0,0,1-.28.22h0Z"/>
    <path class="cls-8" d="M887.9,95.44a0.34,0.34,0,0,1-.34-0.35l0.05-1.18-0.95-.71a0.34,0.34,0,0,1,.11-0.59l1.14-.31,0.39-1.12a0.34,0.34,0,0,1,.6-0.08l0.65,1,1.19,0a0.34,0.34,0,0,1,.26.55l-0.74.92,0.34,1.13a0.34,0.34,0,0,1-.44.41l-1.11-.42-1,.68A0.34,0.34,0,0,1,887.9,95.44Z"/>
    <polygon class="cls-8" points="897.28 92.01 897.28 92.01 891.58 97.69 894.96 101.06 895.95 100.07 895.95 100.07 901.71 94.33 898.33 90.96 897.28 92.01"/>
    <path class="cls-8" d="M904.23,91.67a0.34,0.34,0,0,0-.1-0.24h0l-2.9-2.89h0a0.34,0.34,0,0,0-.49,0L899,90.35l3.37,3.36,1.8-1.79A0.33,0.33,0,0,0,904.23,91.67Z"/>
    <path class="cls-8" d="M889.11,100.16a0.33,0.33,0,0,0,0,.48h0l2.9,2.89h0a0.34,0.34,0,0,0,.49,0l1.86-1.85L891,98.31Z"/>
  </g>
  <path class="cls-3" d="M930,15l-4,3,4,3V19h8V17h-8V15Zm10-6H927a1,1,0,0,0-1,1v2a1,1,0,0,0,1,1h13a1,1,0,0,0,1-1V10A1,1,0,0,0,940,9ZM927,7h8a1,1,0,0,0,1-1V4a1,1,0,0,0-1-1h-8a1,1,0,0,0-1,1V6A1,1,0,0,0,927,7Zm-3,15h1V2h-1V22Z"/>
  <path class="cls-3" d="M980,14h-7V10h4a1,1,0,0,0,1-1V7a1,1,0,0,0-1-1h-4V1h-1V6h-4a1,1,0,0,0-1,1V9a1,1,0,0,0,1,1h4v4h-7a1,1,0,0,0-1,1v2a1,1,0,0,0,1,1h7v5h1V18h7a1,1,0,0,0,1-1V15A1,1,0,0,0,980,14Z"/>
  <path class="cls-3" d="M1014,17h-8v2h8v2l4-3-4-3v2Zm3-8h-13a1,1,0,0,0-1,1v2a1,1,0,0,0,1,1h13a1,1,0,0,0,1-1V10A1,1,0,0,0,1017,9Zm0-6h-8a1,1,0,0,0-1,1V6a1,1,0,0,0,1,1h8a1,1,0,0,0,1-1V4A1,1,0,0,0,1017,3Zm2-1V22h1V2h-1Z"/>
  <path class="cls-3" d="M1061,14h-2V6h-2v8h-2l3,4Zm-11,4h2a1,1,0,0,0,1-1V4a1,1,0,0,0-1-1h-2a1,1,0,0,0-1,1V17A1,1,0,0,0,1050,18Zm-6,0h2a1,1,0,0,0,1-1V9a1,1,0,0,0-1-1h-2a1,1,0,0,0-1,1v8A1,1,0,0,0,1044,18Zm-2,1v1h20V19h-20Z"/>
  <path class="cls-3" d="M1103,12h-5V5a1,1,0,0,0-1-1h-2a1,1,0,0,0-1,1v7h-4V8a1,1,0,0,0-1-1h-2a1,1,0,0,0-1,1v4h-5v1h5v4a1,1,0,0,0,1,1h2a1,1,0,0,0,1-1V13h4v7a1,1,0,0,0,1,1h2a1,1,0,0,0,1-1V13h5V12Z"/>
  <path class="cls-3" d="M1135,10h2v8h2V10h2l-3-4Zm-3-4h-2a1,1,0,0,0-1,1V20a1,1,0,0,0,1,1h2a1,1,0,0,0,1-1V7A1,1,0,0,0,1132,6Zm-6,0h-2a1,1,0,0,0-1,1v8a1,1,0,0,0,1,1h2a1,1,0,0,0,1-1V7A1,1,0,0,0,1126,6Zm-4-2V5h20V4h-20Z"/>
  <path class="cls-3" d="M1180,5h-2a1,1,0,0,0-1,1v5h-3V2a1,1,0,0,0-1-1h-2a1,1,0,0,0-1,1v9h-3V6a1,1,0,0,0-1-1h-2a1,1,0,0,0-1,1V17a1,1,0,0,0,1,1h2a1,1,0,0,0,1-1V12h3v9a1,1,0,0,0,1,1h2a1,1,0,0,0,1-1V12h3v5a1,1,0,0,0,1,1h2a1,1,0,0,0,1-1V6A1,1,0,0,0,1180,5Z"/>
  <path class="cls-3" d="M1222,10h-9V7h5a1,1,0,0,0,1-1V4a1,1,0,0,0-1-1h-11a1,1,0,0,0-1,1V6a1,1,0,0,0,1,1h5v3h-9a1,1,0,0,0-1,1v2a1,1,0,0,0,1,1h9v3h-5a1,1,0,0,0-1,1v2a1,1,0,0,0,1,1h11a1,1,0,0,0,1-1V18a1,1,0,0,0-1-1h-5V14h9a1,1,0,0,0,1-1V11A1,1,0,0,0,1222,10Z"/>
  <path class="cls-2" d="M930,55l-4,3,4,3V59h8V57h-8V55Zm10-6H927a1,1,0,0,0-1,1v2a1,1,0,0,0,1,1h13a1,1,0,0,0,1-1V50A1,1,0,0,0,940,49Zm-13-2h8a1,1,0,0,0,1-1V44a1,1,0,0,0-1-1h-8a1,1,0,0,0-1,1v2A1,1,0,0,0,927,47Zm-3,15h1V42h-1V62Z"/>
  <path class="cls-2" d="M980,54h-7V50h4a1,1,0,0,0,1-1V47a1,1,0,0,0-1-1h-4V41h-1v5h-4a1,1,0,0,0-1,1v2a1,1,0,0,0,1,1h4v4h-7a1,1,0,0,0-1,1v2a1,1,0,0,0,1,1h7v5h1V58h7a1,1,0,0,0,1-1V55A1,1,0,0,0,980,54Z"/>
  <path class="cls-2" d="M1014,57h-8v2h8v2l4-3-4-3v2Zm3-8h-13a1,1,0,0,0-1,1v2a1,1,0,0,0,1,1h13a1,1,0,0,0,1-1V50A1,1,0,0,0,1017,49Zm0-6h-8a1,1,0,0,0-1,1v2a1,1,0,0,0,1,1h8a1,1,0,0,0,1-1V44A1,1,0,0,0,1017,43Zm2-1V62h1V42h-1Z"/>
  <path class="cls-2" d="M1061,54h-2V46h-2v8h-2l3,4Zm-11,4h2a1,1,0,0,0,1-1V44a1,1,0,0,0-1-1h-2a1,1,0,0,0-1,1V57A1,1,0,0,0,1050,58Zm-6,0h2a1,1,0,0,0,1-1V49a1,1,0,0,0-1-1h-2a1,1,0,0,0-1,1v8A1,1,0,0,0,1044,58Zm-2,1v1h20V59h-20Z"/>
  <path class="cls-2" d="M1103,52h-5V45a1,1,0,0,0-1-1h-2a1,1,0,0,0-1,1v7h-4V48a1,1,0,0,0-1-1h-2a1,1,0,0,0-1,1v4h-5v1h5v4a1,1,0,0,0,1,1h2a1,1,0,0,0,1-1V53h4v7a1,1,0,0,0,1,1h2a1,1,0,0,0,1-1V53h5V52Z"/>
  <path class="cls-2" d="M1135,50h2v8h2V50h2l-3-4Zm-3-4h-2a1,1,0,0,0-1,1V60a1,1,0,0,0,1,1h2a1,1,0,0,0,1-1V47A1,1,0,0,0,1132,46Zm-6,0h-2a1,1,0,0,0-1,1v8a1,1,0,0,0,1,1h2a1,1,0,0,0,1-1V47A1,1,0,0,0,1126,46Zm-4-2v1h20V44h-20Z"/>
  <path class="cls-2" d="M1180,45h-2a1,1,0,0,0-1,1v5h-3V42a1,1,0,0,0-1-1h-2a1,1,0,0,0-1,1v9h-3V46a1,1,0,0,0-1-1h-2a1,1,0,0,0-1,1V57a1,1,0,0,0,1,1h2a1,1,0,0,0,1-1V52h3v9a1,1,0,0,0,1,1h2a1,1,0,0,0,1-1V52h3v5a1,1,0,0,0,1,1h2a1,1,0,0,0,1-1V46A1,1,0,0,0,1180,45Z"/>
  <path class="cls-2" d="M1222,50h-9V47h5a1,1,0,0,0,1-1V44a1,1,0,0,0-1-1h-11a1,1,0,0,0-1,1v2a1,1,0,0,0,1,1h5v3h-9a1,1,0,0,0-1,1v2a1,1,0,0,0,1,1h9v3h-5a1,1,0,0,0-1,1v2a1,1,0,0,0,1,1h11a1,1,0,0,0,1-1V58a1,1,0,0,0-1-1h-5V54h9a1,1,0,0,0,1-1V51A1,1,0,0,0,1222,50Z"/>
  <path class="cls-10" d="M1287.55,0h-7.1a0.44,0.44,0,0,0-.39.65l3.55,5.1a0.46,0.46,0,0,0,.78,0l3.55-5.1A0.44,0.44,0,0,0,1287.55,0Z"/>
  <path class="cls-3" d="M1337,5l-0.82-1h-5.36L1330,5h-3V7h13V5h-3Zm-9,15a1.89,1.89,0,0,0,2,2h7a1.89,1.89,0,0,0,2-2V8h-11V20Z"/>
  <path class="cls-3" d="M1374,4h-5a2,2,0,0,0-2,2V20a2,2,0,0,0,2,2h9a2,2,0,0,0,2-2V10Zm-1,7V5.51l5.5,5.5H1373Z"/>
  <path class="cls-3" d="M1419,5h-12a2,2,0,0,0-2,2v9a2,2,0,0,0,2,2h2l-2,4,6-4h6a2,2,0,0,0,2-2V7A2,2,0,0,0,1419,5Zm-5,11h-2V10h2v6Zm0-7h-2V7h2V9Z"/>
  <path class="cls-3" d="M1459,11h-1V9a5,5,0,0,0-10,0v2h-1a1,1,0,0,0-1,1v9a1,1,0,0,0,1,1h12a1,1,0,0,0,1-1V12A1,1,0,0,0,1459,11Zm-9,0V9a3,3,0,0,1,6,0v2h-6Z"/>
  <path class="cls-13" d="M1337,45l-0.82-1h-5.36L1330,45h-3v2h13V45h-3Zm-9,15a1.89,1.89,0,0,0,2,2h7a1.89,1.89,0,0,0,2-2V48h-11V60Z"/>
  <path class="cls-13" d="M1374,44h-5a2,2,0,0,0-2,2V60a2,2,0,0,0,2,2h9a2,2,0,0,0,2-2V50Zm-1,7v-5.5l5.5,5.5H1373Z"/>
  <path class="cls-13" d="M1419,45h-12a2,2,0,0,0-2,2v9a2,2,0,0,0,2,2h2l-2,4,6-4h6a2,2,0,0,0,2-2V47A2,2,0,0,0,1419,45Zm-5,11h-2V50h2v6Zm0-7h-2V47h2v2Z"/>
  <path class="cls-13" d="M1459,51h-1V49a5,5,0,0,0-10,0v2h-1a1,1,0,0,0-1,1v9a1,1,0,0,0,1,1h12a1,1,0,0,0,1-1V52A1,1,0,0,0,1459,51Zm-9,0V49a3,3,0,0,1,6,0v2h-6Z"/>
  <rect class="cls-14" x="1320" y="80" width="26" height="26"/>
  <rect class="cls-14" x="1360" y="80" width="26" height="26"/>
  <rect class="cls-14" x="1400" y="80" width="26" height="26"/>
  <rect class="cls-14" x="1440" y="80" width="26" height="26"/>
  <path class="cls-8" d="M1328,100a1.89,1.89,0,0,0,2,2h7a1.89,1.89,0,0,0,2-2V88h-11v12Zm12-15h-3l-0.82-1h-5.36L1330,85h-3v2h13V85Z"/>
  <path class="cls-8" d="M1374,84h-5a2,2,0,0,0-2,2v14a2,2,0,0,0,2,2h9a2,2,0,0,0,2-2V90Zm-1,7v-5.5l5.5,5.5H1373Z"/>
  <path class="cls-2" d="M1419,85h-12a2,2,0,0,0-2,2v9a2,2,0,0,0,2,2h2l-2,4,6-4h6a2,2,0,0,0,2-2V87A2,2,0,0,0,1419,85Zm-5,11h-2V90h2v6Zm0-7h-2V87h2v2Z"/>
  <path class="cls-2" d="M1459,91h-1V89a5,5,0,0,0-10,0v2h-1a1,1,0,0,0-1,1v9a1,1,0,0,0,1,1h12a1,1,0,0,0,1-1V92A1,1,0,0,0,1459,91Zm-9,0V89a3,3,0,0,1,6,0v2h-6Z"/>
  <rect class="cls-15" x="1320" y="120" width="26" height="26"/>
  <rect class="cls-15" x="1360" y="120" width="26" height="26"/>
  <rect class="cls-15" x="1400" y="120" width="26" height="26"/>
  <rect class="cls-15" x="1440" y="120" width="26" height="26"/>
  <path class="cls-10" d="M1328,140a1.89,1.89,0,0,0,2,2h7a1.89,1.89,0,0,0,2-2V128h-11v12Zm12-15h-3l-0.82-1h-5.36l-0.82,1h-3v2h13v-2Z"/>
  <path class="cls-10" d="M1374,124h-5a2,2,0,0,0-2,2v14a2,2,0,0,0,2,2h9a2,2,0,0,0,2-2V130Zm-1,7v-5.5l5.5,5.5H1373Z"/>
  <path class="cls-3" d="M1419,125h-12a2,2,0,0,0-2,2v9a2,2,0,0,0,2,2h2l-2,4,6-4h6a2,2,0,0,0,2-2v-9A2,2,0,0,0,1419,125Zm-5,11h-2v-6h2v6Zm0-7h-2v-2h2v2Z"/>
  <path class="cls-3" d="M1459,131h-1v-2a5,5,0,0,0-10,0v2h-1a1,1,0,0,0-1,1v9a1,1,0,0,0,1,1h12a1,1,0,0,0,1-1v-9A1,1,0,0,0,1459,131Zm-9,0v-2a3,3,0,0,1,6,0v2h-6Z"/>
  <path class="cls-8" d="M1287.55,40h-7.1a0.44,0.44,0,0,0-.39.65l3.55,5.1a0.46,0.46,0,0,0,.78,0l3.55-5.1A0.44,0.44,0,0,0,1287.55,40Z"/>
  <path class="cls-3" d="M1248,19h16V17h-16v2Zm0-5h16V12h-16v2Zm0-7V9h16V7h-16Z"/>
  <path class="cls-2" d="M1248,59h16V57h-16v2Zm0-5h16V52h-16v2Zm0-7v2h16V47h-16Z"/>
  <g>
    <rect class="cls-16" x="805.42" y="38.1" width="1.14" height="15.8" transform="translate(203.54 583.4) rotate(-45)"/>
    <g>
      <path class="cls-16" d="M806,43a2.88,2.88,0,0,1,2.73,3,3.23,3.23,0,0,1,0,.37l1.94,1.94A7.21,7.21,0,0,0,812,46a6.5,6.5,0,0,0-6-4.5,5.89,5.89,0,0,0-1.87.31l1.27,1.27A2.48,2.48,0,0,1,806,43Z"/>
      <path class="cls-16" d="M806,49a2.88,2.88,0,0,1-2.73-3,3.09,3.09,0,0,1,1.07-2.37L803,42.32A6.93,6.93,0,0,0,800,46a6.5,6.5,0,0,0,6,4.5,6,6,0,0,0,3.82-1.4l-1.52-1.52A2.68,2.68,0,0,1,806,49Z"/>
      <path class="cls-16" d="M804.37,46a1.72,1.72,0,0,0,1.64,1.8,1.63,1.63,0,0,0,1.48-1l-2.31-2.31A1.83,1.83,0,0,0,804.37,46Z"/>
    </g>
  </g>
  <path class="cls-16" d="M806.2,43.89l1.72,1.72A1.85,1.85,0,0,0,806.2,43.89Z"/>
  <path class="cls-17" d="M1689.44,8h-8.87a0.51,0.51,0,0,0-.49.77l4.44,6a0.59,0.59,0,0,0,1,0l4.44-6A0.51,0.51,0,0,0,1689.44,8Z"/>
  <path class="cls-18" d="M1689.44,48h-8.87a0.51,0.51,0,0,0-.49.77l4.44,6a0.59,0.59,0,0,0,1,0l4.44-6A0.51,0.51,0,0,0,1689.44,48Z"/>
  <path class="cls-19" d="M1809.44,8h-8.87a0.51,0.51,0,0,0-.49.77l4.44,6a0.59,0.59,0,0,0,1,0l4.44-6A0.51,0.51,0,0,0,1809.44,8Z"/>
  <path class="cls-20" d="M1809.44,48h-8.87a0.51,0.51,0,0,0-.49.77l4.44,6a0.59,0.59,0,0,0,1,0l4.44-6A0.51,0.51,0,0,0,1809.44,48Z"/>
  <path class="cls-3" d="M1497.65,15.59a6.31,6.31,0,0,1-3.48,1.65V13h1.17V11.92h-1.17V10.53a2.14,2.14,0,0,0,1.17-1.87,2.34,2.34,0,0,0-4.67,0,2.14,2.14,0,0,0,1.17,1.87v1.38h-1.17V13h1.17v4.24a6.32,6.32,0,0,1-3.49-1.65l-1.35.75a7.28,7.28,0,0,0,12,0ZM1493,9.75a1.13,1.13,0,0,1-1.17-1.08,1.17,1.17,0,0,1,2.33,0A1.13,1.13,0,0,1,1493,9.75Z"/>
  <path class="cls-3" d="M1533,6a7,7,0,1,0,7,7A7,7,0,0,0,1533,6Zm0,12.25a5.42,5.42,0,0,1-5.25-5.25,5.25,5.25,0,0,1,10.5,0A5.42,5.42,0,0,1,1533,18.25Zm0-7.93a2.68,2.68,0,1,0,2.68,2.68A2.68,2.68,0,0,0,1533,10.32Zm0,3.56a0.88,0.88,0,1,1,.88-0.87A0.87,0.87,0,0,1,1533,13.87Z"/>
  <path class="cls-3" d="M1575.39,11.52a4.25,4.25,0,0,0,.05-0.52,4.27,4.27,0,0,0-.05-0.53l1.61-1.4-0.4-1-2.12.15a4.44,4.44,0,0,0-.74-0.74l0.15-2.12-1-.4-1.4,1.61a2.6,2.6,0,0,0-1,0L1569.08,5l-1,.4,0.15,2.12a4.46,4.46,0,0,0-.74.74l-2.12-.15-0.4,1,1.61,1.4a4.41,4.41,0,0,0-.05.52,4.3,4.3,0,0,0,.05.53L1565,12.92l0.4,1,2.12-.15a4.4,4.4,0,0,0,.74.74l-0.15,2.12,1,0.4,1.4-1.61a4.24,4.24,0,0,0,.52.05,4.32,4.32,0,0,0,.53-0.05l1.39,1.61,1-.4-0.15-2.12a4.38,4.38,0,0,0,.74-0.74l2.12,0.15,0.4-1ZM1571,12.78a1.78,1.78,0,1,1,1.78-1.78A1.78,1.78,0,0,1,1571,12.78Z"/>
  <g>
    <path class="cls-2" d="M1533,50.32a2.68,2.68,0,1,0,2.68,2.68A2.68,2.68,0,0,0,1533,50.32Zm0,3.56a0.88,0.88,0,1,1,.88-0.87A0.87,0.87,0,0,1,1533,53.87Z"/>
    <path class="cls-2" d="M1533,46a7,7,0,1,0,7,7A7,7,0,0,0,1533,46Zm0,12.25a5.25,5.25,0,1,1,5.25-5.25A5.42,5.42,0,0,1,1533,58.25Z"/>
  </g>
  <path class="cls-21" d="M1615,5A5.5,5.5,0,0,0,1604,5h-4V6h4A5.5,5.5,0,0,0,1615,6h5V5h-5Zm-2.58,2.55-0.85.85-2.05-2.05-2.05,2.05-0.85-.85,2.05-2.05-2.05-2.05,0.85-.85,2.05,2.05,2.05-2.05,0.85,0.85-2.05,2.05Z"/>
  <path class="cls-21" d="M1615,46h5V45h-5M1604,45h-4v1h4"/>
  <path class="cls-2" d="M1575.39,51.52a2.6,2.6,0,0,0,0-1l1.61-1.4-0.4-1-2.12.15a4.44,4.44,0,0,0-.74-0.74l0.15-2.12-1-.4-1.4,1.61a2.6,2.6,0,0,0-1,0l-1.4-1.61-1,.4,0.15,2.12a4.46,4.46,0,0,0-.74.74l-2.12-.15-0.4,1,1.61,1.4a4.41,4.41,0,0,0-.05.52,4.3,4.3,0,0,0,.05.53L1565,52.92l0.4,1,2.12-.15a4.4,4.4,0,0,0,.74.74l-0.15,2.12,1,0.4,1.4-1.61a4.24,4.24,0,0,0,.52.05,4.32,4.32,0,0,0,.53-0.05l1.39,1.61,1-.4-0.15-2.12a4.38,4.38,0,0,0,.74-0.74l2.12,0.15,0.4-1ZM1571,52.78a1.78,1.78,0,1,1,1.78-1.78A1.78,1.78,0,0,1,1571,52.78Z"/>
  <path class="cls-2" d="M1533,50.32a2.68,2.68,0,1,0,2.68,2.68A2.68,2.68,0,0,0,1533,50.32Zm0,3.56a0.88,0.88,0,1,1,.88-0.87A0.87,0.87,0,0,1,1533,53.87Zm0-7.87a7,7,0,1,0,7,7A7,7,0,0,0,1533,46Zm0,12.25a5.25,5.25,0,1,1,5.25-5.25A5.42,5.42,0,0,1,1533,58.25Z"/>
  <path class="cls-2" d="M1497.65,55.59a6.31,6.31,0,0,1-3.48,1.65V53h1.17V51.92h-1.17V50.53a2.14,2.14,0,0,0,1.17-1.87,2.34,2.34,0,0,0-4.67,0,2.14,2.14,0,0,0,1.17,1.87v1.38h-1.17V53h1.17v4.24a6.32,6.32,0,0,1-3.49-1.65l-1.35.75a7.28,7.28,0,0,0,12,0ZM1493,49.75a1.09,1.09,0,1,1,1.17-1.08A1.13,1.13,0,0,1,1493,49.75Z"/>
  <path class="cls-6" d="M1609.5,40a5.5,5.5,0,1,0,5.5,5.5A5.5,5.5,0,0,0,1609.5,40Zm2.9,7.55-0.85.85-2.05-2.05-2.05,2.05-0.85-.85,2.05-2.05-2.05-2.05,0.85-.85,2.05,2.05,2.05-2.05,0.85,0.85-2.05,2.05Z"/>
  <polygon class="cls-2" points="1655 13.11 1651.7 9.81 1654.96 8.26 1645 5 1648.26 14.96 1649.81 11.7 1653.11 15 1655 13.11"/>
  <polygon class="cls-3" points="1655 53.11 1651.7 49.81 1654.96 48.26 1645 45 1648.26 54.96 1649.81 51.7 1653.11 55 1655 53.11"/>
  <path class="cls-22" d="M1732.29,13l1.94-1.94a0.91,0.91,0,0,0-1.29-1.29L1731,11.71l-1.94-1.94a0.91,0.91,0,1,0-1.29,1.29l1.94,1.94-1.94,1.94a0.91,0.91,0,1,0,1.29,1.29l1.94-1.94,1.94,1.94a0.91,0.91,0,0,0,1.29-1.29Z"/>
  <path class="cls-3" d="M1732.29,53l1.94-1.94a0.91,0.91,0,0,0-1.29-1.29L1731,51.71l-1.94-1.94a0.91,0.91,0,0,0-1.29,1.29l1.94,1.94-1.94,1.94a0.91,0.91,0,0,0,1.29,1.29l1.94-1.94,1.94,1.94a0.91,0.91,0,0,0,1.29-1.29Z"/>
  <path class="cls-23" d="M1772.29,13l1.94-1.94a0.91,0.91,0,0,0-1.29-1.29L1771,11.71l-1.94-1.94a0.91,0.91,0,0,0-1.29,1.29l1.94,1.94-1.94,1.94a0.91,0.91,0,0,0,1.29,1.29l1.94-1.94,1.94,1.94a0.91,0.91,0,0,0,1.29-1.29Z"/>
  <path class="cls-3" d="M1772.29,53l1.94-1.94a0.91,0.91,0,0,0-1.29-1.29L1771,51.71l-1.94-1.94a0.91,0.91,0,0,0-1.29,1.29l1.94,1.94-1.94,1.94a0.91,0.91,0,0,0,1.29,1.29l1.94-1.94,1.94,1.94a0.91,0.91,0,0,0,1.29-1.29Z"/>
  <path class="cls-2" d="M1732.29,93l1.94-1.94a0.91,0.91,0,0,0-1.29-1.29L1731,91.71l-1.94-1.94a0.91,0.91,0,0,0-1.29,1.29l1.94,1.94-1.94,1.94a0.91,0.91,0,0,0,1.29,1.29l1.94-1.94,1.94,1.94a0.91,0.91,0,0,0,1.29-1.29Z"/>
  <path class="cls-2" d="M1772.29,93l1.94-1.94a0.91,0.91,0,0,0-1.29-1.29L1771,91.71l-1.94-1.94a0.91,0.91,0,0,0-1.29,1.29l1.94,1.94-1.94,1.94a0.91,0.91,0,0,0,1.29,1.29l1.94-1.94,1.94,1.94a0.91,0.91,0,0,0,1.29-1.29Z"/>
</svg>
