<svg id="图层_1" data-name="图层 1" xmlns="http://www.w3.org/2000/svg" viewBox="0 0 800 40"><defs><style>.cls-1,.cls-8{fill:#282828;}.cls-1,.cls-12,.cls-13,.cls-2,.cls-3,.cls-4{fill-rule:evenodd;}.cls-2,.cls-9{fill:#fff;}.cls-11,.cls-3{fill:#b5b5b5;}.cls-10,.cls-4{fill:#1b1b1b;}.cls-5{fill:#4f4f4f;}.cls-6{fill:#353535;}.cls-12,.cls-7{fill:#ffa800;}.cls-13{fill:#c5c5c5;}</style></defs><title>icon0</title><path class="cls-1" d="M110.48,10h6.72a0.48,0.48,0,0,1,.48.48v5.28a0.48,0.48,0,0,1-.48.48h-6.72a0.48,0.48,0,0,1-.48-0.48V10.48A0.48,0.48,0,0,1,110.48,10Z"/><path class="cls-1" d="M100.48,10h6.72a0.48,0.48,0,0,1,.48.48v5.28a0.48,0.48,0,0,1-.48.48h-6.72a0.48,0.48,0,0,1-.48-0.48V10.48A0.48,0.48,0,0,1,100.48,10Z"/><path class="cls-1" d="M90.48,10H97.2a0.48,0.48,0,0,1,.48.48v5.28a0.48,0.48,0,0,1-.48.48H90.48A0.48,0.48,0,0,1,90,15.76V10.48A0.48,0.48,0,0,1,90.48,10Z"/><path class="cls-1" d="M80.48,10H87.2a0.48,0.48,0,0,1,.48.48v5.28a0.48,0.48,0,0,1-.48.48H80.48A0.48,0.48,0,0,1,80,15.76V10.48A0.48,0.48,0,0,1,80.48,10Z"/><path class="cls-1" d="M70.48,10H77.2a0.48,0.48,0,0,1,.48.48v5.28a0.48,0.48,0,0,1-.48.48H70.48A0.48,0.48,0,0,1,70,15.76V10.48A0.48,0.48,0,0,1,70.48,10Z"/><path class="cls-1" d="M60.48,10h4.8a0.48,0.48,0,0,1,.48.48v4.8a0.48,0.48,0,0,1-.48.48h-4.8A0.48,0.48,0,0,1,60,15.28v-4.8A0.48,0.48,0,0,1,60.48,10Z"/><path class="cls-1" d="M40.48,10h4.8a0.48,0.48,0,0,1,.48.48v4.8a0.48,0.48,0,0,1-.48.48h-4.8A0.48,0.48,0,0,1,40,15.28v-4.8A0.48,0.48,0,0,1,40.48,10Z"/><path class="cls-1" d="M10.48,10h4.8a0.48,0.48,0,0,1,.48.48v4.8a0.48,0.48,0,0,1-.48.48h-4.8A0.48,0.48,0,0,1,10,15.28v-4.8A0.48,0.48,0,0,1,10.48,10Z"/><path class="cls-2" d="M123.65,1.84l-3.09-1.79a0.38,0.38,0,0,0-.57.33V3.95a0.38,0.38,0,0,0,.57.33l3.09-1.79A0.38,0.38,0,0,0,123.65,1.84Z"/><path class="cls-3" d="M13.53,2.46h0.3A0.14,0.14,0,0,0,14,2.32V0.87A0.14,0.14,0,0,0,13.83.72h-0.3a0.14,0.14,0,0,0-.14.14V2.32A0.14,0.14,0,0,0,13.53,2.46Zm1.15-1.74H14.44V2.46a0.25,0.25,0,0,1-.25.25H11.56a0.25,0.25,0,0,1-.25-0.25V0.72H11.08a0.36,0.36,0,0,0-.36.36V4.68a0.36,0.36,0,0,0,.36.36h3.6A0.36,0.36,0,0,0,15,4.68V1.08A0.36,0.36,0,0,0,14.68.72ZM14.44,4.45a0.14,0.14,0,0,1-.14.14H11.45a0.14,0.14,0,0,1-.14-0.14V4.2a0.14,0.14,0,0,1,.14-0.14H14.3a0.14,0.14,0,0,1,.14.14V4.45Zm0-.91a0.14,0.14,0,0,1-.14.14H11.45a0.14,0.14,0,0,1-.14-0.14V3.3a0.14,0.14,0,0,1,.14-0.14H14.3a0.14,0.14,0,0,1,.14.14V3.55Z"/><path class="cls-2" d="M13.53,12.46h0.3A0.14,0.14,0,0,0,14,12.32V10.87a0.14,0.14,0,0,0-.14-0.14h-0.3a0.14,0.14,0,0,0-.14.14v1.45A0.14,0.14,0,0,0,13.53,12.46Zm1.15-1.74H14.44v1.74a0.25,0.25,0,0,1-.25.25H11.56a0.25,0.25,0,0,1-.25-0.25V10.72H11.08a0.36,0.36,0,0,0-.36.36v3.59a0.36,0.36,0,0,0,.36.36h3.6A0.36,0.36,0,0,0,15,14.68V11.08A0.36,0.36,0,0,0,14.68,10.72Zm-0.24,3.73a0.14,0.14,0,0,1-.14.14H11.45a0.14,0.14,0,0,1-.14-0.14V14.2a0.14,0.14,0,0,1,.14-0.14H14.3a0.14,0.14,0,0,1,.14.14v0.25Zm0-.91a0.14,0.14,0,0,1-.14.14H11.45a0.14,0.14,0,0,1-.14-0.14V13.3a0.14,0.14,0,0,1,.14-0.14H14.3a0.14,0.14,0,0,1,.14.14v0.25Z"/><path class="cls-3" d="M40.48,1.68H41.2V1.44H40.48V1.68Zm4.08-.24H41.44V5h0.24V4.32h2.4a0.48,0.48,0,0,0,.48-0.48V1.68h0.72V1.44H44.56Zm-2.88-1H41.44V1.2h0.24V0.48Z"/><path class="cls-2" d="M40.48,11.68H41.2V11.44H40.48v0.24Zm4.08-.24H41.44V15h0.24V14.32h2.4a0.48,0.48,0,0,0,.48-0.48V11.68h0.72V11.44H44.56Zm-2.88-1H41.44V11.2h0.24V10.48Z"/><path class="cls-3" d="M65,5l-0.48.48h1v-1Zm0-1.2V1.68a0.24,0.24,0,0,0-.24-0.24H64.32a0.24,0.24,0,0,0-.24.24v1H63.36V0.72A0.24,0.24,0,0,0,63.12.48H62.64a0.24,0.24,0,0,0-.24.24V2.64H61.68v-1a0.24,0.24,0,0,0-.24-0.24H61a0.24,0.24,0,0,0-.24.24V3.84a0.24,0.24,0,0,0,.24.24h0.48a0.24,0.24,0,0,0,.24-0.24v-1H62.4V4.56a0.24,0.24,0,0,0,.24.24h0.48a0.24,0.24,0,0,0,.24-0.24V2.88h0.72v1a0.24,0.24,0,0,0,.24.24H64.8A0.24,0.24,0,0,0,65,3.84Z"/><path class="cls-2" d="M65,15l-0.48.48h1v-1Zm0-1.2V11.68a0.24,0.24,0,0,0-.24-0.24H64.32a0.24,0.24,0,0,0-.24.24v1H63.36V10.72a0.24,0.24,0,0,0-.24-0.24H62.64a0.24,0.24,0,0,0-.24.24v1.92H61.68v-1a0.24,0.24,0,0,0-.24-0.24H61a0.24,0.24,0,0,0-.24.24v2.16a0.24,0.24,0,0,0,.24.24h0.48a0.24,0.24,0,0,0,.24-0.24v-1H62.4v1.68a0.24,0.24,0,0,0,.24.24h0.48a0.24,0.24,0,0,0,.24-0.24V12.88h0.72v1a0.24,0.24,0,0,0,.24.24H64.8A0.24,0.24,0,0,0,65,13.84Z"/><path class="cls-3" d="M76.72,5.76L76.48,6h1V5Zm-5-.48H76V1H71.68V5.28ZM73,1.83a0.43,0.43,0,1,1-.43.43A0.43,0.43,0,0,1,73,1.83Zm0,1.73,0.65,1,1.51-2.27,0.38,0.62V4.8H72.16Z"/><path class="cls-2" d="M76.72,15.76L76.48,16h1V15Zm-5-.48H76V11H71.68v4.32ZM73,11.83a0.43,0.43,0,1,1-.43.43A0.43,0.43,0,0,1,73,11.83Zm0,1.73,0.65,1,1.51-2.27,0.38,0.62V14.8H72.16Z"/><path class="cls-3" d="M86.72,5.76L86.48,6h1V5ZM85.89,2.1l0.35-.35a2.86,2.86,0,0,0-1-1l-0.35.35,0.4,0.4h0l-0.09.09a2.12,2.12,0,1,0,.23.23l0.09-.09ZM85.41,3.17A1.61,1.61,0,1,1,83.8,1.56,1.61,1.61,0,0,1,85.41,3.17ZM84.72,3H83.92V2.25a0.13,0.13,0,1,0-.25,0v1h1A0.13,0.13,0,0,0,84.72,3Z"/><path class="cls-2" d="M86.72,15.76L86.48,16h1V15ZM85.89,12.1l0.35-.35a2.86,2.86,0,0,0-1-1l-0.35.35,0.4,0.4h0l-0.09.09a2.12,2.12,0,1,0,.23.23l0.09-.09Zm-0.49,1.07a1.61,1.61,0,1,1-1.61-1.61A1.61,1.61,0,0,1,85.41,13.17ZM84.72,13H83.92V12.25a0.13,0.13,0,1,0-.25,0v1h1A0.13,0.13,0,0,0,84.72,13Z"/><path class="cls-3" d="M95.56,3.58h0L94.7,3.11A0.41,0.41,0,0,0,94.46,3a0.41,0.41,0,0,0-.31.14v-1a0.4,0.4,0,0,0-.8,0v2L93.21,4a0.84,0.84,0,0,0-1-.11h0l0,0a0.13,0.13,0,0,0,0,.19l1.23,1.16h2.06a1.17,1.17,0,0,0,.27-0.75V3.91A0.37,0.37,0,0,0,95.56,3.58Zm-2.43.25V3.21a1.15,1.15,0,0,1-.61-1,1.23,1.23,0,0,1,2.46,0,1.11,1.11,0,0,1-.22.66A0.57,0.57,0,0,1,95,3L95.3,3.13a1.65,1.65,0,0,0,.28-0.92,1.83,1.83,0,0,0-3.66,0A1.74,1.74,0,0,0,93.13,3.83Zm3.59,1.93L96.48,6h1V5Z"/><path class="cls-2" d="M95.56,13.58h0l-0.86-.47A0.41,0.41,0,0,0,94.46,13a0.41,0.41,0,0,0-.31.14v-1a0.4,0.4,0,0,0-.8,0v2L93.21,14a0.84,0.84,0,0,0-1-.11h0l0,0a0.13,0.13,0,0,0,0,.19l1.23,1.16h2.06a1.17,1.17,0,0,0,.27-0.75V13.91A0.37,0.37,0,0,0,95.56,13.58Zm-2.43.25V13.21a1.15,1.15,0,0,1-.61-1,1.23,1.23,0,0,1,2.46,0,1.11,1.11,0,0,1-.22.66A0.57,0.57,0,0,1,95,13l0.33,0.18a1.65,1.65,0,0,0,.28-0.92,1.83,1.83,0,0,0-3.66,0A1.74,1.74,0,0,0,93.13,13.83Zm3.59,1.93L96.48,16h1V15Z"/><path class="cls-3" d="M104.08,1h-2.16V2.4h0.48V1.68h1V4.56h-0.72V5h2.16V4.56h-0.72V1.68h1V2.4h0.48V1h-1.44Zm2.64,4.8L106.48,6h1V5Z"/><path class="cls-2" d="M104.08,11h-2.16V12.4h0.48V11.68h1v2.88h-0.72V15h2.16V14.56h-0.72V11.68h1V12.4h0.48V11h-1.44Zm2.64,4.8-0.24.24h1V15Z"/><path class="cls-3" d="M111.68,5.28H116V1h-4.32V5.28Zm0.48-3.84h3.36V4.8h-3.36V1.44Zm4.56,4.32L116.48,6h1V5Z"/><path class="cls-2" d="M111.68,15.28H116V11h-4.32v4.32Zm0.48-3.84h3.36V14.8h-3.36V11.44Zm4.56,4.32-0.24.24h1V15Z"/><path class="cls-4" d="M110.48,20h6.72a0.48,0.48,0,0,1,.48.48v5.28a0.48,0.48,0,0,1-.48.48h-6.72a0.48,0.48,0,0,1-.48-0.48V20.48A0.48,0.48,0,0,1,110.48,20Z"/><path class="cls-4" d="M100.48,20h6.72a0.48,0.48,0,0,1,.48.48v5.28a0.48,0.48,0,0,1-.48.48h-6.72a0.48,0.48,0,0,1-.48-0.48V20.48A0.48,0.48,0,0,1,100.48,20Z"/><path class="cls-4" d="M90.48,20H97.2a0.48,0.48,0,0,1,.48.48v5.28a0.48,0.48,0,0,1-.48.48H90.48A0.48,0.48,0,0,1,90,25.76V20.48A0.48,0.48,0,0,1,90.48,20Z"/><path class="cls-4" d="M80.48,20H87.2a0.48,0.48,0,0,1,.48.48v5.28a0.48,0.48,0,0,1-.48.48H80.48A0.48,0.48,0,0,1,80,25.76V20.48A0.48,0.48,0,0,1,80.48,20Z"/><path class="cls-4" d="M70.48,20H77.2a0.48,0.48,0,0,1,.48.48v5.28a0.48,0.48,0,0,1-.48.48H70.48A0.48,0.48,0,0,1,70,25.76V20.48A0.48,0.48,0,0,1,70.48,20Z"/><path class="cls-4" d="M60.48,20h4.8a0.48,0.48,0,0,1,.48.48v4.8a0.48,0.48,0,0,1-.48.48h-4.8A0.48,0.48,0,0,1,60,25.28v-4.8A0.48,0.48,0,0,1,60.48,20Z"/><path class="cls-4" d="M40.48,20h4.8a0.48,0.48,0,0,1,.48.48v4.8a0.48,0.48,0,0,1-.48.48h-4.8A0.48,0.48,0,0,1,40,25.28v-4.8A0.48,0.48,0,0,1,40.48,20Z"/><path class="cls-4" d="M10.48,20h4.8a0.48,0.48,0,0,1,.48.48v4.8a0.48,0.48,0,0,1-.48.48h-4.8A0.48,0.48,0,0,1,10,25.28v-4.8A0.48,0.48,0,0,1,10.48,20Z"/><path class="cls-2" d="M13.53,22.46h0.3A0.14,0.14,0,0,0,14,22.32V20.87a0.14,0.14,0,0,0-.14-0.14h-0.3a0.14,0.14,0,0,0-.14.14v1.45A0.14,0.14,0,0,0,13.53,22.46Zm1.15-1.74H14.44v1.74a0.25,0.25,0,0,1-.25.25H11.56a0.25,0.25,0,0,1-.25-0.25V20.72H11.08a0.36,0.36,0,0,0-.36.36v3.59a0.36,0.36,0,0,0,.36.36h3.6A0.36,0.36,0,0,0,15,24.68V21.08A0.36,0.36,0,0,0,14.68,20.72Zm-0.24,3.73a0.14,0.14,0,0,1-.14.14H11.45a0.14,0.14,0,0,1-.14-0.14V24.2a0.14,0.14,0,0,1,.14-0.14H14.3a0.14,0.14,0,0,1,.14.14v0.25Zm0-.91a0.14,0.14,0,0,1-.14.14H11.45a0.14,0.14,0,0,1-.14-0.14V23.3a0.14,0.14,0,0,1,.14-0.14H14.3a0.14,0.14,0,0,1,.14.14v0.25Z"/><path class="cls-2" d="M40.48,21.68H41.2V21.44H40.48v0.24Zm4.08-.24H41.44V25h0.24V24.32h2.4a0.48,0.48,0,0,0,.48-0.48V21.68h0.72V21.44H44.56Zm-2.88-1H41.44V21.2h0.24V20.48Z"/><path class="cls-2" d="M65,25l-0.48.48h1v-1Zm0-1.2V21.68a0.24,0.24,0,0,0-.24-0.24H64.32a0.24,0.24,0,0,0-.24.24v1H63.36V20.72a0.24,0.24,0,0,0-.24-0.24H62.64a0.24,0.24,0,0,0-.24.24v1.92H61.68v-1a0.24,0.24,0,0,0-.24-0.24H61a0.24,0.24,0,0,0-.24.24v2.16a0.24,0.24,0,0,0,.24.24h0.48a0.24,0.24,0,0,0,.24-0.24v-1H62.4v1.68a0.24,0.24,0,0,0,.24.24h0.48a0.24,0.24,0,0,0,.24-0.24V22.88h0.72v1a0.24,0.24,0,0,0,.24.24H64.8A0.24,0.24,0,0,0,65,23.84Z"/><path class="cls-2" d="M76.72,25.76L76.48,26h1V25Zm-5-.48H76V21H71.68v4.32ZM73,21.83a0.43,0.43,0,1,1-.43.43A0.43,0.43,0,0,1,73,21.83Zm0,1.73,0.65,1,1.51-2.27,0.38,0.62V24.8H72.16Z"/><path class="cls-2" d="M86.72,25.76L86.48,26h1V25ZM85.89,22.1l0.35-.35a2.86,2.86,0,0,0-1-1l-0.35.35,0.4,0.4h0l-0.09.09a2.12,2.12,0,1,0,.23.23l0.09-.09Zm-0.49,1.07a1.61,1.61,0,1,1-1.61-1.61A1.61,1.61,0,0,1,85.41,23.17ZM84.72,23H83.92V22.25a0.13,0.13,0,1,0-.25,0v1h1A0.13,0.13,0,0,0,84.72,23Z"/><path class="cls-2" d="M95.56,23.58h0l-0.86-.47A0.41,0.41,0,0,0,94.46,23a0.41,0.41,0,0,0-.31.14v-1a0.4,0.4,0,0,0-.8,0v2L93.21,24a0.84,0.84,0,0,0-1-.11h0l0,0a0.13,0.13,0,0,0,0,.19l1.23,1.16h2.06a1.17,1.17,0,0,0,.27-0.75V23.91A0.37,0.37,0,0,0,95.56,23.58Zm-2.43.25V23.21a1.15,1.15,0,0,1-.61-1,1.23,1.23,0,0,1,2.46,0,1.11,1.11,0,0,1-.22.66A0.57,0.57,0,0,1,95,23l0.33,0.18a1.65,1.65,0,0,0,.28-0.92,1.83,1.83,0,0,0-3.66,0A1.74,1.74,0,0,0,93.13,23.83Zm3.59,1.93L96.48,26h1V25Z"/><path class="cls-2" d="M104.08,21h-2.16V22.4h0.48V21.68h1v2.88h-0.72V25h2.16V24.56h-0.72V21.68h1V22.4h0.48V21h-1.44Zm2.64,4.8-0.24.24h1V25Z"/><path class="cls-2" d="M111.68,25.28H116V21h-4.32v4.32Zm0.48-3.84h3.36V24.8h-3.36V21.44Zm4.56,4.32-0.24.24h1V25Z"/><path class="cls-5" d="M201.44,10.52a0.65,0.65,0,0,1,.65.65,0.63,0.63,0,0,1,0,.24l0.38,0.38a1.54,1.54,0,0,0,.45-0.62,1.55,1.55,0,0,0-1.44-1,1.53,1.53,0,0,0-.52.09l0.28,0.28A0.64,0.64,0,0,1,201.44,10.52Zm-1.31-.36,0.3,0.3,0.06,0.06a1.54,1.54,0,0,0-.49.65,1.55,1.55,0,0,0,2,.87l0.06,0.05,0.38,0.38,0.17-.17L200.3,10Zm0.72,0.72,0.2,0.2a0.37,0.37,0,0,0,0,.08,0.39,0.39,0,0,0,.39.39h0.09l0.2,0.2A0.65,0.65,0,0,1,200.86,10.89Zm0.56-.1,0.41,0.41v0a0.39,0.39,0,0,0-.39-0.39h0Z"/><path class="cls-6" d="M2.88,0A2.88,2.88,0,1,0,5.76,2.88,2.88,2.88,0,0,0,2.88,0ZM3.39,4.51a2.93,2.93,0,0,1-.32.41,0.85,0.85,0,0,1-.7.3,0.5,0.5,0,0,1-.52-0.55A2.13,2.13,0,0,1,2,4.08l0.5-1.29a0.93,0.93,0,0,0,.08-0.24,0.11,0.11,0,0,0,0-.08,0.09,0.09,0,0,0-.06,0,0.45,0.45,0,0,0-.27.15A1.7,1.7,0,0,0,2,2.84a0.12,0.12,0,0,1-.13.07s0-.06,0-0.16a2,2,0,0,1,.42-0.54A0.86,0.86,0,0,1,2.92,2a0.55,0.55,0,0,1,.35.14,0.4,0.4,0,0,1,.12.33,1.35,1.35,0,0,1-.1.42L2.69,4.41a0.88,0.88,0,0,0-.07.26,0.15,0.15,0,0,0,0,.09,0.09,0.09,0,0,0,.06,0,0.29,0.29,0,0,0,.21-0.11,1.89,1.89,0,0,0,.25-0.35,0.13,0.13,0,0,1,.12-0.07A0.15,0.15,0,0,1,3.39,4.51ZM3.65,1.4A0.48,0.48,0,0,1,3,1.4a0.48,0.48,0,0,1-.14-0.34A0.49,0.49,0,0,1,3.56.64a0.49,0.49,0,0,1,.17.17,0.47,0.47,0,0,1,.06.24A0.47,0.47,0,0,1,3.65,1.4Z"/><path class="cls-7" d="M2.88,10a2.88,2.88,0,1,0,2.88,2.88A2.88,2.88,0,0,0,2.88,10Zm0.51,4.51a2.93,2.93,0,0,1-.32.41,0.85,0.85,0,0,1-.7.3,0.5,0.5,0,0,1-.52-0.55A2.13,2.13,0,0,1,2,14.08l0.5-1.29a0.93,0.93,0,0,0,.08-0.24,0.11,0.11,0,0,0,0-.08,0.09,0.09,0,0,0-.06,0,0.45,0.45,0,0,0-.27.15,1.7,1.7,0,0,0-.24.25,0.12,0.12,0,0,1-.13.07s0-.06,0-0.16a2,2,0,0,1,.42-0.54A0.86,0.86,0,0,1,2.92,12a0.55,0.55,0,0,1,.35.14,0.4,0.4,0,0,1,.12.33,1.35,1.35,0,0,1-.1.42L2.69,14.41a0.88,0.88,0,0,0-.07.26,0.15,0.15,0,0,0,0,.09,0.09,0.09,0,0,0,.06,0,0.29,0.29,0,0,0,.21-0.11,1.89,1.89,0,0,0,.25-0.35,0.13,0.13,0,0,1,.12-0.07A0.15,0.15,0,0,1,3.39,14.51ZM3.65,11.4a0.48,0.48,0,0,1-.69,0,0.48,0.48,0,0,1-.14-0.34,0.49,0.49,0,0,1,.73-0.42,0.49,0.49,0,0,1,.17.17A0.49,0.49,0,0,1,3.65,11.4Z"/><path class="cls-1" d="M150.48,10h4.8a0.48,0.48,0,0,1,.48.48v4.8a0.48,0.48,0,0,1-.48.48h-4.8a0.48,0.48,0,0,1-.48-0.48v-4.8A0.48,0.48,0,0,1,150.48,10Z"/><path class="cls-1" d="M50.48,10h4.8a0.48,0.48,0,0,1,.48.48v4.8a0.48,0.48,0,0,1-.48.48h-4.8A0.48,0.48,0,0,1,50,15.28v-4.8A0.48,0.48,0,0,1,50.48,10Z"/><path class="cls-2" d="M132.23,0V0.57h0.52v1.1h0.56V1.1h0.52V0h-1.61Zm1.09,2.2h0.52V1.67h-0.52V2.2Zm0,1.11h-1.09V3.84h1.61V2.78h-0.52V3.31Zm-0.56-1.64h-0.52V2.78h0.52V1.67Zm-1.66,1.11V2.25H130V2.78h0.65V3.31H130V3.84h1.59V3.31h0.65V2.78h-1.14ZM131.86,0H130V1.88h1.86V0ZM131.4,1.42h-0.94v-1h0.94v1Zm-0.19-.77h-0.57V1.23h0.57V0.65Z"/><polygon class="cls-2" points="140 1.78 140.61 2.24 143.31 0.77 141.28 2.81 141.28 4.08 142.04 3.31 143.06 4.08 144.08 0 140 1.78"/><path class="cls-3" d="M23.53,2.46h0.3A0.14,0.14,0,0,0,24,2.32V0.87A0.14,0.14,0,0,0,23.84.72h-0.3a0.14,0.14,0,0,0-.14.14V2.32A0.14,0.14,0,0,0,23.53,2.46Zm1.15-1.74H24.44V2.46a0.25,0.25,0,0,1-.25.25H21.56a0.25,0.25,0,0,1-.25-0.25V0.72H21.08a0.36,0.36,0,0,0-.36.36V4.68a0.36,0.36,0,0,0,.36.36h3.6A0.36,0.36,0,0,0,25,4.68V1.08A0.36,0.36,0,0,0,24.68.72ZM23.43,4.6V4.21H21.31V3.48h2.12V3.09l1,0.76Z"/><path class="cls-1" d="M20.48,10h4.8a0.48,0.48,0,0,1,.48.48v4.8a0.48,0.48,0,0,1-.48.48h-4.8A0.48,0.48,0,0,1,20,15.28v-4.8A0.48,0.48,0,0,1,20.48,10Z"/><path class="cls-2" d="M23.53,12.46h0.3A0.14,0.14,0,0,0,24,12.32V10.87a0.14,0.14,0,0,0-.14-0.14h-0.3a0.14,0.14,0,0,0-.14.14v1.45A0.14,0.14,0,0,0,23.53,12.46Zm1.15-1.74H24.44v1.74a0.25,0.25,0,0,1-.25.25H21.56a0.25,0.25,0,0,1-.25-0.25V10.72H21.08a0.36,0.36,0,0,0-.36.36v3.59a0.36,0.36,0,0,0,.36.36h3.6A0.36,0.36,0,0,0,25,14.68V11.08A0.36,0.36,0,0,0,24.68,10.72ZM23.43,14.6V14.21H21.31V13.48h2.12V13.09l1,0.76Z"/><path class="cls-3" d="M33,0.72H33a2.11,2.11,0,0,0-2.06,2.16H30.24l0.89,0.93,0,0,0.92-1H31.38A1.64,1.64,0,0,1,33,1.2h0a1.66,1.66,0,0,1,1.58,1.66A1.64,1.64,0,0,1,33,4.56a1.54,1.54,0,0,1-1.05-.42,0.11,0.11,0,0,0-.08,0,0.1,0.1,0,0,0-.08,0l-0.17.18a0.12,0.12,0,0,0,0,.17A2,2,0,0,0,33,5,2.11,2.11,0,0,0,35,2.82,2.13,2.13,0,0,0,33,.72Zm0,1.2H32.81a0.06,0.06,0,0,0-.06.06V3.12l0.52,0.32L33.68,3.7a0.06,0.06,0,0,0,.08,0l0.1-.18a0.06,0.06,0,0,0,0-.09L33.1,2.94V2A0.06,0.06,0,0,0,33,1.92Z"/><path class="cls-1" d="M30.48,10h4.8a0.48,0.48,0,0,1,.48.48v4.8a0.48,0.48,0,0,1-.48.48h-4.8A0.48,0.48,0,0,1,30,15.28v-4.8A0.48,0.48,0,0,1,30.48,10Z"/><path class="cls-2" d="M33,10.72H33a2.11,2.11,0,0,0-2.06,2.16H30.24l0.89,0.93,0,0,0.92-1H31.38A1.64,1.64,0,0,1,33,11.2h0a1.66,1.66,0,0,1,1.58,1.66,1.64,1.64,0,0,1-1.6,1.7,1.54,1.54,0,0,1-1.05-.42,0.11,0.11,0,0,0-.08,0,0.1,0.1,0,0,0-.08,0l-0.17.18a0.12,0.12,0,0,0,0,.17A2,2,0,0,0,33,15,2.16,2.16,0,0,0,33,10.72Zm0,1.2H32.81a0.06,0.06,0,0,0-.06.06v1.14l0.52,0.32,0.41,0.26a0.06,0.06,0,0,0,.08,0l0.1-.18a0.06,0.06,0,0,0,0-.09l-0.75-.47V12A0.06,0.06,0,0,0,33,11.92Z"/><path class="cls-3" d="M55,5l-0.48.48h1v-1ZM52.4,3.6l-1,.72L52.4,5V4.56h1.92V4.08H52.4V3.6Zm-0.72-.48H54.8A0.24,0.24,0,0,0,55,2.88V2.4a0.24,0.24,0,0,0-.24-0.24H51.68a0.24,0.24,0,0,0-.24.24V2.88A0.24,0.24,0,0,0,51.68,3.12Zm0-1.44H53.6a0.24,0.24,0,0,0,.24-0.24V1A0.24,0.24,0,0,0,53.6.72H51.68a0.24,0.24,0,0,0-.24.24V1.44A0.24,0.24,0,0,0,51.68,1.68ZM51,5.28H51.2V0.48H51v4.8Z"/><path class="cls-2" d="M55,15l-0.48.48h1v-1ZM52.4,13.6l-1,.72,1,0.72V14.56h1.92V14.08H52.4V13.6Zm-0.72-.48H54.8A0.24,0.24,0,0,0,55,12.88V12.4a0.24,0.24,0,0,0-.24-0.24H51.68a0.24,0.24,0,0,0-.24.24v0.48A0.24,0.24,0,0,0,51.68,13.12Zm0-1.44H53.6a0.24,0.24,0,0,0,.24-0.24V11a0.24,0.24,0,0,0-.24-0.24H51.68a0.24,0.24,0,0,0-.24.24v0.48A0.24,0.24,0,0,0,51.68,11.68ZM51,15.28H51.2v-4.8H51v4.8Z"/><path class="cls-3" d="M153.22,2.18V1.53A0.33,0.33,0,0,0,153,1.24a0.36,0.36,0,0,0-.35,0l-2.06,1.31a0.32,0.32,0,0,0,0,.54l2.06,1.31a0.36,0.36,0,0,0,.35,0,0.33,0.33,0,0,0,.18-0.29V3.49a2.05,2.05,0,0,1,1.94,1.31,1.88,1.88,0,0,0,.12-0.65A2,2,0,0,0,153.22,2.18Z"/><path class="cls-2" d="M153.22,12.18V11.53a0.33,0.33,0,0,0-.18-0.29,0.36,0.36,0,0,0-.35,0l-2.06,1.31a0.32,0.32,0,0,0,0,.54l2.06,1.31a0.36,0.36,0,0,0,.35,0,0.33,0.33,0,0,0,.18-0.29V13.49a2.05,2.05,0,0,1,1.94,1.31,1.88,1.88,0,0,0,.12-0.65A2,2,0,0,0,153.22,12.18Z"/><path class="cls-3" d="M165.13,2.56l-2.06-1.31a0.36,0.36,0,0,0-.35,0,0.33,0.33,0,0,0-.18.29V2.18a2,2,0,0,0-2.06,2,1.87,1.87,0,0,0,.12.65,2.05,2.05,0,0,1,1.94-1.31V4.15a0.33,0.33,0,0,0,.18.29,0.36,0.36,0,0,0,.35,0l2.06-1.31A0.32,0.32,0,0,0,165.13,2.56Z"/><rect class="cls-8" x="160" y="10" width="5.76" height="5.76" rx="0.48" ry="0.48"/><path class="cls-2" d="M160.6,14.8a2.05,2.05,0,0,1,1.94-1.31v0.65a0.33,0.33,0,0,0,.18.29,0.36,0.36,0,0,0,.35,0l2.06-1.31a0.32,0.32,0,0,0,0-.54l-2.06-1.31a0.36,0.36,0,0,0-.35,0,0.33,0.33,0,0,0-.18.29v0.65a2,2,0,0,0-2.06,2A1.87,1.87,0,0,0,160.6,14.8Z"/><path class="cls-3" d="M175.76,2.23l-1.92-1-1.92,1V2.64h3.84V2.23Zm-0.48,2.33V3.12H174.8V4.56h0.48Zm-2.4,0V3.12H172.4V4.56h0.48Zm1.2,0V3.12H173.6V4.56h0.48ZM171.92,5V5.52h3.84V5h-3.84Z"/><rect class="cls-8" x="170" y="10" width="7.2" height="7.2" rx="0.48" ry="0.48"/><path class="cls-9" d="M172.4,13.12v1.44h0.48V13.12H172.4Zm1.2,0v1.44h0.48V13.12H173.6Zm-1.68,2.4h3.84V15h-3.84v0.48Zm2.88-2.4v1.44h0.48V13.12H174.8Zm-1-1.92-1.92,1v0.41h3.84V12.23Z"/><path class="cls-4" d="M150.48,20h4.8a0.48,0.48,0,0,1,.48.48v4.8a0.48,0.48,0,0,1-.48.48h-4.8a0.48,0.48,0,0,1-.48-0.48v-4.8A0.48,0.48,0,0,1,150.48,20Z"/><path class="cls-4" d="M50.48,20h4.8a0.48,0.48,0,0,1,.48.48v4.8a0.48,0.48,0,0,1-.48.48h-4.8A0.48,0.48,0,0,1,50,25.28v-4.8A0.48,0.48,0,0,1,50.48,20Z"/><path class="cls-4" d="M20.48,20h4.8a0.48,0.48,0,0,1,.48.48v4.8a0.48,0.48,0,0,1-.48.48h-4.8A0.48,0.48,0,0,1,20,25.28v-4.8A0.48,0.48,0,0,1,20.48,20Z"/><path class="cls-2" d="M23.53,22.46h0.3A0.14,0.14,0,0,0,24,22.32V20.87a0.14,0.14,0,0,0-.14-0.14h-0.3a0.14,0.14,0,0,0-.14.14v1.45A0.14,0.14,0,0,0,23.53,22.46Zm1.15-1.74H24.44v1.74a0.25,0.25,0,0,1-.25.25H21.56a0.25,0.25,0,0,1-.25-0.25V20.72H21.08a0.36,0.36,0,0,0-.36.36v3.59a0.36,0.36,0,0,0,.36.36h3.6A0.36,0.36,0,0,0,25,24.68V21.08A0.36,0.36,0,0,0,24.68,20.72ZM23.43,24.6V24.21H21.31V23.48h2.12V23.09l1,0.76Z"/><path class="cls-4" d="M30.48,20h4.8a0.48,0.48,0,0,1,.48.48v4.8a0.48,0.48,0,0,1-.48.48h-4.8A0.48,0.48,0,0,1,30,25.28v-4.8A0.48,0.48,0,0,1,30.48,20Z"/><path class="cls-2" d="M33,20.72H33a2.11,2.11,0,0,0-2.06,2.16H30.24l0.89,0.93,0,0,0.92-1H31.38A1.64,1.64,0,0,1,33,21.2h0a1.66,1.66,0,0,1,1.58,1.66,1.64,1.64,0,0,1-1.6,1.7,1.54,1.54,0,0,1-1.05-.42,0.11,0.11,0,0,0-.08,0,0.1,0.1,0,0,0-.08,0l-0.17.18a0.12,0.12,0,0,0,0,.17A2,2,0,0,0,33,25,2.16,2.16,0,0,0,33,20.72Zm0,1.2H32.81a0.06,0.06,0,0,0-.06.06v1.14l0.52,0.32,0.41,0.26a0.06,0.06,0,0,0,.08,0l0.1-.18a0.06,0.06,0,0,0,0-.09l-0.75-.47V22A0.06,0.06,0,0,0,33,21.92Z"/><path class="cls-2" d="M55,25l-0.48.48h1v-1ZM52.4,23.6l-1,.72,1,0.72V24.56h1.92V24.08H52.4V23.6Zm-0.72-.48H54.8A0.24,0.24,0,0,0,55,22.88V22.4a0.24,0.24,0,0,0-.24-0.24H51.68a0.24,0.24,0,0,0-.24.24v0.48A0.24,0.24,0,0,0,51.68,23.12Zm0-1.44H53.6a0.24,0.24,0,0,0,.24-0.24V21a0.24,0.24,0,0,0-.24-0.24H51.68a0.24,0.24,0,0,0-.24.24v0.48A0.24,0.24,0,0,0,51.68,21.68ZM51,25.28H51.2v-4.8H51v4.8Z"/><path class="cls-2" d="M153.22,22.18V21.53a0.33,0.33,0,0,0-.18-0.29,0.36,0.36,0,0,0-.35,0l-2.06,1.31a0.32,0.32,0,0,0,0,.54l2.06,1.31a0.36,0.36,0,0,0,.35,0,0.33,0.33,0,0,0,.18-0.29V23.49a2.05,2.05,0,0,1,1.94,1.31,1.88,1.88,0,0,0,.12-0.65A2,2,0,0,0,153.22,22.18Z"/><rect class="cls-10" x="160" y="20" width="5.76" height="5.76" rx="0.48" ry="0.48"/><path class="cls-2" d="M160.6,24.8a2.05,2.05,0,0,1,1.94-1.31v0.65a0.33,0.33,0,0,0,.18.29,0.36,0.36,0,0,0,.35,0l2.06-1.31a0.32,0.32,0,0,0,0-.54l-2.06-1.31a0.36,0.36,0,0,0-.35,0,0.33,0.33,0,0,0-.18.29v0.65a2,2,0,0,0-2.06,2A1.87,1.87,0,0,0,160.6,24.8Z"/><rect class="cls-10" x="170" y="20" width="7.2" height="7.2" rx="0.48" ry="0.48"/><path class="cls-9" d="M172.4,23.12v1.44h0.48V23.12H172.4Zm1.2,0v1.44h0.48V23.12H173.6Zm-1.68,2.4h3.84V25h-3.84v0.48Zm2.88-2.4v1.44h0.48V23.12H174.8Zm-1-1.92-1.92,1v0.41h3.84V22.23Z"/><path class="cls-11" d="M180.6,0.24h2.16a0.12,0.12,0,0,0,0-.24H180.6A0.12,0.12,0,0,0,180.6.24Zm-0.24.48H183a0.12,0.12,0,0,0,0-.24h-2.64A0.12,0.12,0,1,0,180.36.72ZM183.12,1h-2.88a0.24,0.24,0,0,0-.24.24V3.12a0.24,0.24,0,0,0,.24.24h2.88a0.24,0.24,0,0,0,.24-0.24V1.2A0.24,0.24,0,0,0,183.12,1ZM182.4,3a0.08,0.08,0,0,1-.08.09H182A0.08,0.08,0,0,1,181.92,3V2.59a0.08,0.08,0,0,0-.08-0.09h-0.32a0.08,0.08,0,0,0-.08.09V3a0.08,0.08,0,0,1-.08.09H181A0.08,0.08,0,0,1,181,3V1.9a0.1,0.1,0,0,1,0-.06l0.64-.62a0.08,0.08,0,0,1,.11,0l0.64,0.62a0.09,0.09,0,0,1,0,.07V3Z"/><path class="cls-3" d="M192.92,0h-2.47a0.43,0.43,0,0,0-.44.41V2.28a0.43,0.43,0,0,0,.44.41h0.43s-0.28.66-.28,0.66l1-.66h1.35a0.43,0.43,0,0,0,.44-0.41V0.41A0.43,0.43,0,0,0,192.92,0Zm-1,2.4h-0.48V1h0.48V2.4Zm0-1.68h-0.48V0.24h0.48V0.72Z"/><path class="cls-9" d="M180.6,10.24h2.16a0.12,0.12,0,0,0,0-.24H180.6A0.12,0.12,0,0,0,180.6,10.24Zm-0.24.48H183a0.12,0.12,0,0,0,0-.24h-2.64A0.12,0.12,0,1,0,180.36,10.72ZM183.12,11h-2.88a0.24,0.24,0,0,0-.24.24v1.92a0.24,0.24,0,0,0,.24.24h2.88a0.24,0.24,0,0,0,.24-0.24V11.2A0.24,0.24,0,0,0,183.12,11ZM182.4,13a0.08,0.08,0,0,1-.08.09H182a0.08,0.08,0,0,1-.08-0.09V12.59a0.08,0.08,0,0,0-.08-0.09h-0.32a0.08,0.08,0,0,0-.08.09V13a0.08,0.08,0,0,1-.08.09H181A0.08,0.08,0,0,1,181,13V11.9a0.1,0.1,0,0,1,0-.06l0.64-.62a0.08,0.08,0,0,1,.11,0l0.64,0.62a0.09,0.09,0,0,1,0,.07V13Z"/><path class="cls-2" d="M192.92,10h-2.47a0.43,0.43,0,0,0-.44.41v1.87a0.43,0.43,0,0,0,.44.41h0.43s-0.28.66-.28,0.66l1-.66h1.35a0.43,0.43,0,0,0,.44-0.41V10.41A0.43,0.43,0,0,0,192.92,10Zm-1,2.4h-0.48V11h0.48V12.4Zm0-1.68h-0.48V10.24h0.48v0.48Z"/><path class="cls-9" d="M180.6,20.24h2.16a0.12,0.12,0,0,0,0-.24H180.6A0.12,0.12,0,0,0,180.6,20.24Zm-0.24.48H183a0.12,0.12,0,0,0,0-.24h-2.64A0.12,0.12,0,1,0,180.36,20.72ZM183.12,21h-2.88a0.24,0.24,0,0,0-.24.24v1.92a0.24,0.24,0,0,0,.24.24h2.88a0.24,0.24,0,0,0,.24-0.24V21.2A0.24,0.24,0,0,0,183.12,21ZM182.4,23a0.08,0.08,0,0,1-.08.09H182a0.08,0.08,0,0,1-.08-0.09V22.59a0.08,0.08,0,0,0-.08-0.09h-0.32a0.08,0.08,0,0,0-.08.09V23a0.08,0.08,0,0,1-.08.09H181A0.08,0.08,0,0,1,181,23V21.9a0.1,0.1,0,0,1,0-.06l0.64-.62a0.08,0.08,0,0,1,.11,0l0.64,0.62a0.09,0.09,0,0,1,0,.07V23Z"/><path class="cls-12" d="M192.92,20h-2.47a0.43,0.43,0,0,0-.44.41v1.87a0.43,0.43,0,0,0,.44.41h0.43s-0.28.66-.28,0.66l1-.66h1.35a0.43,0.43,0,0,0,.44-0.41V20.41A0.43,0.43,0,0,0,192.92,20Zm-1,2.4h-0.48V21h0.48V22.4Zm0-1.68h-0.48V20.24h0.48v0.48Z"/><path class="cls-13" d="M123.65,11.84l-3.09-1.79a0.38,0.38,0,0,0-.57.33v3.57a0.38,0.38,0,0,0,.57.33l3.09-1.79A0.38,0.38,0,0,0,123.65,11.84Z"/><path class="cls-13" d="M132.23,10v0.57h0.52v1.1h0.56V11.1h0.52V10h-1.61Zm1.09,2.2h0.52V11.67h-0.52V12.2Zm0,1.11h-1.09v0.53h1.61V12.78h-0.52v0.53Zm-0.56-1.64h-0.52v1.11h0.52V11.67Zm-1.66,1.11V12.25H130v0.53h0.65v0.53H130v0.53h1.59V13.31h0.65V12.78h-1.14ZM131.86,10H130v1.88h1.86V10Zm-0.46,1.42h-0.94v-1h0.94v1Zm-0.19-.77h-0.57v0.58h0.57V10.65Z"/><polygon class="cls-13" points="140 11.79 140.61 12.24 143.31 10.77 141.28 12.8 141.28 14.08 142.04 13.31 143.06 14.08 144.08 10 140 11.79"/><path class="cls-12" d="M123.65,21.84l-3.09-1.79a0.38,0.38,0,0,0-.57.33v3.57a0.38,0.38,0,0,0,.57.33l3.09-1.79A0.38,0.38,0,0,0,123.65,21.84Z"/><path class="cls-12" d="M132.23,20v0.57h0.52v1.1h0.56V21.1h0.52V20h-1.61Zm1.09,2.2h0.52V21.67h-0.52V22.2Zm0,1.11h-1.09v0.53h1.61V22.78h-0.52v0.53Zm-0.56-1.64h-0.52v1.11h0.52V21.67Zm-1.66,1.11V22.25H130v0.53h0.65v0.53H130v0.53h1.59V23.31h0.65V22.78h-1.14ZM131.86,20H130v1.88h1.86V20Zm-0.46,1.42h-0.94v-1h0.94v1Zm-0.19-.77h-0.57v0.58h0.57V20.65Z"/><polygon class="cls-12" points="140 21.79 140.61 22.24 143.31 20.77 141.28 22.8 141.28 24.08 142.04 23.32 143.06 24.08 144.08 20 140 21.79"/><path class="cls-9" d="M201.44,0A1.56,1.56,0,0,0,200,1.08a1.5,1.5,0,0,0,2.88,0A1.56,1.56,0,0,0,201.44,0Zm0,1.8a0.69,0.69,0,0,1-.65-0.72,0.66,0.66,0,1,1,1.31,0A0.69,0.69,0,0,1,201.44,1.8Zm0-1.15a0.41,0.41,0,0,0-.39.43,0.39,0.39,0,1,0,.79,0A0.41,0.41,0,0,0,201.44.65Z"/><path class="cls-3" d="M215.42,3.49l-0.57,0a0.11,0.11,0,0,1-.06-0.06c0-.09-0.07-0.18-0.11-0.27a1.12,1.12,0,0,0-.13-0.27C214.3,2.57,214,2.29,213.8,2a0.18,0.18,0,0,0-.12-0.06l-0.87,0a0.14,0.14,0,0,0-.16.14s0,0,0,0h0a0.15,0.15,0,0,0,.17.14l0.69,0a0.09,0.09,0,0,1,.06,0l0.19,0.25-0.05,0,0,0,0,0-0.45.4,0,0-0.31.28a0.31,0.31,0,0,0-.11.18v0a0.29,0.29,0,0,0,0,0l-0.55.44,0,0,0,0-0.54.43,0,0-0.14.11a0.21,0.21,0,0,0-.1.21,0.21,0.21,0,0,0,.35.12l0.6-.44,0,0,0.59-.43,0,0,0.05,0,0,0,0,0,0.29,0.32,0.09,0.1h0l-0.09,0-0.7.19a0.22,0.22,0,0,0-.17.14,0.21,0.21,0,0,0,.27.26L214,4.92a0.25,0.25,0,0,0,.21-0.2,0.24,0.24,0,0,0-.06-0.2l-0.44-.58-0.11-.14,0.71-.5,0.21,0.41a0.18,0.18,0,0,0,.19.11h0.42l0.35,0a0.14,0.14,0,0,0,.13-0.16A0.15,0.15,0,0,0,215.42,3.49Zm-0.59-.76a0.41,0.41,0,1,0-.42-0.41A0.41,0.41,0,0,0,214.82,2.73Z"/><rect class="cls-8" x="210" y="10" width="7.2" height="7.2" rx="0.48" ry="0.48"/><path class="cls-9" d="M212.92,14.12l0,0,0.05,0,0,0,0,0,0.29,0.32,0.09,0.1h0l-0.09,0-0.7.19a0.22,0.22,0,0,0-.17.14,0.21,0.21,0,0,0,.27.26l1.23-.25a0.25,0.25,0,0,0,.21-0.2,0.24,0.24,0,0,0-.06-0.2l-0.44-.58-0.11-.14,0.71-.5,0.21,0.41a0.18,0.18,0,0,0,.19.11h0.42l0.35,0a0.14,0.14,0,0,0,.13-0.16,0.15,0.15,0,0,0-.16-0.14l-0.57,0a0.11,0.11,0,0,1-.06-0.06c0-.09-0.07-0.18-0.11-0.27a1.12,1.12,0,0,0-.13-0.27c-0.24-.29-0.49-0.57-0.74-0.86a0.18,0.18,0,0,0-.12-0.06l-0.87,0a0.14,0.14,0,0,0-.16.14s0,0,0,0h0a0.15,0.15,0,0,0,.17.14l0.69,0a0.09,0.09,0,0,1,.06,0l0.19,0.25-0.05,0,0,0,0,0-0.45.4,0,0-0.31.28a0.31,0.31,0,0,0-.11.18v0a0.29,0.29,0,0,0,0,0l-0.55.44,0,0,0,0"/><path class="cls-9" d="M212.14,14.12l-0.54.43,0,0h0.72l0,0,0.59-.43"/><path class="cls-9" d="M211.57,14.58l-0.14.11a0.21,0.21,0,0,0-.1.21,0.21,0.21,0,0,0,.35.12l0.6-.44"/><ellipse class="cls-9" cx="214.82" cy="12.32" rx="0.41" ry="0.42" transform="matrix(0, -1, 1, 0, 202.21, 227.13)"/><rect class="cls-10" x="210" y="20" width="7.2" height="7.2" rx="0.48" ry="0.48"/><path class="cls-9" d="M212.92,24.12l0,0,0.05,0,0,0,0,0,0.29,0.32,0.09,0.1h0l-0.09,0-0.7.19a0.22,0.22,0,0,0-.17.14,0.21,0.21,0,0,0,.27.26l1.23-.25a0.25,0.25,0,0,0,.21-0.2,0.24,0.24,0,0,0-.06-0.2l-0.44-.58-0.11-.14,0.71-.5,0.21,0.41a0.18,0.18,0,0,0,.19.11h0.42l0.35,0a0.14,0.14,0,0,0,.13-0.16,0.15,0.15,0,0,0-.16-0.14l-0.57,0a0.11,0.11,0,0,1-.06-0.06c0-.09-0.07-0.18-0.11-0.27a1.12,1.12,0,0,0-.13-0.27c-0.24-.29-0.49-0.57-0.74-0.86a0.18,0.18,0,0,0-.12-0.06l-0.87,0a0.14,0.14,0,0,0-.16.14s0,0,0,0h0a0.15,0.15,0,0,0,.17.14l0.69,0a0.09,0.09,0,0,1,.06,0l0.19,0.25-0.05,0,0,0,0,0-0.45.4,0,0-0.31.28a0.31,0.31,0,0,0-.11.18v0a0.29,0.29,0,0,0,0,0l-0.55.44,0,0,0,0"/><path class="cls-9" d="M212.14,24.12l-0.54.43,0,0h0.72l0,0,0.59-.43"/><path class="cls-9" d="M211.57,24.58l-0.14.11a0.21,0.21,0,0,0-.1.21,0.21,0.21,0,0,0,.35.12l0.6-.44"/><ellipse class="cls-9" cx="214.82" cy="22.32" rx="0.41" ry="0.42" transform="matrix(0, -1, 1, 0, 192.21, 237.12)"/><path class="cls-3" d="M223,2.65L223.27,3a0.08,0.08,0,0,0,.07,0h0A0.08,0.08,0,0,0,223.41,3l0.15-.43L224,2.47a0.08,0.08,0,0,0,0-.14L223.66,2l0-.45a0.08,0.08,0,0,0-.13-0.07l-0.37.26-0.43-.16a0.08,0.08,0,0,0-.11.1l0.13,0.44-0.28.36a0.08,0.08,0,0,0,.06.13H223Zm-0.57,1a0.08,0.08,0,0,0,.11-0.1l-0.08-.27L222.64,3a0.08,0.08,0,0,0-.06-0.13H222.3l-0.16-.24a0.08,0.08,0,0,0-.14,0l-0.09.27L221.63,3a0.08,0.08,0,0,0,0,.14l0.23,0.17V3.62a0.08,0.08,0,0,0,0,.07h0.09l0.23-.16Zm1.71-.75-1.37,1.36,0.81,0.81,0.24-.24h0l1.38-1.38-0.81-.81Zm1.64-.14h0l-0.7-.69h0L225,2a0.08,0.08,0,0,0-.06,0l-0.43.43,0.81,0.81,0.43-.43A0.08,0.08,0,0,0,225.79,2.74Zm-3.61,2.09a0.08,0.08,0,0,0,0,.12h0l0.7,0.69h0l0.06,0a0.08,0.08,0,0,0,.06,0l0.45-.44-0.81-.81Z"/><rect class="cls-8" x="220" y="10" width="7.2" height="7.2" rx="0.48" ry="0.48"/><path class="cls-9" d="M223.33,13.07a0.08,0.08,0,0,1-.07,0L223,12.65h-0.46a0.08,0.08,0,0,1-.06-0.13l0.28-.36-0.13-.44a0.08,0.08,0,0,1,.11-0.1l0.43,0.16,0.37-.26a0.08,0.08,0,0,1,.13.07l0,0.45L224,12.32a0.08,0.08,0,0,1,0,.14l-0.44.12-0.15.43a0.08,0.08,0,0,1-.07.05h0Z"/><path class="cls-9" d="M221.9,13.71h0a0.08,0.08,0,0,1,0-.07V13.34l-0.23-.17a0.08,0.08,0,0,1,0-.14l0.27-.08,0.09-.27a0.08,0.08,0,0,1,.14,0l0.16,0.24h0.28a0.08,0.08,0,0,1,.06.13l-0.18.22,0.08,0.27a0.08,0.08,0,0,1-.11.1l-0.27-.1-0.23.16h0Z"/><polygon class="cls-9" points="224.15 12.88 224.15 12.88 222.78 14.25 223.59 15.05 223.83 14.82 223.83 14.82 225.21 13.44 224.4 12.63 224.15 12.88"/><path class="cls-9" d="M225.82,12.8a0.08,0.08,0,0,0,0-.06h0l-0.7-.69h0L225,12a0.08,0.08,0,0,0-.06,0l-0.43.43,0.81,0.81,0.43-.43A0.08,0.08,0,0,0,225.82,12.8Z"/><path class="cls-9" d="M222.19,14.84a0.08,0.08,0,0,0,0,.12h0l0.7,0.69h0l0.06,0a0.08,0.08,0,0,0,.06,0l0.45-.44-0.81-.81Z"/><rect class="cls-10" x="220" y="20" width="7.2" height="7.2" rx="0.48" ry="0.48"/><path class="cls-9" d="M223.33,23.07a0.08,0.08,0,0,1-.07,0L223,22.65h-0.46a0.08,0.08,0,0,1-.06-0.13l0.28-.36-0.13-.44a0.08,0.08,0,0,1,.11-0.1l0.43,0.16,0.37-.26a0.08,0.08,0,0,1,.13.07l0,0.45L224,22.32a0.08,0.08,0,0,1,0,.14l-0.44.12-0.15.43a0.08,0.08,0,0,1-.07.05h0Z"/><path class="cls-9" d="M221.9,23.71h0a0.08,0.08,0,0,1,0-.07V23.34l-0.23-.17a0.08,0.08,0,0,1,0-.14l0.27-.08,0.09-.27a0.08,0.08,0,0,1,.14,0l0.16,0.24h0.28a0.08,0.08,0,0,1,.06.13l-0.18.22,0.08,0.27a0.08,0.08,0,0,1-.11.1l-0.27-.1-0.23.16h0Z"/><polygon class="cls-9" points="224.15 22.88 224.15 22.88 222.78 24.25 223.59 25.05 223.83 24.82 223.83 24.82 225.21 23.44 224.4 22.63 224.15 22.88"/><path class="cls-9" d="M225.82,22.8a0.08,0.08,0,0,0,0-.06h0l-0.7-.69h0L225,22a0.08,0.08,0,0,0-.06,0l-0.43.43,0.81,0.81,0.43-.43A0.08,0.08,0,0,0,225.82,22.8Z"/><path class="cls-9" d="M222.19,24.84a0.08,0.08,0,0,0,0,.12h0l0.7,0.69h0l0.06,0a0.08,0.08,0,0,0,.06,0l0.45-.44-0.81-.81Z"/></svg>