<?xml version="1.0" encoding="iso-8859-1"?>
<!-- Generator: Adobe Illustrator 16.0.0, SVG Export Plug-In . SVG Version: 6.00 Build 0)  -->
<!DOCTYPE svg PUBLIC "-//W3C//DTD SVG 1.1//EN" "http://www.w3.org/Graphics/SVG/1.1/DTD/svg11.dtd">
<svg version="1.1" id="Layer_1" xmlns="http://www.w3.org/2000/svg" xmlns:xlink="http://www.w3.org/1999/xlink" x="0px" y="0px"
	 width="31.93px" height="25.194px" viewBox="0 0 31.93 25.194" style="enable-background:new 0 0 31.93 25.194;"
	 xml:space="preserve">
<g>
	<path d="M29.232,20.137c-0.381-0.674-1.271-2.258-2.188-3.609c-0.236-0.347-0.469-0.668-0.693-0.974H11.921
		c-0.224,0.305-0.456,0.627-0.691,0.974c-0.919,1.351-1.809,2.935-2.188,3.609L8.94,20.318c-0.391,0.691-0.396,1.632-0.012,2.292
		c0.292,0.498,0.757,0.774,1.313,0.774h1.263h4.681h5.901h4.71h1.235c0.555,0,1.021-0.276,1.314-0.774
		c0.381-0.66,0.378-1.601-0.015-2.292L29.232,20.137z"/>
	<path d="M31.426,19.979l-0.173-0.304c-0.647-1.151-2.159-3.845-3.722-6.143c-0.523-0.77-1.051-1.49-1.528-2.141
		c-0.765-1.042-1.716-2.337-1.725-2.722c0.058-1.689,0.018-5.685,0.005-6.919h0.996V0H12.667v1.751h1.323
		c-0.016,1.234-0.054,5.229,0.005,6.917c-0.011,0.386-0.961,1.681-1.726,2.724c-0.478,0.651-1.005,1.371-1.528,2.141
		c-1.563,2.298-3.075,4.991-3.722,6.143l-0.173,0.304c-0.665,1.174-0.672,2.778-0.021,3.898c0.496,0.849,1.291,1.317,2.235,1.317
		h20.15h0.003c0.942,0,1.736-0.468,2.231-1.317C32.098,22.757,32.091,21.153,31.426,19.979z M30.194,23.147
		c-0.231,0.396-0.562,0.599-0.983,0.599H9.061c-0.419,0-0.751-0.202-0.981-0.599c-0.394-0.673-0.381-1.73,0.029-2.454l0.174-0.312
		c0.636-1.134,2.128-3.789,3.657-6.035c0.512-0.756,1.029-1.46,1.499-2.101c1.335-1.821,2.031-2.808,2.006-3.626
		c-0.053-1.503-0.026-4.999-0.009-6.508h7.402c0.015,1.51,0.045,5.005-0.008,6.508c-0.028,0.819,0.669,1.805,2.004,3.626
		c0.469,0.641,0.986,1.345,1.5,2.101c1.528,2.246,3.019,4.901,3.656,6.035l0.173,0.312C30.574,21.417,30.586,22.474,30.194,23.147z"
		/>
</g>
<g>
	<path d="M11.338,1.825V1.678H0v3.063h1.59v16.127c0,1.08,0.847,4.164,4.606,4.164c0.14,0,0.263-0.021,0.397-0.03
		c-0.442-0.222-0.819-0.574-1.099-1.052c-0.091-0.158-0.166-0.328-0.232-0.502c-2.119-0.479-2.191-2.557-2.191-2.581V4.742h5.735
		v9.776c0.199-0.307,0.4-0.613,0.604-0.911c0.295-0.434,0.59-0.848,0.878-1.247V4.742h1.592V1.825H11.338z"/>
	<path d="M4.305,20.959c0,0.189,0.115,0.878,0.72,1.27c-0.033-0.753,0.126-1.529,0.493-2.176l0.171-0.304
		c0.382-0.679,1.069-1.9,1.886-3.256c0-1.959,0-3.822,0-3.822h-3.27C4.305,12.671,4.305,20.691,4.305,20.959z"/>
</g>
<g>
</g>
<g>
</g>
<g>
</g>
<g>
</g>
<g>
</g>
<g>
</g>
<g>
</g>
<g>
</g>
<g>
</g>
<g>
</g>
<g>
</g>
<g>
</g>
<g>
</g>
<g>
</g>
<g>
</g>
</svg>
