<?xml version="1.0" encoding="iso-8859-1"?>
<!-- Generator: Adobe Illustrator 16.0.0, SVG Export Plug-In . SVG Version: 6.00 Build 0)  -->
<!DOCTYPE svg PUBLIC "-//W3C//DTD SVG 1.1//EN" "http://www.w3.org/Graphics/SVG/1.1/DTD/svg11.dtd">
<svg version="1.1" id="Layer_1" xmlns="http://www.w3.org/2000/svg" xmlns:xlink="http://www.w3.org/1999/xlink" x="0px" y="0px"
	 width="22.085px" height="30.526px" viewBox="0 0 22.085 30.526" style="enable-background:new 0 0 22.085 30.526;"
	 xml:space="preserve">
<path d="M22.085,30.526H0V0h22.085V30.526z M1.289,29.237h19.506V1.288H1.289V29.237z"/>
<rect x="4.353" y="15.653" width="14.025" height="1.318"/>
<rect x="4.353" y="18.718" width="14.025" height="1.317"/>
<rect x="4.353" y="21.778" width="14.025" height="1.32"/>
<rect x="4.353" y="24.6" width="14.025" height="1.319"/>
<path d="M12.994,2.639c-1.025,0-2.597,0.497-2.838,0.708C9.915,3.56,9.99,4.048,10.44,3.838c0.451-0.21,1.632-0.633,2.554-0.633
	c3.035,0,5.503,2.469,5.503,5.503s-2.468,4.938-5.503,4.938c-3.034,0-5.503-1.903-5.503-4.938c0-0.961,0.506-2.462,0.686-2.653
	c0.18-0.192-0.275-0.682-0.456-0.341C7.54,6.056,6.924,7.62,6.924,8.708c0,3.349,2.724,5.505,6.07,5.505
	c3.348,0,6.07-2.156,6.07-5.505C19.064,5.362,16.342,2.639,12.994,2.639z"/>
<g>
	<path d="M9.378,5.868h2.659c0.317,0,0.577,0.04,0.779,0.119c0.201,0.08,0.359,0.182,0.475,0.302
		c0.116,0.123,0.195,0.256,0.235,0.399c0.041,0.142,0.062,0.275,0.062,0.398c0,0.244-0.054,0.439-0.163,0.584
		c-0.108,0.146-0.253,0.268-0.436,0.367c0.11,0.036,0.216,0.086,0.316,0.149c0.102,0.063,0.191,0.145,0.269,0.241
		c0.077,0.098,0.14,0.214,0.187,0.351c0.048,0.135,0.071,0.293,0.071,0.468c0,0.246-0.048,0.46-0.146,0.645
		c-0.098,0.182-0.227,0.337-0.384,0.459c-0.16,0.121-0.342,0.215-0.544,0.278c-0.205,0.063-0.413,0.096-0.626,0.096H9.378V5.868z
		 M10.875,7.758h0.789c0.158,0,0.283-0.025,0.373-0.081c0.092-0.054,0.136-0.16,0.136-0.32c0-0.122-0.046-0.208-0.139-0.257
		c-0.093-0.05-0.217-0.076-0.37-0.076h-0.789V7.758z M10.875,9.568h0.877c0.076,0,0.15-0.007,0.221-0.021
		c0.07-0.013,0.133-0.036,0.188-0.071c0.054-0.034,0.097-0.08,0.129-0.139c0.031-0.06,0.047-0.137,0.047-0.232
		c0-0.294-0.174-0.44-0.522-0.44h-0.938V9.568z"/>
	<path d="M14.355,8.485h1.198V7.29h1.04v1.195h1.196v1.041h-1.196v1.198h-1.04V9.526h-1.198V8.485z"/>
</g>
<g>
</g>
<g>
</g>
<g>
</g>
<g>
</g>
<g>
</g>
<g>
</g>
<g>
</g>
<g>
</g>
<g>
</g>
<g>
</g>
<g>
</g>
<g>
</g>
<g>
</g>
<g>
</g>
<g>
</g>
</svg>
