<svg id="图层_1" data-name="图层 1" xmlns="http://www.w3.org/2000/svg" width="18" height="18" viewBox="0 0 18 18">
  <defs>
    <style>
      .cls-1 {
        fill: #fff;
      }
    </style>
  </defs>
  <title>0</title>
  <path class="cls-1" d="M15.25,0L5.2,3.6V7.24l10-3.6V0ZM12.38,10.82c-1.61,0-2.87.95-2.87,2.15s1.26,2.15,2.87,2.15,2.87-.95,2.87-2.15S14,10.82,12.38,10.82ZM3.76,13.69c-1.61,0-2.87.95-2.87,2.16S2.15,18,3.76,18s2.87-.94,2.87-2.15S5.37,13.69,3.76,13.69ZM15.25,0L5.2,3.6V15.85H6.63V4.65l7.18-2.46V13h1.44V0h0Z"/>
</svg>
