<svg id="图层_1" data-name="图层 1" xmlns="http://www.w3.org/2000/svg" width="18" height="18" viewBox="0 0 18 18">
  <defs>
    <style>
      .cls-1 {
        fill: #fff;
      }
    </style>
  </defs>
  <title>223</title>
  <path class="cls-1" d="M15.43,6.38h0V4.52h0V4.32h0L11,0H2.58V6.39l-1.39,1v6.74H2.58V18H15.42V14.18h1.39V7.4ZM3.58,1h6.81V4.93h4V7.4H3.58V1Zm7.5,7.38L9.25,13.17h-1L6.48,8.38H7.65l1.12,3.16L9.92,8.38h1.15Zm-7.7,4.5V11.58l0.41,0.35a1.36,1.36,0,0,0,.46.24,1.85,1.85,0,0,0,.57.1c0.69,0,.69-0.27.69-0.4a0.32,0.32,0,0,0-.06-0.19,0.7,0.7,0,0,0-.21-0.19,6.87,6.87,0,0,0-.63-0.33,2.73,2.73,0,0,1-1-.67,1.25,1.25,0,0,1-.26-0.78,1.22,1.22,0,0,1,.55-1A2.17,2.17,0,0,1,5.2,8.3a2.49,2.49,0,0,1,1.09.18L6.42,8.55h0v1.2L6,9.51a1.55,1.55,0,0,0-.88-0.23,1,1,0,0,0-.53.12,0.28,0.28,0,0,0-.15.26,0.31,0.31,0,0,0,.1.25,3.27,3.27,0,0,0,.71.41,3,3,0,0,1,1,.67,1.26,1.26,0,0,1,.32.84,1.23,1.23,0,0,1-.53,1.06,2.26,2.26,0,0,1-1.33.35,3.33,3.33,0,0,1-.67-0.08A1.74,1.74,0,0,1,3.49,13Zm11,4.12H3.58V14.18H14.42V17Zm0.29-4.23-0.13.07a3.35,3.35,0,0,1-1.63.4,2.28,2.28,0,0,1-2.4-2.41A2.44,2.44,0,0,1,11.28,9a2.54,2.54,0,0,1,1.85-.72,3.28,3.28,0,0,1,1.33.24l0.15,0.07V9.81l-0.38-.23a2.16,2.16,0,0,0-1.14-.29,1.35,1.35,0,0,0-1,.41,1.49,1.49,0,0,0-.4,1.1A1.52,1.52,0,0,0,12,11.89a1.3,1.3,0,0,0,1,.37,1.73,1.73,0,0,0,.62-0.1V11.39h-1v-1h2v2.36Z"/>
</svg>
