<svg id="图层_1" data-name="图层 1" xmlns="http://www.w3.org/2000/svg" width="18" height="18" viewBox="0 0 18 18">
  <defs>
    <style>
      .cls-1, .cls-2 {
        fill: #fff;
      }

      .cls-1 {
        fill-rule: evenodd;
      }
    </style>
  </defs>
  <title>0</title>
  <path class="cls-1" d="M17.32,2.91H2.92V17.31a0.68,0.68,0,0,0,.68.68H17.32A0.68,0.68,0,0,0,18,17.31V3.6A0.68,0.68,0,0,0,17.32,2.91Zm-9.87,3A1.51,1.51,0,1,1,5.94,7.44,1.51,1.51,0,0,1,7.45,5.93ZM16.8,16.79H4.12L7.45,12l2.26,3.39L15,7.44l1.82,2.95v6.4Z"/>
  <path class="cls-2" d="M15.08,4V0.68A0.68,0.68,0,0,0,14.4,0H0.69A0.68,0.68,0,0,0,0,.68V14.39a0.68,0.68,0,0,0,.68.68h3m0.39-1.2H1.21V1.2H13.88v3"/>
</svg>
