<svg id="图层_1" data-name="图层 1" xmlns="http://www.w3.org/2000/svg" width="18" height="18" viewBox="0 0 18 18">
  <defs>
    <style>
      .cls-1 {
        fill: #fff;
      }
    </style>
  </defs>
  <title>0</title>
  <g>
    <path class="cls-1" d="M8.65,9.41a3.21,3.21,0,0,0-.49,2.82c0.46,1.75,2.1,2.67,3.9,2.91a6.18,6.18,0,0,0,1.67,0,2.72,2.72,0,0,1,1.42,0c0.15,0.06,1.21.86,1.21,0.43a5.3,5.3,0,0,1-.29-1,3.07,3.07,0,0,1,.9-0.9,3.56,3.56,0,0,0,.95-2.37C17.92,7,10.87,6.52,8.65,9.41ZM11.17,11a0.74,0.74,0,1,1,0-1.47A0.74,0.74,0,1,1,11.17,11Zm3.73,0a0.74,0.74,0,1,1,0-1.47A0.74,0.74,0,1,1,14.91,11Z"/>
    <path class="cls-1" d="M8.14,9.15c1.19-1.55,3.63-2.22,5.84-2a4.11,4.11,0,0,0-.86-2.4C10,0.75,0,1.45,0,7.33a4.9,4.9,0,0,0,1.34,3.3c0.34,0.36,1.18.78,1.27,1.26s-0.41,1-.41,1.45,1.5-.52,1.71-0.6a3.91,3.91,0,0,1,2,.06,8.05,8.05,0,0,0,1.85,0,3.81,3.81,0,0,1-.18-0.5A3.58,3.58,0,0,1,8.14,9.15ZM9.56,4.92A1,1,0,1,1,9.56,7,1,1,0,1,1,9.56,4.92ZM4.27,7a1,1,0,1,1,0-2.05A1,1,0,1,1,4.27,7Z"/>
  </g>
</svg>
