<svg id="图层_1" data-name="图层 1" xmlns="http://www.w3.org/2000/svg" width="18" height="18" viewBox="0 0 18 18">
  <defs>
    <style>
      .cls-1 {
        fill: #fff;
      }
    </style>
  </defs>
  <title>0</title>
  <path class="cls-1" d="M9.71,12.24L7.63,10.16l0,0a14.61,14.61,0,0,0,3-5.42h2.4V3H7.36V1.39H5.73V3H0V4.7H9.14A13.09,13.09,0,0,1,6.55,9.15,13,13,0,0,1,4.66,6.37H3a14.61,14.61,0,0,0,2.44,3.79L1.29,14.33l1.16,1.18,4.09-4.15,2.54,2.58ZM14.32,8H12.68L9,18h1.64l0.92-2.49h3.89L16.36,18H18Zm-2.14,5.81,1.33-3.6,1.33,3.6H12.17Z"/>
</svg>
