<svg id="图层_1" data-name="图层 1" xmlns="http://www.w3.org/2000/svg" width="18" height="18" viewBox="0 0 18 18">
  <defs>
    <style>
      .cls-1 {
        fill: #b5b5b5;
      }
    </style>
  </defs>
  <title>通讯接口</title>
  <g>
    <circle class="cls-1" cx="9.02" cy="9.01" r="2.3"/>
    <path class="cls-1" d="M5.73,4.74a0.68,0.68,0,0,0-1,0,6.07,6.07,0,0,0,0,8.54,0.69,0.69,0,1,0,1-1,4.65,4.65,0,0,1,0-6.57A0.71,0.71,0,0,0,5.73,4.74Z"/>
    <path class="cls-1" d="M13.29,4.74a0.68,0.68,0,0,0-1,0,0.68,0.68,0,0,0,0,1,4.65,4.65,0,0,1,0,6.57,0.69,0.69,0,0,0,1,1A6.07,6.07,0,0,0,13.29,4.74Z"/>
    <path class="cls-1" d="M15.38,2.65a0.68,0.68,0,0,0-1,0h0a0.69,0.69,0,0,0-.21.49,0.7,0.7,0,0,0,.21.49A7.51,7.51,0,0,1,16.62,9a7.59,7.59,0,0,1-2.23,5.42,0.68,0.68,0,0,0,0,1,0.7,0.7,0,0,0,1,0A9,9,0,0,0,15.38,2.65Z"/>
    <path class="cls-1" d="M1.38,9A7.61,7.61,0,0,1,3.61,3.6a0.7,0.7,0,1,0-1-1,9.05,9.05,0,0,0,0,12.75,0.7,0.7,0,0,0,1,0,0.68,0.68,0,0,0,0-1A7.52,7.52,0,0,1,1.38,9Z"/>
  </g>
</svg>
