<svg id="图层_1" data-name="图层 1" xmlns="http://www.w3.org/2000/svg" width="18" height="18" viewBox="0 0 18 18">
  <defs>
    <style>
      .cls-1 {
        fill: #fff;
      }
    </style>
  </defs>
  <title>容器</title>
  <g>
    <path class="cls-1" d="M13.82,3.63H4.18a0.49,0.49,0,0,0-.36.16L0.14,7.71A0.52,0.52,0,0,0,0,8.07v6.77a0.8,0.8,0,0,0,.81.79H17.19A0.8,0.8,0,0,0,18,14.83V8.07a0.52,0.52,0,0,0-.14-0.36L14.18,3.78A0.49,0.49,0,0,0,13.82,3.63Zm-9.33.71h9a0.49,0.49,0,0,1,.36.16L17,7.86H11.91a0.42,0.42,0,0,0-.42.36,2.54,2.54,0,0,1-5,0,0.42,0.42,0,0,0-.42-0.36H1L4.13,4.49A0.49,0.49,0,0,1,4.49,4.33Z"/>
    <rect class="cls-1" x="1.84" y="3.42" width="1" height="5.34" transform="translate(4.79 0.04) rotate(43.08)"/>
    <rect class="cls-1" x="15.09" y="3.44" width="1" height="5.14" transform="translate(31.09 -0.24) rotate(136.92)"/>
    <rect class="cls-1" x="8.48" y="-0.65" width="1" height="9.55" transform="translate(13.1 -4.85) rotate(90)"/>
  </g>
</svg>
