<svg id="图层_1" data-name="图层 1" xmlns="http://www.w3.org/2000/svg" width="18" height="18" viewBox="0 0 18 18">
  <defs>
    <style>
      .cls-1 {
        fill: #fff;
      }
    </style>
  </defs>
  <title>0</title>
  <g>
    <path class="cls-1" d="M9,15.84c-6.48,0-6.5-2.42-6.5-2.42v2S2.5,18,9,18s6.52-2.58,6.52-2.58v-2S15.48,15.84,9,15.84Z"/>
    <path class="cls-1" d="M15.5,2.41C15.46,1.08,12.57,0,9,0S2.55,1.08,2.51,2.41V3.9S2.5,6.52,9,6.52,15.5,3.94,15.5,3.94V2.41ZM9,3.58C6.17,3.58,3.88,3,3.88,2.19S6.17,0.79,9,.79s5.13,0.62,5.13,1.39S11.84,3.58,9,3.58Z"/>
    <path class="cls-1" d="M9,7.54c-6.48,0-6.5-2.42-6.5-2.42V12.2s0,2.62,6.48,2.62,6.52-2.58,6.52-2.58V5.12S15.48,7.54,9,7.54ZM8.44,13.42a2.3,2.3,0,0,1-1.4.43,3.79,3.79,0,0,1-.75-0.08,4.37,4.37,0,0,1-1.47-.5l-0.09-.05V7.78L5,7.85c0.48,0.15,1,.27,1.44.37A3.69,3.69,0,0,1,8.46,9.37a3.1,3.1,0,0,1,.84,2.15A2.2,2.2,0,0,1,8.44,13.42ZM13,13a2.33,2.33,0,0,1-1.32.81A10.91,10.91,0,0,1,10.1,14H9.91v-0.2c0-1.48,0-3.05,0-5.25V8.41h0.17a12.08,12.08,0,0,0,1.49-.19,1.8,1.8,0,0,1,1.2.11,0.93,0.93,0,0,1,.5.9,2,2,0,0,1-.26,1,2.34,2.34,0,0,1-.3.43,0.85,0.85,0,0,1,.81,1A2.17,2.17,0,0,1,13,13Z"/>
    <path class="cls-1" d="M6.3,9.22L5.75,9.07c0,1.16,0,2.32,0,3.61l0.62,0.17a1.59,1.59,0,0,0,1.39-.16,1.41,1.41,0,0,0,.48-1.22A2.11,2.11,0,0,0,7.71,10,2.71,2.71,0,0,0,6.3,9.22Z"/>
    <path class="cls-1" d="M12.36,11.57a1.16,1.16,0,0,0-.86,0L11,11.72c0,0.46,0,.9,0,1.32l0.57-.11a1.31,1.31,0,0,0,.71-0.4h0a0.94,0.94,0,0,0,.24-0.63A0.36,0.36,0,0,0,12.36,11.57Z"/>
    <path class="cls-1" d="M11.33,10.69a1.18,1.18,0,0,0,.65-0.4,1,1,0,0,0,.23-0.66,0.4,0.4,0,0,0-.11-0.32,0.85,0.85,0,0,0-.65,0h0l-0.52.09c0,0.49,0,1,0,1.4Z"/>
  </g>
</svg>
