<svg id="图层_1" data-name="图层 1" xmlns="http://www.w3.org/2000/svg" width="18" height="18" viewBox="0 0 18 18">
  <defs>
    <style>
      .cls-1 {
        fill: #fff;
      }
    </style>
  </defs>
  <title>dom</title>
  <g>
    <path class="cls-1" d="M5.23,16.29H3.48a0.41,0.41,0,0,0,0,.81h11a0.41,0.41,0,0,0,0-.81H12.77V14.84H5.23v1.45Z"/>
    <path class="cls-1" d="M17.59,1.89H0.41A0.4,0.4,0,0,0,0,2.3V13.62A0.4,0.4,0,0,0,.41,14H17.59A0.4,0.4,0,0,0,18,13.62V2.3A0.4,0.4,0,0,0,17.59,1.89ZM6.75,10.34a0.56,0.56,0,0,1,0,.83,0.6,0.6,0,0,1-.83,0L3.16,8.34a0.56,0.56,0,0,1,0-.83L5.92,4.75a0.59,0.59,0,1,1,.83.83L4.41,7.92ZM10.67,4.5L8.42,11.76a0.63,0.63,0,0,1-.58.42H7.67a0.6,0.6,0,0,1-.42-0.75L9.5,4.17a0.6,0.6,0,0,1,.75-0.42A0.68,0.68,0,0,1,10.67,4.5Zm4.17,3.84-2.75,2.75a0.6,0.6,0,0,1-.83,0,0.56,0.56,0,0,1,0-.83l2.33-2.33L11.25,5.59a0.59,0.59,0,0,1,.83-0.83l2.75,2.75A0.56,0.56,0,0,1,14.84,8.34Z"/>
  </g>
</svg>
