<svg id="图层_1" data-name="图层 1" xmlns="http://www.w3.org/2000/svg" width="18" height="18" viewBox="0 0 18 18">
  <defs>
    <style>
      .cls-1 {
        fill: #fff;
      }
    </style>
  </defs>
  <title>0</title>
  <path class="cls-1" d="M15.38,18H2.63A2.63,2.63,0,0,1,0,15.38V2.63A2.63,2.63,0,0,1,2.63,0h8.1a0.8,0.8,0,1,1,0,1.6H2.63a1,1,0,0,0-1,1V15.38a1,1,0,0,0,1,1H15.38a1,1,0,0,0,1-1V7.28a0.8,0.8,0,0,1,1.6,0v8.1A2.63,2.63,0,0,1,15.38,18Z"/>
  <path class="cls-1" d="M17.74,3.06L16.42,4.38a0.4,0.4,0,0,1-.56,0L13.63,2.15a0.4,0.4,0,0,1,0-.56l1.32-1.32a0.89,0.89,0,0,1,1.26,0L17.74,1.8A0.9,0.9,0,0,1,17.74,3.06ZM15.38,5.31L9.66,11a0.34,0.34,0,0,1-.56.11L6.87,8.92a0.4,0.4,0,0,1,0-.56l5.72-5.73a0.4,0.4,0,0,1,.56,0l2.23,2.23C15.54,5,15.54,5.27,15.38,5.31Zm-7,6.76L5.26,13.15l-0.06,0a0.3,0.3,0,0,1-.28-0.08,0.29,0.29,0,0,1-.08-0.28l0-.06L5.95,9.59l0-.06A0.29,0.29,0,0,1,6,9.45a0.3,0.3,0,0,1,.42,0l2.12,2.12a0.3,0.3,0,0,1,0,.42L8.48,12Z"/>
</svg>
