<svg id="图层_1" data-name="图层 1" xmlns="http://www.w3.org/2000/svg" width="18" height="18" viewBox="0 0 18 18">
  <defs>
    <style>
      .cls-1, .cls-2 {
        fill: #fff;
      }

      .cls-2 {
        stroke: #b5b5b5;
        stroke-miterlimit: 10;
        stroke-width: 0.25px;
      }
    </style>
  </defs>
  <title>组件</title>
  <g>
    <polygon class="cls-1" points="0.63 17.38 5.65 17.38 5.65 12.35 0.63 12.36 0.63 17.38"/>
    <polygon class="cls-1" points="8.61 11.52 8.61 6.48 3.58 6.48 3.58 11.52 7.54 11.52 8.61 11.52"/>
    <polygon class="cls-1" points="11.54 5.65 11.54 0.63 6.52 0.63 6.52 5.65 10.48 5.65 11.54 5.65"/>
    <polygon class="cls-1" points="12.35 17.38 17.38 17.38 17.38 12.35 12.35 12.36 12.35 17.38"/>
    <polygon class="cls-1" points="14.47 11.52 14.47 6.48 9.45 6.48 9.45 11.52 13.39 11.52 14.47 11.52"/>
    <polygon class="cls-1" points="6.48 17.38 11.52 17.38 11.52 12.35 6.48 12.36 6.48 17.38"/>
    <rect class="cls-2" x="4.58" y="11.38" width="0.51" height="1.27"/>
    <rect class="cls-2" x="7.08" y="11.38" width="0.51" height="1.27"/>
    <rect class="cls-2" x="10.43" y="11.38" width="0.51" height="1.29"/>
    <rect class="cls-2" x="12.92" y="11.38" width="0.51" height="1.29"/>
    <rect class="cls-2" x="7.51" y="5.39" width="0.51" height="1.29"/>
    <rect class="cls-2" x="10" y="5.39" width="0.51" height="1.29"/>
  </g>
</svg>
