<svg id="icon-opacity" data-name="图层 1" xmlns="http://www.w3.org/2000/svg" width="16" height="20.01" viewBox="0 0 16 20.01">
  <defs>
    <style>
      .cls-1 {
        fill: #fff;
        fill-rule: evenodd;
      }
    </style>
  </defs>
  <title>icon－00</title>
  <path class="cls-1" d="M15.17,12.92h0l-3.6-2a1.72,1.72,0,0,0-1-.3,1.69,1.69,0,0,0-1.29.58V7A1.63,1.63,0,0,0,7.65,5.41,1.63,1.63,0,0,0,6,7v8.28l-0.59-.56a3.49,3.49,0,0,0-4.14-.44h0l-0.11.08a0.55,0.55,0,0,0,0,.81L6.27,20h8.59A4.89,4.89,0,0,0,16,16.87V14.28A1.55,1.55,0,0,0,15.17,12.92ZM5,14v-2.6A4.79,4.79,0,0,1,2.51,7.2,5,5,0,0,1,7.63,2.36,5,5,0,0,1,12.76,7.2a4.62,4.62,0,0,1-.91,2.74,2.37,2.37,0,0,1,.87.36L14.08,11A6.86,6.86,0,0,0,15.27,7.2,7.43,7.43,0,0,0,7.63,0,7.43,7.43,0,0,0,0,7.2,7.23,7.23,0,0,0,5,14Z"/>
</svg>
