<svg id="图层_1" data-name="图层 1" xmlns="http://www.w3.org/2000/svg" width="18" height="18" viewBox="0 0 18 18">
  <defs>
    <style>
      .cls-1 {
        fill: #fff;
        fill-rule: evenodd;
      }
    </style>
  </defs>
  <title>page container</title>
  <g>
    <path class="cls-1" d="M4.62,14.68a0.87,0.87,0,0,0,.86.86H15a0.87,0.87,0,0,0,.86-0.86V4.45L11.39,0H5.49a0.87,0.87,0,0,0-.86.86V14.68ZM10.83,5V0.93L14.91,5H10.83Z"/>
    <path class="cls-1" d="M3.62,15.68V2.47H3a0.87,0.87,0,0,0-.86.86V17.15A0.87,0.87,0,0,0,3,18h9.5a0.87,0.87,0,0,0,.86-0.86v-0.6H4.49A0.87,0.87,0,0,1,3.62,15.68Z"/>
  </g>
</svg>
