<svg id="图层_1" data-name="图层 1" xmlns="http://www.w3.org/2000/svg" width="18" height="18" viewBox="0 0 18 18">
  <defs>
    <style>
      .cls-1 {
        fill: #fff;
      }
    </style>
  </defs>
  <title>0</title>
  <g>
    <path class="cls-1" d="M11.88,15.93a1.24,1.24,0,0,1-.9-1.44V14.31H7v0.18a1.24,1.24,0,0,1-.9,1.44c-0.17,0-.18.36,0,0.36h5.76C12.06,16.29,12.06,16,11.88,15.93Z"/>
    <path class="cls-1" d="M18,2.13a0.45,0.45,0,0,0-.45-0.42H0.45A0.45,0.45,0,0,0,0,2.13V13.68a0.45,0.45,0,0,0,.45.45h17.1A0.45,0.45,0,0,0,18,13.68V2.13ZM9,13.49a0.54,0.54,0,1,1,.54-0.54A0.54,0.54,0,0,1,9,13.49ZM17,12H1V2.71H17V12Z"/>
  </g>
</svg>
