<svg id="图层_1" data-name="图层 1" xmlns="http://www.w3.org/2000/svg" width="18" height="18" viewBox="0 0 18 18">
  <defs>
    <style>
      .cls-1 {
        fill: #b5b5b5;
      }
    </style>
  </defs>
  <title>223</title>
  <g>
    <path class="cls-1" d="M15.43,6.38h0V4.52h0V4.32h0L11,0H2.57V6.39l-1.39,1v6.74H2.57V18H15.42V14.18h1.39V7.4ZM3.57,1h6.81V4.93h4V7.4H3.57V1ZM9.1,11.7a0.75,0.75,0,0,0-.22-0.2,7.32,7.32,0,0,0-.66-0.34,2.85,2.85,0,0,1-1-.7,1.3,1.3,0,0,1-.27-0.81A1.27,1.27,0,0,1,7.5,8.56a2.25,2.25,0,0,1,1.32-.37A2.59,2.59,0,0,1,10,8.38l0.14,0.07V9.7L9.7,9.44A1.64,1.64,0,0,0,8.78,9.2a1,1,0,0,0-.56.13,0.29,0.29,0,0,0-.15.27,0.32,0.32,0,0,0,.11.26,3.42,3.42,0,0,0,.75.42A3,3,0,0,1,10,11a1.3,1.3,0,0,1,.33.87A1.28,1.28,0,0,1,9.74,13a2.36,2.36,0,0,1-1.38.36,3.54,3.54,0,0,1-.69-0.08A1.8,1.8,0,0,1,7,13L6.93,13V11.62L7.34,12a1.46,1.46,0,0,0,.49.25,2,2,0,0,0,.6.1c0.73,0,.73-0.28.73-0.42A0.33,0.33,0,0,0,9.1,11.7ZM3.38,8.27H5a2,2,0,0,1,1.33.41,1.48,1.48,0,0,1,.5,1.19,1.58,1.58,0,0,1-.58,1.26,2,2,0,0,1-1.39.44H4.48v1.68H3.38v-5Zm11,8.73H3.57V14.18H14.42V17ZM14.2,12.56a2.86,2.86,0,0,1-2,.69H10.7v-5h1.58a2.88,2.88,0,0,1,1.92.65A2.22,2.22,0,0,1,15,10.7,2.38,2.38,0,0,1,14.2,12.56Z"/>
    <path class="cls-1" d="M12.25,9.28H11.8v3h0.43a1.69,1.69,0,0,0,1.21-.4,1.45,1.45,0,0,0,.42-1.12,1.3,1.3,0,0,0-.42-1.07A1.81,1.81,0,0,0,12.25,9.28Z"/>
    <path class="cls-1" d="M5.46,10.38a0.6,0.6,0,0,0,.2-0.49c0-.3-0.1-0.62-0.81-0.62H4.48v1.29H4.79A1,1,0,0,0,5.46,10.38Z"/>
  </g>
</svg>
