<svg id="图层_1" data-name="图层 1" xmlns="http://www.w3.org/2000/svg" width="18" height="18" viewBox="0 0 18 18">
  <defs>
    <style>
      .cls-1 {
        fill: #fff;
      }
    </style>
  </defs>
  <title>0</title>
  <path class="cls-1" d="M9.57,0.43V8.37H17.5V1.11A0.68,0.68,0,0,0,16.82.43H9.57Zm6.8,6.8H10.7V1.57h5.67V7.23ZM3,15H6V12H3v3ZM1.18,17.43H8.44V9.5H0.5v7.25A0.68,0.68,0,0,0,1.18,17.43Zm0.45-6.8H7.3V16.3H1.64V10.63ZM12.4,9.5H9.57V12H12.4V9.5Zm1.13,1.13H15V12H13.54v2.27H12V12.71h-1.7v1.51h0.94v1.7H9.57v1.51h4V15.92H16v-1.7H15V12.71H17.5V9.5h-4v1.13ZM0.5,8.37H8.44V0.43H1.18a0.68,0.68,0,0,0-.68.68V8.37Zm1.13-6.8H7.3V7.23H1.64V1.57ZM17.5,16.75V15.92H16v1.51h0.83A0.68,0.68,0,0,0,17.5,16.75ZM3,5.91H6v-3H3v3ZM15,2.89H12v3h3v-3Z"/>
</svg>
