<svg id="图层_1" data-name="图层 1" xmlns="http://www.w3.org/2000/svg" width="18" height="18" viewBox="0 0 18 18">
  <defs>
    <style>
      .cls-1 {
        fill: #fff;
      }
    </style>
  </defs>
  <title>共享数据库</title>
  <g>
    <path class="cls-1" d="M9,0C5.44,0,2.54,1.08,2.5,2.41V3.58C2.5,5,5.41,6.11,9,6.11S15.5,5,15.5,3.58V2.41C15.46,1.08,12.56,0,9,0ZM9,3.58C6.17,3.58,3.87,3,3.87,2.19S6.17,0.79,9,.79s5.13,0.62,5.13,1.39S11.83,3.58,9,3.58Z"/>
    <path class="cls-1" d="M9,7.19c-3.59,0-6.5-1-6.5-2.39v7.54c0,1.4,2.91,2.53,6.5,2.53s6.5-1.13,6.5-2.53V4.8C15.5,6.2,12.59,7.19,9,7.19ZM11.5,14A14.46,14.46,0,0,1,9,14.2,13.9,13.9,0,0,1,6.65,14a2,2,0,0,1-1.9-1.9,1.9,1.9,0,0,1,.79-1.54A2.21,2.21,0,0,1,9.59,8.95a1.37,1.37,0,0,1,2,1.68,1.68,1.68,0,0,1,1.58,1.68A1.81,1.81,0,0,1,11.5,14Z"/>
    <path class="cls-1" d="M9,15.95c-3.59,0-6.5-1.13-6.5-2.53v2S2.5,18,9,18s6.52-2.58,6.52-2.58v-2C15.5,14.82,12.59,15.95,9,15.95Z"/>
  </g>
</svg>
