<svg id="图层_1" data-name="图层 1" xmlns="http://www.w3.org/2000/svg" width="18" height="18" viewBox="0 0 18 18">
  <defs>
    <style>
      .cls-1 {
        fill: #fff;
        fill-rule: evenodd;
      }
    </style>
  </defs>
  <title>0</title>
  <path class="cls-1" d="M14.45,11.2h0L11.24,9.44a1.53,1.53,0,0,0-.86-0.26,1.51,1.51,0,0,0-1.15.52V5.91a1.49,1.49,0,0,0-3,0v7.38l-0.53-.5A3.11,3.11,0,0,0,2,12.4H2L2,12.48a0.49,0.49,0,0,0,0,.72L6.52,17.5h7.65a4.36,4.36,0,0,0,1-2.79V12.41A1.38,1.38,0,0,0,14.45,11.2Z"/>
  <path class="cls-1" d="M14.49,5.63l-0.77.71L17,6.93,16.69,3.58l-0.77.71c-7-7.92-13.37-1-13.37-1C9.73-.71,14.49,5.63,14.49,5.63Z"/>
</svg>
