<svg id="图层_1" data-name="图层 1" xmlns="http://www.w3.org/2000/svg" width="18" height="18" viewBox="0 0 18 18">
  <defs>
    <style>
      .cls-1 {
        fill: #fff;
      }
    </style>
  </defs>
  <title>表格示图</title>
  <g>
    <path class="cls-1" d="M9.71,5.44H17V2a1,1,0,0,0-1-1H9.71V5.44Z"/>
    <path class="cls-1" d="M1,5.44H8.29V1H2.05A1,1,0,0,0,1,2V5.44Z"/>
    <polygon class="cls-1" points="1 11.22 8.29 11.22 8.29 6.78 1 6.78 1 11.22"/>
    <polygon class="cls-1" points="9.71 11.22 17 11.22 17 6.78 9.71 6.78 9.71 11.22"/>
    <path class="cls-1" d="M17,15.93V12.56H9.71V17H16A1,1,0,0,0,17,15.93Z"/>
    <path class="cls-1" d="M2.05,17H8.29V12.56H1v3.38A1.06,1.06,0,0,0,2.05,17Z"/>
  </g>
</svg>
