<svg id="icon-timer" data-name="图层 1" xmlns="http://www.w3.org/2000/svg" width="19" height="19" viewBox="0 0 19 19">
  <defs>
    <style>
      .cls-1 {
        fill: #fff;
        fill-rule: evenodd;
      }
    </style>
  </defs>
  <title>icon－00</title>
  <path class="cls-1" d="M15.88,4.08l1.68,1.68L19,4.32A11.9,11.9,0,0,0,14.68,0L13.24,1.44l1.68,1.68h0l-0.36.36a8.83,8.83,0,1,0,1,1Zm-0.35,6.13A6.71,6.71,0,1,1,8.83,3.5,6.71,6.71,0,0,1,15.53,10.21Zm-2.87-.53H9.35V6.37a0.53,0.53,0,0,0-1.06,0v4.36h4.36A0.53,0.53,0,0,0,12.66,9.68Z"/>
</svg>
