<svg id="图层_1" data-name="图层 1" xmlns="http://www.w3.org/2000/svg" width="18" height="18" viewBox="0 0 18 18">
  <defs>
    <style>
      .cls-1 {
        fill: #fff;
      }
    </style>
  </defs>
  <title>0</title>
  <g>
    <path class="cls-1" d="M7,2.4H0.6a0.6,0.6,0,0,0,0,1.2H7A3.38,3.38,0,0,1,6.92,3,3.38,3.38,0,0,1,7,2.4Z"/>
    <path class="cls-1" d="M17.4,2.4H13.66a3.38,3.38,0,0,1,.06.6,3.38,3.38,0,0,1-.06.6H17.4A0.6,0.6,0,0,0,17.4,2.4Z"/>
    <path class="cls-1" d="M10.32,0.3A2.7,2.7,0,0,0,7.69,2.4h5.26A2.7,2.7,0,0,0,10.32.3Z"/>
    <path class="cls-1" d="M10.32,5.7a2.7,2.7,0,0,0,2.63-2.1H7.69A2.7,2.7,0,0,0,10.32,5.7Z"/>
    <path class="cls-1" d="M7.62,3a2.69,2.69,0,0,0,.07.6h5.26A2.69,2.69,0,0,0,13,3a2.69,2.69,0,0,0-.07-0.6H7.69A2.69,2.69,0,0,0,7.62,3Z"/>
    <path class="cls-1" d="M17.4,14.4H16.65a3,3,0,0,1,0,1.2H17.4A0.6,0.6,0,0,0,17.4,14.4Z"/>
    <path class="cls-1" d="M10,14.4H0.6a0.6,0.6,0,0,0,0,1.2H10A3,3,0,0,1,10,14.4Z"/>
    <path class="cls-1" d="M13.32,12.3a2.7,2.7,0,0,0-2.63,2.1h5.26A2.7,2.7,0,0,0,13.32,12.3Z"/>
    <path class="cls-1" d="M13.32,17.7a2.7,2.7,0,0,0,2.63-2.1H10.69A2.7,2.7,0,0,0,13.32,17.7Z"/>
    <path class="cls-1" d="M10.62,15a2.69,2.69,0,0,0,.07.6h5.26a2.53,2.53,0,0,0,0-1.2H10.69A2.69,2.69,0,0,0,10.62,15Z"/>
    <path class="cls-1" d="M17.4,8.4H8A3,3,0,0,1,8,9.6H17.4A0.6,0.6,0,0,0,17.4,8.4Z"/>
    <path class="cls-1" d="M1.33,8.4H0.6a0.6,0.6,0,0,0,0,1.2H1.33A3,3,0,0,1,1.33,8.4Z"/>
    <path class="cls-1" d="M4.67,6.3A2.7,2.7,0,0,0,2,8.4H7.3A2.7,2.7,0,0,0,4.67,6.3Z"/>
    <path class="cls-1" d="M4.67,11.7A2.7,2.7,0,0,0,7.3,9.6H2A2.7,2.7,0,0,0,4.67,11.7Z"/>
    <path class="cls-1" d="M2,9A2.69,2.69,0,0,0,2,9.6H7.3a2.53,2.53,0,0,0,0-1.2H2A2.69,2.69,0,0,0,2,9Z"/>
  </g>
</svg>
