<svg id="图层_1" data-name="图层 1" xmlns="http://www.w3.org/2000/svg" width="18" height="18" viewBox="0 0 18 18">
  <defs>
    <style>
      .cls-1 {
        fill: #fff;
      }
    </style>
  </defs>
  <title>轨迹</title>
  <g>
    <path class="cls-1" d="M0.6,3.6H7A3.38,3.38,0,0,1,6.92,3,3.38,3.38,0,0,1,7,2.4H0.6A0.6,0.6,0,0,0,.6,3.6Z"/>
    <path class="cls-1" d="M17.4,3.6a0.6,0.6,0,0,0,0-1.2H13.66a3.38,3.38,0,0,1,.06.6,3.38,3.38,0,0,1-.06.6H17.4Z"/>
    <path class="cls-1" d="M10.32,5.7A2.72,2.72,0,1,0,7.69,3.6,2.7,2.7,0,0,0,10.32,5.7Z"/>
    <path class="cls-1" d="M17.4,14.4H16.65a3,3,0,0,1,0,1.2H17.4A0.6,0.6,0,0,0,17.4,14.4Z"/>
    <path class="cls-1" d="M0.6,14.4a0.6,0.6,0,0,0,0,1.2H10a3,3,0,0,1,0-1.2H0.6Z"/>
    <path class="cls-1" d="M13.32,12.3a2.72,2.72,0,1,0,2.63,2.1A2.7,2.7,0,0,0,13.32,12.3Z"/>
    <path class="cls-1" d="M17.4,8.4H8A3,3,0,0,1,8,9.6H17.4A0.6,0.6,0,0,0,17.4,8.4Z"/>
    <path class="cls-1" d="M0.6,9.6H1.33a3,3,0,0,1,0-1.2H0.6A0.6,0.6,0,0,0,.6,9.6Z"/>
    <path class="cls-1" d="M4.67,6.3A2.72,2.72,0,1,0,7.3,8.4,2.7,2.7,0,0,0,4.67,6.3Z"/>
  </g>
</svg>
