<svg id="图层_1" data-name="图层 1" xmlns="http://www.w3.org/2000/svg" width="18" height="18" viewBox="0 0 18 18">
  <defs>
    <style>
      .cls-1 {
        fill: #fff;
      }
    </style>
  </defs>
  <title>3434</title>
  <path class="cls-1" d="M16.2,1H1.8a0.8,0.8,0,0,0-.8.8V16.2a0.8,0.8,0,0,0,.8.8H16.2a0.8,0.8,0,0,0,.8-0.8V1.8A0.8,0.8,0,0,0,16.2,1ZM15.87,5.89H12.1V2.13h3.77V5.89Zm-8.8,5V7H11v3.92H7.07ZM11,12.07v3.8H7.07v-3.8H11Zm-5-1.13H2.13V7H5.94v3.92Zm1.13-5V2.13H11V5.89H7.07ZM12.1,7h3.77v3.92H12.1V7ZM5.94,2.13V5.89H2.13V2.13H5.94ZM2.13,12.07H5.94v3.8H2.13v-3.8Zm10,3.8v-3.8h3.77v3.8H12.1Z"/>
  <rect class="cls-1" x="2.84" y="2.83" width="2.4" height="2.37"/>
</svg>
