<svg id="图层_1" data-name="图层 1" xmlns="http://www.w3.org/2000/svg" width="18" height="18" viewBox="0 0 18 18">
  <defs>
    <style>
      .cls-1 {
        fill: #fff;
      }
    </style>
  </defs>
  <title>0</title>
  <g>
    <path class="cls-1" d="M11.78,6.58V4.18A1.13,1.13,0,0,0,10.65,3H1.14A1.13,1.13,0,0,0,0,4.18v9.64a1.13,1.13,0,0,0,1.13,1.13h9.51a1.13,1.13,0,0,0,1.13-1.13V11.47h0V6.58h0ZM8.16,9.51L4.61,11.64a0.54,0.54,0,0,1-.81-0.46V6.92a0.54,0.54,0,0,1,.81-0.46L8.16,8.59A0.54,0.54,0,0,1,8.16,9.51Z"/>
    <path class="cls-1" d="M17.51,4.37l-0.1,0L14.13,5.85l-1.21.53a0.38,0.38,0,0,0-.23.35v4.59a0.38,0.38,0,0,0,.22.35l1.21,0.54,3,1.33,0.4,0.18a0.34,0.34,0,0,0,.5-0.23V4.6A0.34,0.34,0,0,0,17.51,4.37Z"/>
  </g>
</svg>
