<svg id="图层_1" data-name="图层 1" xmlns="http://www.w3.org/2000/svg" width="18" height="18" viewBox="0 0 18 18">
  <defs>
    <style>
      .cls-1 {
        fill: #fff;
        fill-rule: evenodd;
      }
    </style>
  </defs>
  <title>物理世界</title>
  <path class="cls-1" d="M17.7,3.32a1.85,1.85,0,0,0-.53-0.53,2.21,2.21,0,0,0-.61-1.49C15.13-.14,12,1,9,3.15A17.78,17.78,0,0,0,6.06,1.34c-2.06-1-3.69-1-4.58-.19s-0.86,2.47.09,4.53A17.49,17.49,0,0,0,3.35,8.63a19.11,19.11,0,0,0-1.53,2.32,1.86,1.86,0,0,0-1,.29,1.81,1.81,0,0,0-.13,3A2.34,2.34,0,0,0,1.32,16a2.36,2.36,0,0,0,1.75.65c1.59,0,3.72-1,5.81-2.49A20,20,0,0,0,11,15.57a1.82,1.82,0,0,0,.3,1,1.88,1.88,0,0,0,2.58.53,1.84,1.84,0,0,0,.4-0.36l0.47,0a2.33,2.33,0,0,0,1.69-.61c0.89-.86.86-2.47-0.09-4.53a17.49,17.49,0,0,0-1.77-2.95,18.63,18.63,0,0,0,1.66-2.56,1.86,1.86,0,0,0,1-.29A1.83,1.83,0,0,0,17.7,3.32ZM2.17,15.23a1,1,0,0,1-.26-0.61,1.86,1.86,0,0,0,1-.3,1.82,1.82,0,0,0,.09-3,18,18,0,0,1,1.1-1.68,4.93,4.93,0,0,0,3.8,3.85C5.2,15.3,2.9,16,2.17,15.23ZM4.1,7.64A15.88,15.88,0,0,1,2.66,5.19C2,3.66,1.82,2.46,2.31,2a1.21,1.21,0,0,1,.86-0.27,6,6,0,0,1,2.37.68A16.09,16.09,0,0,1,8,3.87,4.93,4.93,0,0,0,4.1,7.64Zm11.13,4.53c0.71,1.53.83,2.73,0.34,3.21a1.22,1.22,0,0,1-.88.28,1.82,1.82,0,0,0-.3-1.05,1.88,1.88,0,0,0-2.58-.53,1.84,1.84,0,0,0-.42.39c-0.47-.28-1-0.6-1.48-1a4.93,4.93,0,0,0,3.89-3.77A15.86,15.86,0,0,1,15.23,12.17ZM15.11,2.79a1.82,1.82,0,0,0-.08,3,17.25,17.25,0,0,1-1.23,1.92A4.93,4.93,0,0,0,10,3.89c2.68-1.83,5-2.5,5.71-1.76a0.92,0.92,0,0,1,.21.38A1.86,1.86,0,0,0,15.11,2.79Z"/>
</svg>
